<svg xmlns="http://www.w3.org/2000/svg" width="57.859" height="16.464" viewBox="0 0 57.859 16.464" style="fill:#FFF">
  <g id="Groupe_27" data-name="Groupe 27" transform="translate(0 0.119)">
    <path id="Tracé_169" data-name="Tracé 169" d="M87.392-.1c.051.1.068.188.1.256q2.564,5.769,5.111,11.555a.377.377,0,0,1,0,.273c-.513,1.026-1.043,2.051-1.573,3.077-.222.41-.427.838-.65,1.282H92.4a.334.334,0,0,0,.342-.205C93.921,13.73,95.1,11.3,96.28,8.892c1.4-2.855,2.786-5.709,4.188-8.546.068-.137.137-.273.205-.427H98.331Q96.1,4.688,93.87,9.474a.819.819,0,0,1-.085-.188c-.41-.974-.838-1.949-1.248-2.923L89.819.055C89.785-.013,89.7-.1,89.631-.1ZM98.451,11.832a.212.212,0,0,1,.051.034h2.171a.259.259,0,0,0,.171-.137c.239-.5.479-.991.7-1.487a.3.3,0,0,1,.325-.205h4.854a1.3,1.3,0,0,0,.239-.017c-.188-.479-.376-.923-.547-1.385a.271.271,0,0,0-.308-.205h-3.47a1.476,1.476,0,0,1-.256-.017l2.7-5.812c.137.308.256.547.376.8l3.846,8.256c.068.137.137.188.273.171.462-.017.923,0,1.4,0h.769c-.12-.239-.222-.462-.325-.667-1.008-2.085-2.034-4.154-3.043-6.239-.8-1.624-1.59-3.265-2.393-4.889a.224.224,0,0,0-.256-.154c-.427.017-.855.017-1.265,0a.227.227,0,0,0-.256.171c-1.47,3.043-2.957,6.068-4.444,9.111C99.305,10.055,98.878,10.944,98.451,11.832Zm-9.076.034c-.034-.085-.068-.137-.085-.188-.923-1.88-1.829-3.76-2.752-5.658-.974-2-1.949-3.983-2.923-5.983A.21.21,0,0,0,83.375-.1c-.41,0-.82.017-1.231,0a.335.335,0,0,0-.359.222l-5.23,10.717c-.171.342-.325.667-.5,1.026a.3.3,0,0,0,.1.017h2.12a.305.305,0,0,0,.205-.154c.239-.479.479-.974.684-1.47a.3.3,0,0,1,.325-.205h5.094c-.205-.5-.393-.94-.564-1.385a.271.271,0,0,0-.308-.205h-3.47a1.476,1.476,0,0,1-.256-.017C80.9,6.5,81.785,4.585,82.674,2.636a1.653,1.653,0,0,0,.12.205c.41.872.82,1.743,1.214,2.615.957,2.068,1.914,4.119,2.872,6.188a.322.322,0,0,0,.342.222c.632-.017,1.265,0,1.88,0ZM65-.1q.128.282.256.513,1.667,3.461,3.35,6.888c.718,1.47,1.436,2.923,2.137,4.393a.271.271,0,0,0,.256.171c.427-.017.855,0,1.3,0a.22.22,0,0,0,.222-.137c.222-.462.444-.906.667-1.367,1.607-3.282,3.2-6.547,4.786-9.828.1-.205.188-.41.308-.632H76.11a.243.243,0,0,0-.256.171c-1.248,2.752-2.5,5.487-3.76,8.239-.154.325-.291.65-.462.991a.926.926,0,0,0-.1-.188c-.393-.855-.786-1.692-1.162-2.547C69.393,4.4,68.4,2.243,67.427.072A.256.256,0,0,0,67.154-.1H65Z" transform="translate(-53.89)" fill="#fff"/>
    <path id="Tracé_170" data-name="Tracé 170" d="M0,11.9c.205-.41.427-.82.632-1.231C1.863,8.153,3.077,5.658,4.307,3.145L5.743.171A.278.278,0,0,1,6.017,0c.427.017.855.017,1.3,0a.242.242,0,0,1,.239.154c1.59,3.248,3.162,6.5,4.752,9.76.325.667.65,1.35.991,2.051H11.145a.251.251,0,0,1-.273-.171l-4.1-8.82c-.034-.068-.068-.12-.12-.239l-2.7,5.812H7.692a.247.247,0,0,1,.273.188c.171.462.359.906.564,1.4H3.436a.3.3,0,0,0-.342.205c-.205.479-.444.94-.65,1.419a.3.3,0,0,1-.342.205H0C0,11.948,0,11.931,0,11.9Z" transform="translate(0 -0.098)"/>
    <path id="Tracé_171" data-name="Tracé 171" d="M196,0h2.222c.068,0,.154.085.188.154l2.718,6.307c.41.974.838,1.949,1.248,2.923.017.051.051.1.085.188,1.5-3.213,2.974-6.376,4.461-9.555h2.342c-.068.154-.137.291-.205.427-1.4,2.855-2.786,5.709-4.188,8.546-1.179,2.41-2.359,4.837-3.538,7.247a.334.334,0,0,1-.342.205c-.6-.017-1.2,0-1.778,0h-.239c.222-.444.444-.855.65-1.282.53-1.026,1.06-2.051,1.573-3.077a.378.378,0,0,0,0-.273C199.487,7.965,197.778,4.1,196.085.256A.639.639,0,0,0,196,0Z" transform="translate(-162.498 -0.098)"/>
    <path id="Tracé_172" data-name="Tracé 172" d="M260.7,11.848c.444-.889.872-1.778,1.3-2.666,1.487-3.043,2.957-6.068,4.444-9.111.068-.12.12-.171.256-.171.427.017.855.017,1.265,0a.231.231,0,0,1,.256.154c.786,1.641,1.59,3.265,2.393,4.889,1.008,2.085,2.034,4.154,3.043,6.239.1.205.205.427.325.667H271.81a.251.251,0,0,1-.273-.171l-3.846-8.256c-.12-.256-.239-.5-.376-.8-.906,1.966-1.795,3.863-2.7,5.812.1,0,.188.017.256.017h3.47a.276.276,0,0,1,.308.205c.171.444.359.906.547,1.385-.1,0-.171.017-.239.017H264.1a.3.3,0,0,0-.325.205c-.222.5-.462.991-.7,1.487-.034.051-.1.137-.171.137h-2.171S260.734,11.865,260.7,11.848Z" transform="translate(-216.139 -0.016)"/>
    <path id="Tracé_173" data-name="Tracé 173" d="M143.264,11.965h-2.1a.327.327,0,0,1-.342-.222c-.957-2.068-1.914-4.119-2.872-6.188-.41-.872-.8-1.743-1.214-2.615-.034-.051-.068-.12-.12-.205-.906,1.949-1.795,3.863-2.684,5.812.1,0,.188.017.256.017h3.47a.276.276,0,0,1,.308.205c.171.462.359.906.564,1.385h-5.094a.3.3,0,0,0-.325.205c-.222.5-.444.974-.684,1.47a.305.305,0,0,1-.205.154c-.7.017-1.4,0-2.12,0a.3.3,0,0,1-.1-.017c.171-.342.325-.684.5-1.026L135.726.222A.335.335,0,0,1,136.085,0q.615.026,1.231,0a.229.229,0,0,1,.239.137c.974,2,1.949,3.983,2.923,5.983.923,1.88,1.829,3.76,2.752,5.658C143.2,11.828,143.23,11.88,143.264,11.965Z" transform="translate(-107.779 -0.098)"/>
    <path id="Tracé_174" data-name="Tracé 174" d="M65-.083h2.154a.245.245,0,0,1,.273.171c.974,2.171,1.966,4.325,2.957,6.478.393.855.769,1.692,1.162,2.547a1.1,1.1,0,0,0,.1.188c.154-.342.308-.667.462-.991,1.248-2.752,2.513-5.487,3.76-8.239A.243.243,0,0,1,76.127-.1c.718.017,1.419,0,2.171,0-.1.222-.205.427-.308.632-1.59,3.282-3.2,6.547-4.786,9.828-.222.462-.444.906-.667,1.367a.207.207,0,0,1-.222.137h-1.3a.227.227,0,0,1-.256-.171c-.718-1.47-1.436-2.94-2.137-4.393C67.478,5.028,66.367,2.737,65.239.447,65.171.276,65.085.122,65-.083Z" transform="translate(-53.89 -0.016)"/>
  </g>
</svg>
