<svg xmlns="http://www.w3.org/2000/svg" viewBox="0 0 656.82 131.35" style="fill: #FFF"><g id="Calque_2" data-name="Calque 2"><g id="Calque_1-2" data-name="Calque 1"><path d="M14.27,75.49A14.41,14.41,0,0,1,28.71,89.67,14.63,14.63,0,0,1,14.27,104a14.27,14.27,0,1,1,0-28.53Z"/><path d="M41.07,102.82V2H62V40.11c3-4.3,10.67-8.21,20.18-8.21,20.18,0,32.38,15.33,32.38,36.09,0,21.19-13.73,36.36-33.25,36.36-9.25,0-16.41-4-19.64-9.35v7.82ZM77.55,51c-8.26,0-15.86,5.44-15.86,17.12,0,11.42,7.55,17.29,15.86,17.29s15.7-5.71,15.7-17.29S85.81,51,77.55,51Z"/><path d="M188.84,82.88a28.45,28.45,0,0,1-5.25,10.21c-5.52,7-14.6,11.8-26.85,11.8-19.2,0-36.32-13.64-36.32-36.9,0-22.29,16.68-36.52,34.79-36.52,21.6,0,34.89,13.26,34.89,35.54a39.4,39.4,0,0,1-.44,6.52H141.15c.44,7.82,7.55,13.37,15.86,13.37,4.81,0,8.31-1.42,10.77-3.81a13.55,13.55,0,0,0,3.28-5.27l17.78,5.06Zm-19.36-23c-.27-5.27-3.94-11.69-14-11.69-9,0-13.45,6.53-13.89,11.69Z"/><path d="M220,68.26c0,11,7.44,17.12,16.25,17.12,8.25,0,12.9-5.17,14.43-10.33l18.82,5.71c-3.07,12.17-14.61,24.13-33.25,24.13-20.73,0-37.41-15.16-37.41-36.63S215,31.47,235.55,31.47c19.2,0,30.41,11.68,33.53,24.07L250,61.25c-1.53-5.27-5.74-10.33-14-10.33-8.86.06-16,6.2-16,17.34Z"/><path d="M348.64,68.15c0,21.47-16.13,36.79-37,36.79-20.73,0-37-15.32-37-36.79s16.24-36.63,37-36.63S348.64,46.69,348.64,68.15Zm-21.28,0c0-11.68-7.54-17.12-15.69-17.12-8,0-15.7,5.44-15.7,17.12s7.71,17.28,15.7,17.28S327.36,79.83,327.36,68.15Z"/><path d="M356.78,102.82V33.59h20.35v7.93c3.5-6.14,12.47-10.05,20.07-10.05,9.95,0,17.12,4,20.62,10.86,5.47-7.82,12.19-10.86,21.6-10.86,13.18,0,25.81,7.66,25.81,26.46v44.84H444.61V62.66c0-6.52-3.5-11.68-11.1-11.68s-11.64,5.7-11.64,11.84v40H400.81V62.72c0-6.53-3.5-11.69-11.21-11.69-7.44,0-11.49,5.71-11.49,12v39.83Z"/><path d="M488,0a12.54,12.54,0,0,1,12.64,12.39,12.5,12.5,0,0,1-25,0A12.52,12.52,0,0,1,488,0ZM477.49,102.82V33.59h21.32v69.23Z"/><path d="M533.17,102.82H511.85V33.59h20.61v7.93c3.78-6.52,12.36-9.73,19.47-9.73,17.5,0,25.38,12.39,25.38,27.61v43.47H556V63c0-6.85-3.66-12-11.37-12-7,0-11.49,5.16-11.49,12.12v39.62Z"/><path d="M603.55,101.41c1.42,6.68,7,11.57,15,11.57,10.66,0,17.23-5.16,17.23-17.71V92.06c-2.52,3.75-8.54,7.83-18.65,7.83-18.49,0-32.38-14.51-32.38-33.7,0-18.26,13.34-33.85,32.38-33.85,11.37,0,17.39,5,19.36,8.64V33.59h20.34V94.18c0,19.95-11.21,37.17-37.3,37.17-20.07,0-32.81-12.28-34.78-24.67l18.81-5.27Zm32.38-35.22c0-9.45-6.89-15.32-14.88-15.32s-15,5.87-15,15.32,6.45,15.33,15,15.33C629.75,81.52,635.93,75.65,635.93,66.19Z"/></g></g></svg>