<svg xmlns="http://www.w3.org/2000/svg" viewBox="0 0 289.72 195.23" style="fill: #FFF"><g id="Calque_2" data-name="Calque 2"><g id="Calque_1-2" data-name="Calque 1"><path d="M144.85,82.58l12.06-17.42.28-.41a17.8,17.8,0,1,0-32.56-9.93c0,.22,0,.44,0,.66h10.77q0-.31,0-.66a7.05,7.05,0,0,1,7-7,6.81,6.81,0,0,1,7.05,7c-.08,1.81-1.66,4.6-2.27,5.47s-22.87,33-22.87,33h30.46l7.44-10.75Z"/><polygon points="172.37 37.02 172.25 37.02 164.81 47.78 174.16 47.78 174.16 93.33 184.91 93.33 184.91 37.02 172.37 37.02"/><path d="M175.8,115.33A54.44,54.44,0,0,1,133.44,15a54.43,54.43,0,0,1,50.93,4.56l6.13-8.83a65.17,65.17,0,1,0,1.29,108l-6.12-8.83a54.71,54.71,0,0,1-9.87,5.44"/><path d="M153.74,181.94a7.14,7.14,0,0,1-14.27,0V163h-6.16v19a13.29,13.29,0,0,0,26.58,0V163h-6.15Z"/><path d="M16.12,195.22a16.06,16.06,0,0,0,10.36-3.77L23,186.35a10,10,0,1,1,0-14.5l3.53-5.1a16.12,16.12,0,1,0-10.36,28.47"/><polygon points="85.57 162.98 85.57 184.65 70.56 162.98 64.41 162.98 64.41 195.22 70.56 195.22 70.56 173.55 85.57 195.22 91.73 195.22 91.73 162.98 85.57 162.98"/><polygon points="99.92 162.98 99.92 169.13 109.44 169.13 109.44 195.22 115.59 195.22 115.59 169.13 125.11 169.13 125.11 162.98 99.92 162.98"/><polygon points="269.75 162.98 269.75 169.13 273.1 169.13 273.1 195.22 279.26 195.22 279.26 162.98 269.75 162.98"/><polygon points="34.7 162.98 34.7 195.22 56.19 195.22 56.19 189.06 40.85 189.06 40.85 182.18 53.17 182.18 53.17 176.02 40.85 176.02 40.85 169.13 56.19 169.13 56.19 162.98 34.7 162.98"/><path d="M174.26,169.13H182a4.67,4.67,0,0,1,0,9.34h-7.76Zm0,15.5h3.93l7.34,10.59h7.32l-7.66-11.07A10.82,10.82,0,0,0,182,163H168.1v32.24h6.16Z"/><polygon points="221.05 162.98 212.02 176.02 203 162.98 195.68 162.98 208.94 182.14 208.94 195.22 215.1 195.22 215.1 182.14 228.37 162.98 221.05 162.98"/><path d="M242.38,195.22h21.15v-6.16h-9.41l6.91-10,.16-.23a10.19,10.19,0,1,0-18.65-5.69c0,.12,0,.25,0,.38h6.17c0-.13,0-.25,0-.38a4,4,0,0,1,4-4,3.91,3.91,0,0,1,4,4,7.94,7.94,0,0,1-1.3,3.13l-13.09,18.92"/><path d="M288.23,189.3a2.83,2.83,0,0,1,1.09,1.08,3.19,3.19,0,0,1,.4,1.6,3.13,3.13,0,0,1-.4,1.59,2.85,2.85,0,0,1-1.09,1.09,3.38,3.38,0,0,1-3.15,0,2.79,2.79,0,0,1-1.09-1.09,3.13,3.13,0,0,1-.4-1.59,3.19,3.19,0,0,1,.4-1.6,2.76,2.76,0,0,1,1.09-1.08,3.38,3.38,0,0,1,3.15,0m-.28,4.9a2.27,2.27,0,0,0,.89-.9,2.69,2.69,0,0,0,.32-1.32,2.75,2.75,0,0,0-.32-1.33,2.4,2.4,0,0,0-.89-.9,2.64,2.64,0,0,0-1.3-.32,2.72,2.72,0,0,0-1.3.32,2.33,2.33,0,0,0-.89.9,2.75,2.75,0,0,0-.32,1.33,2.69,2.69,0,0,0,.32,1.32,2.2,2.2,0,0,0,.89.9,2.62,2.62,0,0,0,1.3.33,2.54,2.54,0,0,0,1.3-.33m-.26-2.24a1,1,0,0,1-.62.32l1,1.33h-.68l-.92-1.3H286v1.3h-.54v-3.28h1.39a1.13,1.13,0,0,1,.79.27.89.89,0,0,1,.3.71,1,1,0,0,1-.22.65m-1.72-.17h.85c.35,0,.53-.16.53-.48a.41.41,0,0,0-.14-.35.57.57,0,0,0-.39-.12H286Z"/></g></g></svg>