<svg xmlns="http://www.w3.org/2000/svg" width="55.56" height="24.463" viewBox="0 0 55.56 24.463" style="fill: #FFF">
  <g id="Groupe_30" data-name="Groupe 30" transform="translate(0 0.003)">
    <path id="Tracé_188" data-name="Tracé 188" d="M137.091,79.651a1.664,1.664,0,0,0,.452,0c.626,0,1.243.01,1.869.01.1,0,.133-.041.1-.134a7.036,7.036,0,0,0-.4-1.1,5.144,5.144,0,0,0-.4-.914,7.943,7.943,0,0,0-.739-1.315,12.387,12.387,0,0,0-1.376,2.855C136.383,79.712,136.383,79.712,137.091,79.651Z" transform="translate(-122.457 -68.377)" fill="#FFF"/>
    <path id="Tracé_189" data-name="Tracé 189" d="M55.529,9.209c-.021-1.048.021-2.1-.062-3.132a1.581,1.581,0,0,0-.7-1.222,6.879,6.879,0,0,0-1.592-.7A66.906,66.906,0,0,0,39.559.839Q36.494.393,33.4.192c-2.29-.144-4.591-.226-6.881-.185-1.7.031-3.4.113-5.094.236C19.687.367,17.962.562,16.247.8c-2.054.288-4.108.657-6.131,1.109a57,57,0,0,0-8.791,2.65A1.8,1.8,0,0,0,.062,6.344C.041,8.131.021,9.928,0,11.479c0,2.054.021,3.872.072,5.7a1.739,1.739,0,0,0,1.191,1.695c.832.329,1.653.657,2.5.965a73.379,73.379,0,0,0,17.4,4.241,58.8,58.8,0,0,0,6.583.38c1.807,0,3.6-.092,5.4-.257,1.838-.164,3.677-.421,5.494-.739a73.9,73.9,0,0,0,8.781-2.136q3.481-1.078,6.871-2.454a1.753,1.753,0,0,0,1.171-1.356,4.7,4.7,0,0,0,.051-.852C55.55,14.19,55.591,11.7,55.529,9.209ZM28.447,7.772c.175-.205.359-.411.534-.616.257-.2.5-.39.76-.585a4.362,4.362,0,0,1,2.146-.575,4.073,4.073,0,0,1,2.763,1.13.277.277,0,0,1,.082.072,4.588,4.588,0,0,1,1.325,3.317,4.387,4.387,0,0,1-2.075,3.79,4.16,4.16,0,0,1-2.331.637c-.072,0-.154-.01-.226-.01a5.12,5.12,0,0,1-1.119-.288,6.047,6.047,0,0,1-1.16-.709,5.382,5.382,0,0,1-1.16-1.592c-.041-.123-.092-.236-.134-.359-.062-.236-.123-.472-.175-.719-.01-.113-.031-.236-.041-.349A4.554,4.554,0,0,1,28.447,7.772Zm-8.514,5.155c.031-.924.021-1.859.01-2.783a8.567,8.567,0,0,0-.01-1.027,4.2,4.2,0,0,0,0-.719,10.936,10.936,0,0,0,0-1.16c0-.267.01-.534.01-.8,0-.1.031-.144.134-.144.431.01.863,0,1.294,0a.377.377,0,0,1,.216.092,12.823,12.823,0,0,1,1,.822c.431.431.863.852,1.294,1.284a19.487,19.487,0,0,1,1.438,1.869V6.529c-.031-.205.062-.236.246-.236.442.01.883.01,1.315,0,.185-.01.257.031.246.236-.01.626,0,1.253,0,1.879,0,.082-.01.164-.01.246V12.4c0,.729.01,1.458.01,2.187-.051.123-.164.041-.236.082a1.98,1.98,0,0,0-.493,0,1.59,1.59,0,0,0-.442,0,.422.422,0,0,0-.226,0h-.134c-.031,0-.051-.01-.082-.01-.051-.113-.092-.226-.144-.339a1.5,1.5,0,0,0-.185-.585,8.491,8.491,0,0,0-.555-1.2,8.078,8.078,0,0,0-.873-1.386c-.144-.2-.277-.4-.431-.585-.092-.113-.154-.267-.318-.318a1.245,1.245,0,0,0-.38-.452,7.11,7.11,0,0,0-.893-.852v5.5c0,.185-.051.236-.236.226-.329-.01-.657,0-.986.01a.778.778,0,0,0-.308,0,.255.255,0,0,0-.175,0h-.072a7.706,7.706,0,0,1-.041-.842A4.567,4.567,0,0,0,19.934,12.927ZM9.017,14.488a7.433,7.433,0,0,1-3.317.431,8.286,8.286,0,0,1-1.13-.144c-.123-.021-.154-.072-.144-.2.1-1.859.092-3.728.082-5.587A19.211,19.211,0,0,0,4.4,6.334c-.021-.134.062-.123.144-.134a14.438,14.438,0,0,1,2.208-.175,6.853,6.853,0,0,1,3,.575,3.426,3.426,0,0,1,2,2.6,5.05,5.05,0,0,1-.39,3.245A4.17,4.17,0,0,1,9.017,14.488Zm2.537-.175a19.063,19.063,0,0,1,.719-3.564,12.815,12.815,0,0,1,1.951-3.933,1.029,1.029,0,0,1,1.058-.534,4.737,4.737,0,0,0,.935.01.416.416,0,0,1,.38.164,9.6,9.6,0,0,1,1.212,1.787c.041.072.082.134.123.205.021.041.031.082.051.123a17.213,17.213,0,0,1,1.582,5.874c.021.185-.031.216-.2.205-.39-.01-.77.01-1.16.01a.255.255,0,0,0-.175,0H17.9c-.164.01-.226-.062-.226-.236a2.88,2.88,0,0,0-.082-.657c.031-.082-.051-.144-.051-.226a.255.255,0,0,0,0-.175c-.01-.041-.01-.092-.021-.134a2.768,2.768,0,0,0-.041-.288c-.01-.092-.051-.123-.144-.123-.955.01-1.92.01-2.876.01-.236,0-.472,0-.719-.01-.113-.01-.154.041-.175.144-.072.493-.154.986-.185,1.489-.01.154-.051.205-.205.2-.442-.01-.883,0-1.315,0C11.512,14.652,11.512,14.652,11.554,14.313Zm31.713,2.752a3.1,3.1,0,0,1-.668.75,18.391,18.391,0,0,1-4.632,2.711,26.066,26.066,0,0,1-5.6,1.695c-.842.154-1.684.267-2.537.339a25.038,25.038,0,0,1-3.04.072,24.174,24.174,0,0,1-2.711-.246,26.238,26.238,0,0,1-4.693-1.119A23.405,23.405,0,0,1,14,18.7a7.541,7.541,0,0,1-1.571-1.284,2.072,2.072,0,0,1-.3-.421c-.082-.164-.072-.318.123-.4a1.825,1.825,0,0,1,.668.113c.288.1.565.2.852.3a2.277,2.277,0,0,0,.678.267,3.088,3.088,0,0,0,.709.308,3.47,3.47,0,0,0,.76.308c.226.092.452.185.668.267a9.654,9.654,0,0,0,1.294.452h0c.021.041.051.041.092.041a2.922,2.922,0,0,0,.555.175l.637.175c.257.072.513.134.781.2a2.533,2.533,0,0,0,.678.175c.37.092.75.175,1.119.267a6.942,6.942,0,0,0,1.027.185c.082.072.185.031.277.051a24.492,24.492,0,0,0,3.348.339c1.13.041,2.27.031,3.4-.041.39-.021.77-.072,1.15-.113.606-.051,1.2-.154,1.807-.246a6.344,6.344,0,0,0,1-.205c.359-.072.719-.134,1.068-.236a4.345,4.345,0,0,0,.719-.185c.2-.051.39-.092.575-.154l.77-.175a5.437,5.437,0,0,0,.668-.246,2.912,2.912,0,0,0,.76-.267,9.861,9.861,0,0,0,1.294-.493.1.1,0,0,0,.092-.041h0a3.773,3.773,0,0,0,.668-.267,4.1,4.1,0,0,0,.76-.318,4.823,4.823,0,0,0,.852-.359c.318-.092.626-.185.945-.267a.279.279,0,0,0,.092,0C43.359,16.532,43.4,16.85,43.267,17.066Zm.236-2.413c-.339,0-.688.01-1.027.01-.134,0-.267-.01-.4-.01-.031-.1-.062-.2-.092-.3a10.978,10.978,0,0,0-1.571-3.091,12.3,12.3,0,0,0-2.105-2.352v5.525c0,.164-.041.216-.205.216-.288-.01-.585,0-.873.01a.335.335,0,0,0-.175,0H36.52a2.491,2.491,0,0,1-.041-.616V12.619a1.056,1.056,0,0,0,0-.359,1.664,1.664,0,0,0,0-.452,4.2,4.2,0,0,0,0-.719c0-.678.01-1.345.01-2.023,0-.565-.01-1.13-.01-1.695,0-.308.01-.606.01-.914,0-.123.031-.164.164-.164.421.01.832.01,1.253,0a.416.416,0,0,1,.257.1,17.284,17.284,0,0,1,3.543,3.7c.051.072.1.144.185.257V6.5c0-.154.021-.216.205-.216.472.01.955.01,1.428,0,.134,0,.175.031.175.175v8.01C43.7,14.632,43.647,14.663,43.5,14.652Zm8.38-3.728c-.021.164-.072.216-.246.216H46.225c-.205,0-.267.031-.216.257a2.27,2.27,0,0,0,1.561,1.849,2.382,2.382,0,0,0,2.342-.483c.051-.051.092-.1.185-.072.534.134,1.068.257,1.633.38a4.279,4.279,0,0,1-3.153,1.879,4.194,4.194,0,0,1-2.105-.246,3.293,3.293,0,0,1-1.879-1.9,5.829,5.829,0,0,1-.021-4.344,3.8,3.8,0,0,1,4.108-2.413,3.294,3.294,0,0,1,2.834,2.013A4.938,4.938,0,0,1,51.924,9.9,8.585,8.585,0,0,1,51.883,10.924Z" transform="translate(0 0)" fill="#FFF"/>
    <path id="Tracé_190" data-name="Tracé 190" d="M286.067,79.582a1.806,1.806,0,0,0,.77.442,1.334,1.334,0,0,0,.442.113,2.509,2.509,0,0,0,2.639-1.643,2.991,2.991,0,0,0,.216-.842,2.158,2.158,0,0,0-.021-.77,1,1,0,0,0-.1-.452,2.261,2.261,0,0,0-.267-.626,2.477,2.477,0,0,0-.3-.411,4.025,4.025,0,0,0-.38-.349,2.167,2.167,0,0,0-2.321-.359,2.933,2.933,0,0,0-1.2,4.313A1.876,1.876,0,0,0,286.067,79.582Z" transform="translate(-255.771 -66.85)" fill="#FFF"/>
    <path id="Tracé_191" data-name="Tracé 191" d="M63.554,74.585a4.653,4.653,0,0,0-2.085-.277c-.154.01-.113.1-.113.185v5.32c0,.134.021.185.164.185a6.058,6.058,0,0,0,1.14-.051,2.662,2.662,0,0,0,2.485-2.526A2.631,2.631,0,0,0,63.554,74.585Z" transform="translate(-55.051 -66.669)" fill="#FFF"/>
    <path id="Tracé_192" data-name="Tracé 192" d="M449.9,74.073A2.3,2.3,0,0,0,448.075,76c-.021.164.072.144.164.144h3.625c.431,0,.431,0,.37-.431A1.965,1.965,0,0,0,449.9,74.073Z" transform="translate(-402.056 -66.435)" fill="#FFF"/>
  </g>
</svg>
