<svg xmlns="http://www.w3.org/2000/svg" viewBox="0 0 219.4 216"><g id="Calque_2" data-name="Calque 2" style="fill: #FFF"><g id="Calque_1-2" data-name="Calque 1"><circle cx="109.52" cy="213.45" r="2.55"/><path d="M166.18,68.1c-1-.61-.8-.7-.49-1.47s1.49-2,.22-3.42-2.24-.58-2.31-.55-.91.92-1.34.85c-.21,0-.66-.5-.87-1.63-.26-1.45-1.91-1-2.58,0a12.66,12.66,0,0,1-1.56,2.68c-.69.62-.89-.1-1.21-.63-.19-.33-.63-1.41-1.78.09a7.52,7.52,0,0,0-1,4.09s0,.85-.81-.12-2.14.24-2.08,2.39c0,0,.21,5.46,0,6.37s-4.07,4-4.41,4.37A30.06,30.06,0,0,1,143,83.25c-1.37.74-2.76,1.24-5,2.25l.12-.27h0l1.17-2.42h0l0-.1a2.07,2.07,0,0,1,.74-1c1.07-.79,3.4-.87,4-2.11s-.81-1-.81-1-.72.11,0-.41c1.08-.76,2.11-1.39,2-2s-.84-.54-.84-.54-.93,0,.23-.78,1.71-1.61,1.63-2.49-1.33-.57-1.57-.63-.71-.08.31-2,0-2.14-.84-2.07-.81,0-1-.6-.18-1.73-1.63-2-1.37.6-1.39.64,0,.89-.32,1-.64,0-1.34-.53c-.89-.68-1.59.27-1.44,1.12a7.85,7.85,0,0,1,.49,2.13c-.07.64-.55.33-1,.17-.28-.1-1.08-.5-1,.81a5.6,5.6,0,0,0,1.5,2.69s.38.49-.52.27-.6,1,0,2.19.6,1.47,0,1.32-1,.16-.61,1.24c.51,1.57,2.53,2.33,2.18,4.5,0,0-.35,2.2-3.78,4.65l-.59.41h0a11.62,11.62,0,0,0-1.56,1.39,3.26,3.26,0,0,1-.2-1.7c.24-.52,1.69-2.54,1.69-2.54.55-1.17.32-2.31-.34-2.13s-.44-.28-.44-.28a4.77,4.77,0,0,0,.7-2.57c-.13-1.27-.68-.89-.88-.81s-.64.43-.8-.19a9.35,9.35,0,0,1,0-2c0-.83-.72-1.77-1.29-1.13s-.82.55-.93.48-.4-1-.43-1a.89.89,0,0,0-1.17-.66c-1.07.2-.85,1.33-.92,1.87s0,.65-.69.56-1.4.11-.3,2,.75,1.87.58,1.93-1.19-.28-1.1.57a3.68,3.68,0,0,0,1.67,2.46c1,.8.3.76.3.76s-.6-.09-.55.51.95,1.23,1.9,2c0,0,.1.08.38.26h0l.25.15a4.09,4.09,0,0,1,1.3,1.15v0c.15.48.33.77-.34,2.47-1.6,2.68-2.46,6.05-3.76,10a22.51,22.51,0,0,1-.91,2.33,5.32,5.32,0,0,1,.49-5.4s.55-.62.19-1a1,1,0,0,0-.93-.3s-.64.26-.29-.45S126.84,95,127,94.56s.09-.82-.47-1-.94-.22-.37-.9.74-1.09.57-1.42a.91.91,0,0,0-1.35-.27c-.69.4-1,.58-1-.48a1.17,1.17,0,0,0-1-1.28c-.21,0-1.3-.14-1,1.46.24,1.24-.94.68-.94.68a.49.49,0,0,0-.65.24,1.53,1.53,0,0,0,.37,1.61c.5.66-.56.5-.56.5a.7.7,0,0,0-.86.42s-.39.65,1.78,2.65c1.22,1.13-.3,1.18-.3,1.18s-.74-.14-.46.82,1.72,1.59,1.72,1.59a4.06,4.06,0,0,1,2.59,3.41,5.21,5.21,0,0,1-.67,2.9c-.12.21-.25.41-.38.61h0a34.34,34.34,0,0,1-4.06,5.07c-.4-.21-.8-.45-1.19-.69v-38l-.61-.11a47.9,47.9,0,0,0-7.33-.69V69.34a5,5,0,0,0,3.46-3.13c9.15,1.58,8.5,9.75,8.5,9.75,11.09-12.28,0-22.83,0-22.83-.21,7.55-5.55,9.24-8.54,9.61a4.94,4.94,0,0,0-3.67-3.05,6.17,6.17,0,0,1,4.53-6.18s-4.18-1.11-5.42-7.76c-1.24,6.65-5.41,7.76-5.41,7.76,4.08,1.07,4.5,4.9,4.52,6.17a5,5,0,0,0-4,3.87,6.33,6.33,0,0,1-5.4-4.67s-1.11,4.43-7.76,5.67c6.65,1.23,7.76,5.67,7.76,5.67a6.33,6.33,0,0,1,5.4-4.68,5,5,0,0,0,3.72,3.82v3.53c-.81,0-1.56,0-2.22.09a43.1,43.1,0,0,0-5,.6l-.59.13v37.91a14.79,14.79,0,0,1-2,1.12,32.69,32.69,0,0,1-3.5-4.11,2.35,2.35,0,0,1,.49-.94c.88.13,1.93-.89,2.4-2.39s.16-3.1-.76-3.39-2,.77-2.55,2.36a3.19,3.19,0,0,0,.35,3.15,1.59,1.59,0,0,1-.48.43,30,30,0,0,1-2.49-4.37c.17-.65.5-1.51.55-1.66A16.4,16.4,0,0,0,95.78,98a8.11,8.11,0,0,0,1.73-4.54A14.86,14.86,0,0,1,98,89.85a4.53,4.53,0,0,0,0-.53l-.1,0a3.33,3.33,0,0,0-.36.39c-.36.53-.69,1.08-1.07,1.6a24.86,24.86,0,0,0-4.65,10.41c0,.08-.13.43-.24.75-.2-.5-.38-1-.55-1.52-.61-1.86-1.09-3.57-1.59-5.14l1.11-3.66c.76-2.78,2.24-9.84,3-12.65a9,9,0,0,0,0-4.25,5.56,5.56,0,0,0-.35-.8c-.32.58-.61,1.63-.88,2.11-.83,1.44-1.17,2.52-2,4a10.44,10.44,0,0,0-1.14,3.62,26,26,0,0,0,.14,9.13,7.53,7.53,0,0,1-.3,1.08,15.4,15.4,0,0,0-3.28-5.83,6.23,6.23,0,0,1-.48-2c.06-1.62.09-3.25.2-4.87a36.6,36.6,0,0,0-2.73-15.54,8.81,8.81,0,0,0-.49-1,1.37,1.37,0,0,0-.28.71c-.13.93-.17,1.87-.38,2.77-.42,1.8-.88,3.6-1.4,5.37a8.36,8.36,0,0,0,.34,5.79,30.48,30.48,0,0,0,3.78,6.65,2.53,2.53,0,0,1,.37,1.08,14.3,14.3,0,0,0-2.53-1.62c-.68-.34-1.33-.65-1.95-.92h0a5,5,0,0,1-2.9-2.73C76.16,79.5,75,76.83,74,74.07A21.66,21.66,0,0,0,62.74,61.7a23.59,23.59,0,0,0-4.83-1.41c-.37-.09-.82.16-1.38.28a16.05,16.05,0,0,1,1.56,1.26c1.52,1.58,3,3.14,4.48,4.79q3.37,3.93,6.62,8c1.84,2.29,3.54,4.66,6.27,6h0c.08,0,.45.33.87,1.71,0,0,.23.65-.51.45a11,11,0,0,1-1.67-.67c-.69-.35-1.37-.71-2.08-1q-2.22-.9-4.52-1.61c-4.26-1.33-5.82-2-10.31-2.4a40.66,40.66,0,0,0-5.3.22,16.75,16.75,0,0,0,6.09,3.94c5.66,1.6,8.76,1.57,14.65,1.78a10.1,10.1,0,0,1,4.21,1A31.67,31.67,0,0,0,79.76,86h0l.18.09c-.84.19-2.84.68-3.17.4-1.45-1.19-3.56-.92-5.64-.34-5.78,1.6-11.56,3.09-17.33,4.64a10.9,10.9,0,0,0-1.26.49l0,.21a6.88,6.88,0,0,0,.89.24A42.41,42.41,0,0,0,70,91a20.15,20.15,0,0,0,3.89-1.79,11.94,11.94,0,0,0,2-1.29c1-.7,4.29-.91,5.87-.83,4.81,2.75,5.77,6.75,7.35,12.09-.37-.31-.89-.73-.92-.79a17.8,17.8,0,0,0-5.37-6.74c-.39-.34-.75-.71-1.13-1a2.62,2.62,0,0,0-.34-.24l-.07.05a3,3,0,0,0,.14.42,12,12,0,0,1,1.06,2.78,6.62,6.62,0,0,0,2.2,3.24,11.83,11.83,0,0,0,3,2.26,13,13,0,0,1,1.89,1.57c.13.42.26.84.4,1.26a29.49,29.49,0,0,0,4.4,8.28,43.61,43.61,0,0,1-4-2.83,5.55,5.55,0,0,0-1.82-1l-5.3-1.41a2,2,0,0,0-.32,0,3.24,3.24,0,0,0,.22.35,10.64,10.64,0,0,0,.85.92,17.17,17.17,0,0,0,4,2.59A54,54,0,0,0,95,110.93a28.09,28.09,0,0,0,2.13,2.42A17,17,0,0,1,85,113a16.73,16.73,0,0,1-5.3-3.53,16.27,16.27,0,0,1-3.55-5.19,1,1,0,0,1,.36-1.22,1,1,0,0,1,1.21.33l0,.06.06.06,0,.07h0a3.56,3.56,0,0,0,2,1.09,1.19,1.19,0,0,0,1.43-.78h0a.86.86,0,0,0-.11-.56,1.09,1.09,0,0,0,.19-1,1.28,1.28,0,0,1-.5.65h0a.27.27,0,0,0-.1-.06.79.79,0,0,0,0-.79,1,1,0,0,1-.41.64c-.47-.08-.74.11-.61-.75.09-.57,0-1,.44-1.25a10.76,10.76,0,0,0,1.06-.61h0a1.31,1.31,0,0,0,.42.49,1.09,1.09,0,0,1-.4.54.81.81,0,0,0,.73-.35l.12,0a1.35,1.35,0,0,1-.39.78,1.08,1.08,0,0,0,.87-.7,1.22,1.22,0,0,0,.33,0h0a1.23,1.23,0,0,0,.53-.22A1.29,1.29,0,0,0,84,99.64a1,1,0,0,0,.49-.73c.08-.38-.53-1.54-2.83-2.9-.13-.08-.17-.11-.38-.48a2.45,2.45,0,0,0-1.5-1.27,1.73,1.73,0,0,0-1-.72c-1.36-.54-.34-2.09-1.39-2.82,0,.21-.34.52-.48.68a.94.94,0,0,0,0,1.19h0a1.6,1.6,0,0,0-.8-.32A1.39,1.39,0,0,1,75,91.42c-.07-.18-.54.9-.18,1.42a2.36,2.36,0,0,0,.25.39c-.45-.21-.87.24-1.29.33a4.71,4.71,0,0,1-.88.08h-.22a2.34,2.34,0,0,0-2.25,1.1c-.57,1.29,0,1.54-.84,2.79,0,0-.09.21-.55.45a2.42,2.42,0,0,1-.36.17c-.2.07-.42.13-.69.23a1.66,1.66,0,0,0-.71.57h0s-.46.55-.17,2.12-.06,2.07-.06,2.07h0a2.85,2.85,0,0,1-.32.48,4,4,0,0,0-.25,4,19.11,19.11,0,0,1,2,4.75,41.32,41.32,0,0,0,6.34,15.26,42.07,42.07,0,0,0,8.6,9.31c-2.81,2.66-5.27,4.81-7.38,6.52A7.19,7.19,0,0,1,75,137s.4-1.13-.4-1.57a1.55,1.55,0,0,0-1.53,0s-.76.66-.71-.52,1-2.61.95-3.23a1.12,1.12,0,0,0-1.3-1.13c-.9.07-1.48.13-1.1-1.1s.37-1.89-.08-2.28a1.45,1.45,0,0,0-2.13.25c-.73.9-1,1.28-1.74-.21a2.09,2.09,0,0,0-2.32-1.33c-.3.11-2,.42-.49,2.53,1.14,1.64-1.09,1.46-1.09,1.46s-.77-.05-.79.64.43,1.41,1.57,2.11-.86,1.11-.86,1.11-1.19.25-.73,1.2c0,0,0,.77,4.41,2.58,2.49,1,.31,1.8.31,1.8s-1.14.16-.13,1.38,3.67,1.4,3.67,1.4,1.77,0,4.43,2.15a43.94,43.94,0,0,1-6.28,4.28,2.84,2.84,0,0,1-1-1.27A2.42,2.42,0,0,0,68,144l-.41.3c-2.17-3.5-3.9-2.28-3.9-2.28-1.91,1.17,0,3.89.59,4.68L64,147a2.33,2.33,0,0,0,2.92.8,3.26,3.26,0,0,1,.52,1.35,36.61,36.61,0,0,0-6.48,3.14c-2.1,1.4-4.86,6.15-4,6.22s4.3-2.14,11.64-7.44a3.94,3.94,0,0,1,1.93.89,2.12,2.12,0,0,0-.11.21,2.43,2.43,0,0,0,1,3.35l.27-.46c1.05.64,4.23,2.32,5.41.23,0,0,1.32-2-3.11-4.08l.24-.4a2.75,2.75,0,0,0-3.06.31,2,2,0,0,1-1.27-1l.86-.62c1.93-1.42,3.69-2.79,5.27-4.08a6,6,0,0,1,2,3.21s.24,2.26,1.43,2.59c1,.29,1.22-.5,1.22-.5s.77-1.93,1.63-.25C84,153.64,85,153.33,85,153.33a1.09,1.09,0,0,0,.88-1s.26-2.09.93-1.35,1.37,1.23,2,1a.77.77,0,0,0,.54-.82s-.15-1.91,1.26-1.73c2,.25,2.24-.67,2.33-.94a1.39,1.39,0,0,0-1.3-1.66c-1.36-.17-1.27-.35-.5-1.2s.63-1.26.27-1.52-1-.08-2,.57-1.05.17-1-.59-.51-.85-1.07-.72-1.8,1.29-2.85,1.67-.49-.43-.49-.43a1.22,1.22,0,0,0-.05-1.24c-.44-.53-1.43.11-1.43.11-2.64,1.45-4.37,1.16-5.17.85,3.84-3.2,6.4-5.71,7.3-6.62.5.37,1,.73,1.52,1.08a42.5,42.5,0,0,0,7.08,3.84,41.11,41.11,0,0,0,7.36,2.33v18.62l.61.11a48.92,48.92,0,0,0,7.3.7l-2,4.16,3.2,7.61,3.2-7.61-2-4.16c.81,0,1.55-.05,2.21-.1a39,39,0,0,0,5-.61l.59-.12V144.94a41.81,41.81,0,0,0,7-2.24,42.5,42.5,0,0,0,7.08-3.84c.59-.4,1.17-.82,1.75-1.25.47.49,2.87,2.94,6.77,6.25l-1.76.14c-3.5,0-3.45-.73-5.61-.66a6.76,6.76,0,0,0-2.41.46c-.94.4-1.87.83-2.8,1.24l-1,.42a5.94,5.94,0,0,0,.58.27,7,7,0,0,0,2.92.31c1.89-.24,6.65-.66,8.51-.94l2.58-.4c1.6,1.33,3.41,2.78,5.42,4.28-2.35-.12-5.92-.61-6.7-.7a8.62,8.62,0,0,0-3.61.13l-9.51,2.88a5.37,5.37,0,0,0-.53.27,3.44,3.44,0,0,0,.6.35,14.5,14.5,0,0,0,2,.66,26.8,26.8,0,0,0,8.24.27,99.78,99.78,0,0,0,11.07-2.72c8.34,6.09,12.23,8.6,13.1,8.53s-1.85-4.82-3.94-6.22a39.12,39.12,0,0,0-7-3.34,9.06,9.06,0,0,1-1.07-.52c-.14-.94-.13-2.35-.15-2.59a26.85,26.85,0,0,0,2.5-7.11,11.15,11.15,0,0,0-.18-7,17.88,17.88,0,0,1-1.32-4.87,3.35,3.35,0,0,0-.22-.7l-.16,0a7.61,7.61,0,0,0-.28.75c-.22.94-.38,1.88-.62,2.82-1.52,5.86-2,11.24-.86,16.53,0,.13.06.86.08,1.38a55.69,55.69,0,0,1-5.47-4,5.47,5.47,0,0,1,.56-2.27c1.15-.36,2-2.1,2-4.19,0-2.35-1.11-4.26-2.47-4.26s-2.47,1.9-2.47,4.26c0,2,.78,3.64,1.84,4.12a2.85,2.85,0,0,1-.76,1.31c-2-1.65-4.26-3.67-6.81-6.12a41.33,41.33,0,0,0,8.39-9.14,41.34,41.34,0,0,0,6-13.85l0,0a17.57,17.57,0,0,1,2.32-6.2,4,4,0,0,0-.26-4,2.85,2.85,0,0,1-.32-.48h0s-.35-.5-.07-2.07-.16-2.12-.16-2.12h0a1.7,1.7,0,0,0-.72-.57l-.68-.23a1.8,1.8,0,0,1-.37-.17,1.26,1.26,0,0,1-.55-.45c-.86-1.25-.27-1.49-.84-2.79-.44-1-1.73-1.11-2.25-1.1h-.22a3.86,3.86,0,0,1-.87-.08c-.43-.09-.85-.54-1.3-.33a2.6,2.6,0,0,0,.26-.38c.36-.53-.12-1.61-.19-1.43a1.39,1.39,0,0,1-1.07.86,1.6,1.6,0,0,0-.8.32h0a1,1,0,0,0,.05-1.19c-.15-.16-.49-.47-.49-.68-1,.73,0,2.28-1.39,2.82a1.75,1.75,0,0,0-1,.72,2.47,2.47,0,0,0-1.51,1.27c-.21.37-.25.4-.38.48-2.29,1.36-2.91,2.52-2.83,2.9a1,1,0,0,0,.49.73,1.3,1.3,0,0,0,.49,1.08,1.18,1.18,0,0,0,.53.22h0a1.22,1.22,0,0,0,.33,0,1.1,1.1,0,0,0,.88.7,1.31,1.31,0,0,1-.4-.78l.12,0a.82.82,0,0,0,.73.35,1.13,1.13,0,0,1-.39-.54,1.39,1.39,0,0,0,.41-.49h0c.13.1.7.41,1.06.6s.35.68.44,1.25c.13.86-.13.67-.6.75a1,1,0,0,1-.42-.64.8.8,0,0,0,0,.79l-.11.06h0a1.4,1.4,0,0,1-.5-.65,1.12,1.12,0,0,0,.19,1,.93.93,0,0,0-.11.56h0a1.19,1.19,0,0,0,1.43.78,3.5,3.5,0,0,0,2-1.09h0l.06-.07.05-.06,0-.06a1,1,0,0,1,1.2-.33c.72.39.33,1.33.33,1.33l0,.38a16.55,16.55,0,0,1-21.2,8.38c.54-.59,1.27-1.43,2.07-2.5.71-.88,2.57-2.79,4-.86,1.27,1.73,2.67,1,2.67,1,.36-.21.1-.69.1-.69s-.29-.49.53-.1a2.09,2.09,0,0,0,2,.13c.5-.3-.06-.87-.1-1s-.16-.4,1.28-.41,1.29-.62,1-1.05-.22-.45,0-.73,1-.6.69-1.45-.77-.55-.8-.55-.55.24-.72.13-.19-.33-.08-.86-.64-.77-1.1-.44a6.07,6.07,0,0,1-1.13.89c-.4.14-.36-.2-.4-.49s0-.73-.78-.28a3.54,3.54,0,0,0-1.15,1.59s-.27.53-.49-.16-1.43-.44-1.42.74a1.72,1.72,0,0,1-.69,1.33,6.41,6.41,0,0,1-1.57.48,30.19,30.19,0,0,0,2.63-5.62c1.06-3.11,1.69-5.83,2.65-8.16a7.85,7.85,0,0,1,1.72-.5,1.72,1.72,0,0,0,1.87,1.52l0-.37c.67,0,3.51-.34,3.32-2.18,0,0-.07-1.76-3.47-1.08l0-.35a1.92,1.92,0,0,0-1.71,1.75,1.54,1.54,0,0,1-1.21.14c.14-.28.28-.55.43-.82,1-1.47,3.6-4.2,8.84-4.27l3.58,0h0s1,0,1.31.49c.78,1.13,1.71,3.38,3.1,3.65s.83-1.1.83-1.1-.29-.74.41-.1c1,.94,1.91,1.87,2.52,1.65s.34-1,.34-1-.24-1,.84,0,2,1.4,2.91,1.1.23-1.54.24-1.81-.09-.76,2.07-.16,2.16-.51,1.87-1.39-.15-.87.36-1.24,2.52-.91,2.4-2.5-1.76-1-1.81-1-.91.18-1.12-.08-.17-.67.2-1.54c.46-1.1-.67-1.61-1.48-1.24a8.41,8.41,0,0,1-2,1c-.66.08-.47-.5-.42-1,0-.32.24-1.27-1.05-.82A5.8,5.8,0,0,0,153.15,83s-.41.52-.41-.48-1.2-.38-2.19.59-1.32,1-1.31.36-.4-1-1.4-.34c-1.45.93-2,3.12-3.86,3.37h0a52.33,52.33,0,0,0-6.78.61c2.36-1.19,4.15-1.88,5.7-2.6l.36-.2a19.49,19.49,0,0,0,4.16-3.1h0c1.48-1.18,3.45-2.56,4.52-2.57a25.91,25.91,0,0,1,3.39.12c1.85,0,3.23,0,3.77-.7s-.34-1.26-.34-1.26-1-.73,1-.65,3.34-.36,4.11-1.37-.83-1.67-1-1.94-.65-.65,2.25-1.87S167.14,68.71,166.18,68.1Zm-64.07,6.84a41.7,41.7,0,0,1,4.27-.47,50.26,50.26,0,0,1,10.86.47v35.69a16.42,16.42,0,0,1-6.11-12.77V92.31h4.53v-3h-4.53V86.21h3v-3h-3v-3.6h-3v3.6h-3v3h3v3.05H103.6v3h4.53v6.46a16.25,16.25,0,0,1-5.11,11c-.29.28-.6.55-.91.81Zm15,87.46a42.63,42.63,0,0,1-4.24.48A50,50,0,0,1,102,162.4V145.32a42.14,42.14,0,0,0,15.13-.07Zm25.22-54.25,0,.18a13.16,13.16,0,0,1,.18,2c-.13,1.07-1.65,1.66-1.65,1.66a3,3,0,0,0,2-.43c.42-.27.63-.43.75-.71a2.65,2.65,0,0,0,.1-.79s-.08-.49.3-.47.38.65.38.65a2.65,2.65,0,0,1-.21.92h0v0a2.76,2.76,0,0,0,1,2.66s-.29-2.48.55-2.72c.69-.2.79.7.79.7a6.45,6.45,0,0,1-.49,2.64,2.63,2.63,0,0,0,1.47-1.92,1.57,1.57,0,0,1,0-.23h0s.06-.62.48-.63.53.6.37,1.61h0c-.1.73-.29,1.62-.39,2.09a38.37,38.37,0,0,1-1.62,4.58,39.82,39.82,0,0,1-3.7,6.82,40.54,40.54,0,0,1-4.91,6,41.58,41.58,0,0,1-5.94,4.9,40.66,40.66,0,0,1-6.83,3.71,40,40,0,0,1-38.09-3.71,41.12,41.12,0,0,1-6-4.9A40.63,40.63,0,0,1,72.38,120a40.83,40.83,0,0,1-1.51-4.22h0s-.33-1.36-.47-2.4h0c-.16-1,0-1.63.37-1.61s.48.63.48.63h0a1.57,1.57,0,0,1,0,.23,2.63,2.63,0,0,0,1.47,1.92,6.45,6.45,0,0,1-.49-2.64s.1-.9.79-.71c.84.24.56,2.73.56,2.73a2.78,2.78,0,0,0,1-2.66v0h0a2.58,2.58,0,0,1-.22-.92s0-.63.38-.65.31.47.31.47a2.09,2.09,0,0,0,.1.79c.11.28.32.44.75.71a2.92,2.92,0,0,0,2,.43s-1.52-.59-1.65-1.66a13,13,0,0,1,.18-2l0-.47a17.15,17.15,0,0,0,2.2,2.63,17.93,17.93,0,0,0,5.77,3.84,18.36,18.36,0,0,0,19.64-3.58,17.85,17.85,0,0,0,4.81-7.7l.77-2.2.89,2.51v0a18,18,0,0,0,31.86,4.75Z"/><path d="M103.65,118.63l1.32.13c1.41.13,1.46.39,1.46,2.41v.26H97.32v.83l1.35.13c1.41.13,1.46.39,1.46,2.42l0,7.95c0,2,0,2.29-1.45,2.42l-1.36.13v.83h8v-.83l-1.33-.13c-1.4-.13-1.46-.39-1.46-2.42v-3.27h4v6.91c0,2-.06,2.29-1.46,2.42l-1.33.13v.83h8.12V139l-1.33-.13c-1.4-.13-1.45-.39-1.45-2.42v-6.91c1.66,0,2.18.34,3.35,1.84.66.84,1.23,1.67,1.8,2.47,1.12,1.72,2.5,2.86,4.61,2.86a4.37,4.37,0,0,0,3.28-1.4l-.5-.65a2.49,2.49,0,0,1-1.69.62c-1.09,0-2-.54-3.33-2.31a8,8,0,0,0-4.32-3.33v-.1h4.22c2.18,0,2.52.44,3,2.89h.76v-6.81h-.76c-.49,2.36-.83,2.91-3,2.91h-3v-.08c2-.55,3-1.69,3-3.3,0-2.29-2.16-3.67-6.56-3.67H109v-2.65h4.4c4.45,0,5.21.55,6.25,4.24h.83l-.23-5.23H103.65Zm2.77,9.85h-4l0-6.06h3.93Zm2.55-6.06h.92c2.55,0,3.8,1.22,3.8,3s-1.27,3.07-3.87,3.07H109Z"/><path d="M67.32,98.94Z"/><path d="M151.52,98.88Z"/><path d="M66.3,199.45l6.68,3,1.46-3.2,1.65.75-5.5,12.13-8.31-3.78c-3.33-1.5-4.76-4.12-3.48-6.94S63,198,66.3,199.45Zm-3.11,7.6L69.6,210l2.72-6L65.91,201c-2.43-1.1-4.42-1-5.39,1.18S60.74,205.94,63.19,207.05Z"/><path d="M46.33,182.27l.57,4.93,5.64,4.41,2.18-2.79,1.43,1.12-8.21,10.52-7.22-5.64c-2.88-2.25-3.66-5.14-1.75-7.58,1.56-2,3.81-2.32,6.1-1.2l-.63-5.24Zm-4.4,11.47,5.56,4.34,4.06-5.21L46,188.53c-2.11-1.64-4.08-2-5.52-.12S39.81,192.08,41.93,193.74Z"/><path d="M23.79,179.51l-3.69,0-1.2-1.49,3.78.07Zm14.85-4.61-10.39,8.34-8.32-10.37,1.31-1.05,7.19,9,2.92-2.34-7.09-8.85,1.28-1,7.1,8.84,3.55-2.85-7.24-9,1.31-1.06Z"/><path d="M23.72,159.39l-1.51-1c.79-1.86.55-4.3-.7-6.9-1.66-3.44-3.1-4.33-4.38-3.71-3.54,1.71,5.18,11.41-.24,14-1.77.86-4,.16-6.11-4.12-1.57-3.25-1.84-6.08-.81-8.29l1.48,1c-.8,1.74-.52,4.06.7,6.58,1.49,3.09,2.85,3.73,4,3.18,3.41-1.65-5.15-11.4.14-14,2-1,4.34-.08,6.59,4.57C24.53,154.18,24.72,157,23.72,159.39Z"/><path d="M17.25,136.91l-12.8,3.66L4,138.83l12.8-3.67Z"/><path d="M13.78,119.38l.79,7.55L1.31,128.31l-.79-7.54c-.61-5.83,1.68-8.85,5.61-9.25C10.28,111.09,13.18,113.57,13.78,119.38Zm-11.6,1.11.61,5.84,9.92-1-.61-5.84c-.46-4.43-2.63-6.37-5.75-6C3.38,113.71,1.72,116.05,2.18,120.49Z"/><path d="M13.26,103.44,0,101.69,1.73,88.45l1.68.22L1.9,100.11l3.74.49L7.12,89.3l1.65.22L7.29,100.81l4.54.6,1.51-11.53L15,90.1Z"/><path d="M16.83,82.32,4.29,77.49,4.84,76l14.89-8L9.55,64.08l.64-1.66,12.54,4.83-.56,1.45-14.84,8,10.15,3.9Z"/><path d="M31.37,53.81c-3,4.3-7.22,5.56-10.73,3.09s-3.7-6.8-.74-11c1.8-2.55,4.19-4.21,6.88-4.21l-.15,1.83c-2.12,0-4,1.3-5.37,3.31-2.23,3.17-2.33,6.58.49,8.56s6,.72,8.28-2.5a6.9,6.9,0,0,0,1.3-6.22L33,45.89C33.9,48.3,33.22,51.17,31.37,53.81Z"/><path d="M40.33,42.25l-8.87-10,10-8.85,1.12,1.26-8.61,7.64,2.5,2.81,8.5-7.55L46,28.82l-8.5,7.56,3,3.4,8.68-7.7,1.12,1.26Z"/><path d="M74.53,19.79l-7.07,2.78L62.59,10.14l7.07-2.76c5.44-2.15,9-.74,10.41,2.94C81.59,14.2,80,17.66,74.53,19.79ZM70.36,8.9,64.9,11.05l3.64,9.29L74,18.19c4.16-1.62,5.45-4.24,4.3-7.16S74.52,7.27,70.36,8.9Z"/><path d="M89.67,15.09,87.82,1.84,101,0l.23,1.67L89.86,3.26,90.37,7l11.28-1.58.23,1.65L90.6,8.63l.64,4.54,11.51-1.61.23,1.67Z"/><path d="M123.11,14.06,125.74,1l1.79.36-2.3,11.44L136,14.93l-.33,1.65Z"/><path d="M154.46,24.13l-.34-3.57-8.53-3.78-2.87,2.14-1.92-.85,12.44-9.21,1.65.74L156.38,25ZM154,18.78l-.71-7.71h0L147,15.71Z"/><path d="M180.48,44.31v-5l-5.12-5-2.48,2.53-1.3-1.29L181,26l6.53,6.43c2.62,2.56,3.06,5.53.88,7.74-1.77,1.81-4.05,1.87-6.21.51l0,5.28Zm5.69-10.89-5-5-4.64,4.72,5.05,5c1.9,1.87,3.82,2.43,5.48.75S188.08,35.3,186.17,33.42Z"/><path d="M187.38,52.55l11.28-7.1,7.09,11.26-1.43.89-6.12-9.72-3.17,2,6.05,9.61-1.41.88-6-9.6-3.87,2.43L195.94,63l-1.42.9Zm15.28-2.89,3.68.4,1,1.61-3.75-.5Z"/><path d="M204.46,78.69l-2.42-7-3.33,1.16-.6-1.73,12.62-4.39,3,8.65c1.21,3.47.3,6.32-2.64,7.34S205.66,82.13,204.46,78.69Zm7.68-3L209.82,69l-6.25,2.17,2.32,6.68c.89,2.52,2.36,3.87,4.58,3.1S213,78.24,212.14,75.7Z"/><path d="M210.41,91.92l7.48-.7.18,1.82-7.28.68c-3.45.32-4.48,2.61-4.1,6.68s1.83,6.11,5.27,5.79l7.27-.68.17,1.75-7.49.71c-4.3.4-6.37-2.27-6.86-7.43S206.11,92.32,210.41,91.92Z"/><path d="M204.42,125.79l1.35-9.19,13.21,2-1.34,9.09c-.53,3.58-1.94,5.21-4,4.91-1.47-.22-2.28-1.32-2.47-3h0c-.69,1.6-1.92,2.7-3.79,2.42C205,131.67,203.85,129.58,204.42,125.79Zm6.32.72,1.07-7.18-4.71-.69L206,126.11c-.36,2.45.29,3.82,1.83,4C209.12,130.36,210.31,129.47,210.74,126.51Zm5.3,1,1.09-7.4-3.74-.56-1.07,7.25c-.39,2.68.2,3.67,1.42,3.85S215.71,129.75,216,127.52Z"/><path d="M201.34,138.93l12.46,4.79-.66,1.7-10.88-4.18-3.94,10.22-1.56-.6Z"/><path d="M193.15,157.19l11.52,6.71-.92,1.57-11.52-6.71Z"/><path d="M179.62,177.44a11.43,11.43,0,0,1,2.8-5.54c3.59-4.19,7.92-5.09,11.15-2.31s3,7.17-.59,11.37-7.92,5.08-11.14,2.32a6,6,0,0,1-2.18-4.1l-1.76.75-1.36-1.17Zm2-.86,4.2-1.76L187.2,176l-5.82,2.45a4.63,4.63,0,0,0,1.69,3.39c2.6,2.23,5.92,1.26,8.67-2s3.21-6.63.6-8.86-5.94-1.26-8.68,1.94A9.67,9.67,0,0,0,181.63,176.58Z"/><path d="M174.73,188.42l4.32,6.15-1.49,1-4.18-6c-2-2.84-4.49-2.61-7.84-.25s-4.39,4.61-2.4,7.44l4.19,6-1.44,1-4.32-6.14c-2.47-3.53-1.19-6.65,3-9.62S172.26,184.9,174.73,188.42Z"/><path d="M150.91,196.64l4.88,12.43-12.41,4.86-.62-1.56,10.71-4.2-1.36-3.5-10.59,4.15-.6-1.55,10.58-4.15-1.67-4.25L139,203.11l-.62-1.57Z"/></g></g></svg>