<svg xmlns="http://www.w3.org/2000/svg" width="54.632" height="17.637" viewBox="0 0 54.632 17.637" style="fill: #FFF">
  <g id="Layer_1_2_" transform="translate(-0.029 0.014)">
    <g id="Groupe_33" data-name="Groupe 33" transform="translate(0.029 -0.014)">
      <g id="Groupe_32" data-name="Groupe 32" transform="translate(0)">
        <g id="Groupe_31" data-name="Groupe 31">
          <path id="Tracé_193" data-name="Tracé 193" d="M.218,16.9l12.465.035V20.62c.035.247-.264.194-.317-.035a6.964,6.964,0,0,0-1.358-2.169h-5.2v4.5h4.372a4.145,4.145,0,0,0,1.164-1.886c.123-.317.37-.123.353-.035-.088,1.446-.053,4.09-.035,5.166,0,.406-.194.529-.317.159a6.38,6.38,0,0,0-1.128-1.922H5.806v5.148h5.659a9.109,9.109,0,0,0,1.252-2.521c.035-.194.37-.194.37-.035v4.249L4.22,31.11a32.583,32.583,0,0,0-3.967.159c-.282.018-.282-.388-.088-.476,1.957-.917,2.2-.405,2.2-3.209V19.915c0-2.08-.6-2.01-2.2-2.609C-.029,17.235.059,16.935.218,16.9Z" transform="translate(-0.029 -13.918)"/>
          <path id="Tracé_194" data-name="Tracé 194" d="M82.682,16.5l5.818.123,4.443,9.15,4.619-9.027h3.932c.317,0,1.569-.123,1.763-.159s.247.353.088.441a14.787,14.787,0,0,0-2.292,1.164l1.164,11.142a7.678,7.678,0,0,0,2.451,1.252c.247.035.159.335.035.317-1.252-.088-6.858-.088-8.057,0-.123,0-.635-.194-.088-.353.635-.194,1.922-.635,2.2-1.128l-.793-9.7-5.536,11.2h-.917l-5.06-10.948-.882,9.379c.353.723,2.045,1.04,2.239,1.128.194.071.194.37.035.353-1.2-.123-5.695-.035-6.171.035-.247.035-.67-.264-.123-.441,1.569-.494,2.08-.035,2.451-3.685l.97-8.022C85.1,17.4,83.4,17.24,82.647,16.958,82.523,16.888,82.4,16.5,82.682,16.5Z" transform="translate(-66.961 -13.588)"/>
          <path id="Tracé_195" data-name="Tracé 195" d="M223.75,19.111l.123-3.685c-1.64-.194-5.712-.864-9.062,1.6-3.491,2.556-4.443,9.115.088,12.077,3.015,1.957,8.5.6,8.9.406.159-.088.37-.194.37-.353s.035-3.456.035-3.614-.247-.123-.37.035-.74,2.5-1.322,2.8a4.351,4.351,0,0,1-5.977-2.2,8.282,8.282,0,0,1,.441-7.74,3.992,3.992,0,0,1,4.936-1.763,3.893,3.893,0,0,1,1.41,2.4C223.432,19.516,223.715,19.428,223.75,19.111Z" transform="translate(-174.495 -12.514)"/>
          <path id="Tracé_196" data-name="Tracé 196" d="M285.059,1.011c1.693-1.569,3.173-1,3.685-.476.529.529.864,1.657-.353,2.891-.6.6-1.851,1.569-1.851,1.569h1.922c.194-.035.547-.723.688-.917.088-.123.159-.088.159.088V6.212c-.564-.035-3.9-.035-4.408-.035V5.489a14.711,14.711,0,0,0,2.362-2.451c.635-.811.529-2.944-1.728-1.693C285.182,1.522,284.935,1.328,285.059,1.011Z" transform="translate(-234.676 0.014)"/>
        </g>
      </g>
      <path id="Tracé_197" data-name="Tracé 197" d="M288.628,80.3a1.091,1.091,0,0,1,1.093,1.111,1.111,1.111,0,1,1-2.221,0,1.133,1.133,0,0,1,1.128-1.111Zm0,.176a.954.954,0,1,0,.9.952.927.927,0,0,0-.9-.952Zm-.212,1.587h-.194V80.811a1.983,1.983,0,0,1,.353-.035.656.656,0,0,1,.388.088.309.309,0,0,1,.106.264.3.3,0,0,1-.247.3v.018c.106.018.176.123.212.3.035.194.053.264.088.3h-.212a1.023,1.023,0,0,1-.088-.317.228.228,0,0,0-.264-.212h-.141v.547Zm0-.688h.141c.159,0,.3-.053.3-.212,0-.106-.088-.212-.3-.212a.3.3,0,0,0-.141.018Z" transform="translate(-236.818 -66.14)"/>
      <path id="Tracé_198" data-name="Tracé 198" d="M288.628,80.3a1.091,1.091,0,0,1,1.093,1.111,1.111,1.111,0,1,1-2.221,0,1.133,1.133,0,0,1,1.128-1.111Zm0,.176a.954.954,0,1,0,.9.952.927.927,0,0,0-.9-.952Zm-.212,1.587h-.194V80.811a1.983,1.983,0,0,1,.353-.035.656.656,0,0,1,.388.088.309.309,0,0,1,.106.264.3.3,0,0,1-.247.3v.018c.106.018.176.123.212.3.035.194.053.264.088.3h-.212a1.023,1.023,0,0,1-.088-.317.228.228,0,0,0-.264-.212h-.141v.547Zm0-.688h.141c.159,0,.3-.053.3-.212,0-.106-.088-.212-.3-.212a.3.3,0,0,0-.141.018Z" transform="translate(-236.818 -66.14)"/>
    </g>
  </g>
</svg>
