<svg style="fill: #FFF" id="Groupe_135" data-name="Groupe 135" xmlns="http://www.w3.org/2000/svg" xmlns:xlink="http://www.w3.org/1999/xlink" width="57.239" height="30.739" viewBox="0 0 57.239 30.739">
  <defs>
    <clipPath id="clip-path">
      <rect id="Rectangle_59" data-name="Rectangle 59" width="57.239" height="30.739" fill="#FFF"/>
    </clipPath>
  </defs>
  <g id="Groupe_134" data-name="Groupe 134" transform="translate(0 0)" clip-path="url(#clip-path)">
    <path id="Tracé_836" data-name="Tracé 836" d="M57.239,8.378A51.012,51.012,0,0,0,28.62,0,51.017,51.017,0,0,0,0,8.378C7.628,5.792,16.546,4.189,28.62,4.189s20.992,1.6,28.619,4.189" transform="translate(0 0)" fill="#FFF" fill-rule="evenodd"/>
    <path id="Tracé_837" data-name="Tracé 837" d="M65.562,44.188c-.562,0-.851.466-.926,1.034-.082.627-.406,2.805-.477,3.359-.043.331-.067.677-.382.82s-.7-.076-1.026-.36l-5.172-4.489a1.448,1.448,0,0,0-.962-.364,1.411,1.411,0,0,0-1.434,1.594V52.8a.838.838,0,0,0,.83.9.881.881,0,0,0,.892-.831s.533-3.342.6-3.715c.076-.434.143-.774.552-.9.372-.118.722.1,1.246.569s4.878,4.475,4.878,4.475a1.383,1.383,0,0,0,1.05.4c.429,0,1.207-.178,1.207-1.513V45.191a.891.891,0,0,0-.874-1" transform="translate(-41.332 -33.097)" fill="#FFF"/>
    <path id="Tracé_838" data-name="Tracé 838" d="M188.621,50.981c-3.8.834-8.152-.057-8.152-2.8,0-2.072,1.885-2.915,3.37-3.037a4.229,4.229,0,0,1,3.4.87c.391.414.283.979-.487,1.026-.708.044-2.036.086-3.142.129-.627.024-.963.366-.963.827,0,.365.27.784.992.787,1.035.006,3.663.022,4.968.025.861,0,1.286-.489,1.286-1.5,0-1.6-1.423-4.029-5.586-4.029-3.772,0-6.5,1.915-6.5,5.046,0,4.44,6.41,5.795,11.106,4.145.446-.156.849-.481.72-.988-.113-.45-.473-.621-1.014-.5" transform="translate(-133.18 -32.417)" fill="#FFF"/>
    <path id="Tracé_839" data-name="Tracé 839" d="M12.9,50.981c-3.8.834-8.152-.057-8.152-2.8,0-2.072,1.884-2.915,3.37-3.037a4.231,4.231,0,0,1,3.4.87c.392.414.283.979-.486,1.026-.708.044-2.037.086-3.142.129-.628.024-.963.366-.963.827,0,.365.269.784.991.787,1.035.006,3.664.022,4.968.025.86,0,1.286-.489,1.286-1.5,0-1.6-1.423-4.029-5.586-4.029-3.771,0-6.5,1.915-6.5,5.046,0,4.44,6.41,5.795,11.105,4.145.445-.156.849-.481.72-.988-.113-.45-.473-.621-1.013-.5" transform="translate(-1.562 -32.417)" fill="#FFF"/>
    <path id="Tracé_840" data-name="Tracé 840" d="M162.478,55.279c.083,2.42.307,4.428.369,5.131.081.908.542,1.167,1,1.167.443,0,.913-.237.995-1.159.069-.777.294-3.171.4-5.54a.14.14,0,0,0-.175-.158l-2.475.409a.149.149,0,0,0-.122.15" transform="translate(-121.696 -40.983)" fill="#FFF"/>
    <path id="Tracé_841" data-name="Tracé 841" d="M163.639,43.28a1.383,1.383,0,0,0-1.454,1.463c0,.1.013.389.029.745a.151.151,0,0,0,.169.145l2.583-.427a.151.151,0,0,0,.126-.145c.006-.124.01-.251.011-.311a1.4,1.4,0,0,0-1.464-1.47" transform="translate(-121.478 -32.417)" fill="#FFF"/>
    <path id="Tracé_842" data-name="Tracé 842" d="M116.9,47.14c-.861,0-3.518.021-5.219.025-.824,0-1.031.454-1.031.828,0,.325.221.746.99.786,1.173.064,2.664.134,3.352.17.928.049.94.535.627.951a4.924,4.924,0,0,1-3.749,1.382c-2.076,0-4.361-1.2-4.361-3.113,0-1.79,1.955-3.763,7.766-2.931.51.073,1.014-.02,1.139-.5.134-.512-.193-.841-.853-1.019a13.764,13.764,0,0,0-3.665-.437c-3.909,0-7.045,1.9-7.045,4.979,0,3.283,3.125,4.889,7.019,4.889,4.349,0,6.468-2.414,6.468-4.524,0-1.074-.536-1.484-1.438-1.484" transform="translate(-78.534 -32.417)" fill="#FFF"/>
    <path id="Tracé_843" data-name="Tracé 843" d="M45.555,101.524a1.77,1.77,0,0,1-.548,1.379,2.238,2.238,0,0,1-1.56.5,3.535,3.535,0,0,1-1.812-.469l.132-.766a3.166,3.166,0,0,0,1.671.469,1.482,1.482,0,0,0,.972-.276.96.96,0,0,0,.329-.778.765.765,0,0,0-.313-.626,2.47,2.47,0,0,0-.762-.4q-.449-.148-.9-.329A1.92,1.92,0,0,1,42,99.679a1.4,1.4,0,0,1-.313-.939,1.634,1.634,0,0,1,.511-1.251,2.157,2.157,0,0,1,1.524-.478,3.729,3.729,0,0,1,1.63.329l-.115.733a4.035,4.035,0,0,0-1.474-.3,1.472,1.472,0,0,0-.955.255.82.82,0,0,0-.3.659.717.717,0,0,0,.313.6,2.571,2.571,0,0,0,.762.379q.449.144.9.325a1.878,1.878,0,0,1,.766.564,1.479,1.479,0,0,1,.313.968" transform="translate(-31.185 -72.662)" fill="#FFF"/>
    <path id="Tracé_844" data-name="Tracé 844" d="M63.956,102.725a4.079,4.079,0,0,1,0,3.907,1.992,1.992,0,0,1-1.61.593,2.034,2.034,0,0,1-1.63-.6,3.963,3.963,0,0,1,0-3.9,2.028,2.028,0,0,1,1.626-.6,1.984,1.984,0,0,1,1.61.6m-2.643.49a3.726,3.726,0,0,0,0,2.932,1.185,1.185,0,0,0,1.034.42,1.154,1.154,0,0,0,1.013-.42,3.772,3.772,0,0,0,0-2.932,1.154,1.154,0,0,0-1.013-.42,1.185,1.185,0,0,0-1.034.42" transform="translate(-45.094 -76.494)" fill="#FFF"/>
    <path id="Tracé_845" data-name="Tracé 845" d="M82.9,102.475H82.12v-6.5l.782-.049Z" transform="translate(-61.508 -71.851)" fill="#FFF"/>
    <path id="Tracé_846" data-name="Tracé 846" d="M94.823,102.456v3.294a1.632,1.632,0,0,1-.478,1.268,2.062,2.062,0,0,1-1.432.436,2.034,2.034,0,0,1-1.425-.441,1.634,1.634,0,0,1-.478-1.264v-3.294h.774v3.277q0,1,1.136,1t1.128-1v-3.277Z" transform="translate(-68.167 -76.74)" fill="#FFF"/>
    <path id="Tracé_847" data-name="Tracé 847" d="M112.058,99.232h-1.211v3.014a.633.633,0,0,0,.716.716,1.077,1.077,0,0,0,.412-.066l.049.593a1.55,1.55,0,0,1-.683.124,1.253,1.253,0,0,1-.951-.342,1.4,1.4,0,0,1-.325-1V99.232h-.684v-.609h.708l.148-1.219.609-.066v1.285h1.211Z" transform="translate(-81.928 -72.907)" fill="#FFF"/>
    <path id="Tracé_848" data-name="Tracé 848" d="M124.78,95.829q.5,0,.5.42t-.5.42a.616.616,0,0,1-.383-.095.391.391,0,0,1-.119-.325q0-.42.5-.42m.387,6.571h-.782V97.517l.782-.041Z" transform="translate(-93.085 -71.776)" fill="#FFF"/>
    <path id="Tracé_849" data-name="Tracé 849" d="M136.755,102.725a4.079,4.079,0,0,1,0,3.907,1.992,1.992,0,0,1-1.61.593,2.034,2.034,0,0,1-1.63-.6,3.964,3.964,0,0,1,0-3.9,2.027,2.027,0,0,1,1.626-.6,1.984,1.984,0,0,1,1.61.6m-2.643.49a3.726,3.726,0,0,0,0,2.932,1.185,1.185,0,0,0,1.033.42,1.154,1.154,0,0,0,1.013-.42,3.769,3.769,0,0,0,0-2.932,1.154,1.154,0,0,0-1.013-.42,1.185,1.185,0,0,0-1.033.42" transform="translate(-99.621 -76.494)" fill="#FFF"/>
    <path id="Tracé_850" data-name="Tracé 850" d="M158.109,107.094h-.774V103.85q0-1.029-1.112-1.029a1.567,1.567,0,0,0-.655.148,1.112,1.112,0,0,0-.49.4v3.722H154.3V102.2l.56-.041.132.519h.025a1.838,1.838,0,0,1,1.425-.585,1.656,1.656,0,0,1,1.231.445,1.785,1.785,0,0,1,.44,1.309Z" transform="translate(-115.569 -76.47)" fill="#FFF"/>
    <path id="Tracé_851" data-name="Tracé 851" d="M176.986,105.677a1.488,1.488,0,0,1-.428,1.132,1.826,1.826,0,0,1-1.3.408,2.534,2.534,0,0,1-1.507-.412l.1-.675a2.262,2.262,0,0,0,1.4.428,1.135,1.135,0,0,0,.762-.218.74.74,0,0,0,.251-.589.585.585,0,0,0-.259-.494,2.155,2.155,0,0,0-.626-.3q-.366-.115-.737-.255a1.549,1.549,0,0,1-.63-.437,1.107,1.107,0,0,1-.26-.757,1.244,1.244,0,0,1,.441-1,1.927,1.927,0,0,1,1.272-.371,3.132,3.132,0,0,1,1.326.28l-.066.659a3.26,3.26,0,0,0-1.276-.264,1.216,1.216,0,0,0-.7.177.554.554,0,0,0-.259.482.532.532,0,0,0,.255.461,2.281,2.281,0,0,0,.626.284q.37.111.737.247a1.461,1.461,0,0,1,.622.44,1.177,1.177,0,0,1,.255.782" transform="translate(-130.14 -76.494)" fill="#FFF"/>
  </g>
</svg>
