<svg xmlns="http://www.w3.org/2000/svg" viewBox="0 0 252.2 171.35"><g id="Calque_2" data-name="Calque 2" style="fill: #FFF"><g id="Calque_1-2" data-name="Calque 1"><path d="M31.29,94c.41-1.39.5-2.72,2.45-3,.63-.08,1.36.76,1.88,1.2,2.89,2.51,4.81,8.72,4.81,12.56,0,1-.07,3.1-.49,3.64a2.12,2.12,0,0,1-1.76.81c-2.28,0-3.82-3.29-5-4.91a16.16,16.16,0,0,0-4.91-4.79c-6.07-3.48-15.64-1.24-15.64,7a8.32,8.32,0,0,0,2.14,5.85c1.41,1.58,5,3.72,10.73,6.38,4.18,2,8.64,3.88,12,7.19A14.55,14.55,0,0,1,40.87,131,17.3,17.3,0,0,1,42,137.41c0,5.92-1.91,10.54-5.69,13.85s-9.1,5-15.9,5a38.63,38.63,0,0,1-9.23-1.08A23.83,23.83,0,0,1,4,152.31c-1-.67-1.91-2.24-2.6-4.74a32.09,32.09,0,0,1-1-8.63A5.55,5.55,0,0,1,1,135.89a2.25,2.25,0,0,1,2-1c1.26,0,2.53,1.3,3.84,3.88.4.82.71,1.43,1,1.84a19.76,19.76,0,0,0,5.53,7,11.69,11.69,0,0,0,7.12,2.21A10.6,10.6,0,0,0,27.93,147a9.17,9.17,0,0,0,3-7q0-6.09-11.92-11.73l-1.25-.58c-8.3-4-16-8.24-16-18.52A17,17,0,0,1,7,96.38q5.3-5,13.73-5A19.21,19.21,0,0,1,31.29,94m28.23,19.73v2.13l0,.82.17.32c1.23,0,6.09-4.65,7.88-5.4a11.81,11.81,0,0,1,4.62-1,14.8,14.8,0,0,1,12.15,5.93q4.73,5.94,4.71,15.38c0,7-1.76,12.7-5.31,17.17a16.38,16.38,0,0,1-13.42,6.73,17.28,17.28,0,0,1-9-2.76l-.88-.42c-.32,0-.73.4-.73,1.24l0,8.4a3.68,3.68,0,0,0,.77,2.35c1.39,1.69,5,.78,5,3.77,0,1.05-.79,1.81-2.35,2.27a31.43,31.43,0,0,1-8,.69c-3.86,0-6.45-.24-7.79-.71s-2.56-1.19-2.56-2.41c0-.95,1.11-1.81,2.26-2.32a9,9,0,0,0,2-1.12c.54-.58,1.12-2,1.12-4.3l.07-36.63c0-2.3-.79-3.65-1.42-4a10.32,10.32,0,0,0-1.83-.76c-1.61-.55-2.42-1.32-2.42-2.28a2.52,2.52,0,0,1,.73-1.81c2.21-2.27,8.88-4.13,12-4.13a1.82,1.82,0,0,1,1.6.67,3.7,3.7,0,0,1,.5,2.16m.38,14.8v11.9a21.27,21.27,0,0,0,.19,3.55c.4,2.18,2.48,3.81,4.31,4.77A10,10,0,0,0,69.18,150a8.14,8.14,0,0,0,7.09-4c1.77-2.69,2.64-6.31,2.64-10.88,0-4.9-1-8.86-2.89-11.92s-4.4-4.58-7.38-4.58a8.26,8.26,0,0,0-6.5,2.53c-1.49,1.68-2.24,4.15-2.24,7.38m47.37-12.24.18,1,.59.33c.11,0,.39-.33.86-1s.94-1.22,1.4-1.73a14.81,14.81,0,0,1,4.29-3.21,10.7,10.7,0,0,1,4.76-1.09c4.54,0,8,1.62,10.2,4.85,2.75,3.94,3.43,9.72,3.43,15.44l0,13.52a9.59,9.59,0,0,0,.38,3.18,3.23,3.23,0,0,0,1.28,1.53l1,.47c1.3.53,1.95,1.28,1.95,2.26a2.62,2.62,0,0,1-1.9,2.62c-1.27.48-4,.71-8.22.71a25.06,25.06,0,0,1-7.16-.68c-1.32-.48-2-1.25-2-2.37a2.63,2.63,0,0,1,2-2.46,8.84,8.84,0,0,0,1.5-.72,3.63,3.63,0,0,0,1.42-2.44,12.88,12.88,0,0,0,.27-2.55l0-12.49a21.9,21.9,0,0,0-1.67-8.94,5.87,5.87,0,0,0-5.83-3.53,7,7,0,0,0-4.09,1.4,9,9,0,0,0-3,3.74,16.5,16.5,0,0,0-1.24,5.22c-.08.84-.19,1.92-.2,3.23l-.09,11.51a12.85,12.85,0,0,0,.27,2.94A2.81,2.81,0,0,0,109,149a8.84,8.84,0,0,0,1.5.72,2.64,2.64,0,0,1,2,2.46,2.49,2.49,0,0,1-2,2.37,24.63,24.63,0,0,1-7.09.68q-6.31,0-8.2-.71C94,154,93,153.25,93,152c0-.95,1-1.84,2.33-2.35l1.06-.5a3.8,3.8,0,0,0,1.51-2.48,32.21,32.21,0,0,0,.44-6.59V126.36q0-15.08-.24-19.85c-.18-3.17-.46-5.07-.87-5.68a6.18,6.18,0,0,0-2.8-1.31C92.81,99,92,98.27,92,97.28a2.59,2.59,0,0,1,1-2A20,20,0,0,1,97.55,93a24,24,0,0,1,4-1.19,17.38,17.38,0,0,1,3.7-.44,2.13,2.13,0,0,1,1.9.81,5.07,5.07,0,0,1,.56,2.78c0,.2,0,.8-.08,1.84q-.31,8.52-.31,17.33Zm48.27,16.46H155a5.65,5.65,0,0,0-2.65.36,3.14,3.14,0,0,0-.41,2,13.38,13.38,0,0,0,3.56,9.34,11.26,11.26,0,0,0,8.67,3.91,13,13,0,0,0,4.21-.7,14.37,14.37,0,0,0,4-2.18c.35-.27.84-.67,1.45-1.21,1.32-1.19,2.37-1.79,3.1-1.79a1.93,1.93,0,0,1,1.46.62,2.07,2.07,0,0,1,.57,1.5,5.1,5.1,0,0,1-1,2.58,14.36,14.36,0,0,1-2.69,3,24.92,24.92,0,0,1-6.69,4.5,18,18,0,0,1-7,1.35,18.3,18.3,0,0,1-14.2-6.34A22.58,22.58,0,0,1,141.63,134c0-6.81,2-12.39,5.85-16.79a19.14,19.14,0,0,1,15-6.57q7.7,0,12.2,4.78c3,3.19,4.5,7.51,4.5,12.93,0,1.79-.24,3-.73,3.54s-1.72.86-3.71.86Zm-.8-5h13a4.2,4.2,0,0,0,2-.33,1.47,1.47,0,0,0,.49-1.3,10.15,10.15,0,0,0-2.58-7.07,8.41,8.41,0,0,0-6.53-2.88,8,8,0,0,0-6.28,2.88,10.37,10.37,0,0,0-2.5,7.07,1.54,1.54,0,0,0,.45,1.3,4,4,0,0,0,2,.33m42.73-10.11.38.17a19.88,19.88,0,0,1,4.28-5.35,7.1,7.1,0,0,1,4.51-1.84,5.68,5.68,0,0,1,4.41,1.81,7,7,0,0,1,1.64,4.88,8,8,0,0,1-1.26,4.78,4.13,4.13,0,0,1-3.52,1.74,4.62,4.62,0,0,1-2-.44,5,5,0,0,1-1.65-1.27,5.86,5.86,0,0,1-.93-1.73c-.28-.75-.57-1.12-.88-1.12-1.84,0-3.12,1.38-3.86,4.16s-1.09,8.56-1.09,17.39a24.6,24.6,0,0,0,.49,5.73A3.33,3.33,0,0,0,199.5,149a14.37,14.37,0,0,0,1.58.58c1.6.56,2.41,1.44,2.41,2.6s-.75,1.87-2.22,2.34a28.49,28.49,0,0,1-7.73.71c-4,0-6.72-.23-8-.71s-2.35-1.22-2.35-2.5c0-1,1-1.84,2.31-2.35l1.08-.5a2.93,2.93,0,0,0,1.33-1.94,12,12,0,0,0,.39-3.24l-.05-18.52a20.13,20.13,0,0,0-.19-2.6c-.21-1.64-.6-2.62-1.17-3a12.31,12.31,0,0,0-1.84-.76c-1.59-.55-2.37-1.32-2.37-2.28a2.47,2.47,0,0,1,.71-1.79,7.46,7.46,0,0,1,2.51-1.48,39.6,39.6,0,0,1,5.33-2,16.39,16.39,0,0,1,3.59-.72c1.29,0,2.14,2,2.56,5.87Zm30.8,15.09h-.54a5.57,5.57,0,0,0-2.65.36,3.12,3.12,0,0,0-.42,2,13.39,13.39,0,0,0,3.57,9.34,11.26,11.26,0,0,0,8.67,3.91,13.11,13.11,0,0,0,4.22-.7,14.76,14.76,0,0,0,3.95-2.18c.35-.27.84-.67,1.44-1.21,1.33-1.19,2.38-1.79,3.1-1.79a1.9,1.9,0,0,1,1.46.62,2.07,2.07,0,0,1,.57,1.5,5,5,0,0,1-1,2.58,14.58,14.58,0,0,1-2.68,3,25,25,0,0,1-6.7,4.5,18,18,0,0,1-7,1.35,18.25,18.25,0,0,1-14.19-6.34A22.53,22.53,0,0,1,214.36,134c0-6.81,1.95-12.39,5.84-16.79a19.16,19.16,0,0,1,15-6.57q7.71,0,12.21,4.78c3,3.19,4.5,7.51,4.5,12.93,0,1.79-.24,3-.73,3.54s-1.73.86-3.71.86Zm-.8-5h12.95a4.18,4.18,0,0,0,2-.33,1.47,1.47,0,0,0,.51-1.3,10.11,10.11,0,0,0-2.59-7.07,8.42,8.42,0,0,0-6.53-2.88,8,8,0,0,0-6.29,2.88,10.42,10.42,0,0,0-2.5,7.07,1.54,1.54,0,0,0,.46,1.3,4,4,0,0,0,2,.33"/><path d="M25.21,45c2.19,0,3.72-.35,4.58-1,1.92-1.49,1.62-3.49,2.23-5.57.51-1.75,1.31-2.63,2.4-2.63s2,.8,2.46,2.43a39.86,39.86,0,0,1,.81,9.65c0,3.6-.07,7.34-.79,9.93-.44,1.59-1.27,2.4-2.48,2.4a2.14,2.14,0,0,1-1.91-1.3c-1.39-2.49-.27-4.72-2.69-6.63-.88-.69-2.42-1-4.61-1H18.46a1.59,1.59,0,0,0-1.55.74,9.84,9.84,0,0,0-.4,3.59c0,5.31-.29,10.75.28,16,.18,1.77.53,2.84,1,3.23a7.26,7.26,0,0,0,1.82,1c1.69.71,2.55,1.68,2.55,2.88s-.77,2.23-2.3,2.75-4.45.77-8.74.77c-4.44,0-7.4-.26-8.91-.77A2.88,2.88,0,0,1,0,78.62c0-1.11.74-2,2.19-2.62A6.81,6.81,0,0,0,4.8,74.41a5.13,5.13,0,0,0,.53-2.36c.45-14.18.19-30.21,0-44.06a6.57,6.57,0,0,0-.54-2.86,6.92,6.92,0,0,0-2.6-1.61C.74,22.84,0,21.9,0,20.67A2.39,2.39,0,0,1,1.92,18.3c1.25-.42,4.27-.64,9-.64H36.29a18.69,18.69,0,0,0,3.94-.9c1.38-.34,2.09-.5,2.15-.5l1.06.28c2.48,1.48,4.2,8.26,4.2,10.87A5.76,5.76,0,0,1,47,30.47,2.18,2.18,0,0,1,45,31.57c-1,0-2.27-1-3.41-3.1-1.33-2.39-2-2.91-4.65-3.94-4-1.53-12.28-1.18-16.35-.26a4.53,4.53,0,0,0-2.79,1.56,8.9,8.9,0,0,0-1,3.81,118.18,118.18,0,0,0-.31,12.2,6.11,6.11,0,0,0,.34,2.67c.23.34.73.52,1.53.52ZM79,69.55a13.83,13.83,0,0,0,.39,3.8,2.05,2.05,0,0,0,1.24,1.5l1.27.39c1.75.5,2.62,1.28,2.62,2.27,0,1.43-.9,2.77-2.79,3.89-7.1,4.18-10.73-1.18-12.51-2.94a5.6,5.6,0,0,0-1.78,1,17.91,17.91,0,0,1-10.31,3.7,13.11,13.11,0,0,1-9.78-3.79,14.38,14.38,0,0,1,1.08-21.16q4.8-4,13.42-4a32.89,32.89,0,0,1,3.55.2c1.29.13,2.69.32,4.17.59V50.23A10.17,10.17,0,0,0,68,44.13,5.34,5.34,0,0,0,63.44,42c-3,0-5.32,1.7-7.14,3.95l-.88,1.16c-1.67,2.29-3.45,3.44-5.31,3.44a3.89,3.89,0,0,1-3.75-2c-2-4,2-7.46,5-9.26q4.8-2.88,12.34-2.88a21.63,21.63,0,0,1,7.9,1.31,11.3,11.3,0,0,1,5.12,3.82A10.78,10.78,0,0,1,78.44,46,56.54,56.54,0,0,1,79,55.12Zm-9.43-8.87a27.62,27.62,0,0,0-3.16-.59,20.69,20.69,0,0,0-2.87-.2A10.37,10.37,0,0,0,56.57,62a7.44,7.44,0,0,0-2.51,6,7.67,7.67,0,0,0,2.17,5.71A7.87,7.87,0,0,0,62,75.83a6.64,6.64,0,0,0,5.37-2.61,7.84,7.84,0,0,0,2.12-4.94c.13-2.53,0-5.08,0-7.6m32.86-18.84v.51l.08.49.24.07.22-.06.18-.1,1-1,.48-.47q5-4.95,10-4.95a11.53,11.53,0,0,1,3.7.61,12.85,12.85,0,0,1,3.44,1.89A14.35,14.35,0,0,1,124.87,42c1,1.34,1.67,2,1.91,2s.92-.47,1.64-1.38a14,14,0,0,1,1.85-2,18.27,18.27,0,0,1,4.67-3.34,10.35,10.35,0,0,1,4.38-.92,16.43,16.43,0,0,1,8.4,2.08A13.31,13.31,0,0,1,153,44.33a20.81,20.81,0,0,1,1.87,9.32l-.09,16.89a11.47,11.47,0,0,0,.42,3.69A3.47,3.47,0,0,0,156.64,76l1.07.47c1.39.56,2.09,1.32,2.09,2.33a2.63,2.63,0,0,1-1.94,2.64c-1.29.46-4.08.7-8.38.7q-5.91,0-7.92-.66a2.49,2.49,0,0,1-2-2.38c0-1.15.74-2,2.19-2.66a15.2,15.2,0,0,0,1.47-.7,3.87,3.87,0,0,0,1.44-2.81,44.71,44.71,0,0,0,.42-7.5q0-13.28-1.66-16.85t-6-3.55a7.08,7.08,0,0,0-6.89,4.52c-1.17,2.55-2,6.61-2,12.19l0,8.4a20.57,20.57,0,0,0,.37,3.67A3.08,3.08,0,0,0,130.36,76l1.07.47c1.34.56,2,1.32,2,2.33a2.62,2.62,0,0,1-1.91,2.64c-1.26.46-4,.7-8.25.7q-5.81,0-7.79-.66a2.48,2.48,0,0,1-2-2.38,2.73,2.73,0,0,1,2.1-2.55,11.38,11.38,0,0,0,1.6-.73,3.49,3.49,0,0,0,1.25-2.38,20.94,20.94,0,0,0,.31-3.09c.12-2.49.08-5.19,0-8-.13-7.09-.7-11.66-1.64-13.68C116,46.23,114,45,111.09,45a7,7,0,0,0-4.19,1.43,9.57,9.57,0,0,0-3,3.85,17.93,17.93,0,0,0-1.32,5.7c-.27,2.43-.38,6.47-.38,12.08a29.24,29.24,0,0,0,.35,5.65,3.06,3.06,0,0,0,1.28,2.08,11.16,11.16,0,0,0,1.55.73,2.75,2.75,0,0,1,2.1,2.55c0,1.13-.68,1.94-2,2.42a26.33,26.33,0,0,1-7.47.71c-4.22,0-7-.24-8.33-.74a2.7,2.7,0,0,1-2-2.69c0-1,.68-1.77,2-2.33L90.7,76c1.51-.92,1.88-3.15,1.86-4.76l-.09-18.36a30.59,30.59,0,0,0-.26-3.94c-.22-1.68-.62-2.69-1.2-3.06a13.65,13.65,0,0,0-1.91-.77c-1.64-.58-2.46-1.37-2.46-2.36A2.42,2.42,0,0,1,87.37,41,9,9,0,0,1,90,39.47,50,50,0,0,1,96,37.22a16.51,16.51,0,0,1,4.11-.84,1.91,1.91,0,0,1,1.62.75,4.25,4.25,0,0,1,.63,2.34Zm75.8,25.7c0,.79,0,1.54,0,2.26a27.74,27.74,0,0,0,.32,3.75,3,3,0,0,0,1.27,2.27,11.39,11.39,0,0,0,1.56.73,2.75,2.75,0,0,1,2.1,2.55,2.55,2.55,0,0,1-2,2.42,26.06,26.06,0,0,1-7.42.71c-4.22,0-7-.24-8.37-.74a2.69,2.69,0,0,1-2-2.69c0-1,.68-1.77,2-2.33l1.07-.47a3.55,3.55,0,0,0,1.51-2.14,6.79,6.79,0,0,0,.33-2l0-20v-2c0-1.16-.1-3.15-1.43-4a11.23,11.23,0,0,0-1.94-.78c-1.67-.58-2.5-1.37-2.5-2.36a2.49,2.49,0,0,1,.77-1.79A8,8,0,0,1,166,39.39a49.67,49.67,0,0,1,6.23-2.17,19.85,19.85,0,0,1,4.41-.84c2.36,0,1.56,2.3,1.56,3.8,0,1.07,0,2,0,2.64s-.06,1.36,0,2ZM191.67,26.1c0-4.54-5.83-6.16,3.62-9a14.84,14.84,0,0,1,4.31-.61,1.87,1.87,0,0,1,1.74.84,6,6,0,0,1,.52,2.94c0,.39,0,1.54-.08,3.43-.08,2.49-.19,5-.2,7.5l-.23,33.49c0,3,.12,5.19.21,6.42.17,2.19.49,3.57.94,4.14a6.88,6.88,0,0,0,2.32,1.29,2.7,2.7,0,0,1,1.92,2.55c0,1.13-.69,1.94-2.06,2.42a26.58,26.58,0,0,1-7.47.71c-4.22,0-7-.24-8.32-.74a2.68,2.68,0,0,1-2-2.69,2.46,2.46,0,0,1,1.71-2.21,7.68,7.68,0,0,0,2.1-1.24,5.16,5.16,0,0,0,1-3.46Zm45,44.19q-6.79,18.61-11.19,24.21c-2.94,3.75-6.42,5.61-10.44,5.61-3.79,0-7.53-2.46-7.53-6.53a5.36,5.36,0,0,1,5.5-5.45,4.69,4.69,0,0,1,1.82.33l1.28,1c.29.39.67,1,1.11,1.67.72,1.18,1.33,1.76,1.88,1.76,1.39,0,2.82-1.1,4.25-3.28a12.21,12.21,0,0,0,2.17-6.81c0-2.56-1-6.19-2.89-10.93l-.45-1.06c-3.37-8.15-6.58-16.51-10.41-24.44a5.75,5.75,0,0,0-3.12-2.71l0,0a5,5,0,0,1-1.93-1.23,2.44,2.44,0,0,1-.5-1.57,2.8,2.8,0,0,1,2.18-2.74q2.2-.76,8.23-.77c4,0,6.71.22,8.06.69a2.61,2.61,0,0,1,2,2.53c0,1.82-1.1,1.75-2.64,2.41-1.06.47-1.59,1-1.59,1.46a19,19,0,0,0,1,3.88q.84,2.46,3.35,9c1.58,4.12,2.74,6.91,3.46,8.36s1.26,2.16,1.67,2.16c.25,0,.7-.69,1.34-2.12s1.54-3.75,2.7-7c1.41-3.85,2.42-6.81,3.06-8.92a18.83,18.83,0,0,0,1-4.26c0-.87-.77-1.78-2.32-2.72s-2.31-1.8-2.31-2.57c0-1,.62-1.77,1.87-2.23a22.52,22.52,0,0,1,6.58-.65c3.3,0,5.54.22,6.71.69a2.56,2.56,0,0,1,1.74,2.53c0,1.09-.78,1.84-2.34,2.28a8.83,8.83,0,0,0-1.71.63c-1.56.91-3.22,3.93-5,9-2,6-4.29,11.92-6.48,17.87"/><path d="M169,0a15.74,15.74,0,1,1-15.72,15.73A15.76,15.76,0,0,1,169,0"/></g></g></svg>