<svg style="fill: #FFF" xmlns="http://www.w3.org/2000/svg" width="61.126" height="18.399" viewBox="0 0 61.126 18.399">
  <g id="Groupe_24" data-name="Groupe 24" transform="translate(0.008 -0.03)">
    <g id="Groupe_23" data-name="Groupe 23" transform="translate(-0.008 0.03)">
      <path id="Tracé_147" data-name="Tracé 147" d="M25.394,13.3c-.08.32-.16.591-.224.863-.24.975-.527,1.949-.687,2.939a3.908,3.908,0,0,0,.24,1.246,5.082,5.082,0,0,0,1.326-.511,3.014,3.014,0,0,0,.783-1.086,17.6,17.6,0,0,0,.927-2.109c.383-1.07.655-2.189,1.022-3.275a1.1,1.1,0,0,1,.559-.607A8.2,8.2,0,0,1,31,10.489a.663.663,0,0,1,.543.288,9.094,9.094,0,0,1,.383,1.438c.128.687.559.927,1.15.671a7.34,7.34,0,0,0,1.629-.975c1.07-.783,1.054-.8,1.949.16a1.49,1.49,0,0,0,2.364.224c.415-.3.8-.655,1.2-.99,1.166,1.725,2.061,1.933,3.642.687a29.194,29.194,0,0,0,2.812-2.812c.3-.32.575-.655.863-.99.1.032.208.048.3.08-.16,1.358-1.054,2.7-.32,4.026.415-.032.815-.064,1.262-.1.288-1.23.623-2.46.863-3.706a2.735,2.735,0,0,1,1.614-2.125,5.6,5.6,0,0,0,1.054-.911A2.69,2.69,0,0,0,51.227,5.2c-.687-.048-1.15-.256-.863-1.1a1.1,1.1,0,0,0-.016-.783,3.453,3.453,0,0,0-.7-.655c-.176.208-.415.367-.511.607a7.462,7.462,0,0,0-.32,1.31.9.9,0,0,1-1.038.847,9.893,9.893,0,0,0-1.47.128c1.6,1.566.351,2.38-.5,3.307a3.864,3.864,0,0,1-.511.511c-.671.511-1.31,1.07-2.029,1.518-.559.335-1.006.16-1.15-.591.272-.1.527-.176.767-.288A3.932,3.932,0,0,0,45.06,7.693C45.316,6.91,45,6.351,44.181,6.4a4.609,4.609,0,0,0-1.949.527A4.722,4.722,0,0,0,40.092,9.8,1.6,1.6,0,0,1,38.574,11c-.847.1-1.214-.415-.847-1.182.128-.272.3-.511.431-.767a1.4,1.4,0,0,0-.767-2.013.725.725,0,0,0-.607.176c-.847.719-1.645,1.486-2.492,2.2a5.239,5.239,0,0,1-.895.431c.24-.591.431-.943.543-1.31a1.383,1.383,0,0,0-.959-1.629c-.639-.256-.655.383-.911.655-.144.16-.224.367-.367.511A10.211,10.211,0,0,1,30.011,9.61c-.767.463-1.2.128-1.15-.751a1.328,1.328,0,0,0,.016-.559,3.635,3.635,0,0,0-.383-.623,5.173,5.173,0,0,0-.559.431,3.712,3.712,0,0,0-.4.751c-.176-.479-.272-.735-.367-1.006-.272-.719-.7-.975-1.422-.735a2.375,2.375,0,0,0-1.086.623A14.779,14.779,0,0,0,23,10.041a1.662,1.662,0,0,1-2.4.847A8.1,8.1,0,0,0,21.432,8.6c.1-.639-.831-1.5-1.23-1.2-.655.5-1.246,1.086-1.869,1.645-.367.32-.735.639-1.118.959-.1-.032-.192-.08-.288-.112.3-1.118.559-2.2-1.07-2.428a4.468,4.468,0,0,1-3.323,2.668c-.575.16-.8-.08-.911-.575a12.145,12.145,0,0,0-.256-1.326c-.208-.671-.687-.815-1.342-.5a2.957,2.957,0,0,1-1.518,3.435c-.5.224-.927.176-1.31-.511A16.6,16.6,0,0,1,8.844,9.626c.783-.351.975-.671.639-1.534-.3-.831-.623-.959-1.47-.671-1.9.671-2.54,2.253-2.78,4.026A2.022,2.022,0,0,0,7.566,13.8,4.662,4.662,0,0,0,11.08,11.7c.224-.288.447-.575.687-.895.8.767,1.47.08,2.2-.1.016.208.016.367.032.527.08.863.224,1.773,1.134,2.125.911.367,1.55-.3,2.157-.863a.837.837,0,0,0,.16-.176l.863-.911c.751.639.911,2,2.045,1.773a9.612,9.612,0,0,0,2.4-1.2C23.589,13.844,23.589,13.844,25.394,13.3ZM8.812,5.073c-.048-.128-.112-.272-.16-.4-1.422.383-2.828.783-4.233,1.166a1.591,1.591,0,0,1,.847-2.173c1.022-.479,2.125-.831,3.2-1.23.863-.32,1.757-.607,2.6-.975.192-.08.447-.415.415-.591a.893.893,0,0,0-.5-.623A2.774,2.774,0,0,0,9.738.041c-1.645.176-3.259.5-4.9.623A5.044,5.044,0,0,0,.68,3.044c-.224.351-.32.591.208.767,1.278.4,1.438.735.879,1.949C1.351,6.671.808,7.533.409,8.46a5.517,5.517,0,0,0-.4,1.757c-.048.815.016,1.629.048,2.444,0,.256.032.5.048.751.08.048.16.08.24.128a5.754,5.754,0,0,0,.879-1.006c.5-.911.927-1.853,1.342-2.8A3.9,3.9,0,0,1,4.371,7.821C5.888,6.99,7.326,6,8.812,5.073ZM54.23,9.962c.288.847,1.39,1.054,1.374,2.077,0,.08.24.24.367.24a19.612,19.612,0,0,0,3.371-.367A1.426,1.426,0,0,0,60.221,9.9a6.96,6.96,0,0,0-.767-1.39c-.367-.575-.256-.927.4-1.134a2.193,2.193,0,0,0,.99-.463,1.478,1.478,0,0,0,.272-.99c0-.1-.543-.3-.783-.24A11.184,11.184,0,0,0,58.32,6.4,1.069,1.069,0,0,0,57.793,8c.24.511.463,1.022.719,1.614C56.962,9.61,55.508,9.163,54.23,9.962Zm2.524-5.687c1.262-.575,1.39-1.038.543-1.741C57.122,3.076,56.962,3.587,56.754,4.274Z" transform="translate(0.008 -0.03)" fill="#fff"/>
      <path id="Tracé_148" data-name="Tracé 148" d="M53.093,27.56c-1.805.543-1.805.543-2.588-1.23a9.611,9.611,0,0,1-2.4,1.2c-1.15.208-1.294-1.15-2.045-1.773l-.863.911c-.048.064-.112.112-.16.176-.623.543-1.246,1.23-2.157.863s-1.038-1.262-1.134-2.125c-.016-.16-.016-.32-.032-.527-.735.176-1.406.863-2.2.1-.24.32-.463.607-.687.895a4.784,4.784,0,0,1-3.515,2.093,2.033,2.033,0,0,1-2.332-2.348c.224-1.773.863-3.355,2.78-4.026.847-.3,1.166-.16,1.47.671.32.863.144,1.182-.639,1.534A12.256,12.256,0,0,0,34.945,25c.383.687.815.735,1.31.511a2.975,2.975,0,0,0,1.518-3.435c.655-.32,1.134-.16,1.342.5.128.431.16.895.256,1.326.112.479.335.719.911.575A4.441,4.441,0,0,0,43.6,21.809c1.629.224,1.358,1.326,1.07,2.428.1.032.192.08.288.112.367-.32.751-.639,1.118-.959.623-.543,1.214-1.134,1.869-1.645.4-.3,1.326.559,1.23,1.2a8.729,8.729,0,0,1-.463,1.518,6.754,6.754,0,0,1-.367.767,1.662,1.662,0,0,0,2.4-.847,15.577,15.577,0,0,1,1.661-2.3,2.623,2.623,0,0,1,1.086-.623c.719-.24,1.15.016,1.422.735.1.256.192.527.367,1.006a4.768,4.768,0,0,1,.4-.751,3.718,3.718,0,0,1,.559-.431,3.635,3.635,0,0,1,.383.623,1.333,1.333,0,0,1-.016.559c-.048.879.383,1.214,1.15.751a10.211,10.211,0,0,0,1.693-1.534c.144-.144.224-.367.367-.511.256-.272.272-.911.911-.655a1.383,1.383,0,0,1,.959,1.629,12.38,12.38,0,0,1-.543,1.31,5.933,5.933,0,0,0,.895-.431c.847-.719,1.645-1.486,2.492-2.2a.8.8,0,0,1,.607-.176,1.4,1.4,0,0,1,.767,2.013c-.144.256-.3.5-.431.767-.351.767,0,1.262.847,1.182a1.636,1.636,0,0,0,1.518-1.2,4.664,4.664,0,0,1,2.141-2.876,4.609,4.609,0,0,1,1.949-.527c.8-.048,1.134.511.879,1.294a3.886,3.886,0,0,1-2.173,2.316c-.24.112-.5.192-.767.288.128.751.591.927,1.15.591a18.625,18.625,0,0,0,2.029-1.518,5.146,5.146,0,0,0,.511-.511c.847-.911,2.093-1.741.5-3.307a12.7,12.7,0,0,1,1.47-.128.886.886,0,0,0,1.038-.847,11.206,11.206,0,0,1,.32-1.31c.1-.24.335-.4.511-.607a2.765,2.765,0,0,1,.7.655,1.1,1.1,0,0,1,.016.783c-.288.847.176,1.054.863,1.1a2.988,2.988,0,0,1,1.086.256,5.6,5.6,0,0,1-1.054.911,2.718,2.718,0,0,0-1.614,2.125c-.24,1.246-.575,2.476-.863,3.706l-1.262.1c-.735-1.326.16-2.668.32-4.026-.1-.032-.208-.048-.3-.08-.288.335-.559.671-.863.99a29.193,29.193,0,0,1-2.812,2.812c-1.582,1.246-2.476,1.038-3.642-.687-.4.335-.783.687-1.2.99A1.49,1.49,0,0,1,64.4,26.41c-.895-.959-.895-.943-1.949-.16a9.355,9.355,0,0,1-1.629.975c-.591.24-1.022.016-1.15-.671a8.658,8.658,0,0,0-.383-1.438.686.686,0,0,0-.543-.288,7.364,7.364,0,0,0-1.661.272.963.963,0,0,0-.559.607c-.367,1.086-.655,2.189-1.022,3.275a17.6,17.6,0,0,1-.927,2.109,3.217,3.217,0,0,1-.783,1.086,5.082,5.082,0,0,1-1.326.511,3.582,3.582,0,0,1-.24-1.246c.16-.99.447-1.965.687-2.939A4.473,4.473,0,0,1,53.093,27.56Zm1.566-3.4c-.032-.112-.048-.208-.08-.32-.367-.064-.895-.335-1.086-.176a4.739,4.739,0,0,0-.943,1.326.4.4,0,0,0,.064.415.457.457,0,0,0,.431.016C53.588,25,54.116,24.572,54.659,24.157ZM71.4,22.048c-1.15,0-1.47.4-1.166,1.39C70.682,22.911,71.034,22.48,71.4,22.048Z" transform="translate(-27.691 -14.289)"/>
      <path id="Tracé_149" data-name="Tracé 149" d="M8.812,5.073C7.342,6,5.888,6.99,4.371,7.821A3.9,3.9,0,0,0,2.565,9.738c-.415.943-.847,1.885-1.342,2.8A5.754,5.754,0,0,1,.345,13.54c-.08-.048-.16-.08-.24-.128-.016-.256-.048-.5-.048-.751-.032-.815-.1-1.629-.048-2.444a5.119,5.119,0,0,1,.4-1.757c.4-.927.943-1.789,1.358-2.7.559-1.214.4-1.55-.879-1.949C.361,3.651.457,3.4.68,3.044A5.06,5.06,0,0,1,4.834.664C6.479.536,8.093.217,9.738.041a2.81,2.81,0,0,1,1.246.208.962.962,0,0,1,.5.623.814.814,0,0,1-.415.591c-.847.367-1.741.655-2.6.975-1.07.4-2.157.735-3.2,1.23A1.591,1.591,0,0,0,4.419,5.84c1.406-.383,2.828-.783,4.233-1.166A4.16,4.16,0,0,0,8.812,5.073Z" transform="translate(0.008 -0.03)"/>
      <path id="Tracé_150" data-name="Tracé 150" d="M339.5,39.7c1.294-.8,2.732-.351,4.281-.335-.256-.591-.479-1.118-.719-1.614a1.069,1.069,0,0,1,.527-1.6,11.184,11.184,0,0,1,2.013-.719c.24-.064.783.144.783.24a1.418,1.418,0,0,1-.272.99,2.193,2.193,0,0,1-.99.463c-.655.208-.767.559-.4,1.134a6.959,6.959,0,0,1,.767,1.39,1.422,1.422,0,0,1-.879,2.013,21.338,21.338,0,0,1-3.371.367c-.112.016-.367-.16-.367-.24C340.89,40.757,339.772,40.549,339.5,39.7Z" transform="translate(-285.262 -29.77)"/>
      <path id="Tracé_151" data-name="Tracé 151" d="M355.3,17.441c.208-.687.367-1.182.543-1.741C356.69,16.4,356.562,16.866,355.3,17.441Z" transform="translate(-298.538 -13.197)"/>
      <path id="Tracé_152" data-name="Tracé 152" d="M157.506,58.934c-.543.415-1.07.863-1.629,1.262a.459.459,0,0,1-.431-.016.481.481,0,0,1-.064-.415,4.739,4.739,0,0,1,.943-1.326c.192-.16.719.112,1.086.176A1.06,1.06,0,0,1,157.506,58.934Z" transform="translate(-130.538 -49.066)" fill="#fff"/>
      <path id="Tracé_153" data-name="Tracé 153" d="M266.9,48.6c-.367.431-.719.863-1.166,1.39C265.428,49,265.748,48.6,266.9,48.6Z" transform="translate(-223.188 -40.841)" fill="#fff"/>
    </g>
  </g>
</svg>
