<svg style="fill: #FFF" xmlns="http://www.w3.org/2000/svg" viewBox="0 0 475.91 81.91"><g id="Calque_2" data-name="Calque 2"><g id="Calque_1-2" data-name="Calque 1"><path class="cls-1" d="M155.63,81V26.6h14V31a23.85,23.85,0,0,1,15.32-5.5,24.45,24.45,0,0,1,18.8,8.75c3.58,4.26,5.59,9.76,5.59,19.07V81H194.79V52.18c0-5.39-1.23-8.19-3.25-10.21a11.4,11.4,0,0,0-8.16-3,17.3,17.3,0,0,0-13.2,6.73V81ZM312.81,46.71a10.8,10.8,0,0,0-10.71-9.49c-6,0-10.93,4.58-11.6,9.49Zm13.5,25.48c-5.24,6.26-13.83,9.72-22.2,9.72-16.18,0-28.34-11.17-28.34-28.16,0-15.08,10.26-28.27,26.33-28.27,14.95,0,25.55,12.63,25.55,27.71a23.2,23.2,0,0,1-.34,4.14H289.83c.78,7.6,6.91,12.85,14.61,12.85a19.09,19.09,0,0,0,13.61-6.26l8.26,8.27Zm-197-26.59a16.63,16.63,0,0,0-13.4-6.71c-8.5,0-14,7-14,14.86,0,8.5,6.14,14.75,14.3,14.75a15.86,15.86,0,0,0,13.07-6.7ZM143.8,80.79h-14V76.44a22.65,22.65,0,0,1-15.08,5.47A27.24,27.24,0,0,1,94.3,72.75a29.08,29.08,0,0,1-6.93-19c0-16,11.85-28.27,26.6-28.27A24.83,24.83,0,0,1,129.83,31V26.6h14V80.79ZM272.13,69.73c-6.38,8.49-14.43,12.18-24.61,12.18-16.78,0-29.09-12.51-29.09-28.16s12.64-28.27,29.2-28.27a29,29,0,0,1,22.82,10.84l-10.29,9a15.72,15.72,0,0,0-12.53-6.48A14.54,14.54,0,0,0,233,53.75c0,8.5,6.15,14.75,15,14.75a15.88,15.88,0,0,0,13-7.15l11.19,8.38ZM84.79,39.5a20.3,20.3,0,0,0-5.24-.56c-6.36,0-11.38,4.6-13.17,7.85V81H51.88V26.6H65.82v5.5c3.24-4,9.15-6.62,15.73-6.62a29.84,29.84,0,0,1,4.91.45L84.79,39.5Zm-41.53-26a18.57,18.57,0,0,0-4.38-.56c-3.6,0-6.41,1-8.21,3.15-1.23,1.57-2,3.6-2,8.66v1.69H45.51V38.81H28.65V81H14.05V38.81H0V26.44H14.05V24.19c0-8.78,2-14.07,5.84-17.78S29.44,0,36.85,0a33,33,0,0,1,8.66,1ZM371.34,53.24a15,15,0,1,1-15-15,15,15,0,0,1,15,15m31.88-27.1V10.93H388.57V26.14H374.49v12.4h14.08V57.69c0,7.77,1.24,12.62,4.05,16.33,3.72,5,10.14,7.89,18.93,7.89a35.83,35.83,0,0,0,9.12-1.13l-2.25-12.39a35.14,35.14,0,0,1-6,.57c-3.61,0-6-1-7.44-2.71-1.24-1.46-1.8-3.49-1.8-6.87V38.54h18l19.42,42.25h10.14l25.12-54.65H460.7l-15,33.35-15-33.35Z"/></g></g></svg>