<svg xmlns="http://www.w3.org/2000/svg" width="57.468" height="28.212" viewBox="0 0 57.468 28.212" style="fill: #FFF">
  <g id="Groupe_21" data-name="Groupe 21" transform="translate(0 0.146)">
    <path id="Tracé_86" data-name="Tracé 86" d="M289.4,60.605v-7.6c0-.244.116-.33.351-.26.131.04.26.085.391.128q3.357,1.131,6.714,2.259a.466.466,0,0,1,.382.528v9.889a.478.478,0,0,1-.391.54q-3.494,1.172-6.988,2.348l-.086.027c-.266.079-.372,0-.372-.275Z" transform="translate(-280.564 -51.255)"/>
    <path id="Tracé_87" data-name="Tracé 87" d="M1435.384,35.283v8.3c0,.052,0,.1,0,.153-.012.238-.107.305-.336.232a.926.926,0,0,1-.192-.092c-1.432-.9-2.861-1.814-4.292-2.714a.508.508,0,0,1-.266-.485q0-5.395,0-10.789a.518.518,0,0,1,.266-.488c1.426-.895,2.845-1.8,4.271-2.693a1.157,1.157,0,0,1,.4-.122c.037-.006.113.061.128.107a.8.8,0,0,1,.025.256Z" transform="translate(-1386.63 -25.917)"/>
    <path id="Tracé_88" data-name="Tracé 88" d="M624.4,34.482V26.01c.006-.232.092-.3.321-.223a1.1,1.1,0,0,1,.232.116c1.4.888,2.809,1.783,4.219,2.662a.614.614,0,0,1,.318.586q-.009,5.326,0,10.655a.607.607,0,0,1-.311.574c-1.423.888-2.836,1.792-4.259,2.684a1.156,1.156,0,0,1-.369.113c-.095.018-.14-.043-.143-.134,0-.076-.006-.153-.006-.229Z" transform="translate(-605.337 -25.113)"/>
    <path id="Tracé_89" data-name="Tracé 89" d="M902.8,9.77V.644a.773.773,0,0,1,0-.168c.018-.076.049-.214.082-.217a.5.5,0,0,1,.354.052c.739.69,1.465,1.4,2.2,2.1.314.3.626.611.949.9a.712.712,0,0,1,.244.58q0,3.151,0,6.3c0,1.817,0,3.633,0,5.45a.781.781,0,0,1-.266.617c-.989.931-1.966,1.875-2.949,2.812a1.41,1.41,0,0,0-.113.122.387.387,0,0,1-.409.116.175.175,0,0,1-.085-.11.983.983,0,0,1-.012-.214Q902.8,14.38,902.8,9.77Z" transform="translate(-875.229 -0.386)"/>
    <path id="Tracé_90" data-name="Tracé 90" d="M1196.595,9.411v9.1a.74.74,0,0,1,0,.183c-.018.076-.049.208-.086.211a.437.437,0,0,1-.324-.049c-1.053-1-2.1-2.015-3.148-3.023a.719.719,0,0,1-.235-.553q0-5.889,0-11.782a.7.7,0,0,1,.229-.54q1.548-1.47,3.093-2.949c.021-.021.046-.043.067-.064a.275.275,0,0,1,.324-.058c.052.024.082.153.082.232Z" transform="translate(-1156.383)"/>
    <path id="Tracé_91" data-name="Tracé 91" d="M788.518,798.371h.934a1.169,1.169,0,0,1-.885,1.072,2.871,2.871,0,0,1-1.581.021,1.321,1.321,0,0,1-.974-1,3.239,3.239,0,0,1-.006-1.673,1.412,1.412,0,0,1,1.3-1.111,3.824,3.824,0,0,1,.953.021,1.393,1.393,0,0,1,1.212,1.252c.04.253.04.516.064.772.012.131-.034.174-.171.174-.763-.006-1.527,0-2.29,0-.208,0-.208,0-.2.214a.688.688,0,0,0,.693.705,2.533,2.533,0,0,0,.305.009C788.2,798.826,788.454,798.728,788.518,798.371Zm-1.612-1.139c.519,0,1.041,0,1.563,0a.1.1,0,0,0,.067-.061.659.659,0,0,0-.424-.736,1.717,1.717,0,0,0-.452-.034A.728.728,0,0,0,786.906,797.232Z" transform="translate(-761.905 -771.511)"/>
    <path id="Tracé_92" data-name="Tracé 92" d="M990.083,797.84h-2.476c-.189,0-.2.015-.174.2.067.5.263.687.775.724a2.118,2.118,0,0,0,.394-.009.466.466,0,0,0,.437-.345.125.125,0,0,1,.15-.107c.269.006.537,0,.806,0a1.17,1.17,0,0,1-.879,1.081,2.955,2.955,0,0,1-1.478.046,1.351,1.351,0,0,1-1.09-1.1,3.221,3.221,0,0,1,.027-1.643,1.412,1.412,0,0,1,1.291-1.062,3.245,3.245,0,0,1,.91.009,1.431,1.431,0,0,1,1.267,1.34c.024.165.03.333.04.5C990.089,797.586,990.083,797.7,990.083,797.84Zm-1.014-.678a.638.638,0,0,0-.513-.818,1.623,1.623,0,0,0-.543.021.682.682,0,0,0-.547.8Z" transform="translate(-956.337 -771.45)"/>
    <path id="Tracé_93" data-name="Tracé 93" d="M1499.6,796.885c.027-.2.04-.455.095-.7a1.424,1.424,0,0,1,1.16-1.169,2.921,2.921,0,0,1,1.3.009,1.385,1.385,0,0,1,1.087,1.075,3.2,3.2,0,0,1,0,1.585,1.471,1.471,0,0,1-1.423,1.151,4.092,4.092,0,0,1-.986-.046,1.413,1.413,0,0,1-1.175-1.276C1499.634,797.325,1499.624,797.126,1499.6,796.885Zm2.775,0c-.009,0-.018,0-.028,0,0-.122.006-.244,0-.366a.789.789,0,0,0-.947-.833c-.052,0-.1.015-.15.021a.613.613,0,0,0-.592.522,5.707,5.707,0,0,0-.061,1c.021.7.336.968,1.032.91a.671.671,0,0,0,.653-.54C1502.332,797.358,1502.345,797.117,1502.375,796.882Z" transform="translate(-1453.816 -770.819)"/>
    <path id="Tracé_94" data-name="Tracé 94" d="M1770.975,797.1h.889c.006.049.015.095.018.137a.477.477,0,0,0,.486.516,4.051,4.051,0,0,0,.638,0,.388.388,0,0,0,.391-.342c.049-.253-.021-.376-.275-.44-.385-.095-.772-.171-1.157-.266a2.121,2.121,0,0,1-.327-.122.881.881,0,0,1-.562-.895.938.938,0,0,1,.611-.95,2.56,2.56,0,0,1,1.82-.009,1.025,1.025,0,0,1,.684,1.081h-.87a.253.253,0,0,1-.019-.052c-.073-.348-.2-.458-.549-.461a2.441,2.441,0,0,0-.47.037.313.313,0,0,0-.269.308.285.285,0,0,0,.247.305c.3.082.614.137.919.217a3.861,3.861,0,0,1,.632.217.947.947,0,0,1,.55.971.981.981,0,0,1-.574.931,2.738,2.738,0,0,1-1.3.2,2.093,2.093,0,0,1-.87-.2A1.16,1.16,0,0,1,1770.975,797.1Z" transform="translate(-1716.893 -770.456)"/>
    <path id="Tracé_95" data-name="Tracé 95" d="M1314.2,796.005h-.87c-.009-.009-.018-.015-.018-.024-.07-.379-.2-.489-.589-.489a2.353,2.353,0,0,0-.44.037.311.311,0,0,0-.266.311.285.285,0,0,0,.247.3c.3.083.614.137.916.217a3.575,3.575,0,0,1,.617.211.955.955,0,0,1,.562.992.981.981,0,0,1-.6.931,2.777,2.777,0,0,1-1.27.183,2.049,2.049,0,0,1-.87-.2,1.186,1.186,0,0,1-.644-1.2c.272,0,.544,0,.818,0,.027,0,.073.061.079.1.061.421.183.543.6.568a3.7,3.7,0,0,0,.519,0,.391.391,0,0,0,.4-.348c.046-.244-.024-.372-.266-.43-.385-.095-.772-.177-1.157-.266a1.327,1.327,0,0,1-.186-.061.93.93,0,0,1-.69-1.093.964.964,0,0,1,.812-.888,2.8,2.8,0,0,1,1.462.009A1.081,1.081,0,0,1,1314.2,796.005Z" transform="translate(-1270.937 -770.639)"/>
    <path id="Tracé_96" data-name="Tracé 96" d="M1643.706,795.166h.919v.464a.492.492,0,0,0,.073-.089.656.656,0,0,1,.544-.434,2.175,2.175,0,0,1,1.01.034.885.885,0,0,1,.69.9c.015.925.006,1.85.006,2.778a.243.243,0,0,1-.012.04h-.956v-.177c0-.733,0-1.466,0-2.2a.994.994,0,0,0-.052-.357c-.122-.3-.4-.305-.672-.3-.3,0-.476.11-.534.339a1.878,1.878,0,0,0-.046.452c0,.693-.006,1.383,0,2.076,0,.15-.046.192-.189.186-.256-.012-.516,0-.785,0C1643.706,797.63,1643.706,796.406,1643.706,795.166Z" transform="translate(-1593.517 -770.932)"/>
    <path id="Tracé_97" data-name="Tracé 97" d="M556.659,797.925H553.89a.977.977,0,0,0,.7,1.224,3.02,3.02,0,0,0,.83.009.651.651,0,0,0,.589-.537c.024-.1.064-.143.174-.134.134.009.272,0,.421,0a1.081,1.081,0,0,1-.611,1,2.352,2.352,0,0,1-1.936.018,1.38,1.38,0,0,1-.785-1.142,3.513,3.513,0,0,1,.058-1.438,1.385,1.385,0,0,1,1.291-1.111,4.588,4.588,0,0,1,.818-.006,1.2,1.2,0,0,1,1.075.84A2.889,2.889,0,0,1,556.659,797.925Zm-2.778-.5c.009.006.018.015.028.015.681,0,1.362.006,2.042,0,.031,0,.089-.07.085-.1a3.308,3.308,0,0,0-.085-.553.629.629,0,0,0-.479-.467,2.412,2.412,0,0,0-.571-.067A1.009,1.009,0,0,0,553.881,797.421Z" transform="translate(-536.332 -771.636)"/>
    <path id="Tracé_98" data-name="Tracé 98" d="M166.242,796.408h-.559a.908.908,0,0,1,.568-1.081,2.879,2.879,0,0,1,1.246-.137,2.381,2.381,0,0,1,.464.079.833.833,0,0,1,.629.742,3.221,3.221,0,0,1,.031.455c0,.574,0,1.148,0,1.725,0,.269.021.29.281.366a.126.126,0,0,1,.076.085.86.86,0,0,1,0,.2c0,.04-.006.079-.009.116a.68.68,0,0,1-.931-.394c-.009,0-.024,0-.027.006a1.2,1.2,0,0,1-1.069.507,4.121,4.121,0,0,1-.8-.07.736.736,0,0,1-.6-.653,2.6,2.6,0,0,1-.018-.635.66.66,0,0,1,.443-.574,10.6,10.6,0,0,1,1.062-.311,5.979,5.979,0,0,1,.663-.1c.2-.027.272-.085.3-.284a1.447,1.447,0,0,0,0-.363.391.391,0,0,0-.379-.391,5.1,5.1,0,0,0-.94.006.471.471,0,0,0-.437.5C166.235,796.261,166.242,796.329,166.242,796.408Zm1.8.666c-.153.04-.269.076-.385.1-.351.07-.711.122-1.056.211-.394.1-.519.3-.467.76a.433.433,0,0,0,.385.412,2.581,2.581,0,0,0,.65.021.839.839,0,0,0,.809-.669A6.422,6.422,0,0,0,168.043,797.073Z" transform="translate(-160.465 -771.041)"/>
    <path id="Tracé_99" data-name="Tracé 99" d="M1118.612,797.907h1.035q.376,1.3.745,2.6a.11.11,0,0,0,.031.006,1.625,1.625,0,0,0,.061-.168c.217-.76.437-1.52.647-2.284a.185.185,0,0,1,.217-.165c.275.009.546,0,.846,0-.024.073-.043.128-.064.183q-.614,1.694-1.221,3.392a.171.171,0,0,1-.2.137c-.223-.009-.449,0-.672-.006a.173.173,0,0,1-.131-.082c-.44-1.194-.873-2.391-1.31-3.587C1118.606,797.938,1118.609,797.932,1118.612,797.907Z" transform="translate(-1084.448 -773.676)"/>
    <path id="Tracé_100" data-name="Tracé 100" d="M701.1,761.454h.491V760.3h.959v1.151h.62c0,.2.006.391-.006.577,0,.027-.073.073-.113.076-.156.009-.314,0-.482,0a1.365,1.365,0,0,0-.012.143V764.1c0,.287.064.351.348.351h.253v.739c-.366-.018-.727-.015-1.081-.064-.324-.046-.476-.269-.479-.644-.009-.717-.006-1.435-.006-2.152,0-.22,0-.217-.226-.22-.3,0-.266.04-.269-.269C701.1,761.717,701.1,761.6,701.1,761.454Z" transform="translate(-679.695 -737.229)"/>
    <path id="Tracé_101" data-name="Tracé 101" d="M305.023,798.967h-.589V798.8c0-.769,0-1.536,0-2.305,0-.66-.281-.9-.937-.824a.926.926,0,0,0-.907.989c-.012.705-.006,1.414-.009,2.122,0,.061-.006.119-.009.186H302v-3.694h.58v.507c.027,0,.037,0,.037,0a1.26,1.26,0,0,1,1.34-.6,1.439,1.439,0,0,1,.256.034.9.9,0,0,1,.8.977C305.041,797.108,305.023,798.027,305.023,798.967Z" transform="translate(-292.78 -771.036)"/>
    <path id="Tracé_102" data-name="Tracé 102" d="M427.654,797.813h.577a1.175,1.175,0,0,1-.137.629,1.248,1.248,0,0,1-.931.669,2.653,2.653,0,0,1-1.075,0,1.374,1.374,0,0,1-1.117-1.1,3.246,3.246,0,0,1,.018-1.658,1.426,1.426,0,0,1,1.282-1.075,2.641,2.641,0,0,1,1.072.064,1.159,1.159,0,0,1,.855,1.148c-.165,0-.33.006-.5,0-.031,0-.076-.058-.089-.1a.806.806,0,0,0-.849-.663,2.042,2.042,0,0,0-.336.009.919.919,0,0,0-.885.824,3.1,3.1,0,0,0,.006,1.362.9.9,0,0,0,.916.745,3.037,3.037,0,0,0,.577-.031.639.639,0,0,0,.568-.589C427.623,797.971,427.638,797.9,427.654,797.813Z" transform="translate(-411.9 -771.115)"/>
    <path id="Tracé_103" data-name="Tracé 103" d="M929.5,757.193v-5.117c.3,0,.583,0,.87,0,.024,0,.061.043.073.073a.4.4,0,0,1,.006.122q0,2.363,0,4.726c0,.147-.024.211-.192.2C930.013,757.18,929.766,757.193,929.5,757.193Z" transform="translate(-901.122 -729.255)"/>
    <path id="Tracé_104" data-name="Tracé 104" d="M1.105,754.143v3.163h-.6v-.177c0-.94,0-1.881,0-2.821,0-.125-.031-.174-.162-.165-.11.009-.223,0-.348,0v-.531H.5c0-.067.006-.122.009-.174a5.418,5.418,0,0,1,.018-.547.665.665,0,0,1,.7-.681,5.353,5.353,0,0,1,.543,0v.5c-.119,0-.235-.006-.348,0a.294.294,0,0,0-.311.336c0,.18,0,.363,0,.559h.663v.537C1.551,754.143,1.34,754.143,1.105,754.143Z" transform="translate(0 -729.381)"/>
    <path id="Tracé_105" data-name="Tracé 105" d="M1446,798.4h.943v3.691H1446Z" transform="translate(-1401.853 -774.166)"/>
    <path id="Tracé_106" data-name="Tracé 106" d="M1256.8,798.4h.943v3.7h-.943Z" transform="translate(-1218.429 -774.166)"/>
    <path id="Tracé_107" data-name="Tracé 107" d="M84.7,798.99v-3.7h.565v.647c.009,0,.021,0,.031.006.015-.031.031-.058.043-.089a.947.947,0,0,1,.94-.666h.061c.424-.006.482.064.4.485-.006.037-.079.079-.125.085-.165.018-.336.009-.5.034a.913.913,0,0,0-.815.919c-.021.687-.015,1.371-.021,2.058,0,.22,0,.22-.223.22Z" transform="translate(-82.114 -771.053)"/>
    <path id="Tracé_108" data-name="Tracé 108" d="M1447.043,752.4v.885h-.943V752.4Z" transform="translate(-1401.95 -729.57)"/>
    <path id="Tracé_109" data-name="Tracé 109" d="M1256.8,752.2h.94v.891h-.94Z" transform="translate(-1218.429 -729.377)"/>
    <path id="Tracé_110" data-name="Tracé 110" d="M1040.978,749.176c-.247.363-.473.7-.7,1.023a.148.148,0,0,1-.1.052c-.116.006-.232,0-.375,0l.171-.5c.055-.159.1-.321.165-.476a.169.169,0,0,1,.11-.095C1040.475,749.173,1040.71,749.176,1040.978,749.176Z" transform="translate(-1008.054 -726.444)"/>
    <path id="Tracé_111" data-name="Tracé 111" d="M839.2,750.214c.122-.354.229-.675.345-1a.153.153,0,0,1,.119-.079c.229-.009.455,0,.711,0-.073.113-.137.208-.2.3-.14.2-.29.406-.418.617a.283.283,0,0,1-.308.162A2.123,2.123,0,0,0,839.2,750.214Z" transform="translate(-813.579 -726.405)"/>
  </g>
</svg>
