<svg style="fill: #FFF" xmlns="http://www.w3.org/2000/svg" width="53.918" height="13.386" viewBox="0 0 53.918 13.386">
  <g id="Groupe_37" data-name="Groupe 37" transform="translate(-0.034 0.003)">
    <path id="Tracé_206" data-name="Tracé 206" d="M316.893,7.749a3.806,3.806,0,0,1,1.631,2.711,3.7,3.7,0,0,1-3.549,4.032c-1.321,0-2.642,0-3.963-.011a1.293,1.293,0,0,1-1.378-1.367c-.012-3.411-.012-6.811,0-10.223a1.3,1.3,0,0,1,1.493-1.4c.953.011,1.918.023,2.872-.011a3.835,3.835,0,0,1,3.664,2.113,3.354,3.354,0,0,1-.551,3.882C317.054,7.542,317.008,7.611,316.893,7.749Zm-4.606,1.5v2.722c.724,0,1.413.046,2.079-.011a1.306,1.306,0,0,0,1.149-1.3,1.324,1.324,0,0,0-1.1-1.4C313.734,9.2,313.022,9.253,312.287,9.253ZM312.275,6.6a14.687,14.687,0,0,0,1.746-.011,1.285,1.285,0,0,0,1.034-1.332,1.277,1.277,0,0,0-1-1.3,15.292,15.292,0,0,0-1.78-.011Z" transform="translate(-274.03 -1.307)"/>
    <path id="Tracé_207" data-name="Tracé 207" d="M179.676,8.486v1.907c0,.689.034,1.378-.011,2.068a1.306,1.306,0,0,1-1.459,1.344,1.341,1.341,0,0,1-1.195-1.482c0-1.585-.011-3.182-.011-4.767V2.272c0-1.241.459-1.7,1.689-1.7,1.011,0,2.033-.023,3.044.046a3.845,3.845,0,0,1,3.446,4.376,3.235,3.235,0,0,1-2.251,2.837c-.08.034-.161.08-.31.149.276.391.517.747.77,1.1.62.873,1.241,1.746,1.849,2.63a1.322,1.322,0,1,1-2.182,1.47Q181.537,11.03,180,8.876C179.929,8.8,179.86,8.715,179.676,8.486Zm.011-5.364V5.809a14.479,14.479,0,0,0,1.585-.011,1.32,1.32,0,0,0,1.195-1.321,1.368,1.368,0,0,0-1.286-1.355C180.687,3.11,180.216,3.122,179.688,3.122Z" transform="translate(-156.639 -0.505)"/>
    <path id="Tracé_208" data-name="Tracé 208" d="M2.7,5.892H5.417c.011-.23.034-.448.034-.678,0-1.057-.011-2.1.011-3.159A1.234,1.234,0,0,1,6.761.7,1.274,1.274,0,0,1,8.094,2.1c.011,3.423.011,6.857.011,10.28a2.377,2.377,0,0,1-.08.563,1.253,1.253,0,0,1-1.367.976,1.22,1.22,0,0,1-1.183-1.183c-.034-1.126-.023-2.263-.023-3.388V8.568H2.73c-.011.2-.034.4-.034.6,0,1.091.011,2.182,0,3.274a1.335,1.335,0,0,1-1.332,1.482A1.294,1.294,0,0,1,.053,12.5C.03,9.039.03,5.57.042,2.113A1.263,1.263,0,0,1,1.374.711a1.257,1.257,0,0,1,1.309,1.4C2.707,3.353,2.7,4.594,2.7,5.892Z" transform="translate(0 -0.622)"/>
    <path id="Tracé_209" data-name="Tracé 209" d="M81.4,11.921c.023-.1.057-.287.115-.471q1.4-4.876,2.8-9.74A2.066,2.066,0,0,1,85.177.285,1.681,1.681,0,0,1,87.785,1.33c.643,2.182,1.286,4.353,1.93,6.536.379,1.3.781,2.6,1.126,3.905a1.232,1.232,0,0,1-.793,1.516,1.267,1.267,0,0,1-1.608-.62,7.206,7.206,0,0,1-.528-1.321A.532.532,0,0,0,87.3,10.9q-1.206.034-2.412,0a.541.541,0,0,0-.632.494,7.831,7.831,0,0,1-.356,1.149,1.307,1.307,0,0,1-2.5-.62Zm3.768-3.664h1.815c-.3-.988-.586-1.93-.873-2.86-.046,0-.08.011-.126.011C85.729,6.327,85.453,7.257,85.166,8.256Z" transform="translate(-72.018 0)"/>
    <path id="Tracé_210" data-name="Tracé 210" d="M408.332,6.885a22.866,22.866,0,0,1-.034,3.549,3.812,3.812,0,0,1-4.33,3.055,3.944,3.944,0,0,1-3.434-3.779c-.023-1.872-.034-3.745,0-5.628a3.946,3.946,0,0,1,7.891.046c.011.919,0,1.838,0,2.757Zm-2.5.023c0-.953.023-1.918-.011-2.872A1.3,1.3,0,0,0,404.5,2.784,1.255,1.255,0,0,0,403.14,3.91c-.046,1.918-.08,3.825-.046,5.743a1.368,1.368,0,1,0,2.734-.1Z" transform="translate(-354.476 -0.179)"/>
    <path id="Tracé_211" data-name="Tracé 211" d="M268.28,7.422v5.1a1.314,1.314,0,0,1-1.3,1.493c-.816,0-1.321-.574-1.321-1.516,0-3.423-.011-6.846,0-10.257a1.319,1.319,0,1,1,2.63-.08C268.291,3.907,268.28,5.665,268.28,7.422Z" transform="translate(-235.111 -0.705)"/>
  </g>
</svg>
