<svg xmlns="http://www.w3.org/2000/svg" viewBox="0 0 289.27 84.94" style="fill: #FFF"><g id="Calque_2" data-name="Calque 2"><g id="Calque_1-2" data-name="Calque 1"><polygon points="29.58 0.65 29.58 14.02 8.07 14.02 8.07 0.65 0 0.65 0 34.07 8.07 34.07 8.07 20.7 29.58 20.7 29.58 34.07 37.65 34.07 37.65 0.65 29.58 0.65"/><path d="M78.7,34.07h9.09L70.36.65H61.21L43.78,34.07h9.09l2.87-6.27h20.1ZM58.46,21.83,65.7,6.5h.17l7.24,15.33Z"/><path d="M159.86,34.07H169L151.53.65h-9.16L124.94,34.07H134l2.86-6.27H157ZM139.63,21.83,146.86,6.5H147l7.23,15.33Z"/><path d="M118.48.65a68.06,68.06,0,0,1-11.72,27.66h-.48L92.92.65H83.6l17.28,33.42h9.78C119.51,23.27,125.15,11.64,127,.65Z"/><path d="M181.28,9.86c0-1.69,2-3.44,8.54-3.44a46,46,0,0,1,12.33,1.91l1-6.24A43.09,43.09,0,0,0,189.73,0c-11.5,0-16.12,5-16.12,10.35,0,12.44,24.34,8.35,24.34,14.19,0,2.32-3.23,3.85-9,3.85a33.55,33.55,0,0,1-14.2-3.15l-1,6.49a36.58,36.58,0,0,0,14.9,3c10.3,0,16.91-4.34,16.91-10.8C205.61,11.17,181.28,15.67,181.28,9.86Z"/><path d="M249.86,77.81v6.41H218.08V50.8H248.9v6.5H226.1v7h19.43v5.57H226.1v7.94Z"/><path d="M122.67,50.8a71.07,71.07,0,0,1-11.84,16.31h-.21L98.16,50.8H88.8l17.12,22V84.22h8.15V72.77c7.86-7.1,14-14.75,17.61-22Z"/><path d="M208.4,82.09a35.57,35.57,0,0,1-13.73,2.85c-15.37,0-22.18-6.64-22.18-17.34s6.85-17.47,22.18-17.47a44.58,44.58,0,0,1,13,1.83l-.8,6.5a39.17,39.17,0,0,0-11.77-1.78c-9.19,0-14.11,3.59-14.11,10.79,0,7.48,3.64,10.87,13.45,10.87a25.1,25.1,0,0,0,7-.89V66.84h7Z"/><path d="M160.84,84.22h9.09L152.5,50.8h-9.15L125.92,84.22H135L137.88,78H158ZM140.6,72l7.24-15.33H148L155.25,72Z"/><path d="M34.87,50.8A67.79,67.79,0,0,1,23.15,78.46h-.48L9.32,50.8H0L17.28,84.22h9.78C35.91,73.42,41.55,61.79,43.4,50.8Z"/><path d="M264.93,60c0-1.7,2-3.45,8.55-3.45a45.75,45.75,0,0,1,12.33,1.92l1-6.25a43.14,43.14,0,0,0-13.44-2.09c-11.5,0-16.12,5-16.12,10.36,0,12.43,24.33,8.34,24.33,14.18,0,2.32-3.22,3.85-9,3.85a33.55,33.55,0,0,1-14.2-3.15l-1,6.49a36.54,36.54,0,0,0,14.9,3c10.3,0,16.91-4.34,16.91-10.8C289.27,61.32,264.93,65.82,264.93,60Z"/><path d="M67.83,84.85c-14.67,0-20.42-7.09-20.42-17.38s5.75-17.3,20.42-17.3,20.28,7,20.28,17.3S82.45,84.85,67.83,84.85Zm0-28.17c-8.69,0-11.95,3.3-11.95,10.74S59.14,78.3,67.83,78.3s11.85-3.44,11.85-10.88S76.61,56.68,67.83,56.68Z"/></g></g></svg>