<svg style="fill: #FFF" id="Groupe_7" data-name="Groupe 7" xmlns="http://www.w3.org/2000/svg" width="70.675" height="20.281" viewBox="0 0 70.675 20.281">
  <path id="Tracé_8" data-name="Tracé 8" d="M163.123.7V4.517h5.111V.7h2.523v9.574h-2.523v-4.2h-5.111v4.2H160.6V.7h2.523Z" transform="translate(-108.653 -0.474)" fill="#FFF"/>
  <path id="Tracé_9" data-name="Tracé 9" d="M72.586.7V2.317H68.7v7.925H66.181V2.35H62.3V.732C62.3.7,72.586.7,72.586.7" transform="translate(-42.149 -0.474)" fill="#FFF"/>
  <path id="Tracé_10" data-name="Tracé 10" d="M93.249,2.35,91.5,6.684h3.526Zm6.016,7.925H96.451L95.61,8.2H90.855s-.809,2.07-.841,2.07H87.2L91.664.7h3.105Z" transform="translate(-58.995 -0.474)" fill="#FFF"/>
  <rect id="Rectangle_1" data-name="Rectangle 1" width="2.523" height="9.574" transform="translate(64.109 0.226)" fill="#FFF"/>
  <path id="Tracé_11" data-name="Tracé 11" d="M16.523.7V4.517h5.111V.7h2.523v9.574H21.634v-4.2H16.523v4.2H14V.7h2.523Z" transform="translate(-9.472 -0.474)" fill="#FFF"/>
  <rect id="Rectangle_2" data-name="Rectangle 2" width="2.523" height="9.574" transform="translate(16.723 0.226)" fill="#FFF"/>
  <path id="Tracé_12" data-name="Tracé 12" d="M123.456,7.148a6.134,6.134,0,0,1-.356-2.038,5.358,5.358,0,0,1,.647-2.782A4.113,4.113,0,0,1,125.914.518,8.052,8.052,0,0,1,128.728,0a8.233,8.233,0,0,1,3.2.679,3.116,3.116,0,0,1,1.811,2.2c.032.194.065.388.1.615h-2.652a2.755,2.755,0,0,0-.129-.744,1.846,1.846,0,0,0-1.2-1.1,4.108,4.108,0,0,0-1.1-.162,3.24,3.24,0,0,0-1.261.226,2.28,2.28,0,0,0-1.391,1.391,5.807,5.807,0,0,0-.356,2.005,7.038,7.038,0,0,0,.226,1.682,2.257,2.257,0,0,0,1.391,1.52,3.759,3.759,0,0,0,1.359.259,3.383,3.383,0,0,0,1.164-.194,1.778,1.778,0,0,0,1.1-1,2.682,2.682,0,0,0,.194-1.035h2.652a7.626,7.626,0,0,1-.129.906,3.069,3.069,0,0,1-1.779,2.1,8.429,8.429,0,0,1-3.267.679,8.283,8.283,0,0,1-2.555-.388,4.222,4.222,0,0,1-2.652-2.491" transform="translate(-83.283)" fill="#FFF"/>
  <path id="Tracé_13" data-name="Tracé 13" d="M2.264,38.532,0,38.726v.323H.065c.906.129.906.129.906.776v4.722H2.329V38.5Z" transform="translate(0 -26.047)" fill="#FFF"/>
  <path id="Tracé_14" data-name="Tracé 14" d="M14.426,44.032a2.021,2.021,0,0,0-1.585.906V44h-.1l-1.844.323v.323h.065c.582.032.712.129.712.679V48.3h1.132V46.135a1.388,1.388,0,0,1,1.132-1.326c.55,0,.582.453.582,1.2v2.3h1.132V45.326a1.116,1.116,0,0,0-1.229-1.294" transform="translate(-7.374 -29.768)" fill="#FFF"/>
  <path id="Tracé_15" data-name="Tracé 15" d="M31.676,45.75c-.453-.226-.841-.42-.841-.712,0-.356.42-.388.615-.388a2.267,2.267,0,0,1,1.067.356l.162.1v-.841l-.129-.032a5.477,5.477,0,0,0-1.035-.129c-1.067,0-1.714.453-1.714,1.229,0,.679.679,1.035,1.261,1.294.453.226.906.42.906.776,0,.323-.291.485-.776.485a2.64,2.64,0,0,1-1.261-.42L29.8,47.4v.873l.1.032a4.538,4.538,0,0,0,1.261.162c1.164,0,1.844-.485,1.844-1.261-.032-.809-.712-1.164-1.326-1.456" transform="translate(-20.161 -29.836)" fill="#FFF"/>
  <path id="Tracé_16" data-name="Tracé 16" d="M44.214,44.647c.776,0,.873.841.873,1.488,0,1.1-.291,1.617-.873,1.617-.744,0-.906-.679-.906-1.261v-.356c0-.453.1-1.488.906-1.488m.323-.615a1.63,1.63,0,0,0-1.2.582V44h-.1l-1.844.323v.323h.065c.582.032.679.129.679.679v4.722h1.132V47.881a1.41,1.41,0,0,0,1.164.485c1.2,0,1.811-.776,1.811-2.232.065-1.326-.582-2.1-1.714-2.1" transform="translate(-28.009 -29.768)" fill="#FFF"/>
  <path id="Tracé_17" data-name="Tracé 17" d="M59,44.323v.323h.065c.55.032.679.129.679.679V48.3h1.132V44h-.1Z" transform="translate(-39.916 -29.768)" fill="#FFF"/>
  <path id="Tracé_18" data-name="Tracé 18" d="M61.712,39.929A.621.621,0,1,0,61,39.315a.683.683,0,0,0,.712.615" transform="translate(-41.269 -26.182)" fill="#FFF"/>
  <path id="Tracé_19" data-name="Tracé 19" d="M71.987,44.97V44.1h-.065a3.138,3.138,0,0,0-.55-.032,1.339,1.339,0,0,0-1.164.841V44h-.1l-1.811.323v.323h.065c.582.032.712.129.712.679V48.3h1.132V46.167a1.107,1.107,0,0,1,1.2-1.2,1.624,1.624,0,0,1,.388.065l.194.065Z" transform="translate(-46.208 -29.768)" fill="#FFF"/>
  <path id="Tracé_20" data-name="Tracé 20" d="M83.3,44.553a.742.742,0,0,1,.776.841h-1.65a.877.877,0,0,1,.873-.841m1.908,1.261c0-1.132-.647-1.714-1.876-1.714q-2.135,0-2.135,2.038a2.2,2.2,0,0,0,2.491,2.3,4.408,4.408,0,0,0,1.391-.226l.065-.032v-.55l-.129.065a3,3,0,0,1-.906.129,1.7,1.7,0,0,1-1.682-1.908h2.782Z" transform="translate(-54.936 -29.836)" fill="#FFF"/>
  <path id="Tracé_21" data-name="Tracé 21" d="M118.561,40.041a1.763,1.763,0,0,0-1.553.906V38.1h-.1l-1.811.226v.323h.065c.55.032.679.162.679.712v4.916h1.132V42.143a1.339,1.339,0,0,1,1.067-1.391c.647,0,.647.485.647.906v2.588h1.132V41.5a1.19,1.19,0,0,0-1.261-1.456" transform="translate(-77.87 -25.776)" fill="#FFF"/>
  <path id="Tracé_22" data-name="Tracé 22" d="M135.235,44.553a.742.742,0,0,1,.776.841h-1.65a.877.877,0,0,1,.873-.841m1.908,1.261c0-1.132-.647-1.714-1.908-1.714q-2.135,0-2.135,2.038a2.2,2.2,0,0,0,2.491,2.3,4.408,4.408,0,0,0,1.391-.226l.065-.032v-.55l-.1.032a3,3,0,0,1-.906.129,1.7,1.7,0,0,1-1.682-1.908h2.782Z" transform="translate(-90.048 -29.836)" fill="#FFF"/>
  <path id="Tracé_23" data-name="Tracé 23" d="M104.376,40.4v1.294H103.6v.518h.776v2.555c0,1.1.712,1.2,1.585,1.2a5.325,5.325,0,0,0,.679-.065h.065v-.518l-.1.032a1.213,1.213,0,0,1-.356.032c-.679,0-.712-.194-.712-.776V42.211h1.294v-.518h-1.294V40.4Z" transform="translate(-70.09 -27.332)" fill="#FFF"/>
  <path id="Tracé_24" data-name="Tracé 24" d="M161.36,38.8h-1.132v4.528c-.226-.356-2.976-4.528-2.976-4.528H154.6v.356l.226.032c.679.129.744.129.744.809v4.755H156.8V40.029c.226.356,3.138,4.722,3.138,4.722h1.52V38.8Z" transform="translate(-104.594 -26.25)" fill="#FFF"/>
  <path id="Tracé_25" data-name="Tracé 25" d="M181.1,44.553a.742.742,0,0,1,.776.841h-1.65a.9.9,0,0,1,.873-.841m1.941,1.261c0-1.132-.647-1.714-1.908-1.714Q179,44.1,179,46.138a2.2,2.2,0,0,0,2.491,2.3,4.408,4.408,0,0,0,1.391-.226l.065-.032v-.55l-.1.032a3,3,0,0,1-.906.129,1.746,1.746,0,0,1-1.714-1.908h2.782v-.065Z" transform="translate(-121.102 -29.836)" fill="#FFF"/>
  <path id="Tracé_26" data-name="Tracé 26" d="M209.276,40.4v1.294H208.5v.518h.776v2.555c0,1.1.712,1.2,1.585,1.2a5.326,5.326,0,0,0,.679-.065h.065v-.518l-.1.032a1.213,1.213,0,0,1-.356.032c-.679,0-.712-.194-.712-.776V42.211h1.294v-.518h-1.294V40.4Z" transform="translate(-141.06 -27.332)" fill="#FFF"/>
  <path id="Tracé_27" data-name="Tracé 27" d="M195.749,45.759l1.164-1.359h-1.2l-1.1,1.294-.97-1.294H191.9v.323h.065a1.2,1.2,0,0,1,1.1.615l.712.938-1.164,1.359h1.2l.518-.615,1.132,1.488h1.359l-2.135-2.814h1.067Z" transform="translate(-129.829 -30.039)" fill="#FFF"/>
  <path id="Tracé_28" data-name="Tracé 28" d="M208.4,36.882h-1.2l1.456-1.682h1.2Z" transform="translate(-140.18 -23.814)" fill="#e60022"/>
  <path id="Tracé_29" data-name="Tracé 29" d="M163.123.7V4.517h5.111V.7h2.523v9.574h-2.523v-4.2h-5.111v4.2H160.6V.7h2.523Z" transform="translate(-108.653 -0.474)" fill="#FFF"/>
  <path id="Tracé_30" data-name="Tracé 30" d="M72.586.7V2.317H68.7v7.925H66.181V2.35H62.3V.732C62.3.7,72.586.7,72.586.7" transform="translate(-42.149 -0.474)" fill="#FFF"/>
  <path id="Tracé_31" data-name="Tracé 31" d="M93.249,2.35,91.5,6.684h3.526Zm6.016,7.925H96.451L95.61,8.2H90.855s-.809,2.07-.841,2.07H87.2L91.664.7h3.105Z" transform="translate(-58.995 -0.474)" fill="#FFF"/>
  <rect id="Rectangle_3" data-name="Rectangle 3" width="2.523" height="9.574" transform="translate(64.109 0.226)" fill="#FFF"/>
  <path id="Tracé_32" data-name="Tracé 32" d="M16.523.7V4.517h5.111V.7h2.523v9.574H21.634v-4.2H16.523v4.2H14V.7h2.523Z" transform="translate(-9.472 -0.474)" fill="#FFF"/>
  <rect id="Rectangle_4" data-name="Rectangle 4" width="2.523" height="9.574" transform="translate(16.723 0.226)" fill="#FFF"/>
  <path id="Tracé_33" data-name="Tracé 33" d="M123.456,7.148a6.134,6.134,0,0,1-.356-2.038,5.358,5.358,0,0,1,.647-2.782A4.113,4.113,0,0,1,125.914.518,8.052,8.052,0,0,1,128.728,0a8.233,8.233,0,0,1,3.2.679,3.116,3.116,0,0,1,1.811,2.2c.032.194.065.388.1.615h-2.652a2.755,2.755,0,0,0-.129-.744,1.846,1.846,0,0,0-1.2-1.1,4.108,4.108,0,0,0-1.1-.162,3.24,3.24,0,0,0-1.261.226,2.28,2.28,0,0,0-1.391,1.391,5.807,5.807,0,0,0-.356,2.005,7.038,7.038,0,0,0,.226,1.682,2.257,2.257,0,0,0,1.391,1.52,3.759,3.759,0,0,0,1.359.259,3.383,3.383,0,0,0,1.164-.194,1.778,1.778,0,0,0,1.1-1,2.682,2.682,0,0,0,.194-1.035h2.652a7.626,7.626,0,0,1-.129.906,3.069,3.069,0,0,1-1.779,2.1,8.429,8.429,0,0,1-3.267.679,8.283,8.283,0,0,1-2.555-.388,4.222,4.222,0,0,1-2.652-2.491" transform="translate(-83.283)" fill="#FFF"/>
  <path id="Tracé_34" data-name="Tracé 34" d="M2.264,38.532,0,38.726v.323H.065c.906.129.906.129.906.776v4.722H2.329V38.5Z" transform="translate(0 -26.047)" fill="#FFF"/>
  <path id="Tracé_35" data-name="Tracé 35" d="M14.426,44.032a2.021,2.021,0,0,0-1.585.906V44h-.1l-1.844.323v.323h.065c.582.032.712.129.712.679V48.3h1.132V46.135a1.388,1.388,0,0,1,1.132-1.326c.55,0,.582.453.582,1.2v2.3h1.132V45.326a1.116,1.116,0,0,0-1.229-1.294" transform="translate(-7.374 -29.768)" fill="#FFF"/>
  <path id="Tracé_36" data-name="Tracé 36" d="M31.676,45.75c-.453-.226-.841-.42-.841-.712,0-.356.42-.388.615-.388a2.267,2.267,0,0,1,1.067.356l.162.1v-.841l-.129-.032a5.477,5.477,0,0,0-1.035-.129c-1.067,0-1.714.453-1.714,1.229,0,.679.679,1.035,1.261,1.294.453.226.906.42.906.776,0,.323-.291.485-.776.485a2.64,2.64,0,0,1-1.261-.42L29.8,47.4v.873l.1.032a4.538,4.538,0,0,0,1.261.162c1.164,0,1.844-.485,1.844-1.261-.032-.809-.712-1.164-1.326-1.456" transform="translate(-20.161 -29.836)" fill="#FFF"/>
  <path id="Tracé_37" data-name="Tracé 37" d="M44.214,44.647c.776,0,.873.841.873,1.488,0,1.1-.291,1.617-.873,1.617-.744,0-.906-.679-.906-1.261v-.356c0-.453.1-1.488.906-1.488m.323-.615a1.63,1.63,0,0,0-1.2.582V44h-.1l-1.844.323v.323h.065c.582.032.679.129.679.679v4.722h1.132V47.881a1.41,1.41,0,0,0,1.164.485c1.2,0,1.811-.776,1.811-2.232.065-1.326-.582-2.1-1.714-2.1" transform="translate(-28.009 -29.768)" fill="#FFF"/>
  <path id="Tracé_38" data-name="Tracé 38" d="M59,44.323v.323h.065c.55.032.679.129.679.679V48.3h1.132V44h-.1Z" transform="translate(-39.916 -29.768)" fill="#FFF"/>
  <path id="Tracé_39" data-name="Tracé 39" d="M61.712,39.929A.621.621,0,1,0,61,39.315a.683.683,0,0,0,.712.615" transform="translate(-41.269 -26.182)" fill="#FFF"/>
  <path id="Tracé_40" data-name="Tracé 40" d="M71.987,44.97V44.1h-.065a3.138,3.138,0,0,0-.55-.032,1.339,1.339,0,0,0-1.164.841V44h-.1l-1.811.323v.323h.065c.582.032.712.129.712.679V48.3h1.132V46.167a1.107,1.107,0,0,1,1.2-1.2,1.624,1.624,0,0,1,.388.065l.194.065Z" transform="translate(-46.208 -29.768)" fill="#FFF"/>
  <path id="Tracé_41" data-name="Tracé 41" d="M83.3,44.553a.742.742,0,0,1,.776.841h-1.65a.877.877,0,0,1,.873-.841m1.908,1.261c0-1.132-.647-1.714-1.876-1.714q-2.135,0-2.135,2.038a2.2,2.2,0,0,0,2.491,2.3,4.408,4.408,0,0,0,1.391-.226l.065-.032v-.55l-.129.065a3,3,0,0,1-.906.129,1.7,1.7,0,0,1-1.682-1.908h2.782Z" transform="translate(-54.936 -29.836)" fill="#FFF"/>
  <path id="Tracé_42" data-name="Tracé 42" d="M118.561,40.041a1.763,1.763,0,0,0-1.553.906V38.1h-.1l-1.811.226v.323h.065c.55.032.679.162.679.712v4.916h1.132V42.143a1.339,1.339,0,0,1,1.067-1.391c.647,0,.647.485.647.906v2.588h1.132V41.5a1.19,1.19,0,0,0-1.261-1.456" transform="translate(-77.87 -25.776)" fill="#FFF"/>
  <path id="Tracé_43" data-name="Tracé 43" d="M135.235,44.553a.742.742,0,0,1,.776.841h-1.65a.877.877,0,0,1,.873-.841m1.908,1.261c0-1.132-.647-1.714-1.908-1.714q-2.135,0-2.135,2.038a2.2,2.2,0,0,0,2.491,2.3,4.408,4.408,0,0,0,1.391-.226l.065-.032v-.55l-.1.032a3,3,0,0,1-.906.129,1.7,1.7,0,0,1-1.682-1.908h2.782Z" transform="translate(-90.048 -29.836)" fill="#FFF"/>
  <path id="Tracé_44" data-name="Tracé 44" d="M104.376,40.4v1.294H103.6v.518h.776v2.555c0,1.1.712,1.2,1.585,1.2a5.325,5.325,0,0,0,.679-.065h.065v-.518l-.1.032a1.213,1.213,0,0,1-.356.032c-.679,0-.712-.194-.712-.776V42.211h1.294v-.518h-1.294V40.4Z" transform="translate(-70.09 -27.332)" fill="#FFF"/>
  <path id="Tracé_45" data-name="Tracé 45" d="M161.36,38.8h-1.132v4.528c-.226-.356-2.976-4.528-2.976-4.528H154.6v.356l.226.032c.679.129.744.129.744.809v4.755H156.8V40.029c.226.356,3.138,4.722,3.138,4.722h1.52V38.8Z" transform="translate(-104.594 -26.25)" fill="#FFF"/>
  <path id="Tracé_46" data-name="Tracé 46" d="M181.1,44.553a.742.742,0,0,1,.776.841h-1.65a.9.9,0,0,1,.873-.841m1.941,1.261c0-1.132-.647-1.714-1.908-1.714Q179,44.1,179,46.138a2.2,2.2,0,0,0,2.491,2.3,4.408,4.408,0,0,0,1.391-.226l.065-.032v-.55l-.1.032a3,3,0,0,1-.906.129,1.746,1.746,0,0,1-1.714-1.908h2.782v-.065Z" transform="translate(-121.102 -29.836)" fill="#FFF"/>
  <path id="Tracé_47" data-name="Tracé 47" d="M209.276,40.4v1.294H208.5v.518h.776v2.555c0,1.1.712,1.2,1.585,1.2a5.326,5.326,0,0,0,.679-.065h.065v-.518l-.1.032a1.213,1.213,0,0,1-.356.032c-.679,0-.712-.194-.712-.776V42.211h1.294v-.518h-1.294V40.4Z" transform="translate(-141.06 -27.332)" fill="#FFF"/>
  <path id="Tracé_48" data-name="Tracé 48" d="M195.749,45.759l1.164-1.359h-1.2l-1.1,1.294-.97-1.294H191.9v.323h.065a1.2,1.2,0,0,1,1.1.615l.712.938-1.164,1.359h1.2l.518-.615,1.132,1.488h1.359l-2.135-2.814h1.067Z" transform="translate(-129.829 -30.039)" fill="#FFF"/>
  <path id="Tracé_49" data-name="Tracé 49" d="M208.4,36.882h-1.2l1.456-1.682h1.2Z" transform="translate(-140.18 -23.814)" fill="#e60022"/>
</svg>
