<svg xmlns="http://www.w3.org/2000/svg" width="46.284" height="46.322" viewBox="0 0 46.284 46.322" style="fill: #FFF">
  <g id="g2990_1_" transform="translate(-0.171 0.103)">
    <g id="g3_1_" transform="translate(0.171 -0.103)">
      <path id="path5_1_" d="M24.786,1.6a9.758,9.758,0,0,1,2.058-.013A23.138,23.138,0,0,1,47.967,22.962a20.98,20.98,0,0,0,.026,3.153,23.571,23.571,0,0,1-2.309,8.708A23.137,23.137,0,0,1,27.108,47.7a12.622,12.622,0,0,1-1.992.119,3.678,3.678,0,0,1-1.319-.066q2.434-6.867,4.895-13.735c1.781-.026,3.576.013,5.357-.026a2.878,2.878,0,0,0,2.639-1.847c1.517-4.248,3.061-8.5,4.525-12.772a3.394,3.394,0,0,0,.185-2.045,2.649,2.649,0,0,0-1.887-1.689,8.066,8.066,0,0,0-2.256-.158c-2.3-.013-4.591.013-6.874-.013a3.17,3.17,0,0,0-.145.3Q24.674,31.406,19.086,47.054A23.222,23.222,0,0,1,2.158,29.018,30.518,30.518,0,0,1,1.71,24.77a24.691,24.691,0,0,1,1.662-8.682A23.089,23.089,0,0,1,19.693,2.129c-3.747,10.384-7.4,20.793-11.149,31.177a2.752,2.752,0,0,0,.739.053c1.359-.013,2.731,0,4.09,0,.185,0,.172-.264.237-.383q2.474-6.966,4.961-13.919a7.985,7.985,0,0,1,.317-.844c.858.013,1.715,0,2.56.013-1.794,5.027-3.576,10.067-5.383,15.081a1.5,1.5,0,0,0,.594.053c1.438-.013,2.863.013,4.3-.013q2.434-6.848,4.882-13.7a3.3,3.3,0,0,0-.172-2.9A2.776,2.776,0,0,0,23.4,15.587c-1.187-.04-2.388,0-3.576-.013C21.474,10.916,23.163,6.272,24.786,1.6Z" transform="translate(-1.71 -1.527)"/>
    </g>
    <path id="path7_1_" d="M609.131,361.1c.145-.158.4-.066.581-.092.66.013,1.319,0,1.992.013-1.544,4.407-3.153,8.774-4.671,13.194-.858.066-1.728.026-2.586.013q2.335-6.551,4.684-13.128Z" transform="translate(-576.371 -344.462)"/>
  </g>
</svg>
