<?xml version="1.0" encoding="UTF-8"?>
<svg id="Calque_2" data-name="Calque 2" xmlns="http://www.w3.org/2000/svg" viewBox="0 0 615.62 535.66">
  <defs>
    <style>
      .cls-1 {
        fill: #fff;
      }
    </style>
  </defs>
  <g id="baggrund">
    <g>
      <path class="cls-1" d="m579.58,181.2C499.83,41.28,313.5-33.37,163.41,14.47,13.32,62.32-43.71,214.54,36.04,354.47c79.75,139.92,266.07,214.56,416.16,166.73,150.1-47.85,207.12-200.07,127.38-339.99Zm-136.27,324.38c-131.1,41.79-291.64-16.02-373.59-130.12h66.08l.32-1.06.58-1.92,66.87-220.62.99-3.26.59-1.93h-72.41l-.32,1.06-.58,1.92-66.53,219.51c-4.43-6.51-8.62-13.19-12.53-20.03C-21.42,218.92,30.59,77.4,168.79,31.25l-11.83,39.01-.99,3.27-.58,1.94h72.41l.32-1.07.58-1.92,16.83-55.53c107.74-5.66,221.53,44.46,290.18,129.84h-65.2c-17.92,0-36.58,6.13-52.54,17.26-15.97,11.13-27.4,25.99-32.21,41.83-4.73,15.6-2.51,30.38,6.2,41.83l-.04.03,1.1,1.34,34.55,42.12s1.38,1.59,1.36,1.58c2.47,2.92,3.78,6.39,3.78,10.03,0,9.29-8.63,16.86-19.26,16.86.07,0-.83-.04-.83-.04h-46.35l-.32,1.06-.58,1.93-14.36,47.37-.99,3.27-.58,1.93h72.24c17.91,0,36.57-6.13,52.54-17.26,15.98-11.13,27.41-25.99,32.22-41.84,4.73-15.61,2.5-30.39-6.22-41.85l.04-.02-1.07-1.32s-32.7-39.87-32.7-39.87c-.01,0-3.14-3.75-3.14-3.75-2.48-2.93-3.79-6.39-3.79-10.04,0-9.29,8.64-16.85,19.27-16.85v-.04h46.98l.33-1.07.58-1.92,14-46.17c8.1,10.62,15.51,21.74,22.12,33.35,74.83,131.3,21.32,274.14-119.53,319.04Z"/>
      <path class="cls-1" d="m334.41,274.15s-1.03-1.26-1.03-1.26l-32.7-39.86s-3.14-3.75-3.14-3.75c-2.49-2.93-3.79-6.39-3.79-10.04,0-9.29,8.64-16.85,19.26-16.85v-.04h46.99l.32-1.07.58-1.92,14.36-47.37.99-3.27.58-1.93h-72.13c-17.91,0-36.57,6.13-52.54,17.26-15.97,11.13-27.41,25.99-32.22,41.83-4.72,15.58-2.51,30.33,6.16,41.78l-.05.02s1.14,1.4,1.14,1.4l34.55,42.12s1.38,1.59,1.37,1.58c2.48,2.92,3.79,6.39,3.79,10.03,0,9.29-8.64,16.86-19.27,16.86.07,0-.83-.04-.83-.04h-46.34l-.32,1.06-.58,1.93-14.36,47.37-.99,3.27-.59,1.93h72.25c17.92,0,36.57-6.13,52.54-17.26,15.97-11.13,27.41-25.99,32.22-41.84,4.73-15.63,2.49-30.44-6.26-41.91l.04-.03Z"/>
    </g>
  </g>
</svg>