<svg xmlns="http://www.w3.org/2000/svg" width="40.491" height="36.305" viewBox="0 0 40.491 36.305" style="fill: #FFF">
  <g id="Groupe_29" data-name="Groupe 29" transform="translate(0 0.013)">
    <path id="Tracé_180" data-name="Tracé 180" d="M23.481,24.137a1.215,1.215,0,0,1-.8.119c-2.131,0-4.282-.02-6.412.02a1.025,1.025,0,0,1-.936-.6c-1.772-2.589-3.565-5.178-5.317-7.787-.3-.438-.478-.518-.8-.08a.24.24,0,0,1-.1.1,4.839,4.839,0,0,0-1.912,4.819c.119.936,0,1.892.04,2.828.02.538-.119.737-.7.737-1.772-.04-3.525-.04-5.3,0C.679,24.316.5,24.137.5,23.54c.02-4.321.02-8.663.02-12.984C.52,7.29.54,4.043.52.778.52.4.56.2,1.038.22c1.872.02,3.724.02,5.6,0,.5,0,.617.159.617.637-.02,2.629-.02,5.277,0,7.906,0,.259-.159.637.139.717.239.08.418-.279.6-.478,2.37-2.768,4.72-5.536,7.09-8.324.2-.219.339-.478.7-.478l7.468.06c.02.219-.159.358-.3.5q-4.033,4.6-8.125,9.181a.808.808,0,0,0-.08,1.215q4.3,6.183,8.543,12.407C23.4,23.719,23.621,23.878,23.481,24.137Z" transform="translate(-0.4 -0.17)" fill="#6d6d6d"/>
    <path id="Tracé_181" data-name="Tracé 181" d="M79.786,23.967c.139-.259-.08-.418-.179-.578q-4.272-6.213-8.563-12.407a.808.808,0,0,1,.08-1.215Q75.216,5.2,79.269.587c.119-.139.3-.279.3-.5,3.246,0,6.512-.418,9.718.438a7.974,7.974,0,0,1,3.7,13.323,4.93,4.93,0,0,1-2.031,1.414c-.518.139-.737.418-.319,1,1.693,2.41,3.346,4.859,5.018,7.309.1.139.279.259.2.458-.1.2-.319.08-.478.08-2.171,0-4.321-.02-6.492.02a.946.946,0,0,1-.9-.5c-1.394-2.111-2.808-4.222-4.2-6.333a.9.9,0,0,0-.9-.5,8.946,8.946,0,0,1-1.633,0c-.617-.06-.717.2-.717.757.02,1.991,0,3.983.02,5.974C80.543,24.146,80.3,24.246,79.786,23.967Zm.737-15.354v2.469c0,.319.02.518.438.5,1.474-.02,2.927.04,4.4-.02a3.016,3.016,0,0,0,3.027-1.991C88.967,7.557,87.672,5.9,85.4,5.8c-1.474-.06-2.927,0-4.4-.02-.358,0-.478.1-.478.458C80.523,7.02,80.523,7.816,80.523,8.613Z" transform="translate(-56.706 0)"/>
    <path id="Tracé_182" data-name="Tracé 182" d="M0,147.938v-2.091a2.617,2.617,0,0,1,2.091-2.629,3.467,3.467,0,0,1,3.624.916c.2.219.279.159.438-.02a3.242,3.242,0,0,1,2.908-1,2.721,2.721,0,0,1,2.748,2.987c0,1.314-.02,2.629,0,3.963,0,.438-.06.677-.6.637-1.294-.06-1.055.139-1.075-1.055-.02-1.036,0-2.091,0-3.127-.02-1.255-.538-1.852-1.613-1.892a1.709,1.709,0,0,0-1.792,1.852c-.04,1.215-.04,2.43,0,3.664.02.478-.139.578-.6.578-1.075-.02-1.075,0-1.075-1.036,0-1.075.02-2.131,0-3.206a1.7,1.7,0,0,0-2.171-1.772A1.508,1.508,0,0,0,1.653,146.4c-.02,1.215-.04,2.43,0,3.664.02.518-.1.677-.637.657C0,150.686,0,150.726,0,149.69,0,149.093,0,148.516,0,147.938Z" transform="translate(0 -114.591)"/>
    <path id="Tracé_183" data-name="Tracé 183" d="M112.205,130.986v-3.425a.919.919,0,0,1,1.394-.816c.259.119.219.3.219.478,0,2.27.04,4.521-.02,6.791a3.609,3.609,0,0,1-3.326,3.664,3.846,3.846,0,0,1-4.341-2.708,3.9,3.9,0,0,1,1.952-4.68A3.478,3.478,0,0,1,112.205,130.986Zm-2.25,5.178a2.226,2.226,0,0,0,2.23-2.37,2.306,2.306,0,0,0-2.31-2.39,2.266,2.266,0,0,0-2.171,2.43A2.2,2.2,0,0,0,109.955,136.164Z" transform="translate(-84.863 -101.423)"/>
    <path id="Tracé_184" data-name="Tracé 184" d="M174.994,148.154a10.374,10.374,0,0,0,.02,1.573c.119.757-.2,1.016-.916,1.036a19.389,19.389,0,0,1-3.724,0c-1.892-.279-2.748-1.514-2.211-3.186a2.163,2.163,0,0,1,1.852-1.414,7.509,7.509,0,0,1,2.748-.08c.558.08.6-.159.478-.578a1.4,1.4,0,0,0-1.1-1,4.35,4.35,0,0,0-2.569.159c-.239.08-.478.339-.7-.02a.871.871,0,0,1,0-.976.993.993,0,0,1,.617-.4,5.838,5.838,0,0,1,4.142.319,2.732,2.732,0,0,1,1.374,2.629C175.014,146.86,174.994,147.517,174.994,148.154Zm-3.027,1.474c.319-.02.637-.02.956-.06.2-.02.418-.04.418-.319v-1.633c0-.219-.139-.279-.339-.319a5.924,5.924,0,0,0-2.509.04,1.107,1.107,0,0,0-.02,2.131A5.451,5.451,0,0,0,171.967,149.628Z" transform="translate(-134.548 -114.569)"/>
    <path id="Tracé_185" data-name="Tracé 185" d="M67.8,147.863a2.4,2.4,0,0,0,2.987,1.613,2.733,2.733,0,0,0,.916-.279c.438-.259.558-.02.777.319.358.538.239.816-.358,1.016a6.963,6.963,0,0,1-2.629.378,3.583,3.583,0,0,1-3.326-2.529,4.153,4.153,0,0,1,1.235-4.4,4.282,4.282,0,0,1,4.421-.418,2.241,2.241,0,0,1,1.235,2.27,1.946,1.946,0,0,1-1.733,1.772A12.133,12.133,0,0,1,67.8,147.863Zm.956-1.175a5.58,5.58,0,0,0,1.872-.2,1,1,0,0,0,.816-.936,1.022,1.022,0,0,0-.757-1,2.183,2.183,0,0,0-2.489.677c-.3.378-.6.856-.418,1.294C67.958,146.927,68.5,146.609,68.755,146.688Z" transform="translate(-52.843 -114.636)"/>
    <path id="Tracé_186" data-name="Tracé 186" d="M154.733,148.124c0,1.016-.02,2.031,0,3.067,0,.4-.08.558-.518.578-1.115,0-1.115.04-1.115-1.075v-5.3c0-.617.2-1,.9-1,.538,0,.8.139.777.777C154.693,146.133,154.733,147.128,154.733,148.124Z" transform="translate(-122.611 -115.654)"/>
    <path id="Tracé_187" data-name="Tracé 187" d="M153.193,129.609a1.012,1.012,0,0,1-1-1.055.97.97,0,0,1,1.016-.956,1.043,1.043,0,0,1,1.016,1A1,1,0,0,1,153.193,129.609Z" transform="translate(-121.888 -102.197)"/>
  </g>
</svg>
