<svg style="fill: #FFF" xmlns="http://www.w3.org/2000/svg" viewBox="0 0 333.98 84.78"><g id="Calque_2" data-name="Calque 2"><g id="Calque_1-2" data-name="Calque 1"><path id="Tracé_68" data-name="Tracé 68" d="M132.76,84.68c1.2-5.75,2.35-11.56,3.66-17.31Q144,33.66,151.58,0h32.93q3,13.73,6,27.49,6.34,28.62,12.81,57.19h-24c-.68-4.34-1.36-8.68-2.09-13.23-5.91,0-11.55,0-17.14.11-.55,0-1.36,1.15-1.52,1.88-.84,3.71-1.52,7.47-2.19,11.24Zm40.71-32.41c-1.78-9.73-3.55-19.17-5.33-28.64a1,1,0,0,1-.41-.06c-1.78,9.51-3.56,19-5.34,28.7Z"/><path id="Tracé_69" data-name="Tracé 69" d="M38.68,84.68c1-5,2-10,3.13-15q4.71-21.09,9.52-42.16c.15-.68.41-1.31.63-2H85.72V84.72H66.9V78H58.75c-.63,2.35-1.2,4.55-1.78,6.69C50.85,84.68,44.79,84.68,38.68,84.68Zm28.06-23V43.8c-.1,0-.2,0-.31,0-1.36,6-2.66,11.86-4.08,18Z"/><path id="Tracé_70" data-name="Tracé 70" d="M287,84.68c-.05-.79-.21-1.57-.21-2.3V28.12c0-.84.06-1.67.11-2.82h5.64c8.62,0,17.25.06,25.82-.05,2,0,2.83.41,3.29,2.56q5.81,26.73,11.81,53.42a8.16,8.16,0,0,0,.57,1.41v2.09H315.16c-.36-1.88-.63-3.76-1.09-5.59a1.81,1.81,0,0,0-1.26-1.2c-2.4-.11-4.75-.06-7.21-.06-.16,2.56-.26,4.7-.36,6.9C299.13,84.68,293.07,84.68,287,84.68Zm23.36-23C308.8,55,307.38,48.51,305.93,42c-.1.06-.21.06-.31.11V61.73Z"/><path id="Tracé_71" data-name="Tracé 71" d="M92.52,84.68V25.45h18.76v38c.16.06.37.06.55.11,2.82-12.65,5.59-25.25,8.41-38.06H139q-6.51,29.8-13,59.23Z"/><path id="Tracé_72" data-name="Tracé 72" d="M208.55,84.67l2.36-24.93c.47-4.76.94-9.52,1.46-14.64-3.45,0-6.69-.21-9.85,0-2.62.21-3.45-.73-3.77-3.18C198,36.49,196.87,31,195.88,25.4H235C233.36,39.67,231.68,53.67,230,68h11c1.05,5.64,2.1,11.13,3.14,16.67C232.23,84.67,220.42,84.67,208.55,84.67Z"/><path id="Tracé_73" data-name="Tracé 73" d="M248.79,84.67l3.14-28c.42-3.71.78-7.42,1.2-11.55-3.5,0-6.79-.1-10.08,0-1.88.11-2.51-.54-2.82-2.4-.89-5.75-2-11.45-3.14-17.35h38.68c-1.73,14.16-3.45,28.17-5.23,42.49H282c1.09,5.75,2.19,11.24,3.24,16.73C273.22,84.67,261,84.67,248.79,84.67Z"/><path id="Tracé_74" data-name="Tracé 74" d="M0,84.67c1.41-6.43,2.74-12.91,4.18-19.34Q8.41,46.52,12.7,27.7c.16-.73.42-1.46.68-2.3H34.49C31.31,39.64,28.12,53.67,24.88,68H38.37c-1.31,5.8-2.57,11.23-3.84,16.67Z"/></g></g></svg>