<svg xmlns="http://www.w3.org/2000/svg" width="64.843" height="13.983" viewBox="0 0 64.843 13.983" style="fill: #FFF">
  <g id="mPPwQb_2_" transform="translate(0 0.099)">
    <g id="Groupe_20" data-name="Groupe 20" transform="translate(0 -0.099)">
      <path id="Tracé_76" data-name="Tracé 76" d="M30.319,3.191a2.371,2.371,0,0,0-1.124,2.12q-.017,3.389,0,6.777a1.738,1.738,0,0,0,1.17,1.634.606.606,0,0,0,.417-.081c.579-.336,1.147-.718,1.738-1.043.359-.209.278-.382.058-.6-.973.417-1.17.278-1.17-.788-.012-2.166.035-4.321-.035-6.488a2.646,2.646,0,0,1,1.6-2.85c.023-.012.046-.058.081-.127-.081-.127-.174-.266-.29-.452a1.486,1.486,0,0,1-2.074-.012c-.3-.2-.637-.359-.938-.579a.6.6,0,0,0-.776.012c-.626.429-1.286.823-1.935,1.24-.533-.417-1.031-.765-1.494-1.182a.547.547,0,0,0-.8-.035c-.556.371-1.135.7-1.7,1.031C22.417.5,21.769.236,20.506.688c-.475.174-.927.371-1.413.51a1.308,1.308,0,0,1-.545-.07,1.97,1.97,0,0,1,.093-.521,2.46,2.46,0,0,1,.278-.429C18.733-.1,18.571-.238,18.339.1a9.022,9.022,0,0,0-.811,1.193.9.9,0,0,0,.892,1.4,8.285,8.285,0,0,0,1.309-.185c.776-.116,1,.046,1,.834.012,1.854.012,3.707.012,5.561a2.379,2.379,0,0,1-.533,1.784c-.058.058-.035.2-.046.3.116,0,.255.046.348,0,.336-.185.637-.44.985-.6a2.6,2.6,0,0,0,1.494-2.792c-.07-1.576,0-3.163-.035-4.75-.012-.521.394-.568.672-.741a.492.492,0,0,1,.44-.012A1.8,1.8,0,0,1,25,3.735c-.046,3.128,0,6.256.012,9.372,0,.22.023.44.035.73.255-.116.429-.174.6-.266,1.726-.9,1.6-.556,1.6-2.618,0-2.688-.012-5.364-.012-8.052a.937.937,0,0,1,1.332-.776C29.114,2.472,29.67,2.808,30.319,3.191ZM56.93,11.37v-.834c-.012-2.317-.046-4.634,0-6.94A3.16,3.16,0,0,0,54.9.584.505.505,0,0,0,54.474.6c-.765.44-1.518.9-2.294,1.355.255.359.51.313.811.127.174-.1.463-.255.6-.185a2.189,2.189,0,0,1,1.39,1.715.634.634,0,0,1-.371.73c-1.251.718-2.479,1.471-3.73,2.2-.29.174-.44.348-.243.684.22-.093.429-.185.7-.29,0,1.576-.023,3.082.023,4.576a1.363,1.363,0,0,0,.429.915,12.838,12.838,0,0,0,1.842,1.193.687.687,0,0,0,.6,0c1.089-.614,2.155-1.274,3.244-1.9.324-.185.359-.359.093-.6C57.382,11.2,57.219,11.266,56.93,11.37ZM42.309,5.693a1.423,1.423,0,0,1,.579,1.379c-.023,2.039-.012,4.09,0,6.14,0,.2.023.394.035.672.429-.185.741-.359,1.089-.475a1.113,1.113,0,0,0,.846-1.251c-.035-1.773.012-3.545-.035-5.329-.023-.649.22-.95.7-1.066a1.934,1.934,0,0,1,1.228,2.224c-.07,1.309-.012,2.618-.012,3.939a3.52,3.52,0,0,0,.058.7,1.252,1.252,0,0,0,1.865.846,12.267,12.267,0,0,0,1.124-.707c.127-.093.151-.313.22-.475-1.031.359-1.321.162-1.332-.823v-.405c0-1.564.012-3.128-.012-4.692a1.3,1.3,0,0,0-.2-.811A10.654,10.654,0,0,0,47.024,4.4c-.093-.07-.336,0-.463.081-.626.336-1.24.7-1.865,1.054-.313-.336-.6-.684-.927-.985a.55.55,0,0,0-.475-.127c-.707.405-1.39.869-2.1,1.309C41.66,6.435,41.95,5.716,42.309,5.693ZM34.315,6.713c0,1.634.012,3.174,0,4.715a1.151,1.151,0,0,0,.637,1.124c.626.336,1.216.741,1.842,1.089a.614.614,0,0,0,.51.046c1.135-.649,2.259-1.321,3.371-2,.127-.081.151-.324.22-.487a.908.908,0,0,0-.162-.058c-.174.058-.336.116-.579.209V6.724c0-.429.012-.846-.44-1.112-.649-.371-1.274-.8-1.935-1.147a.838.838,0,0,0-.707-.012c-1.089.614-2.155,1.263-3.221,1.923-.174.1-.255.359-.371.533a1.227,1.227,0,0,1,.139.116C33.806,6.944,34.014,6.852,34.315,6.713Zm-25.325,0c.012.266.023.452.023.649,0,1.425-.023,2.85.023,4.275a1.347,1.347,0,0,0,.394.892,14.887,14.887,0,0,0,1.715,1.17.516.516,0,0,0,.452.012c.869-.5,1.715-1.031,2.572-1.552a1.334,1.334,0,0,0,.081-.127c-.07-.127-.162-.266-.255-.429-.116.058-.209.093-.29.139-1.274.707-1.274.707-2.421-.22a.9.9,0,0,1-.29-.521c-.151-1.054-.081-2.027,1.147-2.456a4.474,4.474,0,0,0,.834-.51c.51-.324,1.02-.649,1.576-.985-.8-.9-1.529-1.749-2.282-2.56a.55.55,0,0,0-.521-.035c-1.1.637-2.19,1.286-3.267,1.958-.151.093-.2.348-.29.521.046.023.093.058.139.081C8.515,6.933,8.712,6.852,8.99,6.713Zm55.3,4.866c-.336.174-.591.29-.834.44-.394.243-.741.452-1.17.023-.3-.313-.846-.51-.95-.857A3.766,3.766,0,0,1,61.3,9.424c.046-.255.487-.452.776-.637.9-.579,1.807-1.147,2.769-1.749-.857-.973-1.668-1.888-2.479-2.8-1.228.741-2.41,1.437-3.568,2.155-.162.1-.22.359-.324.545.046.035.081.058.127.093.22-.093.44-.185.718-.313v.44c0,1.506-.012,3.012.023,4.518a1.213,1.213,0,0,0,.371.834,17.955,17.955,0,0,0,1.715,1.182.466.466,0,0,0,.405.046c.9-.521,1.784-1.066,2.7-1.622C64.437,11.926,64.379,11.775,64.286,11.578ZM3.394,11.127c.475-.348.834-.637,1.216-.892A2.228,2.228,0,0,0,5.688,8.08c-.07-.8-.232-1.6-.29-2.41a29.75,29.75,0,0,1-.151-3.209A1.334,1.334,0,0,1,6.36,1.152a1.512,1.512,0,0,1,1.483.707c.266.382.336.73-.151,1.008-.3.174-.463.405-.209.765.811-.521,1.622-1.043,2.5-1.61a6.989,6.989,0,0,0-.776-.776,3.72,3.72,0,0,0-4.24-.2A3.739,3.739,0,0,0,2.989,4.871c.081.962.3,1.9.44,2.85a4.775,4.775,0,0,1-.116,2.954C3.267,10.767,3.348,10.906,3.394,11.127ZM7.4,12.216c-1.251-1.4-3.394-1.39-5.132-.405a5.363,5.363,0,0,0-2.271,2c.753-.243,1.437-.6,2.155-.834,1.425-.452,2.815-.568,3.869.846.626-.417,1.251-.811,1.83-1.24.1-.07.07-.336.116-.614C7.669,12.1,7.53,12.158,7.4,12.216Zm13.589,1.61c.765-.463,1.46-.915,2.19-1.321.394-.22.429-.417.093-.753-.463.487-.892.382-1.379-.012a2.052,2.052,0,0,0-1.02-.336,5.858,5.858,0,0,0-4.831,2.016c-.07.07-.046.22-.07.336a1.144,1.144,0,0,0,.348-.035,16.643,16.643,0,0,1,2.12-.869A1.992,1.992,0,0,1,20.992,13.826Z" transform="translate(0 0.099)" fill="#fff"/>
      <path id="Tracé_77" data-name="Tracé 77" d="M162.8,3.343c-.649-.394-1.2-.73-1.773-1.054a.942.942,0,0,0-1.332.776c0,2.688.012,5.364.012,8.052,0,2.062.139,1.715-1.6,2.618-.162.093-.348.151-.6.266-.012-.29-.035-.51-.035-.73-.012-3.128-.046-6.256-.012-9.372a1.8,1.8,0,0,0-.938-1.645.491.491,0,0,0-.44.012c-.278.174-.684.22-.672.741.035,1.587-.035,3.163.035,4.75a2.611,2.611,0,0,1-1.494,2.792c-.348.162-.649.417-.985.6-.093.046-.232,0-.348,0,.012-.1-.012-.243.046-.3a2.379,2.379,0,0,0,.533-1.784c0-1.854,0-3.707-.012-5.561,0-.788-.22-.962-1-.834a8.683,8.683,0,0,1-1.309.185.9.9,0,0,1-.892-1.4A11.4,11.4,0,0,1,150.8.262c.232-.324.394-.185.579.081a2.09,2.09,0,0,0-.278.429,3.768,3.768,0,0,0-.093.521,1.531,1.531,0,0,0,.545.07c.475-.139.938-.348,1.413-.51,1.251-.452,1.912-.185,2.5,1.089.579-.348,1.159-.672,1.7-1.031a.557.557,0,0,1,.8.035c.463.405.962.765,1.495,1.182.649-.405,1.3-.8,1.935-1.24a.584.584,0,0,1,.776-.012c.3.209.626.371.938.579a1.509,1.509,0,0,0,2.074.012c.127.2.209.324.29.452-.035.058-.058.116-.081.127a2.652,2.652,0,0,0-1.6,2.85c.07,2.155.035,4.321.035,6.488,0,1.066.209,1.2,1.17.788.22.22.313.394-.058.6-.591.336-1.147.707-1.738,1.043a.55.55,0,0,1-.417.081,1.754,1.754,0,0,1-1.17-1.634q-.017-3.389,0-6.777A2.641,2.641,0,0,1,162.8,3.343Z" transform="translate(-132.481 -0.053)"/>
      <path id="Tracé_78" data-name="Tracé 78" d="M442.573,16.384c.29-.116.44-.174.614-.243.266.243.232.417-.093.6-1.089.626-2.155,1.286-3.244,1.9a.729.729,0,0,1-.6,0,15.188,15.188,0,0,1-1.842-1.193,1.363,1.363,0,0,1-.429-.915c-.046-1.506-.023-3-.023-4.576-.266.116-.463.2-.7.29-.185-.336-.046-.521.243-.684,1.251-.73,2.479-1.483,3.73-2.2a.635.635,0,0,0,.371-.73,2.147,2.147,0,0,0-1.39-1.715c-.139-.07-.429.07-.6.185-.3.185-.556.232-.811-.127.765-.463,1.518-.915,2.294-1.355a.551.551,0,0,1,.429-.012,3.16,3.16,0,0,1,2.027,3.012c-.046,2.317,0,4.634,0,6.94A5.948,5.948,0,0,1,442.573,16.384Zm-1.958-6.407c-.5.29-.892.545-1.309.776a.715.715,0,0,0-.394.753c.023,1.193.012,2.387.012,3.58a1.955,1.955,0,0,0,1.691,2.132Z" transform="translate(-385.643 -4.914)"/>
      <path id="Tracé_79" data-name="Tracé 79" d="M356.889,39.833c-.359.023-.649.741-1.089.035.707-.44,1.39-.892,2.1-1.309a.542.542,0,0,1,.475.127c.324.3.6.637.927.985.626-.359,1.24-.718,1.865-1.054.139-.07.371-.139.463-.081a10.656,10.656,0,0,1,1.437,1.159,1.233,1.233,0,0,1,.2.811c.023,1.564.012,3.128.012,4.692V45.6c.012.985.3,1.17,1.332.823-.069.162-.093.382-.22.475-.359.266-.753.475-1.124.707a1.253,1.253,0,0,1-1.865-.846,3.45,3.45,0,0,1-.058-.7c-.012-1.309-.058-2.63.012-3.939a1.934,1.934,0,0,0-1.228-2.224c-.487.116-.718.417-.7,1.066.058,1.773,0,3.545.035,5.329a1.113,1.113,0,0,1-.846,1.251c-.348.116-.66.29-1.089.475-.012-.266-.035-.463-.035-.672,0-2.051-.023-4.09,0-6.14A1.488,1.488,0,0,0,356.889,39.833Z" transform="translate(-314.58 -34.04)"/>
      <path id="Tracé_80" data-name="Tracé 80" d="M289.657,40.993c-.3.139-.51.232-.718.324a1.227,1.227,0,0,1-.139-.116c.127-.185.209-.429.371-.533,1.054-.66,2.132-1.309,3.221-1.923a.838.838,0,0,1,.707.012c.66.348,1.286.765,1.935,1.147.452.255.44.684.44,1.112v4.623c.243-.081.405-.151.579-.209a.908.908,0,0,0,.162.058c-.07.162-.093.405-.22.487-1.112.7-2.236,1.355-3.371,2a.614.614,0,0,1-.51-.046c-.626-.348-1.216-.753-1.842-1.089a1.151,1.151,0,0,1-.637-1.124C289.669,44.179,289.657,42.638,289.657,40.993Zm3.858,5.63c0-1.8,0-3.464-.012-5.132a.507.507,0,0,0-.139-.359c-.544-.371-1.1-.707-1.738-1.124,0,1.8-.012,3.406.012,5.028a.935.935,0,0,0,.348.66C292.438,46.021,292.936,46.276,293.515,46.624Z" transform="translate(-255.342 -34.181)"/>
      <path id="Tracé_81" data-name="Tracé 81" d="M71.5,41.169c-.278.127-.475.22-.66.313-.046-.023-.093-.058-.139-.081.093-.174.139-.429.29-.521,1.077-.672,2.166-1.332,3.267-1.958a.548.548,0,0,1,.521.035c.765.811,1.483,1.657,2.282,2.56-.545.348-1.054.672-1.576.985a4.474,4.474,0,0,1-.834.51c-1.228.429-1.3,1.4-1.147,2.456a.844.844,0,0,0,.29.521c1.147.927,1.147.927,2.421.22.081-.046.174-.081.29-.139.093.162.174.3.255.429-.035.058-.046.1-.081.127-.857.521-1.7,1.043-2.572,1.552a.516.516,0,0,1-.452-.012A14.887,14.887,0,0,1,71.94,47a1.353,1.353,0,0,1-.394-.892c-.035-1.425-.012-2.85-.023-4.275C71.523,41.633,71.511,41.447,71.5,41.169Zm3.591.753c-.533-.614-1.008-1.182-1.564-1.83v2.827C74.094,42.559,74.569,42.258,75.091,41.922Z" transform="translate(-62.509 -34.357)"/>
      <path id="Tracé_82" data-name="Tracé 82" d="M510.427,44.645c.093.2.151.348.232.533-.915.556-1.807,1.1-2.7,1.622a.466.466,0,0,1-.405-.046,17.322,17.322,0,0,1-1.715-1.182,1.266,1.266,0,0,1-.371-.834c-.035-1.506-.023-3.012-.023-4.518v-.44c-.278.116-.5.22-.718.313-.046-.035-.081-.058-.127-.093.1-.185.162-.44.324-.545,1.159-.73,2.34-1.413,3.568-2.155.811.915,1.622,1.83,2.479,2.8-.95.6-1.865,1.17-2.769,1.749-.29.185-.73.382-.776.637a3.765,3.765,0,0,0,.035,1.761c.1.348.649.545.95.857.417.44.776.232,1.17-.023C509.825,44.935,510.091,44.819,510.427,44.645Zm-2.943-5.99v2.838c.533-.336,1.02-.637,1.552-.973C508.527,39.907,508.064,39.362,507.485,38.655Z" transform="translate(-446.141 -32.967)"/>
      <path id="Tracé_83" data-name="Tracé 83" d="M26.045,15.555c-.046-.209-.127-.359-.081-.44a4.772,4.772,0,0,0,.116-2.954c-.139-.95-.348-1.9-.44-2.85a3.722,3.722,0,0,1,1.981-3.823,3.7,3.7,0,0,1,4.24.185,8.144,8.144,0,0,1,.776.776c-.88.556-1.691,1.077-2.5,1.6a.469.469,0,0,1,.209-.765c.487-.278.417-.626.151-1.008a1.533,1.533,0,0,0-1.483-.707A1.322,1.322,0,0,0,27.9,6.878a29.751,29.751,0,0,0,.151,3.209c.07.8.232,1.6.29,2.41a2.208,2.208,0,0,1-1.077,2.155C26.88,14.906,26.52,15.2,26.045,15.555Z" transform="translate(-22.651 -4.329)"/>
      <path id="Tracé_84" data-name="Tracé 84" d="M7.4,97.8c.127-.058.266-.116.568-.255-.046.278-.012.545-.116.614-.591.429-1.2.823-1.83,1.24-1.054-1.413-2.444-1.3-3.869-.846-.718.232-1.4.591-2.155.834a5.363,5.363,0,0,1,2.271-2C4.008,96.419,6.152,96.4,7.4,97.8Z" transform="translate(0 -85.483)"/>
      <path id="Tracé_85" data-name="Tracé 85" d="M142.828,101.414a2,2,0,0,0-2.56-.973,16.645,16.645,0,0,0-2.12.869,1.144,1.144,0,0,1-.348.035c.023-.116.012-.266.07-.336a5.887,5.887,0,0,1,4.831-2.016,2.052,2.052,0,0,1,1.02.336c.487.382.915.5,1.379.012.336.348.3.545-.093.753C144.288,100.5,143.593,100.95,142.828,101.414Z" transform="translate(-121.836 -87.488)"/>
    </g>
  </g>
</svg>
