<svg xmlns="http://www.w3.org/2000/svg" viewBox="0 0 206.56 201.89" style="fill: #FFF"><g id="Calque_2" data-name="Calque 2"><g id="Calque_1-2" data-name="Calque 1"><path d="M103.47,0c20.36,0,40.73-.08,61.1,0,9.38.06,16.57,4.31,21.35,12.41a19.77,19.77,0,0,1,2.72,10.25v89.56a23.11,23.11,0,0,1-14.1,21.26,29.36,29.36,0,0,1-9.32,2.15,3.15,3.15,0,0,1-3.15-1.35c-1.1-1.69.22-3.82,2.39-3.89a20.26,20.26,0,0,0,10.68-3.16,17.26,17.26,0,0,0,8.33-15.2q0-44.22,0-88.44c0-11.29-9.29-18.36-18.67-18.38q-61.38-.09-122.76,0A18.43,18.43,0,0,0,23.41,23.8c.12,29.35,0,58.69,0,88a18.16,18.16,0,0,0,16.23,18.38c.92.12,1.84.19,2.77.24A2.65,2.65,0,0,1,45.17,133a2.51,2.51,0,0,1-2.67,2.61,38.6,38.6,0,0,1-7.67-1.24,23.53,23.53,0,0,1-16.67-22.7q.22-43.87,0-87.75C18.07,10.33,29.41,0,42.22,0Q72.85,0,103.47,0Z"/><path d="M91.6,198.9a19.42,19.42,0,0,1-1.9,1,22.28,22.28,0,0,1-16.71.61,108.65,108.65,0,0,1-10.41-4.32,17.59,17.59,0,0,0-10.33-2.06,3.59,3.59,0,0,1-.73,0l-.09-.35a5.24,5.24,0,0,1,1.26-.44,2.28,2.28,0,0,0,2.1-2.23,31.18,31.18,0,0,0,.29-3.61c0-4.27,0-8.55,0-12.83A13.22,13.22,0,0,0,55,173c-.13-1.08-.54-1.88-1.82-1.86-.21,0-.42-.22-.58-.6h8.69l.12.3a5.78,5.78,0,0,1-1.17.4c-1.21.17-2,.72-2,2-.11,6-.24,12.07-.29,18.11a1.62,1.62,0,0,0,.89,1.26c6.21,1,11.89,3.62,17.78,5.62a24.43,24.43,0,0,0,12.77.89c.71-.14,1.39-.4,2.09-.6Z"/><path d="M37.3,183.91c3.11,3.73,4.91,8.62,10.34,9.86l-.07.36a12.38,12.38,0,0,1-1.59.15,9.57,9.57,0,0,1-6.9-3.75c-1.44-1.69-2.87-3.41-4.17-5.21A2.6,2.6,0,0,0,32.24,184a24.19,24.19,0,0,1-2.45,0c.15,2.7.24,5.41.5,8.1,0,.41.77.82,1.25,1.1a6,6,0,0,0,1.35.41l-.07.35H24.59c.12-.26.15-.47.22-.48,2.07-.28,2.37-1.8,2.38-3.47,0-4.55,0-9.1,0-13.65,0-1.69-.71-2.74-2.67-2.76l.19-.45c1.14,0,2.28-.14,3.43-.16a66.43,66.43,0,0,1,8.58,0c3.55.4,5.78,3.17,5.15,6.16a7.73,7.73,0,0,1-2,3.17A11.39,11.39,0,0,1,37.3,183.91Zm-4.49-.8a21.14,21.14,0,0,0,2.76-.27c2.86-.63,4.12-2.8,3.3-5.52a5.8,5.8,0,0,0-7.81-3.44,1.85,1.85,0,0,0-.78,1.32c-.17,1.65-.25,3.33-.28,5C30,183.05,30,183.05,32.81,183.11Z"/><path d="M111.62,172.82h7.18c-.08.29-.1.45-.14.46-1.77.35-2.17,1.66-2.19,3.2q-.14,7.86-.25,15.73a8.32,8.32,0,0,1-.19,2.07c-5.48-6.7-12.55-11.52-18.74-17.31l-.38.12v4.23c0,2.92-.11,5.84,0,8.75.07,2.12.53,2.48,2.62,3,.45.1.88.27,1.33.41l-.08.42H93a2.07,2.07,0,0,1,.11-.42c2.1-.39,2.29-1.93,2.3-3.65,0-3.71.11-7.43.13-11.14s0-3.7-3.18-5.56a7.11,7.11,0,0,1,.87-.36c.17,0,.37.06.55,0,2.73-.45,4.31,1.23,6.1,2.92,4.65,4.41,9.49,8.62,14.25,12.9a5.25,5.25,0,0,0,.65.39c0-4.53,0-8.91,0-13.3a2.2,2.2,0,0,0-2.11-2.22,5.94,5.94,0,0,1-1.06-.34Z"/><path d="M157.81,182.28c1.13.46,2.15.77,3.08,1.26a5.23,5.23,0,0,1,3,6.09,5,5,0,0,1-4.08,3.77,36.29,36.29,0,0,1-5.91.55c-2,.09-3.9,0-5.85,0h-1.54c.5-.44.64-.66.8-.68,1.53-.1,2-1,2.06-2.43.06-4.49.15-9,.18-13.48,0-1.81-.16-3.58-2.47-4a2.43,2.43,0,0,1-.12-.54c.75,0,1.46,0,2.16,0,1.94-.06,3.88-.15,5.83-.22a7.37,7.37,0,0,1,5,1.44,4.39,4.39,0,0,1-.77,7.58C158.75,181.86,158.34,182,157.81,182.28Zm-5.62.81c0,2.94,0,5.76,0,8.58,0,.86.46,1.45,1.39,1.36a34,34,0,0,0,5.14-.7,3.41,3.41,0,0,0,2.34-3.16,5.25,5.25,0,0,0-3-5.43A10.37,10.37,0,0,0,152.19,183.09Zm.15-.81c1.4-.21,2.82-.34,4.18-.67a2.92,2.92,0,0,0,2.24-2.57c.57-3.54-2-5.9-5.68-5.33a1.31,1.31,0,0,0-.7,1C152.31,177.11,152.34,179.51,152.34,182.28Z"/><path d="M145.26,183.15a11,11,0,0,1-4.24,8.27c-5.34,4.37-13.52,3.7-17.82-1.44a9.86,9.86,0,0,1,1.28-14.38c6.41-5.42,16.27-3.72,19.62,3.45A24.4,24.4,0,0,1,145.26,183.15ZM123.51,182a11,11,0,0,0,7.81,10.54c4.57,1.37,9.05-.73,10.44-4.89a11,11,0,0,0-6.34-13.4C129.46,172,123.53,175.87,123.51,182Z"/><path d="M70.08,194c.19-.32.23-.46.28-.46,2.31-.18,2.46-1.85,2.48-3.59,0-4.41.12-8.82.08-13.23,0-2.41-.14-2.45-2.29-3.74h18l-.84,4-.42,0c-.09-.14-.24-.28-.25-.43-.14-2-.3-2.42-2.25-2.54-2.68-.17-5.38,0-8.06.07-.28,0-.75.54-.77.85q-.23,3.48-.26,7c0,.29.5.84.77.83,2.6,0,5.2-.07,7.79-.23.44,0,.89-.53,1.24-.91s.41-.75.93-1v6l-.38.08a6.61,6.61,0,0,1-.33-1,1.68,1.68,0,0,0-1.61-1.65c-2.77-.08-5.53,0-8.23,0,0,2.61,0,5.2,0,7.78a1.44,1.44,0,0,0,1,1c2.72.06,5.46.13,8.17-.07a4.52,4.52,0,0,0,3.94-2.93,2.1,2.1,0,0,1,.4-.54c0-.05.17,0,.44,0a10.34,10.34,0,0,1-1.37,4.69c-.1.17-.47.25-.72.25-5.47,0-11,0-16.42.07C71,194.06,70.63,194,70.08,194Z"/><path d="M187.7,193.54a1.83,1.83,0,0,1,.6-.25c1.29-.09,1.72-.93,1.77-2.06.13-2.87.29-5.75.34-8.62,0-1.9-.11-3.8-.19-5.7-.08-1.64.25-3.53-2.21-3.89a1.09,1.09,0,0,1,.34-.13h17.08l-.74,4.07-.48,0c-.08-.23-.28-.49-.24-.69.36-1.52-.58-2.16-1.78-2.22-2.72-.12-5.46-.06-8.18,0-.28,0-.76.55-.78.87-.14,2.31-.23,4.63-.24,6.95a1.17,1.17,0,0,0,.78.82c2.37,0,4.74,0,7.1-.11a1.76,1.76,0,0,0,1.83-1.4,5.84,5.84,0,0,1,.7-1.07v6.37l-.32.1a4.78,4.78,0,0,1-.35-.93,1.83,1.83,0,0,0-1.82-1.78c-2.26-.12-4.54-.14-6.81-.18-.85,0-1.22.36-1.17,1.27.11,2.13.16,4.27.19,6.4,0,.92.42,1.39,1.32,1.39,2.45,0,4.91.1,7.35-.07a4.61,4.61,0,0,0,4.11-2.91,6.08,6.08,0,0,1,.55-.8c.4,1.1-.42,4.49-1.14,5a1,1,0,0,1-.52.11q-8.14,0-16.28.05a3.58,3.58,0,0,1-.85-.18Z"/><path d="M12.06,172.38c.3.72.46,1.12.64,1.53,2.27,5.34,4.53,10.69,6.85,16,.7,1.63,1.3,3.43,3.59,3.68L23,194H15.76c.05-.13.05-.32.13-.36,1.81-.92,1.82-.91,1.07-2.89-1.52-4-1.54-3.75-5.8-4.15-3.47-.32-5.47.69-6.45,4.09-.55,1.9-.58,2.28,1.33,2.77a1.82,1.82,0,0,1,1.08.61H0c4.23-2.75,5-7.44,7.07-11.31,1.63-3.07,2.92-6.32,4.36-9.49A7.65,7.65,0,0,1,12.06,172.38Zm2.75,13.12c-1.31-2.83-2.5-5.42-3.87-8.4-1.34,3-2.48,5.58-3.72,8.4Z"/><path d="M167.38,173h8.08l.11.26a3.39,3.39,0,0,1-1,.45c-1.38.1-1.94.83-2,2.18-.08,4.83-.25,9.65-.29,14.48,0,2.09.26,2.28,2.35,2.34a30,30,0,0,0,4.45,0c2.41-.29,5-.3,6.2-3.22.41.91-.3,4.1-.91,4.47a1.3,1.3,0,0,1-.66.1q-7.66-.09-15.33-.2c-.38,0-.76-.07-1.15-.1,0-.21,0-.28.05-.29,2.51-.63,2.45-2.64,2.46-4.6,0-3.63,0-7.26,0-10.88C169.76,174.66,169.76,174.66,167.38,173Z"/><path d="M83.91,154.35c.22,2.61-.42,5.26.46,7.89H82.12c.82-1.49.83-9.2,0-10.62,2.41-.49,2.56-.43,3.7,1.6.52.94,1,1.86,1.58,2.79,0,.06.15.08.38.2a26.59,26.59,0,0,0,1.8-3.21c.63-1.62,1.76-1.76,3.21-1.46-1,1.69-1,9,0,10.71h-3c1.23-2.63.32-5.36.64-8l-.36-.09-3,5.18-2.92-5Z"/><path d="M157.45,157.74c-.23-2,.47-4.09-.58-6.17h2a24,24,0,0,0-.3,2.52c0,2.91,0,5.82-.32,8.86l-5.52-8.47c-.07,2.61-.77,5.17.18,7.74h-2a66.47,66.47,0,0,0,.09-10.66c1.58-.43,1.88-.31,2.93,1.36l3.12,4.92Z"/><path d="M48.82,151.49h2.26L50.75,156h4.1l-.4-4.4h2.31a38.45,38.45,0,0,0,0,10.66H54.43l.46-5.09H50.77l.23,5.09H48.76A67.58,67.58,0,0,0,48.82,151.49Z"/><path d="M140.72,153.94l-.94-.82a2.24,2.24,0,0,0-3.52.19c-1.54,1.74-1.64,5.29-.1,7a3.93,3.93,0,0,0,1.73,1.06c1.11.32,1.79-.25,1.76-1.4s-.16-2.31-.26-3.51h2.24c-.09,1.42-.24,2.81-.24,4.2a1.39,1.39,0,0,1-1.11,1.52,5.62,5.62,0,0,1-6.15-1.82,5.55,5.55,0,0,1-.54-6.15,5.38,5.38,0,0,1,5.61-2.81C140.9,151.64,141.14,152,140.72,153.94Z"/><path d="M101.86,151.4c1.42.07,3,0,4.61.25a3.24,3.24,0,0,1,3,3c0,1.38-1.13,2.55-2.9,2.92a24.56,24.56,0,0,1-2.72.31l.36,4.31h-2.37A32.65,32.65,0,0,0,101.86,151.4Zm2.11,5.24c1.28.18,2.55.33,3.13-.95a2.92,2.92,0,0,0-.11-2.3c-.62-1.13-1.83-1-3-.8Z"/><path d="M174.6,153.09l-4.48-.85a13.43,13.43,0,0,0,.4,3.63c.12.29,1.61,0,2.59,0v1.49l-2.83-.48v4.6l4-.75v1.43h-6a76.8,76.8,0,0,0,.05-10.74c1.56,0,3.52-.08,5.47.07C174.09,151.56,174.34,152.57,174.6,153.09Z"/><path d="M67.59,162.27H65.25c1.11-3.19,2.21-6.4,3.37-9.59a5.07,5.07,0,0,1,.93-1.22,4.83,4.83,0,0,1,.91,1.19c.87,2.35,1.65,4.73,2.48,7.1.29.81.66,1.59,1,2.46H71.46c-.27-1-.25-2.44-.81-2.71a3.93,3.93,0,0,0-3.15.06C66.88,159.88,66.41,161.18,67.59,162.27Zm1.6-7.92-1.36,3.85h2.65Z"/><path d="M125,162.23h-2.57c-.22-1-.16-2.48-.65-2.7a4.24,4.24,0,0,0-3.17,0c-.48.22-.41,1.66-.62,2.72h-1.75c1.17-3.28,2.35-6.6,3.57-9.91.13-.35.57-.59.87-.88.26.29.64.53.76.87.78,2.18,1.49,4.39,2.26,6.57C124.09,160,124.55,161.1,125,162.23Zm-6.08-4h2.61l-1.3-3.92Z"/><path d="M39.89,159.5c.21,2.45,0,2.7-2.06,2.93a4.28,4.28,0,0,1-4-1.75,6.24,6.24,0,0,1-.5-6.83,4.52,4.52,0,0,1,4.61-2.48c1.91.16,2.23.55,1.92,2.77-.44-.41-.79-.75-1.15-1.07-1.33-1.19-2.77-.91-3.45.75a7.85,7.85,0,0,0,0,6.11c.7,1.75,2.11,2,3.49.65C39.05,160.27,39.39,160,39.89,159.5Z"/><path d="M24,183.79c-.54.36-1.12,1.05-1.61,1s-1.3-.86-1.29-1.32a1.84,1.84,0,0,1,1.3-1.32c.49,0,1.07.65,1.61,1Z"/><path d="M169.74,52.27c-1.6-1.85-4.79-1.82-7,.24a43.94,43.94,0,0,0-3.28,3.83l-.59-.75A11.33,11.33,0,0,0,149.45,51,17.1,17.1,0,0,0,136,57.76C131.84,63,132.35,69.33,137.12,74c.18.18.35.38.53.58a1.39,1.39,0,0,1-.29.21c-.22.08-.45.14-.67.21A11.43,11.43,0,0,0,129.3,81c-.81,1.65-2.65,3-4.28,4s-3,0-3-1.91a13.94,13.94,0,0,1,.68-3.54c1.85-6,3.75-12.07,5.63-18.1L131,52.8c-2.1,0-4,0-5.89.05-.29,0-.68.55-.82.92-.44,1.18-.79,2.39-1.24,3.8-2.65-6.76-7-7.41-12.27-6.06A23.49,23.49,0,0,0,99,59C94,64.69,91.4,71.1,93.6,78.78a1.26,1.26,0,0,1-.11,1,59.18,59.18,0,0,1-4.44,4.38,2.48,2.48,0,0,1-3.11.32c-1.09-.81-1-2.06-.61-3.2.67-2.18,1.42-4.33,2.13-6.49,1.72-5.16,3.57-10.27,5.09-15.48,1.18-4-1.1-7.32-5.18-8.17s-7.37,1-10.2,3.6c-2.06,1.92-3.88,4.09-6,6.31a11.72,11.72,0,0,0,.25-1.4c.11-2.29.66-4.67-1.16-6.63-2.18-2.36-4.89-2.49-7.71-1.67-3.64,1.06-6.47,3.41-9,6.16-1.11,1.22-2.08,2.54-3.12,3.82l-.15-.07c1-3.35,1.95-6.7,3-10.32A29.94,29.94,0,0,1,42,52.79c-.81,0-1.23.29-1,1.37h4.8C42.57,65,39.45,75.64,36.28,86.42c2,0,3.75,0,5.51,0,1,0,1.35-.31,1.62-1.24,1.54-5.45,3-10.93,4.79-16.31A28.51,28.51,0,0,1,59.34,54.15a12.76,12.76,0,0,1,4.09-1.66c1.8-.47,2.65.35,2.46,2.23A18.45,18.45,0,0,1,65.21,58Q61.36,71.3,57.45,84.6c-.16.55-.3,1.12-.49,1.82,2,0,3.74,0,5.49,0,1,0,1.36-.32,1.62-1.24,1.39-4.87,3-9.69,4.26-14.58,1.81-6.91,6.16-12,11.48-16.36a9.85,9.85,0,0,1,3.29-1.75c2.43-.74,4.12.85,3.62,3.31a30.7,30.7,0,0,1-1.08,3.89c-1.94,5.72-3.94,11.41-5.85,17.14a11.08,11.08,0,0,0-.45,6.45,4.51,4.51,0,0,0,4.11,3.59,8.31,8.31,0,0,0,6-1.47c1.76-1.34,3.35-2.9,5.08-4.42a11.19,11.19,0,0,0,10.82,6.43c4.91-.19,8.17-3.33,11-7.1.2,1.12.31,2.08.55,3a5,5,0,0,0,4.72,4.06,7.64,7.64,0,0,0,6.17-2.34c.42-.38.83-.78,1.44-1.35.28,2.82,2,4.09,4.21,5-1.41.87-2.77,1.58-4,2.48-3.25,2.39-5.17,5.53-4.59,9.68.54,3.82,3.35,5.83,6.65,7,6.69,2.41,13.4,2.25,19.73-1.09,5.66-3,9.6-7.54,10.47-14.1.71-5.33-1.53-9.26-7-9.62-4.61-.3-9.27,0-13.9,0a51.76,51.76,0,0,1-6.11-.29,2.42,2.42,0,0,1-2.26-3.36c.7-2.18,5.25-4.42,7.46-3.71,6,2,11.49.67,16.27-3.35,4.28-3.61,5.77-8.16,4.2-13.63-.43-1.5,2-4.92,3.62-5.2.06,0,.15.1.27.19,0,.6-.1,1.24-.08,1.88a2.85,2.85,0,0,0,2.42,2.82,3.16,3.16,0,0,0,3.58-1.51A4.35,4.35,0,0,0,169.74,52.27Zm-48.48,9.39c-1.86,5-3.34,10.24-5.28,15.26-1.36,3.5-3.49,6.6-7.15,8.17a12.13,12.13,0,0,1-3.75.92c-3.41.27-5.69-1.71-6.08-5.11-.08-.64-.08-1.29-.12-1.94,1-8.06,2.77-15.83,7.83-22.45a10,10,0,0,1,6-4C118.88,51.34,122.84,57.36,121.26,61.66ZM136,89.16h9.2c3,0,6,0,9.06,0s4.85,1.92,4.51,5a13.5,13.5,0,0,1-5.39,9.42c-6.29,4.88-13.24,5.81-20.55,2.66A7.78,7.78,0,0,1,128,98c.36-3.86,3.35-7.76,6.7-8.68A4.8,4.8,0,0,1,136,89.16ZM155,58.08c-.46,5.1-1.77,10-4.89,14.16a6.6,6.6,0,0,1-8,2.38c-2.44-1-3.27-3-3.2-5.5a26,26,0,0,1,4.45-13.29c2.18-3,5.45-4.18,8.37-3A5,5,0,0,1,155,58.08Z"/></g></g></svg>