<svg version="1.1"
	 id="svg2" xmlns:cc="http://creativecommons.org/ns#" xmlns:dc="http://purl.org/dc/elements/1.1/" xmlns:rdf="http://www.w3.org/1999/02/22-rdf-syntax-ns#" xmlns:svg="http://www.w3.org/2000/svg"
	 xmlns="http://www.w3.org/2000/svg" xmlns:xlink="http://www.w3.org/1999/xlink" x="0px" y="0px" viewBox="0 0 500 250"
	  style="fill: #FFF" xml:space="preserve">
<g id="g4">
</g>
<g>
	<path class="st0" d="M346.7,101h-28.6v15.5h28.6c3.1,0,3.5-1.5,3.5-3.2v-8.6C350.2,103.3,350.2,101,346.7,101z"/>
	<path class="st0" d="M437.4,101.1h-26.9c-3,0.3-3.5,2.2-3.6,3.1v41.2c0.1,0.9,0.7,3.2,3.7,3.5h26.7c3-0.3,3.4-2.6,3.5-3.5v-41.2
		C440.7,103.3,440.4,101.4,437.4,101.1z"/>
	<path class="st0" d="M0.5,0.5v249h499V0.5H0.5z M133.2,164.5h-24.7v-49.6L92,164.5H75.8l-16.6-49.6v49.6H34.5V85.6h33.3l16,39.5
		l16-39.5h33.3V164.5z M208,164.5l-65,0V85.6h64.1v15.5l0,0h-39.4v15.4h39.4V132h-39.4l0,16.9H208L208,164.5z M286.1,101.1h-23.4
		v63.4H238v-63.4h0h-23.4V85.6h71.5V101.1z M372.4,119.3c0,8.6-7.7,13.8-15.4,14.5h0h-3.8l19.1,30.7H344l-16-30.7h-9.8v30.7h-24.7
		l0-78.9h63.4c7.9,0.6,14.6,5.4,15.5,14.3V119.3z M465.5,150.2c-0.9,8.9-7.5,13.7-15.4,14.3h-52.4c-7.9-0.6-14.5-5.4-15.4-14.3V99.1
		c0.9-8.9,7.5-12.9,15.4-13.6h52.4c7.9,0.6,14.5,4.6,15.4,13.6V150.2z"/>
</g>
</svg>
