<svg style="fill: #FFF" id="Groupe_36" data-name="Groupe 36" xmlns="http://www.w3.org/2000/svg" width="68.664" height="27.412" viewBox="0 0 68.664 27.412">
  <g id="Groupe_34" data-name="Groupe 34" transform="translate(21.497 0)">
    <path id="Tracé_199" data-name="Tracé 199" d="M263.131,16.849l.5-.1a2.316,2.316,0,0,0,1.681-3.165c-.431-.974-1.035-1.88-1.612-2.906-1.328,2.285-2.6,4.484-3.906,6.752-1.259-2.173-2.475-4.277-3.716-6.433a2.475,2.475,0,0,0-.216.285c-.362.621-.716,1.242-1.078,1.863a2.362,2.362,0,0,0,1.552,3.622c.129.034.259.069.379.1-.009.034-.009.078-.017.112h-7.373c-.009-.034-.017-.06-.026-.095a1.365,1.365,0,0,1,.267-.078,5.514,5.514,0,0,0,4.51-2.9q3.88-6.726,7.778-13.452c.078-.138.164-.267.276-.457a4.4,4.4,0,0,1,.241.371c2.587,4.475,5.191,8.933,7.752,13.417a5.568,5.568,0,0,0,4.613,3.018.309.309,0,0,1,.233.155c-3.949.078-7.9.078-11.848.078A1.338,1.338,0,0,0,263.131,16.849Zm-1.138-3.691c.483-.828.923-1.612,1.388-2.38a.57.57,0,0,0-.009-.664C262.3,8.3,261.26,6.467,260.2,4.639c-.069-.121-.147-.233-.259-.414-.474.819-.905,1.6-1.371,2.354a.621.621,0,0,0,.009.742c1.061,1.811,2.1,3.63,3.147,5.441C261.795,12.874,261.881,12.986,261.993,13.159Z" transform="translate(-249.3 0)"/>
  </g>
  <g id="Groupe_35" data-name="Groupe 35" transform="translate(0 20.428)">
    <path id="Tracé_200" data-name="Tracé 200" d="M212.543,247.023c-1.612-1.819-3.216-3.647-4.881-5.536-.009.164-.026.259-.026.354v3.328c0,.88.3,1.19,1.181,1.259.112.009.216.017.362.026a7.543,7.543,0,0,1-3.372,0c.224-.026.423-.043.629-.078a.878.878,0,0,0,.862-.923c.026-1.431.017-2.871.009-4.3,0-.388-.233-.578-.638-.595-.207-.009-.423,0-.629-.009a1.554,1.554,0,0,1-.241-.078c.009-.034.009-.069.017-.1.1-.009.216-.026.319-.026.923,0,1.845-.009,2.768.009a.693.693,0,0,1,.466.216c.957,1.043,1.906,2.113,2.906,3.216a3.039,3.039,0,0,0,.034-.31v-1.819c0-.742-.328-1.061-1.061-1.086a3.007,3.007,0,0,1-.466-.1,1.982,1.982,0,0,1,.483-.121q3.376-.013,6.752.009a5.652,5.652,0,0,1,1.38.172,2.954,2.954,0,0,1,2.121,3.975,2.811,2.811,0,0,1-2.647,2.052c-1.647.112-3.311.069-4.967.078-.06,0-.121-.069-.181-.1.06-.034.121-.078.181-.112.009-.009.026,0,.035,0,1.1-.129,1.268-.31,1.268-1.431v-3.4a.907.907,0,0,0-.94-1.026.19.19,0,0,1-.069-.009c-1.052-.052-1.621.052-1.578,1.457.052,1.526.009,3.052.009,4.587V247C212.595,247.005,212.569,247.014,212.543,247.023Zm4.518-3.518v2.414c0,.2.026.362.285.4a1.926,1.926,0,0,0,2.173-1.406,5.429,5.429,0,0,0,.009-2.63,1.972,1.972,0,0,0-2.044-1.561c-.31.009-.44.121-.431.44C217.07,241.944,217.062,242.72,217.062,243.5Z" transform="translate(-188.054 -240.038)"/>
    <path id="Tracé_201" data-name="Tracé 201" d="M384.579,243.307a5.6,5.6,0,0,0,.664-.052,1.818,1.818,0,0,0,.629-.25.511.511,0,0,0,.164-.423,7.14,7.14,0,0,0-.457-.974c-.026-.043-.147-.06-.216-.06-.733-.009-1.466,0-2.207,0a.372.372,0,0,0-.2.035,1.811,1.811,0,0,0-.414,1.181c.121.388.457.466.8.517.129.017.259.017.423.035a7.458,7.458,0,0,1-3.268.017,2.2,2.2,0,0,1,.345-.069,1.407,1.407,0,0,0,1.155-.69,9.5,9.5,0,0,0,.526-.905c.733-1.466,1.457-2.949,2.182-4.415.052-.1.1-.207.181-.354.086.147.164.25.233.371.974,1.673,1.932,3.354,2.923,5.01a2.734,2.734,0,0,0,.724.785c.423.3.828.078.836-.44.009-1.431.009-2.871,0-4.3,0-.517-.354-.828-.94-.888l-.509-.052v-.121a1.13,1.13,0,0,1,.233-.052c1.466,0,2.94-.009,4.406.026a4.461,4.461,0,0,1,1.259.241,2.792,2.792,0,0,1,2,3.139,2.933,2.933,0,0,1-2.406,2.759,7.705,7.705,0,0,1-1.25.138q-3.764.013-7.528,0a1.339,1.339,0,0,1-.31-.069C384.57,243.384,384.57,243.341,384.579,243.307Zm6.916-2.949c0,.785.009,1.561,0,2.345,0,.293.112.423.405.44a1.876,1.876,0,0,0,2.1-1.6,8.672,8.672,0,0,0-.009-2.363,1.908,1.908,0,0,0-2.061-1.647c-.319,0-.431.129-.431.44C391.5,238.771,391.494,239.565,391.494,240.358Zm-8.407.836h2.276c-.405-.724-.785-1.414-1.19-2.147C383.794,239.78,383.449,240.47,383.087,241.194Z" transform="translate(-347.69 -236.9)"/>
    <path id="Tracé_202" data-name="Tracé 202" d="M653.715,243.471c0,.7-.026,1.414.009,2.121.017.414.44.673.992.7.147.009.293.026.44.043,0,.043-.009.086-.009.138H650.3c.1-.086.155-.164.216-.172.207-.034.423-.026.621-.069a.758.758,0,0,0,.69-.759c.017-1.423.017-2.846-.009-4.268-.009-.457-.422-.75-.957-.776a3.2,3.2,0,0,1-.5-.095,2.181,2.181,0,0,1,.509-.121c1.4-.009,2.8-.026,4.2.017a4.551,4.551,0,0,1,1.388.3,1.263,1.263,0,0,1,.793,1.354,1.19,1.19,0,0,1-.871,1.147c-.216.086-.44.147-.69.233,1.13.138,1.526.56,1.664,1.7.095.811.414,1.207,1.069,1.319a.852.852,0,0,0,1.035-.845c.009-1.388,0-2.777,0-4.165a.786.786,0,0,0-.845-.854,1.945,1.945,0,0,1-.388-.009.9.9,0,0,1-.241-.121.869.869,0,0,1,.224-.1c.172-.017.354-.009.526-.009h3.742c.121,0,.241.017.362.017.009.026.017.06.026.086-.052.034-.1.1-.164.112a3.424,3.424,0,0,1-.423.009c-.647.017-.931.31-.931.949v3.889c0,.716.31,1.035,1.043,1.052.121,0,.233,0,.354.009a.685.685,0,0,1,.147.069.938.938,0,0,1-.3.121c-.405.009-.819.009-1.224.009h-4.372a1.382,1.382,0,0,1-1.63-1.311c-.052-.241-.086-.483-.138-.724C655.034,243.583,654.646,243.325,653.715,243.471Zm.017-.328c.56-.009,1.138.086,1.457-.492a1.558,1.558,0,0,0-.009-1.638c-.336-.561-.9-.474-1.449-.457C653.732,241.419,653.732,242.255,653.732,243.143Z" transform="translate(-594.225 -239.893)"/>
    <path id="Tracé_203" data-name="Tracé 203" d="M3.544,246.216a9.778,9.778,0,0,1-3.544.06,1.165,1.165,0,0,1,.224-.078c.207-.026.423-.034.629-.052a.956.956,0,0,0,.923-.854c.241-1.345.474-2.69.7-4.027.1-.595-.164-.914-.767-.94-.155-.009-.3.009-.457-.009a.519.519,0,0,1-.181-.112.8.8,0,0,1,.034-.112h.371c.871,0,1.75.017,2.621,0a.4.4,0,0,1,.474.328c.319.94.664,1.863,1,2.794.034.095.078.181.138.354.129-.336.233-.6.336-.871.285-.776.578-1.552.862-2.328.069-.181.147-.285.362-.276.923.017,1.845,0,2.768.009a1.071,1.071,0,0,1,.31.095.9.9,0,0,1-.034.147c-.216,0-.431-.009-.647,0a.693.693,0,0,0-.733.9c.216,1.311.44,2.621.664,3.932a.994.994,0,0,0,1.035.983l.6.078c.009.034.009.06.017.095a.676.676,0,0,1-.207.078c-1.509.009-3.009.009-4.518,0a.747.747,0,0,1-.224-.069.492.492,0,0,1,.009-.112c.216-.026.44-.06.655-.086.638-.069.845-.328.733-.957-.216-1.224-.44-2.458-.664-3.682-.017-.078-.043-.155-.086-.3-.69,1.888-1.354,3.708-2.018,5.536-.026.009-.052.009-.078.017-.655-1.819-1.319-3.639-1.975-5.458-.026.009-.052.009-.078.017-.2,1.1-.388,2.216-.578,3.32a5.41,5.41,0,0,0-.095.828.629.629,0,0,0,.638.69c.129.017.259.026.379.034A3.383,3.383,0,0,0,3.544,246.216Z" transform="translate(0 -239.817)"/>
    <path id="Tracé_204" data-name="Tracé 204" d="M574.574,238.7a3.3,3.3,0,1,1-.31,6.562,3.285,3.285,0,1,1,.31-6.562Zm1.544,3.3a4.424,4.424,0,0,0-.431-2.026c-.241-.457-.535-.888-1.112-.888a1.227,1.227,0,0,0-1.086.871,4.745,4.745,0,0,0,.009,4.113,1.224,1.224,0,0,0,1.061.845c.561.009.862-.405,1.1-.854A4.158,4.158,0,0,0,576.117,242Z" transform="translate(-521.879 -238.545)"/>
    <path id="Tracé_205" data-name="Tracé 205" d="M130.133,238.7a3.3,3.3,0,1,1-.31,6.562,3.285,3.285,0,1,1,.31-6.562Zm1.535,3.242a4.426,4.426,0,0,0-.474-2.026,1.259,1.259,0,0,0-1.078-.828,1.232,1.232,0,0,0-1.069.845,4.7,4.7,0,0,0,0,4.148,1.211,1.211,0,0,0,1.061.845c.56.009.862-.414,1.1-.854A4.5,4.5,0,0,0,131.668,241.942Z" transform="translate(-115.733 -238.545)"/>
  </g>
</svg>
