<svg style="fill: #FFF" xmlns="http://www.w3.org/2000/svg" viewBox="0 0 201.68 172.05"><defs><style>.cls-1{fill-rule:evenodd;}</style></defs><g id="Calque_2" data-name="Calque 2"><g id="Calque_1-2" data-name="Calque 1"><path class="cls-1" d="M111.29,14.49a1.64,1.64,0,1,0-1.63-1.64A1.64,1.64,0,0,0,111.29,14.49Zm-22-2.91a1.38,1.38,0,1,0,0-2.75h0a1.38,1.38,0,0,0,0,2.75ZM72.8,45.29l-.67-.72C74,42.83,76,40.06,76.3,38.43s2.48-1.27,2.06.38c-.52,2.1-3.1,4.64-5.56,6.48Zm-14-33.13c-3.44,1.49-3.94,5-1.53,7.14,2.91,2.55,7.72.33,7.25-3.58,3.91.2,6.43-3.83,5.81-6.67,1.74-1.49,1.91-4.67-.17-5.92C68,1.8,65.86,2.31,64.52,4.89c-3.58-.26-7,2.55-5.68,7.27l-1.65-.73a5.66,5.66,0,0,1,6.33-8.16A5.64,5.64,0,0,1,71,.52a7.68,7.68,0,0,1,.74.41,5.34,5.34,0,0,1,.44,8.82c1.51,4.39-1.5,8-6.08,7.57-.54,5.66-5.87,6.39-9.32,3.7a9,9,0,0,1-3.11-5.2c-.4-1.67-.4-3.18-2.05-4.9a5.24,5.24,0,0,0-3.48-1.26c0-4.11-3.84-7.87-8.61-6.05-1.69-1.45-3.78-1.6-5.27.2a3.28,3.28,0,0,0,1.33,5c-.14,3.75,2.71,6.14,6.89,5.8.16,2,2.36,3.84,4.32,4.11l0,1c-2.08-.2-3.21.53-4.6,2.25-4.9-.23-8.34,1.95-8.2,5.47a3.62,3.62,0,0,0-2.13,6.19,3.5,3.5,0,0,0,5.79-1.13c3.48.66,6.55-1.83,6.69-4.7,3.25,0,4.67-1.29,5.2-4.27l1.22.1c.37,3.21-1.12,6.26-5,5.9a5.21,5.21,0,0,1-7.3,4.66c-1.62,3-5.34,4.26-8.46,1.29a5.29,5.29,0,0,1,2-9c.09-3.77,2.87-7.34,8.27-6a3,3,0,0,1,2.38-1.78,3.19,3.19,0,0,1-2.21-2.25,5.57,5.57,0,0,1-6.6-6.65C30.18,8,30.12,4.33,31.94,2.17S37-.57,39.84,1.85c4.8-2.65,10.22.6,9.89,6.06,3.35-.22,5.39,2.71,5,5.76a3.16,3.16,0,0,1,2.44-2.24l1.66.73Z"/><path class="cls-1" d="M67.08,5.6l.81.58A27.63,27.63,0,0,1,61.15,15l-.91-.68A57.25,57.25,0,0,1,67.08,5.6ZM43.62,23.83l.55.81a35.62,35.62,0,0,1-7.62,5.7l-.76-.83A28,28,0,0,1,43.62,23.83ZM48.37,14l-1,1.18c-2.6-1.7-7.73-6.29-8.89-7.94l.81-.83C41.82,7.64,46.67,12,48.37,14ZM43.55,57.48c.29,1.49.05,3.14,1.39,4.75a66.84,66.84,0,0,0,5,5.76c-2.56,1-7.69,3.1-11.39,3.56a7.14,7.14,0,0,0-2.27,1,10.79,10.79,0,0,0-1.14,3.8,31.48,31.48,0,0,0-.12,3.7,19.52,19.52,0,0,0,1.88,7.13,8.39,8.39,0,0,0,4,4.18,6.11,6.11,0,0,1,2-.25,7.37,7.37,0,0,1,5.94,2.8c.37.51,1.11.61,2.08.61a20.7,20.7,0,0,0,7.07-1.64c.51-.41,1.92-1.36,3.32-2.45s9.13-7.66,12.56-9.32a17.31,17.31,0,0,0,7.83,2.24,7.07,7.07,0,0,0,1.4-.13c.95-.22,2.18-.65,3.72-1a55.11,55.11,0,0,1,6.95-1c2.54,0,10,.23,11.75.23s4.5-.16,5.5-.26a69.25,69.25,0,0,0,8.37-3,69.5,69.5,0,0,0,11.45-7.43,11,11,0,0,0,1.42-1.53c.13-.19.18-.26.18-.41l0-4.91s1.68-1.85,2.31-2.49a.22.22,0,0,0,.06-.21,26.77,26.77,0,0,1-.41-6.91l-1.69-.79a17.36,17.36,0,0,1-2.71,8.89c-2.51.39-7.31,1.88-9,3.85l1,.27a11,11,0,0,1,5.35-1.52c1.75,0,2.53.46,2.53,1a5.4,5.4,0,0,1-.46,1.44,3.62,3.62,0,0,1-.55,1A32.93,32.93,0,0,1,120.36,75a32.14,32.14,0,0,1-7.54,3c-1,.27-2.31.67-3.18,1-1.23,0-7.63-.23-11.38-.23s-11.45.55-13.91,1.17c-1.11.28-1.39.73-2.68.73-2.41,0-5.59-1.23-7.53-2.17a13.82,13.82,0,0,0-1.69.74c-1.38.69-4.45,5-6.24,3.67-.91,1.86-4.85,3.64-6.2,5.57.15-1,1.74-7.59,1.89-8.91a1,1,0,0,0-.1-.67c-1.44-2.4-5.46-3.93-7.73-4.37-.66-.13-1-.22-1.44-.33l-3.57-1.08-3.32,1.08,3.83.74-4.86,3.22c.84-.33,6.08-1.78,6.47-1.89a2.52,2.52,0,0,1,1.62,0c.71.25,2.73.71,3.93,1.13a5.34,5.34,0,0,1,2.16,2.23,9.58,9.58,0,0,1,.25,2.24,12.19,12.19,0,0,1-.37,2.93,19.19,19.19,0,0,1-2,4.92A3.22,3.22,0,0,1,55,91.19a9.36,9.36,0,0,1-3.79.83c-1,0-1.65,0-2.07-.62a8.5,8.5,0,0,0-8-2.88c-2-1.24-4.08-5.25-4.08-8.44a24.49,24.49,0,0,1,1.48-6.44c3.34-.45,10-3,13.28-4.47a28.8,28.8,0,0,1,4.34-.7c4.37,0,8.71,3.83,11.34,6.41a3.59,3.59,0,0,1,3.48-1.79c3.09,0,4.86,2.82,5.75,5.71l1.61-1.17A9.1,9.1,0,0,0,76,72.86a7.45,7.45,0,0,0-4.69-2c-1,0-2,.21-2.58.21-2.21,0-3.11-1-4.75-2.11s-5-3-7.38-3c-1.51,0-2.18.59-3.43.59a3.72,3.72,0,0,1-3.38-1.84C49.37,64.3,47.52,62.65,47,62a11.54,11.54,0,0,1-1-2.71l-2.51-1.8Z"/><path class="cls-1" d="M46.06,59.28A13.81,13.81,0,0,0,47.77,61,21.19,21.19,0,0,0,50,62.32,18.84,18.84,0,0,0,53.48,64a13.67,13.67,0,0,0,3.73.45c1.83,0,4-.38,5.8.46,1.2.56,1.29,1.84,2.24,2.21,1.49.58,5.63.71,7.93.71a59.2,59.2,0,0,0,12.36-1.27L84.13,65a99.15,99.15,0,0,1-10.62,1c-3.81,0-7.41-.61-7.41-2.19,0-1.09,1.17-2.66,3.41-2.66,2.4,0,6,1.45,6.7,1.65a1.6,1.6,0,0,0,1.36-.05L79,62c-1.87-.87-8.36-3.1-10.62-3.1a2.47,2.47,0,0,0-2.35,1c-.87,1.12-3.18,2.14-6.89,2.14a24.42,24.42,0,0,1-5.56-.63,29.31,29.31,0,0,1-4.7-2.73,17,17,0,0,1-4.44-4.42A2.89,2.89,0,0,1,44,52.68a7,7,0,0,1,.17-1.16,8.17,8.17,0,0,0,1.11,1.19A15.69,15.69,0,0,0,53,56.6a12,12,0,0,0,2.44.29,5,5,0,0,0,3.17-1.34L57.48,54.2a7.89,7.89,0,0,1-1.67.11c-4.3,0-9.77-2.81-11-6.07-.13-.32-.28-.5-.15-.79A8.43,8.43,0,0,0,45,45.93a7,7,0,0,0,1.43,1.15c1.6,1,4.65,2.45,5.25,2.82a19.43,19.43,0,0,0,3.61-1.43,7.63,7.63,0,0,1,3.53-.88c3.15,0,6.76,1.79,10.16,3.46l2.32-.91c-3-2.12-9.57-5.08-13.22-5.08-2.15,0-4.17,1.57-5.61,1.57-1.76,0-6.83-2.47-6.83-4.53,0-1.58,3.28-2.48,8.55-3.13q-1.38,2-2.59,4.17l1.34.75C61.21,31.94,69.79,24.18,77,19.45a9.44,9.44,0,0,0,4.14-4.6c2.24-4.57,4.35-8.08,8-8.08a5.3,5.3,0,0,1,4.07,2.15l2.66.79-2.69,1.82L96,12.63a17,17,0,0,0-10.47,9.61c-3.82.2-5.66,3.3-6.91,5.89-.85,1.75-2.19,2.45-4.14,3.77L58.8,42.79l2.15.3,14.44-9.67c2.85-1.92,4.2-3.34,4.89-4.7,1.34-2.68,2.78-4.67,5.61-4.67A6.06,6.06,0,0,1,90,25.77l2.53.83-2.76,1.69,2.32,1.42c-6.63,2.08-10.73,6.82-13.12,15.9l1.76.39A31.42,31.42,0,0,1,84,37.81c3.84,0,7.72-.18,11.54-.18,10.17,0,18.62.43,23.18,1.77l-1.62-2.8c-4.87-.83-12-1.26-21.56-1.26-3.23,0-6.49.12-9.74.16,2.1-2.22,5.11-4.08,9.75-5.52l-3.29-1.82,3.65-2-5-1.85a7.76,7.76,0,0,0-3.32-1.84c1.6-4.91,7-7.78,12.25-9.75L96.2,11.2l3.68-2L94.21,7.38a6.11,6.11,0,0,0-5.09-2.53c-5.26,0-7.47,4.56-9.56,8.61a9.1,9.1,0,0,1-3.65,4.25A81.48,81.48,0,0,0,61.79,29.58c-2.57-1.86-7.83-7.27-9.25-10.23a9.73,9.73,0,0,0-1.12,2.21c.53.57,6.72,6.82,9,9.47l-.52.58c-2.45.48-8.82,1.1-11,.8l-1.21,2.16c1.62-.16,7.94-.9,10.57-1.06-.81,1-1.58,2-2.34,3-8.14.92-13.57,2.59-13.57,5.6,0,.49.2,1.06.2,1.59A2.29,2.29,0,0,1,41.21,46c-.58.37-.62.62-.37,1a13.45,13.45,0,0,1,1.51,2.57c0,.6-.6,1.21-1.09,1.75s-.4.6-.07,1.19l2.36,5,2.51,1.81ZM146.82,31.36a10.69,10.69,0,0,0-1.36,1.75l-1.31-1.84c4.38-5.83,15.94-8.57,22.72-9V19.09c-.86.27-1.79.57-2.65.77a13,13,0,0,1-3.28.54,2.58,2.58,0,0,1-2.07-.91c-.91-1.3-.06-3.26,2.92-5.1l-2.35-2c-1.82,2.35-3.6,5-5.42,6.5-1.65,1.41-3.38,2.11-4.78,1.07-.75-.57-1-.82-1.11-2.29a21.37,21.37,0,0,1,2.56-7.57l-2.78-.32a21.75,21.75,0,0,1-3.25,8.29,22.08,22.08,0,0,1-6.42,6.49l-1.54-1.52a18.22,18.22,0,0,0,5.92-5.47c1.9-2.92,3.44-6.53,3.44-9.82l8.05.77a26.28,26.28,0,0,0-3.7,7.06c-.37,1.23-.35,2.21.09,2.54.85.64,2.35-.38,3.8-1.94a69.26,69.26,0,0,0,4.93-6.69l5.82,4.83c-2.59,1.37-5.1,2.94-4.6,3.82s2.11.56,3.93,0a20.94,20.94,0,0,0,4.32-1.88v7.87a43.55,43.55,0,0,0-12.14,1.87c1.09,1.54,4.22,2.1,6.2,2.38l-1,6.38a36.42,36.42,0,0,0-15-3.45l2-1.72a29.12,29.12,0,0,1,11.5,2.67l.36-2.42c-2.29-.3-5.17-1.6-6.39-3.07a23.52,23.52,0,0,0-5.47,2.82l-2,1.72Z"/><path class="cls-1" d="M122.84,51.65l1.87-4a71,71,0,0,1-6-8.21l-1.61-2.8c-3.73-7.08-2.37-10.46-4.36-13.58-1.65-2.57-9.63-1-11-.69l2.31-3.83-4.55.37,3.86-4.59a8.18,8.18,0,0,0,1.07-2.73C105.15,9.14,107.22,5,113.3,5c6.75,0,8.84,5.46,11.78,7.83q6,4.86,11.61,10.23l1.55,1.53a63.85,63.85,0,0,1,5.91,6.66l1.31,1.84C153.58,45,163.67,67.63,168.13,78c.43,1,.74,2,1,2.79a113.09,113.09,0,0,1-9.81-6.12l-2-1.4c-1.25-.91-2.5-1.83-3.72-2.78l-2.06-1.62q-1.86-1.48-3.66-3L152,89.49c.3,1.39,1.49,1.16,2.45-.06s1.32-1.56,1-3.18l-3.81-17.37,2.06,1.62,3.65,14.76c.35,1.33.92,1.75,2.47,1.81s1.89-.53,1.56-1.55l-4-12.24,2,1.4,3.74,11c1,2.82,0,3.15-1.69,3.15s-3.21-.4-4.14.2-2.09,2.22-3.48,3.65c-1.23,1.25-3,.93-3.37-1.43L145.91,64.1a100.71,100.71,0,0,1-8.19-8.21c-1.15-.49-2.29-1-3.42-1.54l-1.69-.79c-.4-.19-.81-.37-1.22-.53a35.26,35.26,0,0,1-3.82,4.35,3.11,3.11,0,0,1-2.34,1,2.22,2.22,0,0,1-1.14-.23,4,4,0,0,1-1.24-1.36c-.33-.51-.82-1.15-1.25-1.86-.88-1.49-1.84-3.36-2.7-4.87-1-1.7-1.8-3-1.91-3.18a3.6,3.6,0,0,0-.65-.72,7.34,7.34,0,0,0-.82,3.08l-1.69-.57a26.58,26.58,0,0,1,.92-3.26A1.57,1.57,0,0,0,113.53,44c-.77,0-1.56.85-2,2.46l-1.71.75c.2-2.61,1.09-5.47,3.67-5.47,2.09,0,3.38,1.59,4.37,3.08s4.25,5.94,4.94,6.81l1.3,1.63a5.33,5.33,0,0,0,.86,1.94c.45.7,1,.65,1.62,0,.31-.29,1.29-1.09,2.24-2.08a17.53,17.53,0,0,0,2-2.44c1,.42,2.71,1.27,4.13,1.89C128.85,45.11,123,36,120.49,29.79c-1-2.56,1-3.42,2-.89,2.69,6.85,10.53,19,16.29,25.33,6.67,7.34,18.88,18,26.83,22.25-1.15-2.25-2.68-5.47-4.43-9.21-9.67-5.47-19.44-15.51-24-24.14l2,.24c4.24,7.49,14.36,17.49,20.34,20.39-5.46-11.6-12.58-26.3-18.13-32.63-6.89-7.84-14.42-13.91-18-17.07s-5-7-10.1-7c-4.21,0-6.42,3-7.26,6.09a4.74,4.74,0,0,1-.7,1.58l-2,2.39,4.29-.52-2.48,3.48s6.73-1.52,9.09,1.68c2.53,3.45.9,7.33,5.06,14.86A65.09,65.09,0,0,0,127,47.18l-2.91,6.1-1.29-1.63Zm-66.18,1-1-.69a12.39,12.39,0,0,1,2.81-1.7,4.74,4.74,0,0,1,1.7-.35,6.48,6.48,0,0,1,3.09,1c1.52.8,3.22,1.75,4.53,1.75.49,0,1-.11,1.54-.11,1.29,0,2.53.58,3.24.58.44,0,.73-.39,1-.8a6.59,6.59,0,0,1,3-2.31,12.47,12.47,0,0,1,4.74-.79,17.61,17.61,0,0,1,3.42.35s-1.06,1.28-1.33,1.56a17.46,17.46,0,0,0-5.79.65,1.91,1.91,0,0,0-1.44,1.91c0,1.27,1.42,1.76,3,2.24a10.16,10.16,0,0,0,2.85.35,30.71,30.71,0,0,0,5.2-.86c2.47-.54,4.77-1.19,5.45-1.44l.89,1.61A69.76,69.76,0,0,1,85.32,58a21.3,21.3,0,0,1-4.14.49,15.43,15.43,0,0,1-6.24-1.77,11.12,11.12,0,0,0-4.25-1.5,8.15,8.15,0,0,0-4,1.24,30.26,30.26,0,0,1-4.3,2.37,9.46,9.46,0,0,1-3.74.82A3.79,3.79,0,0,1,56.07,59l2.08-1.27a1.59,1.59,0,0,0,1,.31,3.64,3.64,0,0,0,1.47-.37,13.39,13.39,0,0,0,1.54-.87,11.77,11.77,0,0,0,1.42-1.1,1.07,1.07,0,0,0,.05-1.86,8,8,0,0,0-1.27-1A4.09,4.09,0,0,0,59.87,52a6.78,6.78,0,0,0-3.21.72Z"/><path class="cls-1" d="M85.57,53.51a14.27,14.27,0,0,0-1.67-.37,12,12,0,0,1,2.79-2.66,11.27,11.27,0,0,1,6.11-1.92c.73-.05,2.21-.19,3-.15A23.32,23.32,0,0,1,99,48.7c.82.16,1.59.39,2.22.48a12.52,12.52,0,0,0,2.2,0,19.27,19.27,0,0,0,5.35-1.68l.5,1.82c-2.55,1.3-5.43,2.55-8.07,2.55-1.34,0-2.77-.1-4.1-.22-2.34-.23-4.37-.54-5.07-.54a11,11,0,0,0-6.45,2.43Zm-1.88,10.1-2.4-1.1A47.62,47.62,0,0,1,91.78,58.8a46.36,46.36,0,0,0,5.85-1c.63,1.59,1.87,3.29,3.66,3.29a9.23,9.23,0,0,0,2.8-1c1.21-.53,2.43-1.12,3.06-1.4s2.89-1.27,4.76-2.11c.94-.42,1.87-.86,2.8-1.31l1.25.68a25.43,25.43,0,0,1-1.71,5.14,6.75,6.75,0,0,1-.85,1.38,15.09,15.09,0,0,1-2.59,2.25c-1.26.9-2.79,1.82-4.42,2.75-1.27.73-2.54,1.47-3.84,2.07l-.67-1.22a59.14,59.14,0,0,0,5.8-3.88,27.66,27.66,0,0,0,2.25-1.79,5.75,5.75,0,0,0,.92-1,18.62,18.62,0,0,0,1.65-3c-.74.36-3.55,1.69-4.81,2.35-1.42.75-3.73,1.92-5,2.53a6.59,6.59,0,0,1-2.57.74,2.73,2.73,0,0,1-2.45-1.66c-.92-1.62-1.89-1.78-4.46-1.81a18.54,18.54,0,0,0-9.5,2.89Zm14-7.49s-.35-1.42-.52-1.94a3.6,3.6,0,0,1,1-.13c.9,0,3.1.25,4,.25,3.45,0,4.72-1.09,5.73-2a5.2,5.2,0,0,1,4.1-1.41,14.31,14.31,0,0,1,5.13,1.16L117,53.93a8.06,8.06,0,0,0-3.63-.94,4.84,4.84,0,0,0-2.17.36,8.85,8.85,0,0,0-1.55,1.25A8.63,8.63,0,0,1,107.07,56a12.49,12.49,0,0,1-4.45.68,25.06,25.06,0,0,1-4.93-.55Z"/><path class="cls-1" d="M75.84,70.34l1.59-.65a16.39,16.39,0,0,0,5,1.2,5.34,5.34,0,0,0,2.2-.58c.47-.21,5.77-2.81,8.4-3.77a7.58,7.58,0,0,1,2.1-.47c.63,0,.66.28.84.57.5.8,4.41,6.38,4.81,6.81,3.31-1,6.71-2.51,8.67-4.39s3.74-4.25,5.38-6a8.45,8.45,0,0,1,1.8-1.51c1.69-.9,7-1,9.19-.88l-1.32,1.86c-3.91,0-6.09.41-7.08,1.15a9.89,9.89,0,0,0-1.64,1.72c-1.33,1.74-2.79,4.12-3.37,4.59a7.11,7.11,0,0,0,4.37,1.49c3.32,0,5.69-2.08,7-3.25l1.11.67a13.23,13.23,0,0,1-3,3,14.49,14.49,0,0,1-4,1.77c-1.92-.37-6.15-1.22-7.15-1.42-3.65,1.49-9.61,3.9-11.62,4.51a7.59,7.59,0,0,1-1.35.21c-1.58.09-3.78.07-5.78,0a30.21,30.21,0,0,1-3.45-.13L86.84,75a15.41,15.41,0,0,0,3.62.39,24.62,24.62,0,0,0,6.39-.76c.61-.16.71-.51.53-1.07a7.67,7.67,0,0,0-1.58-2.62,12.84,12.84,0,0,0-1.73-1.57c-.48-.33-.94-.41-2.24,0s-4.94,2.44-6.55,3.29a3.43,3.43,0,0,1-2.85.21,32.17,32.17,0,0,1-6.59-2.56ZM86.2,28.85a1.36,1.36,0,1,0-1.35-1.35A1.35,1.35,0,0,0,86.2,28.85Z"/><path class="cls-1" d="M159.36,120.94a3.06,3.06,0,0,0-3.06-3.06h-4.52a3.07,3.07,0,0,0-3.06,3.07v47.31a3.06,3.06,0,0,0,3.06,3.06h4.53a3.07,3.07,0,0,0,3.05-3.07Zm5.76,1.26v2.25a1.69,1.69,0,0,0,1.69,1.68H198a2.57,2.57,0,0,0,2.58-2.57v-3.81a2.49,2.49,0,0,0-2.58-2.57l-31.14,3.06a1.94,1.94,0,0,0-1.76,2Zm-25.26,49.12a12.26,12.26,0,0,1-12.66-12.44V140H125a2.14,2.14,0,0,1-2.14-2.14h0v-3.17A2.14,2.14,0,0,1,125,132.5h2.21V120.87a3,3,0,0,1,3-3h4.42a3,3,0,0,1,3,3v11.63h6.87a2.14,2.14,0,0,1,2.15,2.13v3.17a2.14,2.14,0,0,1-2.14,2.14h-6.88v17.51c0,3.44,2.09,5.78,5.81,5.78H144a2.33,2.33,0,0,1,2.34,2.32V169a2.32,2.32,0,0,1-2.33,2.32ZM67.15,131.14c-12.55,0-19.59,9.82-19.59,20.18,0,11,7.54,20.73,19.67,20.73,8.31,0,16.49-4.37,18-11.55a1.86,1.86,0,0,0-1.81-2.25H77.52a3,3,0,0,0-2.48,1.3c-1.7,2.48-4.19,3.81-7.86,3.81a9.09,9.09,0,0,1-9.08-8.64H83.34c2.32,0,3.36-1.26,3.36-3.41,0-10.09-6-20.17-19.55-20.17Zm0,8.1a8.86,8.86,0,0,1,9,7.76h-18A8.79,8.79,0,0,1,67.15,139.24Zm115-8.1c-12.56,0-19.6,9.82-19.6,20.18,0,11,7.54,20.73,19.68,20.73,8.3,0,16.49-4.37,18-11.55a1.86,1.86,0,0,0-1.81-2.25h-5.93a3,3,0,0,0-2.49,1.3c-1.7,2.48-4.18,3.81-7.86,3.81a9.07,9.07,0,0,1-9.07-8.64h25.23c2.32,0,3.36-1.26,3.36-3.41,0-10.09-6-20.17-19.54-20.17Zm0,8.1a8.85,8.85,0,0,1,9,7.76h-18A8.8,8.8,0,0,1,182.14,139.24Z"/><path class="cls-1" d="M118.71,118.41H37a3.36,3.36,0,0,0-3.36,3.37l.28,32.1s-17.61-31.82-18.53-33.44a6,6,0,0,0-5.29-2.93H3.36A3.36,3.36,0,0,0,0,120.87V168a3.37,3.37,0,0,0,3.37,3.37H7.68A3.38,3.38,0,0,0,11,167.94l-.28-33s17.79,32.13,18.55,33.4a5.91,5.91,0,0,0,5.28,3h6.17A3.36,3.36,0,0,0,44.12,168V126.39h74.6A2.29,2.29,0,0,0,121,124.1h0v-3.4a2.29,2.29,0,0,0-2.3-2.29Z"/><path class="cls-1" d="M105.48,138.85c3.56,0,6.21,1.29,7.17,3.52.46,1.07,1.35,1.28,2.57,1.28h4.89a1.78,1.78,0,0,0,1.74-1.76c0-5.68-6.78-10.75-16.37-10.75-9.93,0-16.44,4.73-16.44,12.26,0,5.76,4.55,9.19,10.14,10.65,2.56.67,6.91,1.75,9,2.3,2.29.6,4.34,1.3,4.34,3.26,0,3.09-3.27,4.15-6.82,4.15-3.37,0-6.73-1.51-7.69-3.91-.56-1.4-1.54-1.6-3-1.6h-5a1.9,1.9,0,0,0-1.86,1.87v.64c0,5.5,7.37,11.26,17.55,11.26C113,172,123,169,123,159.35c0-5.61-3.75-9.49-9.85-11l-9.37-2.38c-2.23-.58-4.3-1.31-4.3-3.21C99.49,139.83,102.16,138.85,105.48,138.85Z"/></g></g></svg>