<svg style="fill: #FFF" id="Groupe_17" data-name="Groupe 17" xmlns="http://www.w3.org/2000/svg" width="42.831" height="44.939" viewBox="0 0 42.831 44.939">
  <g id="Groupe_10" data-name="Groupe 10">
    <g id="Groupe_9" data-name="Groupe 9">
      <g id="Groupe_8" data-name="Groupe 8">
        <path id="Tracé_50" data-name="Tracé 50" d="M32.8,12.125V16.27l2.816-.992s.018,10.9,0,11.469c-.31,3.321-3.773,2.258-4.9,1.417-.354-.257-2.949-2.072-2.949-2.072,2.524-.895,6.465-4.127,4.517-8.52a5.683,5.683,0,0,0-6.749-3.011L13.728,18.688v4.065l1.709-.6v5.668L7.829,20.68,0,23.417v4.074l2.365-.868v11.6l-2.329.833v4.269l8.91-3.109V30.635L13.834,35.1,26.411,31.76s1.665,1.32,2.9,2.223a8.538,8.538,0,0,0,7.59,1.1,7.9,7.9,0,0,0,5.907-7.75c0-1.461.018-18.688.018-18.688ZM25.162,22.779c-.841.283-3.3,1.2-3.3,1.2V20.06s1.709-.611,2.551-.895,1.568.54,1.612,1.355c.044.726.177,1.771-.859,2.258M38.527,8.556a4.278,4.278,0,1,0-4.278-4.278,4.275,4.275,0,0,0,4.278,4.278" fill="#FFF"/>
      </g>
    </g>
  </g>
  <g id="Groupe_13" data-name="Groupe 13" transform="translate(3.569 27.013)">
    <g id="Groupe_12" data-name="Groupe 12">
      <g id="Groupe_11" data-name="Groupe 11">
        <path id="Tracé_51" data-name="Tracé 51" d="M79.544,305c-.221,3.277-2.294,5.969-6.66,6.226a6.714,6.714,0,0,1-4.278-1.134c-1.886-.93-4.942-3.7-6.9-4.446a8.915,8.915,0,0,0-5.225-.345,9.251,9.251,0,0,0-3.782,1.727,24.683,24.683,0,0,0-2.329,2.134c-.3.328-1.16,1.329-1.231,1.337s-.3-.266-.425-.407-.283-.425-.328-.452a2.368,2.368,0,0,0-.585,1.054,4.694,4.694,0,0,0,.159,1.01c.009.124-.142.23-.195.239s-.416-.461-.469-.452a1.359,1.359,0,0,0-.275.5,2.671,2.671,0,0,0,.027.709,5.664,5.664,0,0,1-2.126,1.045c-.549.151-3.233.407-3.312.443S40.3,315.3,40.3,315.3l.053,1.027.283-.248.443.8.275-.514s.381.514.585.762a2.284,2.284,0,0,1,1.249-1.523,29.757,29.757,0,0,1,4.145-.345c-.009.1-.186.6-.186.629a11.217,11.217,0,0,0,.779.824,1.593,1.593,0,0,0,.443-.133.33.33,0,0,0,.08-.177.8.8,0,0,0,.407-.071c-.345-.106-.345-.31-.257-.5s.629-.257.921-.08a.672.672,0,0,1,.3.841c-.124.3-.5.159-.593.142.027.062.3.23.31.257a.407.407,0,0,1,.009.089s.08.115.133.106,1.178-.611,1.258-.673a2.014,2.014,0,0,0,.461-.567.852.852,0,0,1-.363-.709.73.73,0,0,1,.877-.655.7.7,0,0,1,.558.957,11.93,11.93,0,0,1-4.021,3.737,4.654,4.654,0,0,1-2.409.629c-.071.018-1.169.957-1.169.957l-.053.868.213-.106.319.895.23-.345.682.726.142-.611.841.638s.044-.319.071-.593c.115-.106,1.373-1.231,1.506-1.346s1.984-1.063,3.614-2.143c1.86-1.249,3.667-2.568,3.693-2.887a2.852,2.852,0,0,1-1.1-1.957c.027-.93,1.089-1.807,2.338-2.365a4.075,4.075,0,0,1,3.941.452,13.274,13.274,0,0,0,8.166,2.48c4.464-.248,7.085-1.692,8.653-4.393A8.92,8.92,0,0,0,79.544,305" transform="translate(-40.3 -305)" fill="#aaa"/>
      </g>
    </g>
  </g>
  <g id="Groupe_16" data-name="Groupe 16" transform="translate(11.275 35.037)">
    <g id="Groupe_15" data-name="Groupe 15">
      <g id="Groupe_14" data-name="Groupe 14">
        <path id="Tracé_52" data-name="Tracé 52" d="M127.3,396.911l.292-1.311.425.151-.54,1.081Z" transform="translate(-127.3 -395.6)" fill="#fff"/>
      </g>
    </g>
  </g>
</svg>
