<svg style="fill: #FFF" id="Groupe_28" data-name="Groupe 28" xmlns="http://www.w3.org/2000/svg" width="38.145" height="38.145" viewBox="0 0 38.145 38.145">
  <path id="Tracé_175" data-name="Tracé 175" d="M0,38.145V0H38.145V38.145Zm26.723-3.959a.043.043,0,0,1,.029.007c-.014.325-.007.65-.043.968a.8.8,0,0,1-.657.744,1.976,1.976,0,0,1-.9-.022.531.531,0,0,1-.433-.368c-.022-.087-.065-.094-.137-.079l-.672.108c-.2.036-.4.065-.592.1a.147.147,0,0,1-.007.036c.007.022.007.043.014.065a1.521,1.521,0,0,0,.867.968,2.856,2.856,0,0,0,1.011.253,4.116,4.116,0,0,0,1.625-.173,1.727,1.727,0,0,0,1.141-1.04,2.79,2.79,0,0,0,.159-.975c0-1.7,0-3.4.007-5.1,0-.087-.029-.108-.108-.108-.3.007-.607,0-.917,0-.21,0-.166-.029-.21.181-.029.123-.051.246-.079.4a1.1,1.1,0,0,0-.426-.426,2.156,2.156,0,0,0-1.6-.181,2,2,0,0,0-1.344,1.214,3.792,3.792,0,0,0-.144,2.6,2.033,2.033,0,0,0,.99,1.293,2.214,2.214,0,0,0,1.308.253,1.338,1.338,0,0,0,1.069-.636A.175.175,0,0,1,26.723,34.186ZM7.333,32.264a.027.027,0,0,0,.022-.007c-.043-.282-.058-.578-.123-.852a2.347,2.347,0,0,0-1.445-1.741,2.873,2.873,0,0,0-1.6-.159A2.309,2.309,0,0,0,2.326,30.92a3.385,3.385,0,0,0-.036,2.615,2.246,2.246,0,0,0,1.43,1.38,2.878,2.878,0,0,0,1.907.014,2.316,2.316,0,0,0,1.438-1.279A3.513,3.513,0,0,0,7.333,32.264Zm5.505-1.192c.014-.007.022-.007.022-.014s.036-.036.051-.058a1.578,1.578,0,0,1,1.553-.5.553.553,0,0,1,.491.477,2.443,2.443,0,0,1,.007.325c0,.022-.043.058-.072.065-.3.051-.592.087-.881.137a4.755,4.755,0,0,0-1.43.47,1.588,1.588,0,0,0-.954,1.568,1.447,1.447,0,0,0,1.409,1.438,3.045,3.045,0,0,0,1.835-.455c.029-.014.051-.029.087-.051.036.123.072.238.094.354.014.079.051.1.13.1.347-.007.7,0,1.048,0a.412.412,0,0,0,.094-.007c0-.036.007-.065.007-.094V30.986a1.346,1.346,0,0,0-.159-.621,1.5,1.5,0,0,0-.9-.715,3.548,3.548,0,0,0-1.582-.137,2.653,2.653,0,0,0-1.228.441,2.285,2.285,0,0,0-.571.578C12.216,30.718,12.527,30.9,12.838,31.072Zm20.972,2.8a.885.885,0,0,0-.087-.058c-.289-.159-.585-.318-.874-.484-.065-.036-.094-.022-.137.036a1.34,1.34,0,0,1-1.279.6,1.027,1.027,0,0,1-.968-.694,2.406,2.406,0,0,1-.116-.462,2.627,2.627,0,0,1-.022-.347h3.533a.893.893,0,0,0,.014-.13,3.517,3.517,0,0,0-.152-1.257,2.09,2.09,0,0,0-1.365-1.452,2.886,2.886,0,0,0-1.467-.1,2.147,2.147,0,0,0-1.6,1.127,3.059,3.059,0,0,0-.332,1.185,3.936,3.936,0,0,0,.123,1.51,2.146,2.146,0,0,0,1.56,1.575,3.327,3.327,0,0,0,1.784-.022,2.245,2.245,0,0,0,1.141-.7C33.659,34.092,33.731,33.976,33.81,33.868ZM18.726,30.2c-.036-.181-.072-.354-.1-.52-.014-.065-.029-.1-.116-.087-.325.051-.657.094-.99.137-.072.007-.087.029-.087.1v5.007c0,.072.022.094.094.094h1.221c.072,0,.094-.029.094-.094V31.209a.2.2,0,0,1,.036-.13,2.084,2.084,0,0,1,1.156-.549c.4-.029.657.1.73.52a2.913,2.913,0,0,1,.029.433v3.309c0,.137,0,.137.137.137h1.163c.1,0,.123-.029.123-.123,0-1.2,0-2.4-.007-3.6a2.923,2.923,0,0,0-.058-.564,1.309,1.309,0,0,0-.889-1.055,2.323,2.323,0,0,0-1.113-.079,2.968,2.968,0,0,0-1.228.556A2.283,2.283,0,0,0,18.726,30.2Zm-9.11-.014v-.5c0-.072-.022-.1-.094-.1-.383,0-.766.007-1.156,0-.079,0-.1.029-.1.1v5.122c0,.094.029.108.116.108H9.572c.13,0,.137,0,.137-.137V31.506a.419.419,0,0,1,.152-.34.893.893,0,0,1,.267-.173,4.89,4.89,0,0,1,.643-.152,3.556,3.556,0,0,1,.484-.029V29.483A2.13,2.13,0,0,0,9.616,30.184Zm25.459-2.211h.014a.353.353,0,0,1,.022.051c.166.419.332.838.491,1.257.029.072.072.079.137.079a.116.116,0,0,0,.13-.087c.065-.173.137-.347.2-.52.108-.267.21-.542.318-.809H36.4v1.2c0,.224,0,.224.224.217.058,0,.087-.014.087-.079V27.662c0-.058-.022-.079-.079-.079-.1,0-.2.007-.3,0a.1.1,0,0,0-.116.087c-.079.21-.159.412-.238.621s-.152.39-.238.607c-.022-.043-.029-.065-.043-.094-.152-.376-.3-.751-.448-1.134a.105.105,0,0,0-.123-.087,1.652,1.652,0,0,1-.267,0c-.087-.007-.108.029-.108.108v1.488c0,.181,0,.181.188.188.094,0,.13-.022.123-.123-.007-.311,0-.621,0-.932C35.075,28.2,35.075,28.081,35.075,27.973Zm-1.2-.137h.47c.058,0,.087-.014.087-.079v-.094c0-.058-.022-.079-.079-.079H33.1c-.022,0-.065.014-.065.029a.589.589,0,0,0,0,.2c0,.014.072.029.116.029h.419v1.322c0,.2,0,.2.21.2.087,0,.108-.029.108-.108-.007-.433,0-.867,0-1.293A.7.7,0,0,1,33.875,27.836Z"/>
  <path id="Tracé_176" data-name="Tracé 176" d="M341.925,423.414a3.221,3.221,0,0,1-.159,1.084,1.032,1.032,0,0,1-1.358.621.813.813,0,0,1-.549-.592,3.191,3.191,0,0,1-.014-1.893.966.966,0,0,1,.679-.7,1.02,1.02,0,0,1,1.113.412,1.624,1.624,0,0,1,.267.744C341.911,423.219,341.918,423.342,341.925,423.414Z" transform="translate(-315.166 -391.417)"/>
  <path id="Tracé_177" data-name="Tracé 177" d="M47.8,425.925a2.691,2.691,0,0,1,.173-.925,1.1,1.1,0,0,1,1.206-.679,1.078,1.078,0,0,1,1,.925,2.806,2.806,0,0,1-.029,1.467,1.063,1.063,0,0,1-.889.809,1.134,1.134,0,0,1-1.38-.968C47.843,426.351,47.829,426.134,47.8,425.925Z" transform="translate(-44.347 -393.66)"/>
  <path id="Tracé_178" data-name="Tracé 178" d="M182.007,445.9a.663.663,0,0,1,.007.116v1.04a.173.173,0,0,1-.072.152,2.015,2.015,0,0,1-1.134.491.625.625,0,0,1-.686-.527.779.779,0,0,1,.354-.824,2.59,2.59,0,0,1,.946-.354C181.617,445.965,181.8,445.936,182.007,445.9Z" transform="translate(-167.096 -413.686)"/>
  <path id="Tracé_179" data-name="Tracé 179" d="M420.2,422.346a1.121,1.121,0,0,1,.614-1,1.136,1.136,0,0,1,1.279.26,1.08,1.08,0,0,1,.231.686c0,.043-.014.072-.065.072h-2.03C420.222,422.361,420.222,422.353,420.2,422.346Z" transform="translate(-389.843 -390.819)"/>
</svg>
