<svg xmlns="http://www.w3.org/2000/svg" width="47.465" height="39.229" viewBox="0 0 47.465 39.229" style="fill: #FFF">
  <g id="Groupe_26" data-name="Groupe 26" transform="translate(0.109)">
    <path id="Tracé_154" data-name="Tracé 154" d="M738.5,111.91a10.891,10.891,0,0,0-.93-2.555A14.089,14.089,0,0,0,736.3,107.3a1.993,1.993,0,0,1,.675.321,6.71,6.71,0,0,1,2.258,2.111,7.326,7.326,0,0,1,.921,1.965.655.655,0,0,0,.043.08c0,.033.009.061.014.094a.3.3,0,0,0,.071.217,10.546,10.546,0,0,1,.146,1.544,4.5,4.5,0,0,1-.123.907,1.528,1.528,0,0,1-.586.883c-.019.009-.038.024-.057.033l0,0c-.2.071-.4.137-.6.217-.151.061-.194.009-.189-.142.009-.307.014-.614,0-.916a9.29,9.29,0,0,0-.213-1.842.165.165,0,0,0-.033-.146A2.04,2.04,0,0,0,738.5,111.91Z" transform="translate(-701.627 -102.232)"/>
    <path id="Tracé_155" data-name="Tracé 155" d="M732.568,342.163c-.094,0-.161,0-.061-.113a12.6,12.6,0,0,0,1.1-1.629,12.893,12.893,0,0,0,1.2-2.947c.014-.061.019-.123.028-.184a.1.1,0,0,1,.028-.019,1.562,1.562,0,0,1,.907.043.764.764,0,0,1,.491.737,2.687,2.687,0,0,1-.529,1.582,6.623,6.623,0,0,1-3.013,2.461A.555.555,0,0,0,732.568,342.163Z" transform="translate(-697.965 -321.296)"/>
    <path id="Tracé_156" data-name="Tracé 156" d="M563,674.895c0,.486,0,.978,0,1.464,0,.156-.033.227-.2.213a3.478,3.478,0,0,0-.543,0c-.165.014-.213-.038-.213-.208.009-.85,0-1.7,0-2.551a3.241,3.241,0,0,0-.094-.77.969.969,0,0,0-.694-.732,1.809,1.809,0,0,0-.978-.014,1.1,1.1,0,0,0-.8,1.072,3.462,3.462,0,0,0-.028.5q-.007,1.24,0,2.48c0,.165-.028.26-.217.222a.157.157,0,0,0-.047,0c-.227-.019-.534.1-.652-.047s-.033-.435-.038-.661c-.014-.817.043-1.639-.033-2.451a1.3,1.3,0,0,0-2.031-.978,1.224,1.224,0,0,0-.52,1.105c-.024.926-.019,1.856-.009,2.787,0,.2-.033.293-.255.26s-.534.1-.675-.057-.038-.435-.038-.661c0-.7,0-1.4,0-2.1a3.783,3.783,0,0,1,.208-1.252,1.732,1.732,0,0,1,1.157-1.176,2.6,2.6,0,0,1,2.2.213,1.655,1.655,0,0,1,.383.345c.033.038.066.118.142.028a2.247,2.247,0,0,1,2.163-.7,1.792,1.792,0,0,1,1.478.992,2.887,2.887,0,0,1,.316,1.247c.014.477,0,.959,0,1.441C562.994,674.895,563,674.895,563,674.895Z" transform="translate(-528.802 -639.485)"/>
    <path id="Tracé_157" data-name="Tracé 157" d="M-.1,676.067c0-.746,0-1.493,0-2.239a3.6,3.6,0,0,1,.255-1.356A1.759,1.759,0,0,1,1.5,671.343a2.616,2.616,0,0,1,1.955.255,1.835,1.835,0,0,1,.8,1.119,4.5,4.5,0,0,1-.009,2.513A1.881,1.881,0,0,1,2.4,676.648c-.439.014-.879.014-1.322,0-.17,0-.231.038-.227.222.014.557,0,1.115.009,1.677,0,.175-.028.26-.227.241a3.237,3.237,0,0,0-.567,0c-.151.009-.184-.052-.179-.189C-.1,677.748-.1,676.907-.1,676.067Zm.968-1.715v1.067c0,.085-.019.184.123.175a11.733,11.733,0,0,0,1.578-.042.908.908,0,0,0,.756-.628,3.512,3.512,0,0,0,.066-1.7.993.993,0,0,0-.8-.855,1.872,1.872,0,0,0-.841,0,1,1,0,0,0-.789.756A4.817,4.817,0,0,0,.869,674.352Z" transform="translate(0 -639.561)"/>
    <path id="Tracé_158" data-name="Tracé 158" d="M742.3,675.84c0-.77-.009-1.54,0-2.314a2.9,2.9,0,0,1,.444-1.611,1.744,1.744,0,0,1,1.129-.746,2.988,2.988,0,0,1,1.54.052,1.864,1.864,0,0,1,1.275,1.5,4.658,4.658,0,0,1-.066,2.376,1.857,1.857,0,0,1-1.748,1.37c-.472.024-.945.014-1.417.009-.165,0-.217.052-.213.217.009.567,0,1.134,0,1.7,0,.184-.057.236-.227.217a2.9,2.9,0,0,0-.5,0c-.18.014-.246-.033-.241-.227.014-.425,0-.85,0-1.275v-1.275A0,0,0,0,0,742.3,675.84Zm.949-1.54c0,.359,0,.657,0,.959,0,.132.047.18.18.18.416,0,.831.009,1.252-.009a1.047,1.047,0,0,0,1.11-.945,3.407,3.407,0,0,0-.028-1.5.956.956,0,0,0-.524-.69,1.686,1.686,0,0,0-1.242-.057.955.955,0,0,0-.647.69A5.325,5.325,0,0,0,743.254,674.3Z" transform="translate(-707.339 -639.395)"/>
    <path id="Tracé_159" data-name="Tracé 159" d="M446.231,674.082c-.51,0-1.025,0-1.535,0-.146,0-.189.043-.189.189a1.281,1.281,0,0,0,1.28,1.294,1.6,1.6,0,0,0,1.228-.43c.1-.1.17-.09.264.009a3.789,3.789,0,0,0,.425.4c.128.1.094.156,0,.25a2.644,2.644,0,0,1-2.262.68,2.019,2.019,0,0,1-1.663-1.044,2.451,2.451,0,0,1-.288-.869,3.507,3.507,0,0,1,.472-2.692,2.1,2.1,0,0,1,2.21-.784,2.018,2.018,0,0,1,1.648,1.5,4.345,4.345,0,0,1,.156,1.332c0,.146-.061.165-.184.165-.52,0-1.039,0-1.559,0Zm-.524-.756h.8c.435,0,.435,0,.335-.435a1.154,1.154,0,0,0-1.271-.94,1.181,1.181,0,0,0-1.058,1.181c0,.142.028.2.179.194C445.031,673.321,445.366,673.326,445.706,673.326Z" transform="translate(-422.577 -639.342)"/>
    <path id="Tracé_160" data-name="Tracé 160" d="M281.415,674.36c-.51,0-1.025,0-1.535,0-.175,0-.213.061-.2.217a1.356,1.356,0,0,0,1.847,1.214,1.451,1.451,0,0,0,.685-.392c.09-.09.142-.08.227,0,.151.156.321.3.482.444.08.071.071.118,0,.189a2.366,2.366,0,0,1-1.469.718,3.122,3.122,0,0,1-1.53-.17,1.971,1.971,0,0,1-1.167-1.365,3.85,3.85,0,0,1,.128-2.631,1.933,1.933,0,0,1,1.625-1.233,2.218,2.218,0,0,1,2.626,2.286c.009.18,0,.364.009.543.014.156-.057.18-.194.18C282.44,674.356,281.925,674.36,281.415,674.36Zm-.553-.756h.827c.425,0,.425,0,.321-.425a1.138,1.138,0,0,0-1.261-.949,1.194,1.194,0,0,0-1.072,1.2c0,.132.028.18.17.175C280.187,673.6,280.522,673.6,280.862,673.6Z" transform="translate(-265.531 -639.621)"/>
    <path id="Tracé_161" data-name="Tracé 161" d="M911.249,676.52a1.932,1.932,0,0,1-2.1-1.511,4.594,4.594,0,0,1-.094-1.847,3.254,3.254,0,0,1,.288-.987,1.732,1.732,0,0,1,1.105-.921,2.938,2.938,0,0,1,1.653,0,1.84,1.84,0,0,1,1.28,1.417,4.727,4.727,0,0,1-.009,2.38,1.913,1.913,0,0,1-1.776,1.469C911.485,676.525,911.367,676.52,911.249,676.52Zm1.323-2.687c-.009-.18-.009-.364-.033-.543a1.121,1.121,0,0,0-.586-.959,1.688,1.688,0,0,0-1.086-.094.956.956,0,0,0-.77.685,3.439,3.439,0,0,0-.052,1.611,1.34,1.34,0,0,0,.142.42,1.478,1.478,0,0,0,1.8.368.97.97,0,0,0,.439-.5A3.013,3.013,0,0,0,912.572,673.833Z" transform="translate(-866.171 -639.438)"/>
    <path id="Tracé_162" data-name="Tracé 162" d="M113.707,674.056a3.219,3.219,0,0,1-.453,1.8,1.668,1.668,0,0,1-.855.661,2.788,2.788,0,0,1-1.918-.014,1.869,1.869,0,0,1-1.19-1.549,4.732,4.732,0,0,1,.061-2.2,1.894,1.894,0,0,1,1.781-1.459,2.659,2.659,0,0,1,1.493.231,2.1,2.1,0,0,1,1.03,1.677A3.958,3.958,0,0,1,113.707,674.056Zm-.959-.057a2.833,2.833,0,0,0-.08-.8,1.055,1.055,0,0,0-.241-.5,1.472,1.472,0,0,0-1.488-.288.973.973,0,0,0-.675.742,3.592,3.592,0,0,0,0,1.677.936.936,0,0,0,.727.723,1.908,1.908,0,0,0,.817.024.983.983,0,0,0,.86-.812A2.772,2.772,0,0,0,112.748,674Z" transform="translate(-104.137 -639.576)"/>
    <path id="Tracé_163" data-name="Tracé 163" d="M852,629.029c0-.912,0-1.823,0-2.739,0-.175.043-.241.222-.227s.392.009.59,0c.123,0,.165.038.161.165-.009.274,0,.553,0,.827,0,1.478.014,2.957,0,4.435-.009.7.34.907.888.987a.043.043,0,0,1,.024,0c.18.038.435-.042.529.094s.033.364.033.553c0,.463,0,.463-.468.43a2.289,2.289,0,0,1-1.464-.562,1.636,1.636,0,0,1-.5-1.209c-.014-.921,0-1.842,0-2.763Z" transform="translate(-811.862 -596.491)"/>
    <path id="Tracé_164" data-name="Tracé 164" d="M220.7,628.667c0-.912,0-1.828,0-2.739,0-.175.043-.241.222-.222.241.028.553-.1.7.057s.038.449.038.685c0,1.573,0,3.15,0,4.723a.821.821,0,0,0,.845.949c.156.019.312.038.468.042.109,0,.161.028.156.146,0,.26,0,.52,0,.779,0,.061.009.132-.09.132a2.681,2.681,0,0,1-1.738-.487,1.687,1.687,0,0,1-.6-1.4C220.7,630.448,220.7,629.56,220.7,628.667Z" transform="translate(-210.38 -596.129)"/>
    <path id="Tracé_165" data-name="Tracé 165" d="M119.472,628.439c-.057-.028-.123-.061-.184-.094-.359-.208-.723-.411-1.082-.623a.355.355,0,0,0-.411.009c-.368.222-.746.43-1.119.642-.128.076-.222.09-.3-.066s-.3-.274-.26-.42c.028-.113.255-.18.4-.26.439-.255.883-.505,1.327-.76a.262.262,0,0,1,.3-.014c.553.326,1.115.642,1.677.954.109.061.132.1.038.208s-.156.217-.236.321C119.585,628.382,119.552,628.444,119.472,628.439Z" transform="translate(-110.729 -597.205)"/>
    <g id="Groupe_25" data-name="Groupe 25" transform="translate(11.539)">
      <path id="Tracé_166" data-name="Tracé 166" d="M576.763,292.3h0c-1.771,0-3.542.019-5.314,0-.5,0-.657.137-.652.581.028,2.253,1.918,3.934,4.44,3.991a6.046,6.046,0,0,0,4.26-1.327,13.249,13.249,0,0,1,1.313-1.067,13.189,13.189,0,0,0,.349-2.173C579.7,292.3,578.232,292.3,576.763,292.3Z" transform="translate(-555.481 -278.492)"/>
      <path id="Tracé_167" data-name="Tracé 167" d="M574.637,153.178a3.829,3.829,0,0,0-3.661,3.646c-.014.43.094.6.623.59,1.167-.033,2.338-.009,3.509-.009v0h2.777c1.5,0,1.5,0,1.157-1.332A3.976,3.976,0,0,0,574.637,153.178Z" transform="translate(-555.65 -145.924)"/>
      <path id="Tracé_168" data-name="Tracé 168" d="M265.053,21.188a7.105,7.105,0,0,1-5.762-3.221,7.214,7.214,0,0,1-1-2.673c-.468-2.919-.406-5.791,1.629-8.294,1.894-2.333,4.648-2.848,7.652-2.409a8.007,8.007,0,0,1,2.107.6,12.862,12.862,0,1,0-.331,15.757A12.69,12.69,0,0,1,265.053,21.188Z" transform="translate(-246.5)"/>
    </g>
  </g>
</svg>
