<svg xmlns="http://www.w3.org/2000/svg" width="64.882" height="37.423" viewBox="0 0 64.882 37.423" style="fill: #FFF">
  <g id="Groupe_38" data-name="Groupe 38" transform="translate(-0.075 -0.037)">
    <path id="Tracé_212" data-name="Tracé 212" d="M145.308,471.438a3.321,3.321,0,0,1-.231-1.028c.027-.457.027-.484.441-.63.016.005.032.005.048.011a3.689,3.689,0,0,0,1.485,1.108,30.014,30.014,0,0,1,3.191,1.469,5.656,5.656,0,0,1,2.152,2.12c.145.269.4.2.592.2a13.838,13.838,0,0,0,1.636-.016,7.1,7.1,0,0,1,4.3.823,4.019,4.019,0,0,1,.678.527c.291.28.57.57.856.856s.28.269.554.005a10.957,10.957,0,0,1,1.421-1.313,5.791,5.791,0,0,1,2.432-.861,20.714,20.714,0,0,1,3,0,9.531,9.531,0,0,0,.963-.048.279.279,0,0,0,.226-.161,6.059,6.059,0,0,1,2.454-2.3c1.028-.57,2.152-.931,3.2-1.453a3.429,3.429,0,0,0,1.022-.775c.118-.129.253-.221.425-.14a.463.463,0,0,1,.253.414,2.5,2.5,0,0,1-.226,1.119c-.027.016-.059.054-.027.07s.032-.032.043-.059a4.23,4.23,0,0,0,.694-.581,10.536,10.536,0,0,1,5.338-2.7,5.92,5.92,0,0,1,1.9-.016,1.091,1.091,0,0,1,.56.242c.124.108.161.215-.022.312a8.977,8.977,0,0,0-2.034,1.652,15.977,15.977,0,0,1-2.045,1.77,5.364,5.364,0,0,1-1.329.624,5.163,5.163,0,0,1,1.786.291,1.919,1.919,0,0,1,.409.2c.242.167.226.447-.043.543-1.308.5-2.513,1.221-3.82,1.706a8.749,8.749,0,0,1-3.492.743,4.1,4.1,0,0,1,.942.484c.178.156.382.328.328.576a.513.513,0,0,1-.527.35,13.724,13.724,0,0,0-2.895.753,8.625,8.625,0,0,1-2.707.258,8.951,8.951,0,0,1-2.777-.662c-.011-.005-.022-.005-.027-.011a1.78,1.78,0,0,0-1.63-.178,10.094,10.094,0,0,1,1.883.985,1.8,1.8,0,0,1,.323.285.59.59,0,0,1,.161.57.5.5,0,0,1-.479.334c-.813.1-1.63.188-2.443.285a4.246,4.246,0,0,1-.587.054.773.773,0,0,1-.7-.377,12.224,12.224,0,0,0-2.1-2.572c-.124-.124-.156-.113-.248.016a8.413,8.413,0,0,1-.759.759,8.141,8.141,0,0,0-1.216,1.63.986.986,0,0,1-1.071.538l-2.416-.307c-.086-.011-.178-.005-.269-.016-.248-.032-.5-.07-.576-.355a.63.63,0,0,1,.253-.662,7.775,7.775,0,0,1,1.765-1.012c.1-.048.215-.086.382-.156-.366-.048-.673-.086-.985-.124a.4.4,0,0,0-.253.07,7.908,7.908,0,0,1-3.137.909,9.07,9.07,0,0,1-4.036-.646,4.825,4.825,0,0,0-1.512-.339c-.253-.011-.57-.043-.662-.323-.1-.3.194-.457.387-.613a3,3,0,0,1,.99-.468c-.393-.07-.786-.022-1.178-.081a12.063,12.063,0,0,1-2.669-.78c-1.211-.474-2.335-1.13-3.546-1.6a.31.31,0,0,1-.242-.291c0-.167.118-.253.253-.317a4.111,4.111,0,0,1,1.84-.414,1.6,1.6,0,0,0,.274-.016,9.46,9.46,0,0,1-1-.414,8.347,8.347,0,0,1-1.571-1.205c-.646-.6-1.27-1.211-1.921-1.8a3.656,3.656,0,0,0-.861-.592c-.248-.118-.248-.253-.022-.409a1.491,1.491,0,0,1,.732-.237,7.76,7.76,0,0,1,2.809.328,10.886,10.886,0,0,1,3.885,2.179c.339.291.673.587,1.006.882.011.005.022.016.032.022C145.319,471.459,145.313,471.448,145.308,471.438Zm17.59,6.672a.386.386,0,0,1,.253.07,8.874,8.874,0,0,1,1.835,1.055,1.53,1.53,0,0,0,1.259.307l.242-.032c.091-.011.226.027.264-.081s-.086-.161-.156-.226a2.875,2.875,0,0,0-.258-.188,9.225,9.225,0,0,0-2.852-1.286,10.1,10.1,0,0,0-1.792-.328c-.059-.005-.135-.032-.172.032-.043.086.043.129.1.167a4.6,4.6,0,0,1,.538.484,8.222,8.222,0,0,1,1.028,1.372.7.7,0,0,0,.764.366c.231-.038.463-.07.689-.1.1-.016.215-.011.253-.118.043-.129-.075-.188-.161-.248a17.821,17.821,0,0,0-1.609-1.076c-.081-.032-.194-.048-.221-.167Zm12.129-4.762a11.859,11.859,0,0,1,1.474-.5.4.4,0,0,0,.2-.156,11.523,11.523,0,0,1,4.687-3.089.284.284,0,0,1,.323.016,16.557,16.557,0,0,0-2.47,1.308,7.008,7.008,0,0,0-2.088,1.781,6.829,6.829,0,0,0,2.33-.656,12.587,12.587,0,0,0,2.556-1.862,10.544,10.544,0,0,1,1.765-1.442c.086-.048.21-.086.188-.2s-.167-.1-.253-.1a5.022,5.022,0,0,0-1.625.167,13.779,13.779,0,0,0-7.124,4.7l-.032.032C174.989,473.385,175.005,473.364,175.027,473.348Zm-28.61-.011c.022.027.059.054.081.027s-.022-.048-.043-.07a14.724,14.724,0,0,0-2.395-2.308,11.9,11.9,0,0,0-5-2.427,4.035,4.035,0,0,0-1.415-.1c-.065.011-.161-.005-.183.081-.027.1.07.135.135.172a5.822,5.822,0,0,1,1.119.834c.64.57,1.265,1.168,1.953,1.684a6.725,6.725,0,0,0,3.7,1.469,13.983,13.983,0,0,0-4.585-3.089.271.271,0,0,1,.312,0,11.462,11.462,0,0,1,4.644,3.062c.065.07.118.156.226.178A9.588,9.588,0,0,1,146.416,473.337Zm15.987,3.632a.322.322,0,0,0,.242.129,7.3,7.3,0,0,0,1.6.2,8.985,8.985,0,0,0,3.96-.829,5.5,5.5,0,0,0,1.781-1.227c.065-.07.167-.151.113-.253s-.172-.038-.264-.016a9.56,9.56,0,0,1-2.351.151,11.478,11.478,0,0,0-2.943.135,5,5,0,0,0-2.518,1.189c-.059.059-.172.113-.124.215s.161.1.258.086c.355-.032.716-.054,1.071-.108a38.91,38.91,0,0,0,4.364-.877c.081-.022.21-.081.237.016.038.124-.118.124-.2.172a.04.04,0,0,1-.027.005,21.7,21.7,0,0,1-4.138.877A6.212,6.212,0,0,0,162.4,476.969Zm-3.336.027c-.059-.081-.135-.065-.2-.07-.683-.075-1.372-.145-2.05-.258a21.715,21.715,0,0,1-2.97-.721c-.075-.027-.215-.043-.188-.151s.151-.048.231-.027c.4.091.8.2,1.2.291a30.467,30.467,0,0,0,4.235.694c.1.005.21.022.253-.091s-.059-.156-.124-.215a4.12,4.12,0,0,0-1.534-.909,7.925,7.925,0,0,0-2.529-.43,16.2,16.2,0,0,1-3.853-.151c-.048-.011-.113-.022-.145.032a.158.158,0,0,0,.038.172,2.629,2.629,0,0,0,.474.474,8.514,8.514,0,0,0,6.586,1.539A1.22,1.22,0,0,0,159.067,477Zm21.97-3.546a9.209,9.209,0,0,0-1.932-.355,8.088,8.088,0,0,0-5.715,1.754c-.043.032-.108.059-.091.118.016.075.1.075.156.07.3-.022.608-.038.909-.075a17.438,17.438,0,0,0,3.379-.839c.086-.032.172-.086.269-.011a.624.624,0,0,1-.323.226,14.6,14.6,0,0,1-4.558,1.044,1.815,1.815,0,0,0-.447.081c-.091.027-.21.065-.188.188.016.108.135.1.221.113a6.109,6.109,0,0,0,1.367-.011,10.715,10.715,0,0,0,2.992-.576C178.417,474.7,179.67,474.026,181.037,473.45Zm-40.588.005c1.065.479,2.1.942,3.126,1.4a11.674,11.674,0,0,0,4.9.931c.183,0,.49.054.5-.167s-.3-.215-.49-.226a13.429,13.429,0,0,1-2.179-.291,14.544,14.544,0,0,1-2.637-.823c-.075-.032-.215-.065-.178-.161s.151-.032.231,0c.565.2,1.141.366,1.722.517a12.316,12.316,0,0,0,2.54.409c.07.005.167.016.194-.059s-.065-.118-.118-.156a14.873,14.873,0,0,0-1.361-.861,7.732,7.732,0,0,0-4.708-.845A6.223,6.223,0,0,0,140.449,473.455Zm11.418,1.1a8.723,8.723,0,0,0-2.287-1.991,12.133,12.133,0,0,0-2.389-1.092,5.785,5.785,0,0,1-1.367-.737c-.07-.048-.145-.14-.237-.059-.075.07-.038.167-.011.253.016.048.043.1.065.145a8.715,8.715,0,0,0,.839,1.437,7.52,7.52,0,0,0,3.756,2.873,1.83,1.83,0,0,0,.856.14,2.077,2.077,0,0,0-.764-.791,23.032,23.032,0,0,1-3.137-2.3,1.041,1.041,0,0,1-.339-.387c.054.005.086,0,.1.011.07.043.135.091.2.14a30.791,30.791,0,0,0,3.1,2.163c.231.14.436.328.748.167a.882.882,0,0,1,.425.011A1.269,1.269,0,0,0,151.867,474.553Zm18.521.952a.233.233,0,0,0,.194.027,3.6,3.6,0,0,0,.42-.075,7.908,7.908,0,0,0,4.891-4.52c.043-.086.081-.2-.022-.269s-.167.027-.237.081a6.259,6.259,0,0,1-1.668.85,10.254,10.254,0,0,0-2.949,1.577,8.238,8.238,0,0,0-1.426,1.415c.2-.022.339-.032.474-.048a.968.968,0,0,1,.554.027.285.285,0,0,0,.317-.032,32.675,32.675,0,0,0,3.4-2.351c.075-.059.145-.156.274-.135a.594.594,0,0,1-.2.264,23.257,23.257,0,0,1-3.433,2.534A1.959,1.959,0,0,0,170.388,475.505Zm-17.041,1.609a4.612,4.612,0,0,0-2.325-.958,7.4,7.4,0,0,0-4.321.9c-.065.038-.172.065-.151.167s.129.081.2.086a8.175,8.175,0,0,1,2.416.457,8.111,8.111,0,0,0,3.976.3,5.574,5.574,0,0,0,1.372-.371c.059-.027.156-.048.14-.14-.011-.059-.1-.07-.161-.075-.194-.016-.393-.048-.587-.048a31.7,31.7,0,0,1-4.342-.28,1.2,1.2,0,0,1-.592-.167c.769.043,1.485.075,2.2.129A20.814,20.814,0,0,0,153.347,477.114Zm14.7.022c1.512.048,2.949-.07,4.412-.161a.22.22,0,0,1-.183.113c-.592.1-1.189.178-1.786.221-1.012.075-2.023.108-3.035.118a1.274,1.274,0,0,0-.667.124.72.72,0,0,0,.414.231,7.951,7.951,0,0,0,4.552.135,11.54,11.54,0,0,1,3.013-.613c.065,0,.156.005.172-.091.011-.075-.065-.1-.118-.129-.038-.022-.075-.043-.118-.065a7.267,7.267,0,0,0-4.547-.829A4.826,4.826,0,0,0,168.042,477.136Zm-9.443.947a.354.354,0,0,1-.2.188,18.032,18.032,0,0,0-1.657,1.1c-.081.059-.2.118-.167.248.032.1.151.108.253.118.274.032.549.07.823.108a.554.554,0,0,0,.57-.274,7.276,7.276,0,0,1,1.69-2c.032-.027.07-.059.054-.113-.022-.07-.086-.054-.135-.048-.194.022-.393.038-.587.065a9.82,9.82,0,0,0-4.154,1.582,2.684,2.684,0,0,0-.328.274c-.081.075-.054.161.048.172.543.048,1.1.2,1.6-.2a6.7,6.7,0,0,1,.829-.549A6.524,6.524,0,0,1,158.6,478.083Z" transform="translate(-129.272 -442.797)"/>
    <path id="Tracé_213" data-name="Tracé 213" d="M146.225,259.429a6.6,6.6,0,0,1-1.991-3,24.435,24.435,0,0,0-1.361-3.32c-.081-.108-.161-.21-.242-.317-.059-.081-.151-.178-.231-.156-.118.032-.059.167-.054.258.022,1.491-.032,2.986.048,4.477.016.339-.054.393-.382.393h-1.528c-.538-.038-.533-.038-.5-.576.172-2.938.151-5.876.038-8.809a3.464,3.464,0,0,0-.172-1.189c-.081-.2.1-.156.2-.156.511.016,1.022.059,1.528.059.866,0,1.738-.032,2.6-.027a2.78,2.78,0,0,1,1.544.463,3.091,3.091,0,0,1,.543.517c.022.065.038.135.129.129h0c-.032.091.032.151.059.226a3.19,3.19,0,0,1-.237,2.906,2.849,2.849,0,0,1-2.26,1.378,2.682,2.682,0,0,1,.845.457c.183.188.366.382.554.57a.071.071,0,0,0,.059.075v-.005c0,.038.016.059.054.054h0c0,.038.016.059.054.054h0a.209.209,0,0,0,.059.194,12.389,12.389,0,0,1,1.017,1.851,14.951,14.951,0,0,0,1.56,2.68c.145.188.248.436.5.522v.005c-.011.043.005.059.048.059h-.005c-.005.038.011.059.054.065l-.005-.005c0,.038.016.059.054.059l-.005-.005a.075.075,0,0,0,.07.065,2.6,2.6,0,0,0,.882.683c.135.059.178.135.1.269a6.1,6.1,0,0,1-2.427-.3c-.371-.124-.7-.35-1.065-.484l.005.005a.057.057,0,0,0-.065-.054l.005.005A.093.093,0,0,0,146.225,259.429Zm-3.4-7.038a2.009,2.009,0,0,0,1.447-1.125,3.363,3.363,0,0,0,.172-2.432,1.026,1.026,0,0,0-.28-.565,1.286,1.286,0,0,0-1.3-.6c-.42.059-.522.188-.527.624-.005.7-.005,1.415-.005,2.12,0,.624-.005,1.254,0,1.878,0,.065-.038.2.081.178C142.555,252.439,142.711,252.487,142.829,252.39Z" transform="translate(-132.233 -233.699)"/>
    <path id="Tracé_214" data-name="Tracé 214" d="M626.066,258.125a1.441,1.441,0,0,0-.215.005c-.21.016-.291-.081-.285-.285.011-.474.005-.952.016-1.426.059-2.637.043-5.273-.075-7.9a2.77,2.77,0,0,0-.14-.979c-.065-.145,0-.221.167-.2a16.617,16.617,0,0,0,3.352.016,4.221,4.221,0,0,1,3.578,1.442l.059.059-.005-.005a.613.613,0,0,0,.059.059l-.005-.005a.052.052,0,0,0,.059.059v-.005c-.021.113.07.178.118.258a4.193,4.193,0,0,1,.463,1.055,7.623,7.623,0,0,1,.215,3.078,5.871,5.871,0,0,1-1.135,3,4.138,4.138,0,0,1-3.541,1.781C627.858,258.093,626.959,258.087,626.066,258.125Zm3.847-9.422.005.005a1.732,1.732,0,0,0-1.345-.71c-.49-.032-.624.091-.683.57a6.026,6.026,0,0,0-.054.694c-.011,2.577-.059,5.155.1,7.732.027.4.113.484.506.463a1.921,1.921,0,0,0,1.345-.511,2.99,2.99,0,0,0,.893-1.437,9.885,9.885,0,0,0,.178-4.854,3.622,3.622,0,0,0-.877-1.894A.074.074,0,0,0,629.913,248.7Z" transform="translate(-591.622 -233.988)"/>
    <path id="Tracé_215" data-name="Tracé 215" d="M922.781,258.348a2.484,2.484,0,0,1-.942-1.3c-.7-1.711-1.421-3.417-2.131-5.123-.172-.4-.339-.791-.533-1.243a1.165,1.165,0,0,0-.032.135c0,2.249-.005,4.5.005,6.753a.876.876,0,0,0,.172.662c.038.038.1.07.059.129s-.091.038-.145.038l-.538.016c-.511-.016-.506-.016-.5-.554q.056-4.5.113-9.013a.991.991,0,0,0-.474-.823c-.065-.043-.172-.059-.14-.161s.135-.07.21-.075c.484-.022.974-.016,1.447-.081a1.132,1.132,0,0,1,1.286.533.739.739,0,0,0,.043.156l2.777,6.683c.065.161.14.312.21.474l.032-.016v-.694c-.011-1.125-.021-2.255-.032-3.379-.011-1.065-.021-2.125-.027-3.191,0-.43.075-.5.5-.506.2,0,.393-.005.592-.011.054,0,.118,0,.129.059.005.032-.032.081-.059.108a.477.477,0,0,0-.178.317q0,4.915-.005,9.826c0,.339-.011.361-.355.371A6.842,6.842,0,0,1,922.781,258.348Z" transform="translate(-868.239 -234.325)"/>
    <path id="Tracé_216" data-name="Tracé 216" d="M.8,257.61c-.533-.059-.533-.059-.522-.63.059-2.518.1-5.037.038-7.549C.3,248.785.27,248.14.206,247.5a1.189,1.189,0,0,0-.081-.393c-.124-.248,0-.258.188-.237a19.05,19.05,0,0,0,2.658.065c.42-.016.839-.032,1.265-.032A2.784,2.784,0,0,1,6.6,247.93c.011.043.022.091.086.086v-.005c-.032.07.011.124.038.178a3.257,3.257,0,0,1,.188,2.045,3.117,3.117,0,0,1-2.863,2.443c-.312-.016-.63-.027-.942-.043-.043-.065-.188.005-.178-.108.005-.1.129-.065.194-.113a1.582,1.582,0,0,0,.624-.291,2.845,2.845,0,0,0,1.13-2.8,2.069,2.069,0,0,0-.4-1.2A1.375,1.375,0,0,0,3.1,247.5c-.339.065-.447.194-.457.549-.016.474-.032.947-.038,1.421-.022,2.276-.07,4.552.048,6.828a4.107,4.107,0,0,0,.135.952c.091.3.065.339-.258.339C1.949,257.61,1.373,257.61.8,257.61Z" transform="translate(0 -233.543)"/>
    <path id="Tracé_217" data-name="Tracé 217" d="M295.1,256.622a5.193,5.193,0,0,0,1.7-.2,1.575,1.575,0,0,0,1.028-.823,3.265,3.265,0,0,1-.022,1.082c-.022.1-.043.21-.065.312-.086.393-.151.447-.56.441-1.474-.005-2.943-.005-4.418-.005-.511-.048-.506-.048-.506-.581.011-2.384.043-4.762.005-7.146-.016-.85-.043-1.7-.14-2.545-.016-.145-.21-.3-.048-.43.124-.1.3-.005.447.005a30.853,30.853,0,0,0,4.052-.032c.161-.011.323-.016.484-.022.457-.011.5.022.549.479a8.776,8.776,0,0,1,.032,1.189c-.113.032-.14-.081-.2-.124l-.059-.043h.005a1.15,1.15,0,0,0-.872-.587,5.3,5.3,0,0,0-1.571-.059c-.258.011-.355.129-.366.382-.043.9-.043,1.8-.043,2.707v.667a1.644,1.644,0,0,1,.533-.167,11.009,11.009,0,0,0,1.786-.081c.1-.016.156.005.118.129s-.07.274-.1.414a.64.64,0,0,1-.716.474c-.43-.016-.861-.005-1.291,0-.2,0-.344.065-.339.312.027,1.254-.048,2.508.065,3.756C294.607,256.482,294.72,256.6,295.1,256.622Z" transform="translate(-276.23 -233.362)"/>
    <path id="Tracé_218" data-name="Tracé 218" d="M800.211,248.383c-.135.048-.161-.108-.253-.14a1.158,1.158,0,0,0-.888-.608,4.912,4.912,0,0,0-1.512-.065c-.334.016-.42.1-.441.436-.005.07,0,.145,0,.215-.021.979.038,1.964-.048,2.949-.011.14.032.188.161.108a1.054,1.054,0,0,1,.382-.118,10.43,10.43,0,0,0,1.786-.075c.14-.022.156.032.129.145l-.1.387a.661.661,0,0,1-.737.479c-.43-.016-.856,0-1.286,0-.21,0-.344.081-.344.312a34.925,34.925,0,0,0,.1,3.826c.038.317.156.42.5.43a5.027,5.027,0,0,0,1.722-.2,1.559,1.559,0,0,0,1.017-.813,3.281,3.281,0,0,1-.016,1.082c-.075.081-.048.188-.07.28-.124.474-.118.474-.608.474-1.458,0-2.911-.005-4.369-.005-.522-.059-.522-.059-.517-.608.027-2.723.081-5.445-.027-8.168a6.636,6.636,0,0,0-.2-1.808c-.059-.194.118-.156.226-.151.323.022.64.065.963.075,1.119.038,2.238-.011,3.358-.075.145-.011.285-.016.43-.022.511-.016.511-.016.608.484Q800.194,247.786,800.211,248.383Z" transform="translate(-751.754 -233.405)"/>
    <path id="Tracé_219" data-name="Tracé 219" d="M420.766,247.99c.554.554,1.162,1.044,1.695,1.62a.1.1,0,0,0,.081.1l-.005-.005a.061.061,0,0,0,.059.065l-.005-.005a.057.057,0,0,0,.054.065l-.005-.005c0,.038.016.059.054.059v-.005c-.016.07.032.118.07.167a3.842,3.842,0,0,1,.694,2.4,3.144,3.144,0,0,1-3.078,3.094,7.221,7.221,0,0,1-2.255-.215.725.725,0,0,1-.56-.775,7.725,7.725,0,0,1-.027-1.324c.135.038.151.151.21.215.113.118.118.366.377.323.032-.005.086.1.118.167a1.278,1.278,0,0,0,.721.608,2.434,2.434,0,0,0,1.711.011,1.316,1.316,0,0,0,.753-1.69,3.561,3.561,0,0,0-1-1.63c-.592-.613-1.243-1.168-1.808-1.808a3.021,3.021,0,0,1-.78-2.976,2.612,2.612,0,0,1,2.233-1.878,6.749,6.749,0,0,1,2.325.065c.312.048.511.188.543.517,0,.414-.005.829-.005,1.243-.156-.005-.2-.161-.307-.231-.016-.016-.038-.027-.054-.043h0a.054.054,0,0,0-.059-.048h0c-.016-.038-.022-.091-.054-.118a2.466,2.466,0,0,0-1.534-.683,1.086,1.086,0,0,0-1.173.608,1.926,1.926,0,0,0,.823,1.91h0a.14.14,0,0,0,.124.156l-.005-.005A.646.646,0,0,1,420.766,247.99Z" transform="translate(-394.979 -231.296)"/>
    <path id="Tracé_220" data-name="Tracé 220" d="M1065.87,247.928c-.237.1-.35.323-.49.506-.086-.022-.07-.086-.065-.135.032-.457.081-.909.1-1.367.016-.285.156-.361.42-.35.786.027,1.577.043,2.362.048q1.735.016,3.465-.038c.527-.022.543,0,.608.538.032.436.065.872.091,1.308-.113.022-.129-.091-.194-.14a.819.819,0,0,0-.409-.409,3.451,3.451,0,0,0-1.555-.339c-.2-.011-.258.054-.258.253.032,1.668-.016,3.331.038,5,.048,1.447,0,2.9.124,4.348.016.21-.065.258-.258.253-.549-.011-1.092-.005-1.641-.005-.527-.032-.527-.032-.522-.576.032-2.916.043-5.828-.011-8.744a2.161,2.161,0,0,1,.005-.264c.038-.242-.091-.285-.3-.264-.183.022-.371.022-.554.054A2.406,2.406,0,0,0,1065.87,247.928Z" transform="translate(-1007.916 -233.278)"/>
    <path id="Tracé_221" data-name="Tracé 221" d="M157.678,30.075a14.68,14.68,0,0,1,.818-1.555,9.283,9.283,0,0,1,2.292-2.271,9.529,9.529,0,0,0,1.517-1.313c.151-.178.231-.156.307.07a2.217,2.217,0,0,1-.016,1.141c-.005.038-.011.081-.027.188a5.922,5.922,0,0,1,1.092-.952c.753-.468,1.56-.845,2.346-1.254a6.448,6.448,0,0,0,1.663-1.119c.151-.151.221-.086.274.081a1.669,1.669,0,0,1-.081,1.049,6.923,6.923,0,0,1-1.528,2.621,10.511,10.511,0,0,1-3.637,2.513.5.5,0,0,0-.135.081,3.364,3.364,0,0,1,1.114.005,1.2,1.2,0,0,1,.474.242.291.291,0,0,1-.032.511,16.246,16.246,0,0,0-2.427,1.765,8.978,8.978,0,0,1-3.7,1.76,5.643,5.643,0,0,1-1.275.135.666.666,0,0,0-.522.2,2.214,2.214,0,0,1-.893.527c-.581.172-.931-.075-.969-.678a5.465,5.465,0,0,1,.463-2.481,8.271,8.271,0,0,1,1.684-2.438,5.767,5.767,0,0,0,.8-.969c.1-.167.221-.161.317.011a.978.978,0,0,1,.113.49,7.726,7.726,0,0,1-.043,1.367C157.667,29.892,157.678,29.983,157.678,30.075Zm-.979.361c.005.005.016.011.022.016-.022.07-.038.14-.065.2a24.21,24.21,0,0,0-1.238,3.056c-.038.129-.188.3-.059.387.145.108.291-.07.414-.161a2.977,2.977,0,0,0,.764-1.087,9.063,9.063,0,0,0,.872-4.084c0-.07.005-.161-.07-.188s-.113.065-.161.113c-.264.307-.522.613-.791.915a6.715,6.715,0,0,0-1.636,3.471,1.749,1.749,0,0,0,.016.85.231.231,0,0,0,.194.167c.108.011.1-.086.118-.145a13.014,13.014,0,0,1,.78-2A6.642,6.642,0,0,1,156.7,30.435Zm4.052-.791a13.7,13.7,0,0,0,2.9-1.324,9.848,9.848,0,0,0,3.363-3.072,3.829,3.829,0,0,0,.619-1.415c.016-.081.054-.194-.043-.242-.081-.043-.145.048-.2.1a4.356,4.356,0,0,1-.958.635,21.163,21.163,0,0,0-2.6,1.4,5.554,5.554,0,0,0-1.856,2.292,13.189,13.189,0,0,0,4.283-3.024.338.338,0,0,1-.1.274,10.729,10.729,0,0,1-4.246,3.072c-.091.032-.2.048-.258.135a10.008,10.008,0,0,1-.931,1.141.565.565,0,0,0-.059.043C160.7,29.692,160.729,29.682,160.75,29.644Zm1.189.683c.011.027.022.059.032.086-.124.059-.248.124-.377.183a31.172,31.172,0,0,0-4.611,2.529c-.108.07-.323.135-.258.285.054.124.264.054.4.032a9.221,9.221,0,0,0,4.466-1.969,13,13,0,0,1,1.388-1.1c.194-.113.387-.221.581-.334.054-.032.108-.07.091-.145s-.075-.091-.14-.1c-.124-.011-.248-.032-.377-.032a9.512,9.512,0,0,0-2.879.468,6.864,6.864,0,0,0-2.836,1.786,1.784,1.784,0,0,0-.409.694A20.9,20.9,0,0,1,161.94,30.327Zm.334-4.746c-.608.511-1.157.979-1.717,1.437a8.649,8.649,0,0,0-2.626,3.573c-.027.075-.059.151-.081.226s-.043.156.027.2c.086.054.156-.016.21-.07a1.5,1.5,0,0,0,.237-.387,10.692,10.692,0,0,1,2.179-2.841c.086-.081.167-.188.323-.172a.292.292,0,0,1-.124.21,12.574,12.574,0,0,0-1.162,1.34,7.165,7.165,0,0,0-.85,1.367c-.027.059-.091.14-.022.194s.129-.022.188-.059c.188-.124.377-.248.56-.371a6.281,6.281,0,0,0,2.265-2.631A6.429,6.429,0,0,0,162.273,25.581Zm-4.622,4.628c-.011.016-.022.027-.022.043s.011.027.016.043c.005-.016.022-.027.022-.043S157.656,30.225,157.651,30.209Z" transform="translate(-145.952 -21.656)"/>
    <path id="Tracé_222" data-name="Tracé 222" d="M763.8,26.156c.022-.307-.091-.6-.054-.909a1.833,1.833,0,0,1,.022-.242c.027-.108.043-.253.172-.28.113-.027.161.1.226.161a17.856,17.856,0,0,0,2.142,1.786,7.053,7.053,0,0,1,2.281,3.056.51.51,0,0,0,.178.285,9.219,9.219,0,0,1-.075-1.523,2.179,2.179,0,0,1,.065-.56c.027-.1.065-.194.178-.215s.172.065.221.156a5.663,5.663,0,0,0,.888,1.039,7.093,7.093,0,0,1,2.023,3.971,2.734,2.734,0,0,1-.032,1.044.606.606,0,0,1-.8.5,2,2,0,0,1-1.028-.549.914.914,0,0,0-.743-.221,7.95,7.95,0,0,1-4.256-1.523c-.71-.484-1.345-1.065-2.039-1.571a6.151,6.151,0,0,0-.839-.533.292.292,0,0,1-.091-.517.936.936,0,0,1,.673-.285c.258-.011.517,0,.775,0,.005-.108-.075-.1-.129-.118a10.243,10.243,0,0,1-3.568-2.524,6.417,6.417,0,0,1-1.56-3.013,1.324,1.324,0,0,1,.027-.581c.043-.167.124-.215.264-.086a9.859,9.859,0,0,0,2.405,1.5,12.577,12.577,0,0,1,1.959,1.114,5.341,5.341,0,0,1,.716.635c0,.011.005.016.005.022s.011,0,.016.005A.119.119,0,0,1,763.8,26.156Zm1.937,3.39c.005.011.011.016.016.027,0-.005,0-.011-.005-.011s-.005-.011-.011-.016a7.928,7.928,0,0,1-.958-1.157.42.42,0,0,0-.248-.145,10.725,10.725,0,0,1-4.256-3.062.255.255,0,0,1-.1-.28,12.832,12.832,0,0,0,4.267,3.008,5.543,5.543,0,0,0-2.1-2.459,13.739,13.739,0,0,0-1.464-.8,9.449,9.449,0,0,1-1.695-.931c-.118-.091-.221-.334-.377-.221-.135.1-.016.317.032.474a6.274,6.274,0,0,0,1.679,2.529,12.341,12.341,0,0,0,3.643,2.443A7.26,7.26,0,0,0,765.741,29.546Zm-1.264.716a20.133,20.133,0,0,1,4.886,2.287,2.008,2.008,0,0,0-.581-.861A7.936,7.936,0,0,0,763,29.67c-.1,0-.226.016-.248.124-.027.124.113.145.194.188a6.584,6.584,0,0,1,1.34.936,9.98,9.98,0,0,0,3.056,1.91,9.647,9.647,0,0,0,2.131.527c.081.011.2.048.242-.054s-.086-.14-.151-.194a.821.821,0,0,0-.086-.059,30.634,30.634,0,0,0-4.289-2.384A2.344,2.344,0,0,1,764.477,30.262Zm5.193.048c.011-.011.027-.022.038-.032.032.043.07.081.1.124a16.425,16.425,0,0,1,1.534,3.39c.027.075,0,.2.124.2a.238.238,0,0,0,.21-.183,1.059,1.059,0,0,0,.048-.291,4.073,4.073,0,0,0-.086-.85,8.493,8.493,0,0,0-2.421-4.133c-.032-.032-.065-.07-.113-.054-.081.022-.075.1-.07.156.011.274.038.554.043.829a8.033,8.033,0,0,0,1.1,3.8,1.793,1.793,0,0,0,.689.7c.07.038.151.091.226.038s.016-.151-.005-.221c-.188-.581-.382-1.157-.624-1.711C770.191,31.483,769.928,30.9,769.669,30.31Zm-4.063-2.9a.743.743,0,0,1,.35.231,10.862,10.862,0,0,1,2.206,2.922.825.825,0,0,0,.237.323c.043.032.086.065.145.032a.136.136,0,0,0,.048-.145,1.152,1.152,0,0,0-.048-.183,8.508,8.508,0,0,0-1.819-2.89c-.613-.613-1.291-1.162-1.959-1.717a3.635,3.635,0,0,0-.6-.479,6.17,6.17,0,0,0,.393,1.534,6.809,6.809,0,0,0,3.062,3.476c.043.027.091.075.145.032s.016-.1-.005-.145c-.032-.075-.065-.145-.1-.221a11.585,11.585,0,0,0-1.9-2.524C765.688,27.6,765.58,27.555,765.607,27.41Zm3.2,2.755c-.005-.016-.016-.027-.022-.043-.005.016-.021.027-.021.043s.011.027.021.043A.161.161,0,0,1,768.8,30.165Zm-4.945-.9c.005-.005.011-.005.016-.011s-.011-.016-.016-.016a.042.042,0,0,0-.021.022C763.847,29.261,763.853,29.266,763.858,29.266Z" transform="translate(-717.533 -21.568)"/>
    <path id="Tracé_223" data-name="Tracé 223" d="M635.863,41.6a9.641,9.641,0,0,1,2.072.387,11.034,11.034,0,0,1,2.561.947.263.263,0,0,1,.151.361c-.393,1.539-.769,3.083-1.157,4.622a2.087,2.087,0,0,1-1.727,1.534,7.689,7.689,0,0,0-1.754.57c-.14.07-.2.011-.274-.108a8.074,8.074,0,0,0-1.329-1.749c-.065-.059-.135-.118-.2-.178a3.27,3.27,0,0,0,1.426-1.162c-.043.269.022.479.318.554.038.145.156.081.247.091.108.011.2-.081.312-.043-.194.425-.382.856-.587,1.281-.172.355-.178.355.172.624.2.183.382-.022.56-.065.1-.027.043-.2.027-.317a3.6,3.6,0,0,1,.135-1.587.545.545,0,0,0,.323.242.3.3,0,0,0,.49-.016c.124-.14.188-.3-.005-.441a.513.513,0,0,0-.377-.317c0-.151.183-.334-.086-.43a.4.4,0,0,0-.474-.3.35.35,0,0,0-.318.344c-.016.242.135.35.344.409.038.129.145.07.226.091l-.129.21c-.054.016-.108.038-.156.054-.011.016-.022.016-.038.005-.129-.07.005-.3-.2-.323-.215-.317-.393-.344-.726-.108a6.3,6.3,0,0,0,.183-1.851C635.847,43.817,635.857,42.708,635.863,41.6Zm3.525,2.911a.42.42,0,0,0-.5-.258.371.371,0,0,0-.3.334c-.022.221.129.334.312.409.043.108.145.1.237.118-.032.07-.065.135-.1.2-.135.022-.269.059-.274-.156a.116.116,0,0,0-.124-.113.4.4,0,0,0-.468-.269.36.36,0,0,0-.312.291c-.048.242.1.361.28.457.059.135.183.113.291.1s.194-.113.318-.1c-.178.468-.4.915-.624,1.361-.129.264-.075.42.226.565.016.032.027.086.043.091a2.081,2.081,0,0,0,.506-.113c.043-.005.032-.07.022-.118a2.877,2.877,0,0,1-.016-1.006c.032-.248-.075-.543.178-.737.081.059.161.113.237.172a.367.367,0,0,0,.57-.07c.108-.145.161-.307-.065-.414a.473.473,0,0,0-.35-.285C639.452,44.829,639.678,44.613,639.387,44.511ZM637.929,43c.016-.167.188-.361-.086-.474-.161-.258-.35-.328-.57-.221s-.264.28-.129.587c.016.038-.011.043-.022.059-.032.043-.059.022-.081-.005a.414.414,0,0,0-.651.011c-.151.2-.086.4.194.587.215.215.43.054.64-.005a14.138,14.138,0,0,1-.608,1.334c-.172.35-.172.355.178.619.183.221.344-.038.522-.038.129,0,.086-.2.059-.3a3.069,3.069,0,0,1,.032-1.173c.011-.14-.043-.328.113-.447a.494.494,0,0,0,.35.242.277.277,0,0,0,.463-.043c.1-.118.21-.285-.027-.4A.436.436,0,0,0,637.929,43Z" transform="translate(-600.003 -39.326)" fill="#6b6b6b"/>
    <path id="Tracé_224" data-name="Tracé 224" d="M547.742,257.727c-.527-.016-.527-.016-.517-.56.048-2.906.086-5.811-.022-8.717a3.241,3.241,0,0,0-.167-1.318c-.086-.183.118-.156.221-.156.387.011.769.038,1.157.054.231.011.468.011.7.005.361-.011.387.011.4.361,0,.043.005.091.005.135-.011.07-.027.14-.032.21-.021.759-.027,1.523-.043,2.282q-.073,3.212.048,6.425a3.083,3.083,0,0,0,.156,1.082c.1.237-.011.264-.2.237A11.981,11.981,0,0,0,547.742,257.727Z" transform="translate(-517.511 -233.649)"/>
    <path id="Tracé_225" data-name="Tracé 225" d="M423.212,41.826a1.931,1.931,0,0,1-.635,1.394c-.21.215-.447.414-.673.619a3.968,3.968,0,0,0-.834,1.012c-.048.091-.086.161-.215.086a7.2,7.2,0,0,0-1.9-.63,2.286,2.286,0,0,1-1.846-1.765c-.339-1.351-.732-2.69-1.114-4.036a.312.312,0,0,1,.161-.414,10.4,10.4,0,0,1,2.384-1.028,13.625,13.625,0,0,1,2.933-.624c.269-.022.387.054.457.334.382,1.517.791,3.029,1.189,4.541A1.657,1.657,0,0,1,423.212,41.826Zm-5.6-1.453.016.005.005.011.075.043a.923.923,0,0,0,1.049.21c.027.016.054.038.081.054a.915.915,0,0,1,.075.054l-.005-.005c.075.156.242.167.382.231a2.767,2.767,0,0,0-.592.3.73.73,0,0,0-.086,1.189c.043.043.091.081.14.124a1.279,1.279,0,0,0,.926.323c.065.344,0,.436-.323.5a1.164,1.164,0,0,0-.328.1.436.436,0,0,0-.188.334c-.022.1.1.091.183.1,0,.081-.043.221.1.183a5.4,5.4,0,0,0,1.06-.334c.183-.091.1-.393.178-.587a1.135,1.135,0,0,0,.065-.231c.032-.135-.016-.2-.156-.215-.005-.124-.075-.156-.188-.172a.587.587,0,0,1-.355-.151c-.005-.032-.011-.07-.059-.059l.005.005c.038-.161-.048-.328.032-.484a.46.46,0,0,0,.242.328l.048.048-.005-.005c.215.269.517.226.8.194a9.97,9.97,0,0,1,1.13-.14c.016.409-.011.447-.387.484a.581.581,0,0,0-.1.016c-.188.059-.194.242-.237.387-.032.1.07.151.172.14.005.161.081.2.231.145a3.158,3.158,0,0,1,.662-.21.2.2,0,0,0,.183-.226,2.359,2.359,0,0,1,.113-.845c.043-.124.016-.237-.151-.248-.011-.156-.118-.167-.242-.172-.2-.016-.42,0-.576-.183.1-.285.065-.608.42-.8a.558.558,0,0,0,.075-.952l.005.005c.011-.054,0-.091-.059-.1a7.706,7.706,0,0,0-1.012-.952,1.471,1.471,0,0,1-.054-.258c-.011-.167-.005-.323.2-.371.022.274.022.554.3.716a.514.514,0,0,0,.721.081c-.081-.038-.156-.075-.231-.113.07-.161-.1-.091-.145-.145-.086-.21-.005-.484-.264-.624l.005.005c-.011-.016-.027-.032-.043-.054a.449.449,0,0,0-.554-.215c-.253.048-.317.258-.366.474-.059-.07-.07-.178-.172-.221a1.645,1.645,0,0,0-.56-.527c-.167-.086-.43-.032-.49-.3,0-.005-.048-.005-.07-.005a2.009,2.009,0,0,0-1.119.49.887.887,0,0,0,.086.048c.07.032.14.059.091.156s-.091,0-.14-.005c-.156-.022-.371.022-.387.151-.016.145-.081.387.167.474.038.059.075.118.113.172a.225.225,0,0,0,.188.269.2.2,0,0,0,.237.178c-.151.377-.479.382-.683.016a2.453,2.453,0,0,0-.463-.613.752.752,0,0,0-.743-.172c-.054.016-.151.091-.129.1.188.1.1.414.366.43.011.145.048.248.231.167a.69.69,0,0,1,.258-.005,4.142,4.142,0,0,0,.554.748c.081.07.317.1.226.226-.081.113-.285.005-.42-.054a1.282,1.282,0,0,1-.361-.274,1.006,1.006,0,0,0-.188-.151c-.124-.059-.425.135-.361.2.135.135.183.339.371.42.059.253.291.081.42.151Z" transform="translate(-393.514 -34.44)"/>
    <path id="Tracé_226" data-name="Tracé 226" d="M516.276,28.636c-.07.065-.151.124-.156.237v-.005c-.059.032-.129.059-.054.14h-.005c-.124-.075-.151.054-.21.1a17.3,17.3,0,0,0-2.029,1.819.4.4,0,0,1,.135-.344,7.1,7.1,0,0,1,1.033-1.017,6.95,6.95,0,0,0,.63-.63,1.93,1.93,0,0,0,.42-1.878c-.4-1.474-.786-2.959-1.195-4.434-.07-.264-.07-.474.167-.635.156.011.156.145.188.248s.022.226.108.258c.247.086.436.3.7.35l.059.059c.161.188.318.183.49.005a2.38,2.38,0,0,1,.63-.393,1.605,1.605,0,0,1,1.141.065c.156.065.312.129.468.2a2.033,2.033,0,0,0,1.453.161c.151-.043.35-.07.344-.307-.113-.242-.35-.2-.549-.226a12.922,12.922,0,0,1-2.039-.161c-.161-.124-.3-.269-.226-.49s.28-.264.5-.269a1.94,1.94,0,0,1,.554.075,2.058,2.058,0,0,0,.974.059c.21-.043.054.1.07.151a1.2,1.2,0,0,1-.9.253l.005.005c-.016-.016-.038-.032-.054-.048-.065-.054-.124-.113-.188-.167a.621.621,0,0,0-.716-.108c-.124.129-.124.253.075.323a1.761,1.761,0,0,0,1.06.161c.129,0,.258,0,.387-.005a2.163,2.163,0,0,1,.323.016c.366.07.786-.016,1.049.361a.585.585,0,0,1-.36.49c-.3.151-.318.307-.048.538.091.172.344.156.414.355-.038.091.086.226-.054.285-.215.1-.247.355-.4.463s-.409-.065-.619,0a1.332,1.332,0,0,1-.156.032c-.043-.011-.091-.016-.108-.065-.081-.215.043-.361.291-.371.172-.005.387.07.452-.2.048-.091,0-.124-.086-.14-.151-.027-.307-.059-.457-.091l.005.005a.211.211,0,0,0-.054-.043.551.551,0,0,1-.221-.237c0-.118-.091-.135-.178-.161a1.216,1.216,0,0,0-.974.156,3.8,3.8,0,0,1-.818.387l-.194-.048c.054-.113.172-.151.258-.226a.427.427,0,0,0,.135-.5c-.081.274-.312.387-.517.533-.237.167-.441.344-.409.667.016.14-.059.151-.161.108a2.106,2.106,0,0,0-.7-.14c-.156-.005-.2.059-.1.194.016.081.032.156.043.237.032.264.145.393.425.28a.4.4,0,0,1,.312.027.318.318,0,0,0,.371-.043c.108-.1.151-.043.167.075.032.14-.28.264-.022.414a.024.024,0,0,1,0,.027,1.27,1.27,0,0,1-.839.743c.075.291.081.3.3.1a2.352,2.352,0,0,1,.592-.4l.065-.048h-.011a1.974,1.974,0,0,1,1.415.248,1.829,1.829,0,0,0,1.135.231c.221-.038.506-.011.576-.328-.011-.145-.135-.156-.231-.178a2.5,2.5,0,0,0-.635-.075,6.145,6.145,0,0,1-1.507-.108l.005.005c0-.043-.027-.048-.059-.054a.372.372,0,0,1-.129-.5.479.479,0,0,1,.543-.188,4.156,4.156,0,0,0,1.232.145c.1-.011.129.038.108.129a1.142,1.142,0,0,1-.866.248c-.065-.059-.124-.124-.188-.183-.1-.269-.328-.183-.511-.172-.226.011-.258.172-.091.355a1.618,1.618,0,0,0,1,.156h.28a3.423,3.423,0,0,1,.474.016c.3.054.651.011.845.339a.526.526,0,0,1-.344.457c-.253.14-.264.183-.091.436l-.005-.005a.92.92,0,0,0,.059.075c.075.167.323.129.382.317-.043.091.108.2-.011.269-.183.1-.247.3-.377.43s-.387-.011-.587.032c-.054.011-.108.016-.161.022-.145-.048-.124-.156-.091-.264s.124-.135.231-.135c.167,0,.344.038.447-.156.075-.108.032-.161-.081-.183-.156-.032-.307-.059-.463-.091l.005.005c-.011-.016-.027-.027-.038-.043L519.37,27c-.016-.145-.14-.145-.242-.167a1.168,1.168,0,0,0-.845.178,2.73,2.73,0,0,1-.748.355c-.059-.022-.118-.038-.178-.059.081-.07.161-.135.242-.2a.4.4,0,0,0,.135-.463.732.732,0,0,1-.361.42c-.3.2-.57.42-.484.861-.124-.043-.2-.075-.291-.1s-.1.022-.086.091A2.76,2.76,0,0,1,516.276,28.636Zm-.382-4.606c.081-.011.183.022.248-.065.027-.032.011-.065-.022-.091-.167-.108-.183-.3-.253-.457a.683.683,0,0,0-.274-.35c-.032-.016-.081-.048-.124-.011s-.032.075-.016.118c.059.215.118.43.167.646C515.646,23.986,515.727,24.056,515.894,24.03Zm.646,1.743c.07-.145.237-.145.21-.3-.005-.038-.048-.048-.086-.038C516.54,25.488,516.48,25.568,516.54,25.773Zm-.4-.344c-.065,0-.113.016-.1.07a.256.256,0,0,0,.178.178c.054.016.059-.048.054-.1A.144.144,0,0,0,516.136,25.429Z" transform="translate(-486.098 -20.297)" fill="#6b6b6b"/>
    <path id="Tracé_227" data-name="Tracé 227" d="M526.748,19.42c-.059-.188-.307-.151-.382-.317-.011-.032,0-.075-.059-.075l.005.005c-.021-.188.113-.248.248-.317.307-.172.355-.339.188-.576-.194-.328-.538-.285-.845-.339a3.483,3.483,0,0,0-.474-.016.967.967,0,0,0,.457-.3c.027-.038.075-.07.038-.108-.022-.022-.081,0-.129,0,.021-.091-.016-.14-.108-.129a4.135,4.135,0,0,1-1.232-.145.487.487,0,0,0-.544.188.367.367,0,0,0,.129.5.055.055,0,0,0,.059.054l-.005-.005a.919.919,0,0,0,.748.248,7.417,7.417,0,0,1,1.62.113c-.07.317-.355.291-.576.328a1.822,1.822,0,0,1-1.135-.231,1.979,1.979,0,0,0-1.415-.248c0-.14.022-.28-.1-.387.005-.011,0-.022,0-.027.156-.226.161-.307.022-.414-.016-.118-.065-.167-.167-.075a.316.316,0,0,1-.371.043.394.394,0,0,0-.312-.027c-.28.113-.393-.016-.425-.28-.011-.081-.027-.156-.043-.237a2.161,2.161,0,0,1,.942.14c.059.022.156.081.145-.054a.812.812,0,0,1,.414-.726l.194.048c-.091.129-.054.172.1.145a1.561,1.561,0,0,0,.613-.242,1.529,1.529,0,0,1,1.265-.291.624.624,0,0,0,.221.237.211.211,0,0,0,.054.043l-.005-.005c.1.253.355.167.538.231-.059.269-.274.194-.452.2-.253.011-.371.156-.291.371.016.048.065.059.108.065,0,.113.048.161.167.151a1.686,1.686,0,0,1,.635.048c.124.032.183-.016.21-.129a.721.721,0,0,1,.307-.393c.07-.048.151-.07.108-.178s.005-.291-.2-.285c-.065-.2-.318-.183-.414-.355-.075-.21.011-.312.2-.4.355-.172.414-.393.21-.624-.258-.382-.683-.291-1.049-.361a2.129,2.129,0,0,0-.323-.016,1.387,1.387,0,0,0,.42-.253c.038-.043.113-.086.075-.151s-.113,0-.172-.011c-.016-.054.14-.2-.07-.151a2.13,2.13,0,0,1-.974-.059,2.118,2.118,0,0,0-.554-.075c-.215.005-.42.038-.5.269s.065.366.226.49a1.1,1.1,0,0,0,.861.269,8.43,8.43,0,0,1,1.727.118c.005.237-.194.258-.344.307a2.036,2.036,0,0,1-1.453-.161c-.151-.07-.312-.135-.468-.2a1.605,1.605,0,0,0-1.141-.065c.005-.086.043-.194.005-.258a.3.3,0,0,1,.027-.382c.059-.081.108-.253-.118-.242-.011-.124-.027-.231-.183-.1a.329.329,0,0,1-.328.07.85.85,0,0,0-.554-.005.215.215,0,0,1-.242-.065c-.156-.156-.269-.016-.226.091.081.21-.032.371-.043.554a.329.329,0,0,0,.188.35,2.056,2.056,0,0,1,.274.21c.011.038.022.07.032.108l-.005.005c-.264-.048-.452-.258-.7-.35-.086-.032-.081-.167-.108-.258s-.027-.237-.188-.248c-.1-.005-.2-.016-.3-.022-.161-.1-.361.016-.522-.081.016-.538-.113-.463.474-.56a17.491,17.491,0,0,1,6.328.043c.194.038.237.118.237.3-.005,1.641-.005,3.277-.005,4.918a1.888,1.888,0,0,1-.656,1.582.375.375,0,0,1-.178.1,1.045,1.045,0,0,1,.285-.463C526.984,19.775,526.974,19.614,526.748,19.42Z" transform="translate(-492.201 -12.395)"/>
    <path id="Tracé_228" data-name="Tracé 228" d="M638.8,286.574c.893-.038,1.792-.032,2.685-.005a4.138,4.138,0,0,0,3.541-1.781,5.823,5.823,0,0,0,1.135-3,7.714,7.714,0,0,0-.215-3.078,4.28,4.28,0,0,0-.463-1.055c-.048-.081-.14-.145-.118-.258a3.092,3.092,0,0,1,.915,1.3,7.1,7.1,0,0,1,.393,3.7,5.7,5.7,0,0,1-1.388,3.2,4.07,4.07,0,0,1-3.352,1.458c-.85-.043-1.7-.043-2.556-.005C638.838,287.086,638.838,287.086,638.8,286.574Z" transform="translate(-604.356 -262.438)" fill="#6b6b6b"/>
    <path id="Tracé_229" data-name="Tracé 229" d="M15.9,263.622c-.059.043-.183.016-.194.113-.011.113.135.048.178.108a34.406,34.406,0,0,0,.172,4.993c.07.452.091.452-.361.452H14.051c-.474,0-.474,0-.468-.474.576,0,1.146,0,1.722-.005.323,0,.35-.038.258-.339a3.838,3.838,0,0,1-.135-.952c-.113-2.276-.065-4.552-.048-6.828.005-.474.016-.947.038-1.421.011-.355.118-.484.457-.549a1.366,1.366,0,0,1,1.383.619,3.919,3.919,0,0,0-.414-.108c-.721-.113-.909.038-.926.769-.016,1.119-.027,2.244-.038,3.363A1.418,1.418,0,0,0,15.9,263.622Z" transform="translate(-12.78 -244.742)" fill="#6b6b6b"/>
    <path id="Tracé_230" data-name="Tracé 230" d="M1119.283,274.505c.549,0,1.092-.011,1.641.005.194.005.28-.043.258-.253-.129-1.447-.075-2.9-.124-4.348-.054-1.668-.011-3.336-.038-5-.005-.2.054-.269.258-.253a3.523,3.523,0,0,1,1.555.339.862.862,0,0,1,.409.409,4.877,4.877,0,0,0-1.442-.264c-.178-.011-.248.027-.248.226-.005,2.8.011,5.607.081,8.4a5.586,5.586,0,0,0,.081.99c.038.183-.032.264-.231.247-.57-.048-1.146-.032-1.717-.027C1119.278,274.99,1119.278,275,1119.283,274.505Z" transform="translate(-1058.983 -250.38)" fill="#6b6b6b"/>
    <path id="Tracé_231" data-name="Tracé 231" d="M1012.3,268.095a6.92,6.92,0,0,0,1.49.091c.344-.011.355-.027.355-.371q0-4.915.005-9.826h.619c.054,0,.113-.011.135.059a.108.108,0,0,1-.054.113.622.622,0,0,0-.183.56c0,2.76-.005,5.521.005,8.281a9.283,9.283,0,0,0,.011,1.447c.021.14-.065.2-.188.2a7.226,7.226,0,0,1-1.447-.043A1.025,1.025,0,0,1,1012.3,268.095Z" transform="translate(-957.758 -244.071)" fill="#6b6b6b"/>
    <path id="Tracé_232" data-name="Tracé 232" d="M560.5,267.423a11.8,11.8,0,0,1,1.69.038c.188.027.3,0,.2-.237a3.214,3.214,0,0,1-.156-1.082q-.121-3.212-.048-6.425c.016-.759.021-1.523.043-2.281a1.418,1.418,0,0,1,.032-.21h.081c.414-.016.436-.005.425.4-.07,2.631-.108,5.263-.048,7.894.016.6.027,1.2.1,1.8a1.841,1.841,0,0,0,.054.291c.1.35.1.355-.253.334-.592-.038-1.178-.048-1.77-.038-.344.005-.344.005-.344-.35A1.127,1.127,0,0,1,560.5,267.423Z" transform="translate(-530.269 -243.346)" fill="#6b6b6b"/>
    <path id="Tracé_233" data-name="Tracé 233" d="M559.5,124.715a2.922,2.922,0,0,0,.242-.732c.108.038.221.065.328.108s.172.048.156-.1a.634.634,0,0,1,.355-.613c.059.022.118.038.178.059-.075.091-.032.113.065.118a1.221,1.221,0,0,0,.683-.264,1.3,1.3,0,0,1,1.082-.221l.161.226c.011.016.027.027.038.043l-.005-.005c.118.221.339.226.538.269-.1.194-.28.156-.447.156-.108,0-.2.022-.231.135s-.054.215.091.264c.005.129.075.156.194.145a1.954,1.954,0,0,1,.683.059,2.188,2.188,0,0,1-.791.468,9.391,9.391,0,0,0-1.4.775c-.14.1-.253.328-.414.3-.135-.027-.237-.231-.355-.344A5.008,5.008,0,0,0,559.5,124.715Z" transform="translate(-529.323 -116.377)"/>
    <path id="Tracé_234" data-name="Tracé 234" d="M428.6,349.945a7.417,7.417,0,0,0,2.255.215,3.133,3.133,0,0,0,3.078-3.094,3.842,3.842,0,0,0-.694-2.4.216.216,0,0,1-.07-.167,3.652,3.652,0,0,1,1.2,2.039,3.26,3.26,0,0,1-.99,3.325,3.206,3.206,0,0,1-1.776.764,6.416,6.416,0,0,1-2.5-.21C428.869,350.349,428.632,350.252,428.6,349.945Z" transform="translate(-405.466 -325.927)" fill="#6b6b6b"/>
    <path id="Tracé_235" data-name="Tracé 235" d="M936.5,311.132l.538-.016c.054,0,.113.016.145-.038s-.027-.091-.059-.129a.918.918,0,0,1-.172-.662c-.011-2.249-.005-4.5-.005-6.753a.948.948,0,0,1,.032-.135c.194.452.366.85.533,1.243a.582.582,0,0,0-.032.317c0,1.808-.005,3.616.005,5.424.005.382-.124.813.242,1.13.065.059-.021.113-.086.118-.328.005-.662.005-.99,0-.1,0-.129-.081-.135-.172C936.505,311.348,936.5,311.24,936.5,311.132Z" transform="translate(-886.037 -287.039)" fill="#6b6b6b"/>
    <path id="Tracé_236" data-name="Tracé 236" d="M63.2,273.065a3.123,3.123,0,0,0,2.863-2.443,3.217,3.217,0,0,0-.188-2.045.207.207,0,0,1-.038-.178,1.9,1.9,0,0,1,.753,1.275A3.261,3.261,0,0,1,64.6,273.4a3.875,3.875,0,0,1-1.856.1c-.054-.005-.145-.005-.151-.081-.005-.1.1-.081.156-.108C62.909,273.237,63.118,273.264,63.2,273.065Z" transform="translate(-59.157 -253.922)" fill="#6b6b6b"/>
    <path id="Tracé_237" data-name="Tracé 237" d="M666,76.746a3.352,3.352,0,0,1,1.275-.522,13,13,0,0,0,1.259-.377,2.136,2.136,0,0,0,1.431-1.636c.334-1.458.7-2.906,1.06-4.353.048-.194.113-.366.355-.371.129-.005.2.016.156.183-.409,1.62-.8,3.25-1.221,4.864a2.222,2.222,0,0,1-1.663,1.63C667.776,76.413,666.872,76.488,666,76.746Z" transform="translate(-630.092 -65.712)" fill="#6b6b6b"/>
    <path id="Tracé_238" data-name="Tracé 238" d="M595.366,18.877c-.005,1.108-.011,2.217-.005,3.325a6.138,6.138,0,0,1-.183,1.851l.005-.005c-.048-.011-.054.022-.059.059l.005-.005a3.277,3.277,0,0,1-1.426,1.162,17.859,17.859,0,0,0-2.271,1.076.234.234,0,0,0-.032-.038,2.794,2.794,0,0,1,.882-.64c.538-.3,1.114-.527,1.641-.861a1.961,1.961,0,0,0,1-1.8c-.021-1.647-.005-3.3-.005-4.95,0-.178.005-.344.2-.425.161-.07.253-.059.248.156C595.36,18.14,595.366,18.511,595.366,18.877Z" transform="translate(-559.506 -16.603)" fill="#6b6b6b"/>
    <path id="Tracé_239" data-name="Tracé 239" d="M841.175,341.894c-.339-.011-.457-.108-.495-.43a36.278,36.278,0,0,1-.1-3.826c0-.231.135-.312.344-.312.43,0,.861-.016,1.286,0a.653.653,0,0,0,.737-.479,1.589,1.589,0,0,0,.479-.038c.113-.027.178-.011.135.129s-.065.264-.1.387a.577.577,0,0,1-.646.479c-.457,0-.915,0-1.372.005-.226,0-.339.1-.334.344C841.122,339.4,841.068,340.651,841.175,341.894Z" transform="translate(-795.275 -318.64)" fill="#6b6b6b"/>
    <path id="Tracé_240" data-name="Tracé 240" d="M151.377,356.375h1.528c.328,0,.4-.059.382-.393-.081-1.491-.027-2.986-.048-4.477,0-.086-.059-.226.054-.258.081-.022.172.075.231.156.081.108.161.215.242.317a9.249,9.249,0,0,0-.027,1.5c.005,1.1.022,2.2.048,3.3.005.258-.075.35-.339.339-.543-.016-1.092-.005-1.641-.005C151.313,356.848,151.313,356.848,151.377,356.375Z" transform="translate(-143.133 -332.308)" fill="#6b6b6b"/>
    <path id="Tracé_241" data-name="Tracé 241" d="M307.793,200.294l-.4-.016a.108.108,0,0,1-.118-.086.1.1,0,0,1,.086-.118c.113-.038.221-.065.334-.1a13.618,13.618,0,0,0,3.46-1.431c.3-.167.3-.167.43.145a.811.811,0,0,0,.054.091c.005.038.005.07.011.108.135.63.022.829-.592,1.039-.091.032-.188.059-.28.086A10.112,10.112,0,0,1,307.793,200.294Z" transform="translate(-290.664 -187.721)"/>
    <path id="Tracé_242" data-name="Tracé 242" d="M405.906,76.863a21.944,21.944,0,0,0-2.567-.533A2.183,2.183,0,0,1,401.59,74.8c-.5-1.566-.958-3.148-1.437-4.719-.043-.151.016-.178.135-.178.291.005.393.2.463.441.2.721.4,1.447.6,2.169.178.635.377,1.27.533,1.91a2.2,2.2,0,0,0,1.673,1.706c.533.145,1.082.248,1.614.387A1.544,1.544,0,0,1,405.906,76.863Z" transform="translate(-378.537 -66.103)" fill="#6b6b6b"/>
    <path id="Tracé_243" data-name="Tracé 243" d="M338.989,342.06c-.377-.022-.5-.14-.527-.5-.113-1.254-.038-2.507-.065-3.756-.005-.248.135-.312.339-.312.43-.005.861-.016,1.291,0a.635.635,0,0,0,.716-.474,2.034,2.034,0,0,0,.479-.043c.124-.038.172.011.14.135-.038.14-.065.28-.108.414a.564.564,0,0,1-.619.447c-.441.005-.877,0-1.318.005-.355.005-.42.075-.42.43,0,1.076-.022,2.152.048,3.223C338.952,341.775,338.973,341.915,338.989,342.06Z" transform="translate(-320.117 -318.801)" fill="#6b6b6b"/>
    <path id="Tracé_244" data-name="Tracé 244" d="M217.445,273.267a2.682,2.682,0,0,0-.845-.457,2.849,2.849,0,0,0,2.26-1.378,3.173,3.173,0,0,0,.237-2.906c-.027-.075-.091-.135-.059-.226a1.451,1.451,0,0,1,.624.866,3.073,3.073,0,0,1-2.115,4.068C217.509,273.245,217.477,273.256,217.445,273.267Z" transform="translate(-204.874 -253.828)" fill="#6b6b6b"/>
    <path id="Tracé_245" data-name="Tracé 245" d="M305.883,423.7c1.474,0,2.943.005,4.418.005.409,0,.474-.048.56-.441.022-.1.043-.21.065-.312.242-.1.361-.334.549-.549a1.827,1.827,0,0,1-.022.92c-.194,1.065-.108.872-1.017.872-1.361,0-2.717-.011-4.079-.016C305.877,424.176,305.877,424.176,305.883,423.7Z" transform="translate(-289.351 -399.636)" fill="#6b6b6b"/>
    <path id="Tracé_246" data-name="Tracé 246" d="M808.549,424.27c1.458,0,2.911.005,4.369.005.49,0,.484,0,.608-.474.021-.091-.005-.2.07-.28a.954.954,0,0,0,.291-.237c.075-.1.151-.194.226-.285.108.075.081.172.075.258a7.3,7.3,0,0,1-.194,1.221.333.333,0,0,1-.377.3c-1.6-.011-3.191-.022-4.789-.022C808.447,424.749,808.571,424.469,808.549,424.27Z" transform="translate(-764.968 -400.203)" fill="#6b6b6b"/>
    <path id="Tracé_247" data-name="Tracé 247" d="M339.133,265.678a1.644,1.644,0,0,0-.533.167v-.667c.005-.9.005-1.808.043-2.707.011-.253.108-.371.366-.382a5.3,5.3,0,0,1,1.571.059,1.163,1.163,0,0,1,.872.587,4.944,4.944,0,0,0-1.883-.161c-.334.016-.414.086-.42.42C339.138,263.891,339.138,264.784,339.133,265.678Z" transform="translate(-320.309 -247.923)" fill="#6b6b6b"/>
    <path id="Tracé_248" data-name="Tracé 248" d="M841.313,265.691a1.054,1.054,0,0,0-.382.118c-.135.081-.172.032-.161-.108.081-.979.022-1.964.048-2.949v-.215c.016-.339.1-.42.441-.436a4.751,4.751,0,0,1,1.512.065,1.137,1.137,0,0,1,.888.608,4.663,4.663,0,0,0-2.018-.172c-.2.011-.291.145-.3.344C841.34,263.862,841.324,264.776,841.313,265.691Z" transform="translate(-795.456 -247.936)" fill="#6b6b6b"/>
    <path id="Tracé_249" data-name="Tracé 249" d="M517.4.762a9.627,9.627,0,0,1,7.366.016A20.3,20.3,0,0,0,517.4.762Z" transform="translate(-489.488 0)" fill="#6b6b6b"/>
    <path id="Tracé_250" data-name="Tracé 250" d="M975.662,264.6v.694l-.032.016c-.07-.156-.145-.312-.21-.474l-2.777-6.683A1.323,1.323,0,0,1,972.6,258a1.206,1.206,0,0,1,.608.748c.377.877.743,1.76,1.108,2.642.414,1,.829,2,1.243,3A2,2,0,0,0,975.662,264.6Z" transform="translate(-920.194 -244.082)" fill="#6b6b6b"/>
    <path id="Tracé_251" data-name="Tracé 251" d="M413.78,28.8c.161.1.361-.016.522.081a15.32,15.32,0,0,0-6.3,1.717c-.091.043-.178.118-.307.043a7.7,7.7,0,0,1,2.508-1.367,9.18,9.18,0,0,1,3.3-.474C413.6,28.8,413.689,28.8,413.78,28.8Z" transform="translate(-385.691 -27.208)" fill="#6b6b6b"/>
    <path id="Tracé_252" data-name="Tracé 252" d="M459.328,261.333a1.934,1.934,0,0,1-.823-1.91,1.082,1.082,0,0,1,1.173-.608,2.482,2.482,0,0,1,1.534.683.344.344,0,0,1,.054.118,2.658,2.658,0,0,0-1.286-.3.959.959,0,0,0-.947,1.361A4.4,4.4,0,0,0,459.328,261.333Z" transform="translate(-433.719 -244.848)" fill="#6b6b6b"/>
    <path id="Tracé_253" data-name="Tracé 253" d="M314.07,205.344a9.8,9.8,0,0,0,2.986-.285c.1-.027.188-.054.28-.086.613-.21.726-.409.592-1.039a.663.663,0,0,1-.011-.108c.1-.065.167-.1.242.059.387.834.237,1.195-.64,1.447a10.7,10.7,0,0,1-3.433.307c-.07-.005-.156-.005-.178-.091C313.87,205.425,314.048,205.446,314.07,205.344Z" transform="translate(-296.941 -192.771)" fill="#6b6b6b"/>
    <path id="Tracé_254" data-name="Tracé 254" d="M676.183,35.752c-.043.032-.086.011-.124-.011a12.2,12.2,0,0,0-4.638-1.491.823.823,0,0,1-.156-.038.583.583,0,0,1-.065-.081,6.37,6.37,0,0,1,4.9,1.517c.027.032.054.07.086.1Z" transform="translate(-635.012 -32.246)" fill="#6b6b6b"/>
    <path id="Tracé_255" data-name="Tracé 255" d="M261.3,479.8c.366.135.694.361,1.065.484a6.194,6.194,0,0,0,2.427.3c.135.07.264.145.4.215.07.038.172.054.156.156-.022.118-.135.124-.237.129a6.645,6.645,0,0,1-1.308-.075c-.113-.022-.226-.048-.339-.07-.016-.005-.032-.005-.048-.011a4.745,4.745,0,0,1-2-.99C261.37,479.9,261.311,479.875,261.3,479.8Z" transform="translate(-247.168 -453.947)" fill="#6b6b6b"/>
    <path id="Tracé_256" data-name="Tracé 256" d="M248.69,379.946c-.253-.091-.355-.334-.5-.522a15.141,15.141,0,0,1-1.56-2.68,11.877,11.877,0,0,0-1.017-1.851c-.043-.059-.086-.118-.059-.194a4.789,4.789,0,0,1,1.017,1.394c.43.813.834,1.636,1.248,2.454C248.066,379.037,248.41,379.473,248.69,379.946Z" transform="translate(-232.261 -354.502)" fill="#6b6b6b"/>
    <path id="Tracé_257" data-name="Tracé 257" d="M1075.7,264.948a2.24,2.24,0,0,1,.974-.317c.183-.032.371-.032.554-.054.2-.027.334.016.3.264a2.161,2.161,0,0,0-.005.264,3.146,3.146,0,0,0-1.044.194,1.417,1.417,0,0,0-.775.71Z" transform="translate(-1017.746 -250.298)" fill="#6b6b6b"/>
    <path id="Tracé_258" data-name="Tracé 258" d="M1194.792,258.208c-.032-.436-.065-.872-.092-1.308.431.027.441.022.5.452a8.283,8.283,0,0,1,.1,1.4C1195.1,258.536,1195,258.321,1194.792,258.208Z" transform="translate(-1130.343 -243.041)" fill="#6b6b6b"/>
    <path id="Tracé_259" data-name="Tracé 259" d="M518.3,257.743c0-.414.005-.829.005-1.243.393.054.479.135.49.522s0,.8,0,1.27C518.607,258.077,518.456,257.91,518.3,257.743Z" transform="translate(-490.34 -242.663)" fill="#6b6b6b"/>
    <path id="Tracé_260" data-name="Tracé 260" d="M395.832,256.789a8.781,8.781,0,0,0-.032-1.189c.425.005.479.048.511.463.027.344.032.694.048,1.039,0,.059.011.14-.054.167s-.1-.054-.135-.108A2.457,2.457,0,0,0,395.832,256.789Z" transform="translate(-374.431 -241.811)" fill="#6b6b6b"/>
    <path id="Tracé_261" data-name="Tracé 261" d="M898.632,256.884c-.011-.393-.022-.791-.032-1.184.414,0,.441.032.5.447a8.428,8.428,0,0,1,.043,1.044c0,.059.032.14-.038.167-.091.038-.108-.07-.151-.113C898.842,257.126,898.74,257,898.632,256.884Z" transform="translate(-850.176 -241.906)" fill="#6b6b6b"/>
    <path id="Tracé_262" data-name="Tracé 262" d="M627.761,166.937c-.576-.608-1.108-1.238-1.722-1.792-.038-.032-.113-.081-.043-.124s.167-.151.285-.086a1,1,0,0,1,.145.118,7.377,7.377,0,0,1,1.3,1.668A.26.26,0,0,1,627.761,166.937Z" transform="translate(-592.213 -156.005)" fill="#6b6b6b"/>
    <path id="Tracé_263" data-name="Tracé 263" d="M555.128,158.74h0c.032-.043.091-.07.059-.14v.005a1.732,1.732,0,0,1,.635.377,3.464,3.464,0,0,1,.866.839c-.118-.081-.231-.167-.355-.242-.355-.221-.716-.436-1.071-.662C555.2,158.88,555.053,158.885,555.128,158.74Z" transform="translate(-525.166 -150.03)" fill="#6b6b6b"/>
    <path id="Tracé_264" data-name="Tracé 264" d="M474.717,305.756a.144.144,0,0,1-.124-.156A.256.256,0,0,1,474.717,305.756Z" transform="translate(-448.984 -289.12)" fill="#917631"/>
    <path id="Tracé_265" data-name="Tracé 265" d="M259.629,266.129c-.091.005-.108-.065-.129-.129C259.554,266.032,259.629,266.048,259.629,266.129Z" transform="translate(-245.465 -251.651)" fill="#917631"/>
    <path id="Tracé_266" data-name="Tracé 266" d="M258.7,477.5a.093.093,0,0,1,.091.075A.1.1,0,0,1,258.7,477.5Z" transform="translate(-244.708 -451.771)" fill="#927733"/>
    <path id="Tracé_267" data-name="Tracé 267" d="M509.481,339.8a.1.1,0,0,1-.081-.1A.116.116,0,0,1,509.481,339.8Z" transform="translate(-481.918 -321.386)" fill="#917631"/>
    <path id="Tracé_268" data-name="Tracé 268" d="M121.386,266.886c-.065.005-.07-.043-.086-.086C121.348,266.811,121.381,266.832,121.386,266.886Z" transform="translate(-114.702 -252.408)" fill="#927733"/>
    <path id="Tracé_269" data-name="Tracé 269" d="M306.67,475.565a.08.08,0,0,1-.07-.065A.08.08,0,0,1,306.67,475.565Z" transform="translate(-290.031 -449.878)" fill="#927733"/>
    <path id="Tracé_270" data-name="Tracé 270" d="M260.3,478.9a.057.057,0,0,1,.065.054A.057.057,0,0,1,260.3,478.9Z" transform="translate(-246.222 -453.095)" fill="#927733"/>
    <path id="Tracé_271" data-name="Tracé 271" d="M664,205.1h.016l-.005.011Z" transform="translate(-628.2 -194.028)" fill="#937b38"/>
    <path id="Tracé_272" data-name="Tracé 272" d="M590.81,179.543c-.022.005-.059.022-.065.011-.022-.027,0-.043.027-.054A.27.27,0,0,1,590.81,179.543Z" transform="translate(-558.878 -169.806)" fill="#937b38"/>
    <path id="Tracé_273" data-name="Tracé 273" d="M758.759,275.459a.615.615,0,0,0-.059-.059C758.738,275.405,758.759,275.422,758.759,275.459Z" transform="translate(-717.804 -260.546)" fill="#917631"/>
    <path id="Tracé_274" data-name="Tracé 274" d="M759.759,276.459c-.038,0-.054-.022-.059-.059C759.738,276.405,759.765,276.416,759.759,276.459Z" transform="translate(-718.75 -261.492)" fill="#917631"/>
    <path id="Tracé_275" data-name="Tracé 275" d="M763.7,64.6a.028.028,0,0,1,.011.022v.011c-.005-.016-.005-.027-.011-.032Z" transform="translate(-722.535 -61.088)" fill="#937b38"/>
    <path id="Tracé_276" data-name="Tracé 276" d="M757.759,274.459l-.059-.059Z" transform="translate(-716.858 -259.599)" fill="#917631"/>
    <path id="Tracé_277" data-name="Tracé 277" d="M476.765,308.465l-.065-.065Z" transform="translate(-450.978 -291.77)" fill="#917631"/>
    <path id="Tracé_278" data-name="Tracé 278" d="M511.6,274.6c.016.016.038.027.054.043A.211.211,0,0,0,511.6,274.6Z" transform="translate(-484 -259.789)" fill="#917631"/>
    <path id="Tracé_279" data-name="Tracé 279" d="M391.5,274.6l.059.043Z" transform="translate(-370.363 -259.789)" fill="#917631"/>
    <path id="Tracé_280" data-name="Tracé 280" d="M510.759,341.365a.065.065,0,0,1-.059-.065C510.738,341.311,510.759,341.327,510.759,341.365Z" transform="translate(-483.148 -322.9)" fill="#917631"/>
    <path id="Tracé_281" data-name="Tracé 281" d="M511.854,342.465a.057.057,0,0,1-.054-.065C511.838,342.405,511.854,342.422,511.854,342.465Z" transform="translate(-484.189 -323.94)" fill="#917631"/>
    <path id="Tracé_282" data-name="Tracé 282" d="M512.754,343.559a.055.055,0,0,1-.054-.059A.048.048,0,0,1,512.754,343.559Z" transform="translate(-485.041 -324.981)" fill="#917631"/>
    <path id="Tracé_283" data-name="Tracé 283" d="M510.5,273.7a.054.054,0,0,1,.059.048A.054.054,0,0,1,510.5,273.7Z" transform="translate(-482.959 -258.937)" fill="#917631"/>
    <path id="Tracé_284" data-name="Tracé 284" d="M242.559,371.275a.067.067,0,0,1-.059-.075Z" transform="translate(-229.38 -351.191)" fill="#927733"/>
    <path id="Tracé_285" data-name="Tracé 285" d="M243.654,372.654a.048.048,0,0,1-.054-.054A.048.048,0,0,1,243.654,372.654Z" transform="translate(-230.421 -352.515)" fill="#927733"/>
    <path id="Tracé_286" data-name="Tracé 286" d="M244.654,373.654c-.038,0-.054-.016-.054-.054A.048.048,0,0,1,244.654,373.654Z" transform="translate(-231.367 -353.461)" fill="#927733"/>
    <path id="Tracé_287" data-name="Tracé 287" d="M303.992,472.359c-.043.005-.059-.016-.048-.059C303.981,472.305,304,472.322,303.992,472.359Z" transform="translate(-287.514 -446.85)" fill="#927733"/>
    <path id="Tracé_288" data-name="Tracé 288" d="M304.839,473.365c-.038,0-.059-.022-.054-.065C304.829,473.305,304.839,473.327,304.839,473.365Z" transform="translate(-288.313 -447.797)" fill="#927733"/>
    <path id="Tracé_289" data-name="Tracé 289" d="M305.754,474.559a.055.055,0,0,1-.054-.059C305.743,474.5,305.754,474.522,305.754,474.559Z" transform="translate(-289.179 -448.932)" fill="#927733"/>
    <path id="Tracé_290" data-name="Tracé 290" d="M159.769,480.557a9.749,9.749,0,0,0-1.447-.49.467.467,0,0,1-.226-.178,11.517,11.517,0,0,0-4.644-3.062c-.086-.032-.172-.1-.312,0a13.9,13.9,0,0,1,4.585,3.089,6.725,6.725,0,0,1-3.7-1.469c-.689-.517-1.313-1.114-1.953-1.684a5.822,5.822,0,0,0-1.119-.834c-.07-.038-.161-.07-.135-.172.022-.086.118-.07.183-.081a4.045,4.045,0,0,1,1.415.1,11.872,11.872,0,0,1,5,2.427,14.956,14.956,0,0,1,2.395,2.308A.2.2,0,0,1,159.769,480.557Z" transform="translate(-142.624 -450.017)" fill="#6b6b6b"/>
    <path id="Tracé_291" data-name="Tracé 291" d="M848.5,480.721a13.845,13.845,0,0,1,7.124-4.7,4.85,4.85,0,0,1,1.625-.167c.086.005.226-.016.253.1s-.1.151-.188.2a10.334,10.334,0,0,0-1.765,1.442,12.244,12.244,0,0,1-2.556,1.862,6.829,6.829,0,0,1-2.33.656,6.935,6.935,0,0,1,2.088-1.781,17.071,17.071,0,0,1,2.47-1.308.284.284,0,0,0-.323-.016,11.506,11.506,0,0,0-4.692,3.089c-.059.065-.108.14-.2.156a11.036,11.036,0,0,0-1.474.5C848.516,480.737,848.511,480.726,848.5,480.721Z" transform="translate(-802.772 -450.197)" fill="#6b6b6b"/>
    <path id="Tracé_292" data-name="Tracé 292" d="M605.2,598.581a6.22,6.22,0,0,1,1.055-.135,21.7,21.7,0,0,0,4.138-.877c.011,0,.016-.005.027-.005.075-.048.237-.043.2-.172-.027-.1-.161-.038-.237-.016a36.625,36.625,0,0,1-4.364.877c-.355.054-.71.075-1.071.108-.1.011-.215.016-.258-.086s.065-.156.124-.215a5.049,5.049,0,0,1,2.518-1.189,11.242,11.242,0,0,1,2.943-.135,9.83,9.83,0,0,0,2.351-.151c.091-.016.2-.091.264.016s-.048.183-.113.253A5.5,5.5,0,0,1,611,598.081a9.137,9.137,0,0,1-3.96.829,7.3,7.3,0,0,1-1.6-.2A.341.341,0,0,1,605.2,598.581Z" transform="translate(-572.073 -564.409)" fill="#6b6b6b"/>
    <path id="Tracé_293" data-name="Tracé 293" d="M417.051,598.721a1.109,1.109,0,0,1-.587.172,8.536,8.536,0,0,1-6.586-1.539,2.323,2.323,0,0,1-.474-.474c-.038-.054-.07-.108-.038-.172s.1-.048.145-.032a15.928,15.928,0,0,0,3.853.151,7.927,7.927,0,0,1,2.529.43,4.15,4.15,0,0,1,1.534.909c.065.059.161.113.124.215s-.156.1-.253.091a30.481,30.481,0,0,1-4.235-.694c-.4-.091-.8-.2-1.2-.291-.075-.016-.2-.086-.231.027s.108.129.188.151a21.71,21.71,0,0,0,2.97.721c.678.113,1.367.183,2.05.258C416.917,598.657,416.992,598.641,417.051,598.721Z" transform="translate(-387.256 -564.522)" fill="#6b6b6b"/>
    <path id="Tracé_294" data-name="Tracé 294" d="M810.4,562.023c-1.367.576-2.621,1.248-3.966,1.722a10.715,10.715,0,0,1-2.992.576,6.114,6.114,0,0,1-1.367.011c-.086-.016-.2-.005-.221-.113-.021-.124.1-.161.188-.188a2.507,2.507,0,0,1,.447-.081,14.6,14.6,0,0,0,4.558-1.044.624.624,0,0,0,.323-.226c-.1-.075-.183-.016-.269.011a17.443,17.443,0,0,1-3.379.839c-.3.038-.608.054-.909.075-.059.005-.135.005-.156-.07s.048-.086.091-.118a8.088,8.088,0,0,1,5.715-1.754A9.214,9.214,0,0,1,810.4,562.023Z" transform="translate(-758.636 -531.37)" fill="#6b6b6b"/>
    <path id="Tracé_295" data-name="Tracé 295" d="M206.4,562.177a6.167,6.167,0,0,1,1.534-.328,7.732,7.732,0,0,1,4.708.845,14.866,14.866,0,0,1,1.361.861c.054.038.151.075.118.156s-.124.059-.194.059a11.967,11.967,0,0,1-2.54-.409c-.581-.151-1.157-.312-1.722-.517-.081-.027-.194-.1-.231,0s.1.129.178.161a14.975,14.975,0,0,0,2.637.823,13.5,13.5,0,0,0,2.179.291c.188.011.5.016.49.226s-.317.161-.5.167a11.69,11.69,0,0,1-4.9-.931C208.5,563.113,207.471,562.65,206.4,562.177Z" transform="translate(-195.223 -531.519)" fill="#6b6b6b"/>
    <path id="Tracé_296" data-name="Tracé 296" d="M307.4,520.827a1.623,1.623,0,0,1-.436-.016c-.14-.016-.312-.07-.425-.011-.312.161-.517-.027-.748-.167a31.054,31.054,0,0,1-3.1-2.163c-.065-.048-.129-.1-.2-.14-.016-.011-.048-.005-.1-.011a1.146,1.146,0,0,0,.339.387,23.035,23.035,0,0,0,3.137,2.3,2.077,2.077,0,0,1,.764.791,1.831,1.831,0,0,1-.856-.14,7.573,7.573,0,0,1-3.756-2.873,9.115,9.115,0,0,1-.839-1.437c-.022-.048-.048-.1-.065-.145-.027-.086-.065-.183.011-.253.091-.081.167.016.237.059a5.784,5.784,0,0,0,1.367.737,12.13,12.13,0,0,1,2.389,1.092A8.8,8.8,0,0,1,307.4,520.827Z" transform="translate(-284.804 -489.071)" fill="#6b6b6b"/>
    <path id="Tracé_297" data-name="Tracé 297" d="M748.8,521.609a2.113,2.113,0,0,1,.592-.667,22.878,22.878,0,0,0,3.433-2.534.566.566,0,0,0,.2-.264c-.129-.021-.194.075-.274.135a33.331,33.331,0,0,1-3.406,2.352.3.3,0,0,1-.318.032.967.967,0,0,0-.554-.027c-.14.016-.274.027-.474.048a8.234,8.234,0,0,1,1.426-1.415,10.254,10.254,0,0,1,2.949-1.577,6.26,6.26,0,0,0,1.668-.85c.07-.048.145-.14.237-.081s.059.183.022.269a7.892,7.892,0,0,1-4.891,4.52,2.213,2.213,0,0,1-.42.075A.2.2,0,0,1,748.8,521.609Z" transform="translate(-707.68 -488.901)" fill="#6b6b6b"/>
    <path id="Tracé_298" data-name="Tracé 298" d="M326.358,619.588a18.4,18.4,0,0,1-2.179-.005c-.716-.054-1.431-.086-2.2-.129a1.272,1.272,0,0,0,.592.167,31.639,31.639,0,0,0,4.342.28c.194,0,.393.032.587.048.065.005.145.016.161.075.022.086-.075.108-.14.14a5.513,5.513,0,0,1-1.372.371,8.111,8.111,0,0,1-3.977-.3,8.242,8.242,0,0,0-2.416-.457c-.075,0-.183.016-.2-.086s.086-.129.151-.167a7.364,7.364,0,0,1,4.321-.9A4.609,4.609,0,0,1,326.358,619.588Z" transform="translate(-302.282 -585.271)" fill="#6b6b6b"/>
    <path id="Tracé_299" data-name="Tracé 299" d="M697.154,619.413a4.8,4.8,0,0,1,2.115-.952,7.267,7.267,0,0,1,4.547.829l.118.065c.054.032.129.059.118.129-.011.1-.1.091-.172.091a11.54,11.54,0,0,0-3.013.613,7.95,7.95,0,0,1-4.552-.135.736.736,0,0,1-.414-.231,1.33,1.33,0,0,1,.667-.124c1.012-.011,2.023-.043,3.035-.118.6-.043,1.195-.118,1.786-.221a.208.208,0,0,0,.183-.113A41.264,41.264,0,0,1,697.154,619.413Z" transform="translate(-658.383 -585.074)" fill="#6b6b6b"/>
    <path id="Tracé_300" data-name="Tracé 300" d="M475.378,643.1a6.958,6.958,0,0,0-1.361.662,6.7,6.7,0,0,0-.829.549c-.5.409-1.049.253-1.6.2-.108-.011-.129-.1-.048-.172a3.177,3.177,0,0,1,.328-.274,9.82,9.82,0,0,1,4.154-1.582c.194-.032.393-.048.587-.065.048-.005.113-.016.135.048s-.022.086-.054.113a7.277,7.277,0,0,0-1.69,2,.558.558,0,0,1-.57.274c-.274-.038-.549-.07-.823-.108-.1-.011-.221-.016-.253-.118-.043-.124.081-.188.167-.247a16.986,16.986,0,0,1,1.657-1.1A.375.375,0,0,0,475.378,643.1Z" transform="translate(-446.051 -607.819)" fill="#6b6b6b"/>
    <path id="Tracé_301" data-name="Tracé 301" d="M599.073,643.187c.032.113.14.129.221.178a17.8,17.8,0,0,1,1.609,1.076c.086.059.2.118.161.247-.038.108-.156.1-.253.118-.231.032-.463.065-.689.1a.683.683,0,0,1-.764-.366,8.006,8.006,0,0,0-1.028-1.372,3.81,3.81,0,0,0-.538-.484c-.054-.038-.14-.081-.1-.167.032-.07.113-.038.172-.032a10.107,10.107,0,0,1,1.792.328,9.224,9.224,0,0,1,2.852,1.286,2.259,2.259,0,0,1,.258.188c.07.065.194.118.156.226s-.172.07-.264.081-.161.016-.242.032a1.55,1.55,0,0,1-1.259-.307,8.635,8.635,0,0,0-1.835-1.055.328.328,0,0,0-.253-.081c0-.011-.005-.016-.005-.021a.074.074,0,0,0-.016.021C599.062,643.181,599.067,643.187,599.073,643.187Z" transform="translate(-565.451 -607.869)" fill="#6b6b6b"/>
    <path id="Tracé_302" data-name="Tracé 302" d="M869.805,530.611c-.011.022-.005.075-.043.059s0-.054.027-.07Z" transform="translate(-822.877 -502.013)" fill="#fefefe"/>
    <path id="Tracé_303" data-name="Tracé 303" d="M317.438,566.1c.022.022.07.032.043.07s-.059.005-.081-.027C317.411,566.132,317.422,566.116,317.438,566.1Z" transform="translate(-300.25 -535.603)" fill="#907831"/>
    <path id="Tracé_304" data-name="Tracé 304" d="M296.511,531.6c.005.011.016.022.022.032-.011-.005-.022-.016-.032-.021S296.511,531.6,296.511,531.6Z" transform="translate(-280.474 -502.96)" fill="#fefefe"/>
    <path id="Tracé_305" data-name="Tracé 305" d="M847.959,566.627c-.016.022-.038.038-.059.005l.032-.032C847.943,566.605,847.948,566.616,847.959,566.627Z" transform="translate(-802.204 -536.076)" fill="#907831"/>
    <path id="Tracé_306" data-name="Tracé 306" d="M188.235,259.424a1.918,1.918,0,0,0-.872-.1.434.434,0,0,0-.43.457c-.011.49-.027.985-.027,1.48-.005.764-.011,1.523-.011,2.287-.124.1-.274.048-.414.081-.118.027-.081-.113-.081-.178-.005-.624,0-1.254,0-1.878,0-.7,0-1.415.005-2.12,0-.436.108-.565.527-.624A1.273,1.273,0,0,1,188.235,259.424Z" transform="translate(-176.293 -244.855)" fill="#6b6b6b"/>
    <path id="Tracé_307" data-name="Tracé 307" d="M673.421,260.42a2.6,2.6,0,0,0-1.012-.231.434.434,0,0,0-.468.387,4.813,4.813,0,0,0-.07.56c-.1,2.68-.065,5.359.07,8.039-.4.022-.484-.059-.506-.463-.161-2.577-.113-5.155-.1-7.732a6.039,6.039,0,0,1,.054-.694c.059-.479.194-.6.683-.57A1.729,1.729,0,0,1,673.421,260.42Z" transform="translate(-635.124 -245.7)" fill="#6b6b6b"/>
    <path id="Tracé_308" data-name="Tracé 308" d="M710.37,272.859c-.032-.011-.065-.016-.07-.059A.074.074,0,0,1,710.37,272.859Z" transform="translate(-672.008 -258.085)" fill="#917631"/>
    <path id="Tracé_309" data-name="Tracé 309" d="M273.3,41.076a11.041,11.041,0,0,0,.931-1.141c.054-.086.161-.1.258-.135a10.677,10.677,0,0,0,4.246-3.072.338.338,0,0,0,.1-.274,13.093,13.093,0,0,1-4.283,3.019A5.471,5.471,0,0,1,276.4,37.18a20.149,20.149,0,0,1,2.6-1.4,4.422,4.422,0,0,0,.958-.635c.059-.048.124-.14.2-.1.1.048.054.161.043.242a3.973,3.973,0,0,1-.619,1.415,9.743,9.743,0,0,1-3.363,3.072,13.705,13.705,0,0,1-2.9,1.324A.054.054,0,0,1,273.3,41.076Z" transform="translate(-258.523 -33.114)" fill="#6b6b6b"/>
    <path id="Tracé_310" data-name="Tracé 310" d="M204,150.553a20.662,20.662,0,0,0-4.924,2.384,1.784,1.784,0,0,1,.409-.694,6.864,6.864,0,0,1,2.836-1.786,9.68,9.68,0,0,1,2.879-.468,3.048,3.048,0,0,1,.377.032c.065.005.129.022.14.1s-.038.113-.091.145c-.194.113-.393.221-.581.334a13.007,13.007,0,0,0-1.388,1.1,9.265,9.265,0,0,1-4.466,1.969c-.135.022-.344.091-.4-.032-.065-.151.151-.215.258-.285a31.17,31.17,0,0,1,4.611-2.529c.129-.059.253-.124.377-.183C204.027,150.612,204.011,150.58,204,150.553Z" transform="translate(-188.012 -141.881)" fill="#6b6b6b"/>
    <path id="Tracé_311" data-name="Tracé 311" d="M163.267,129.743a6.874,6.874,0,0,0-.845,1.517,12.687,12.687,0,0,0-.78,2c-.016.059-.011.161-.118.145a.238.238,0,0,1-.194-.167,1.749,1.749,0,0,1-.016-.85,6.676,6.676,0,0,1,1.636-3.471c.269-.3.527-.608.791-.915.043-.048.075-.145.161-.113s.07.118.07.188a9.078,9.078,0,0,1-.872,4.084,2.815,2.815,0,0,1-.764,1.087c-.124.091-.264.269-.414.161-.129-.091.022-.264.059-.387a23.892,23.892,0,0,1,1.238-3.056,1.292,1.292,0,0,0,.065-.2.288.288,0,0,0,.027-.059c0-.005-.011-.011-.016-.016A.288.288,0,0,1,163.267,129.743Z" transform="translate(-152.52 -120.963)" fill="#6b6b6b"/>
    <path id="Tracé_312" data-name="Tracé 312" d="M224.045,72.3a6.593,6.593,0,0,1-.581,2.007,6.319,6.319,0,0,1-2.265,2.631c-.183.129-.371.253-.56.371-.059.038-.124.113-.188.059s-.005-.135.022-.194a7.63,7.63,0,0,1,.85-1.367,12.5,12.5,0,0,1,1.162-1.34.331.331,0,0,0,.124-.21.405.405,0,0,0-.323.172,10.779,10.779,0,0,0-2.179,2.841,1.5,1.5,0,0,1-.237.387c-.054.054-.129.124-.21.07s-.048-.129-.027-.2.054-.151.081-.226a8.614,8.614,0,0,1,2.626-3.573C222.888,73.279,223.437,72.806,224.045,72.3Z" transform="translate(-207.724 -68.374)" fill="#6b6b6b"/>
    <path id="Tracé_313" data-name="Tracé 313" d="M215.722,158.3a.221.221,0,0,1,.016.043c0,.016-.016.027-.022.043-.005-.016-.016-.027-.016-.043S215.716,158.316,215.722,158.3Z" transform="translate(-204.022 -149.747)" fill="#fefefe"/>
    <path id="Tracé_314" data-name="Tracé 314" d="M272.281,147.327c-.022.032-.048.048-.081.016a.562.562,0,0,0,.059-.043C272.265,147.311,272.275,147.316,272.281,147.327Z" transform="translate(-257.482 -139.338)" fill="#907831"/>
    <path id="Tracé_315" data-name="Tracé 315" d="M771.732,40.73a7.13,7.13,0,0,1-1.571-.6,12.34,12.34,0,0,1-3.643-2.443,6.386,6.386,0,0,1-1.679-2.529c-.048-.156-.167-.377-.032-.474.156-.113.258.129.377.221a9.6,9.6,0,0,0,1.695.931,14.282,14.282,0,0,1,1.464.8,5.572,5.572,0,0,1,2.1,2.459,12.909,12.909,0,0,1-4.267-3.008c-.048.151.038.215.1.28a10.725,10.725,0,0,0,4.256,3.062.42.42,0,0,1,.247.145,7.355,7.355,0,0,0,.952,1.162Z" transform="translate(-723.523 -32.753)" fill="#6b6b6b"/>
    <path id="Tracé_316" data-name="Tracé 316" d="M840.668,150.38a2.255,2.255,0,0,0,.71.4,30.885,30.885,0,0,1,4.289,2.384c.032.022.059.038.086.059.065.059.188.1.151.194s-.156.065-.242.054a10.036,10.036,0,0,1-2.131-.527,10.189,10.189,0,0,1-3.056-1.91,6.806,6.806,0,0,0-1.34-.936c-.081-.043-.221-.065-.194-.188.022-.108.151-.124.247-.124a7.99,7.99,0,0,1,5.779,2.018,1.931,1.931,0,0,1,.581.861A19.985,19.985,0,0,0,840.668,150.38Z" transform="translate(-793.723 -141.687)" fill="#6b6b6b"/>
    <path id="Tracé_317" data-name="Tracé 317" d="M956.237,129.467c.258.587.522,1.173.78,1.76.242.56.436,1.135.624,1.711.021.07.1.156.005.221-.075.054-.156,0-.226-.038a1.793,1.793,0,0,1-.689-.7,8.094,8.094,0,0,1-1.1-3.8c-.005-.274-.032-.554-.043-.829,0-.059-.011-.135.07-.156.048-.016.081.022.113.054a8.516,8.516,0,0,1,2.421,4.133,4.106,4.106,0,0,1,.086.85.786.786,0,0,1-.048.291.238.238,0,0,1-.21.183c-.118,0-.1-.124-.124-.2a16.706,16.706,0,0,0-1.534-3.39c-.027-.043-.065-.081-.1-.124A.149.149,0,0,1,956.237,129.467Z" transform="translate(-904.1 -120.725)" fill="#6b6b6b"/>
    <path id="Tracé_318" data-name="Tracé 318" d="M866.647,74.5c-.027.145.081.188.145.253a11.584,11.584,0,0,1,1.9,2.524c.038.07.07.145.1.221.021.048.054.108.005.145s-.1-.005-.145-.032a6.809,6.809,0,0,1-3.062-3.476A6.172,6.172,0,0,1,865.2,72.6a3.423,3.423,0,0,1,.6.479c.667.554,1.345,1.1,1.959,1.717a8.4,8.4,0,0,1,1.819,2.89,1.012,1.012,0,0,1,.048.183.13.13,0,0,1-.048.145c-.059.038-.1,0-.145-.032a.789.789,0,0,1-.237-.323,10.643,10.643,0,0,0-2.206-2.922A.706.706,0,0,0,866.647,74.5Z" transform="translate(-818.573 -68.658)" fill="#6b6b6b"/>
    <path id="Tracé_319" data-name="Tracé 319" d="M950.743,158.343c-.005.016-.016.027-.022.043-.005-.016-.021-.027-.021-.043s.011-.027.021-.043A.161.161,0,0,0,950.743,158.343Z" transform="translate(-899.472 -149.747)" fill="#fefefe"/>
    <path id="Tracé_320" data-name="Tracé 320" d="M859.221,141.927c-.005,0-.011-.005-.022-.005l.022-.022.016.016C859.238,141.922,859.232,141.922,859.221,141.927Z" transform="translate(-812.896 -134.229)" fill="#fefefe"/>
    <path id="Tracé_321" data-name="Tracé 321" d="M858.6,84.6c.005.011.016.016.021.027a.02.02,0,0,1-.016-.005.056.056,0,0,1-.005-.022Z" transform="translate(-812.328 -80.012)" fill="#fefefe"/>
    <path id="Tracé_322" data-name="Tracé 322" d="M894.5,147.7c.005.005.011.005.016.011s0,.011.005.011a.042.042,0,0,0-.022-.022Z" transform="translate(-846.297 -139.717)" fill="#917831"/>
    <path id="Tracé_323" data-name="Tracé 323" d="M664.226,147.731c-.355-.274-.344-.269-.172-.624.2-.425.393-.856.587-1.281.032-.075.065-.145.1-.221.016.011.027.011.038-.005a10.38,10.38,0,0,0-.118,1.41,1.473,1.473,0,0,1,.022.506c-.054.172-.3.086-.43.194Z" transform="translate(-628.14 -137.73)"/>
    <path id="Tracé_324" data-name="Tracé 324" d="M677.5,78.024c-.35-.258-.35-.269-.178-.619a14.241,14.241,0,0,0,.608-1.334c.048-.011.027-.113.118-.081a6.841,6.841,0,0,0-.118,1.324,1.331,1.331,0,0,1,.027.5C677.883,77.986,677.63,77.905,677.5,78.024Z" transform="translate(-640.694 -71.859)"/>
    <path id="Tracé_325" data-name="Tracé 325" d="M706.37,115.872c-.3-.145-.355-.3-.226-.565.221-.447.447-.893.624-1.361.151-.113.1.027.1.081a6.838,6.838,0,0,0-.1,1.195,1.275,1.275,0,0,1,.027.447c-.054.172-.285.075-.4.183Z" transform="translate(-668.013 -107.738)"/>
    <path id="Tracé_326" data-name="Tracé 326" d="M673.8,64.5c-.28-.188-.344-.393-.194-.587a.414.414,0,0,1,.651-.011c.021.027.054.048.081.005h0c-.1.054-.005.108,0,.161C674.3,64.415,674.2,64.5,673.8,64.5Z" transform="translate(-637.217 -60.279)"/>
    <path id="Tracé_327" data-name="Tracé 327" d="M702.976,100.829c0,.355-.113.468-.5.479-.188-.1-.334-.215-.28-.457a.348.348,0,0,1,.312-.291A.4.4,0,0,1,702.976,100.829Z" transform="translate(-664.334 -95.106)"/>
    <path id="Tracé_328" data-name="Tracé 328" d="M687.609,54.391c.016-.016.038-.022.022-.059-.135-.307-.1-.474.129-.587s.409-.038.57.221c.021.339-.086.457-.452.49-.1.005-.161-.118-.269-.065Z" transform="translate(-650.485 -50.772)"/>
    <path id="Tracé_329" data-name="Tracé 329" d="M724.254,105.092c-.016-.086-.038-.172-.054-.258.032-.07.065-.135.1-.2a.7.7,0,0,1,.355-.129.482.482,0,0,1,.35.285c.016.355-.108.474-.506.484C724.41,105.2,724.329,105.151,724.254,105.092Z" transform="translate(-685.16 -98.841)"/>
    <path id="Tracé_330" data-name="Tracé 330" d="M682.834,139.475a.6.6,0,0,1-.323-.242c-.005-.07-.011-.14-.011-.21l.129-.21.307-.113a.513.513,0,0,1,.377.317C683.286,139.362,683.194,139.453,682.834,139.475Z" transform="translate(-645.704 -131.201)"/>
    <path id="Tracé_331" data-name="Tracé 331" d="M695.911,68.133c-.005-.086-.011-.172-.011-.258l.108-.156c.1-.038.2-.081.307-.118a.479.479,0,0,1,.387.328c-.027.323-.1.4-.436.447A.494.494,0,0,1,695.911,68.133Z" transform="translate(-658.383 -63.927)"/>
    <path id="Tracé_332" data-name="Tracé 332" d="M660.8,135.64c-.3-.075-.361-.285-.318-.554l-.005.005c.043.005.048-.027.059-.059l-.005.005c.328-.237.506-.21.726.108C661.287,135.484,661.169,135.608,660.8,135.64Z" transform="translate(-624.857 -127.587)"/>
    <path id="Tracé_333" data-name="Tracé 333" d="M716.076,91.407c-.183-.075-.334-.188-.312-.409a.361.361,0,0,1,.3-.334.426.426,0,0,1,.5.258C716.555,91.278,716.447,91.386,716.076,91.407Z" transform="translate(-677.176 -85.738)"/>
    <path id="Tracé_334" data-name="Tracé 334" d="M674.523,125.7c-.21-.054-.36-.167-.344-.409a.35.35,0,0,1,.318-.344.4.4,0,0,1,.474.3C674.949,125.581,674.873,125.656,674.523,125.7Z" transform="translate(-637.83 -118.179)"/>
    <path id="Tracé_335" data-name="Tracé 335" d="M431.146,52.464c.043.054.215-.016.145.145a1.66,1.66,0,0,1-.49.038c-.285-.161-.28-.441-.3-.716.011-.081-.011-.145-.1-.156a.219.219,0,0,0-.2.108c-.14.183-.091.393.151.678a8.449,8.449,0,0,1,1.012.952c.011.043.011.086.059.1l-.005-.005a.61.61,0,0,1-.2.743.686.686,0,0,0-.409.576c0,.027-.022.048-.038.07-.1.183-.043.3.145.366.151.183.371.167.576.183.124.011.231.022.242.172a1.872,1.872,0,0,0-.151.856c.016.194-.07.269-.242.307a1.976,1.976,0,0,0-.646.231c-.108.011-.2-.043-.172-.14.043-.14.048-.328.237-.387a.673.673,0,0,1,.1-.016c.377-.038.4-.075.387-.484-.022-.221-.194-.178-.323-.172a8.073,8.073,0,0,1-1.609.118l.005.005c.005-.038-.022-.043-.048-.048a.46.46,0,0,1-.242-.328v-.4a.582.582,0,0,0-.032.877L429,56.133l.059.059a.587.587,0,0,0,.355.151c.108.016.183.048.188.172a2.253,2.253,0,0,0-.172.673.252.252,0,0,1-.21.242c-.291.081-.581.178-.872.269-.081,0-.2.005-.183-.1a.462.462,0,0,1,.188-.334,1.164,1.164,0,0,1,.328-.1c.328-.059.393-.151.323-.5.011-.113-.043-.161-.156-.167a4.208,4.208,0,0,1-.775-.156c-.048-.043-.1-.081-.14-.124a.73.73,0,0,1,.086-1.189,2.767,2.767,0,0,1,.592-.3.587.587,0,0,0,.339-.108,4.919,4.919,0,0,1-.721-.118l.005.005c-.005-.043-.043-.048-.075-.054s-.054-.038-.081-.054c-.059-.059-.113-.183-.2-.151-.3.124-.57-.022-.85-.065l-.075-.043h-.011l-.005-.016v.005c-.113-.118-.2-.291-.414-.172-.188-.081-.237-.285-.371-.42-.065-.065.231-.264.361-.2a.7.7,0,0,1,.188.151,1.363,1.363,0,0,0,.361.274c.135.065.339.172.42.054s-.145-.161-.226-.226a4.339,4.339,0,0,1-.554-.748.46.46,0,0,0-.49-.161c-.269-.016-.183-.339-.366-.43-.022-.011.075-.086.129-.1a.752.752,0,0,1,.743.172,2.454,2.454,0,0,1,.463.613c.2.366.533.366.683-.011.065-.048.086-.113.027-.178-.086-.1-.178.016-.264,0a.225.225,0,0,1-.188-.269c.016,0,.027-.005.043-.005.242.108.312-.011.312-.231-.038-.161-.151-.2-.3-.178s-.188.108-.178.242c-.248-.086-.183-.328-.167-.474.016-.129.231-.172.387-.151.048.005.086.108.14.005s-.022-.124-.091-.156c-.022-.011-.043-.027-.086-.048a1.923,1.923,0,0,1,1.119-.49c.027,0,.07,0,.07.005.059.264.323.21.49.3a1.642,1.642,0,0,1,.56.527,2.718,2.718,0,0,0,.14.721c.032.1.054.226.188.258l-.005-.005c-.011.059.027.086.065.118a.724.724,0,0,1,.059.075c-.264.043-.457-.124-.71-.242.081.183.108.344.264.43l-.005-.005c.016.027.032.054.048.086.059.081.178.1.215.2a2.941,2.941,0,0,1-.64-.161.6.6,0,0,0,.215.3,1.1,1.1,0,0,0,.565.334,1.048,1.048,0,0,1,.463.2c.1.091.183.172.323.081a.375.375,0,0,0,.194-.409,1.011,1.011,0,0,0-.28-.479,7.933,7.933,0,0,1-.829-.872l-.1-.42c.048-.215.113-.425.366-.474a.457.457,0,0,1,.554.215c.011.016.027.032.043.054l-.005-.005A.794.794,0,0,0,431.146,52.464Z" transform="translate(-402.858 -48.22)" fill="#6b6b6b"/>
    <path id="Tracé_336" data-name="Tracé 336" d="M485.6,147.7" transform="translate(-459.399 -139.717)" fill="#f6eeea"/>
    <path id="Tracé_337" data-name="Tracé 337" d="M518.843,65.754a.477.477,0,0,1-.043-.054A.477.477,0,0,0,518.843,65.754Z" transform="translate(-490.813 -62.129)" fill="#f6eeea"/>
    <path id="Tracé_338" data-name="Tracé 338" d="M544.334,51.307c-.167.027-.247-.048-.28-.21-.048-.215-.108-.43-.167-.646-.011-.043-.027-.086.016-.118s.086-.005.124.011a.637.637,0,0,1,.274.35c.07.161.086.35.253.457a.059.059,0,0,1,.021.091C544.517,51.329,544.414,51.3,544.334,51.307Z" transform="translate(-514.538 -47.575)"/>
    <path id="Tracé_339" data-name="Tracé 339" d="M594.246,27.856a1.761,1.761,0,0,1-1.06-.161c-.011-.161.086-.221.226-.221s.28.005.414.011c.065.054.124.113.188.167.016.016.038.032.054.048l-.005-.005C594.074,27.808,594.192,27.792,594.246,27.856Z" transform="translate(-561.195 -25.959)"/>
    <path id="Tracé_340" data-name="Tracé 340" d="M593.1,92.626c.065.059.124.124.188.183.043.086.145.1.215.156a1.606,1.606,0,0,1-1-.156c0-.161.1-.221.237-.215C592.855,92.6,592.974,92.616,593.1,92.626Z" transform="translate(-560.547 -87.576)"/>
    <path id="Tracé_341" data-name="Tracé 341" d="M563.953,95.124c-.065-.2,0-.291.124-.334a.059.059,0,0,1,.086.038C564.19,94.979,564.023,94.979,563.953,95.124Z" transform="translate(-533.512 -89.648)"/>
    <path id="Tracé_342" data-name="Tracé 342" d="M555.168,94.7a.148.148,0,0,1,.135.151c.005.043-.005.108-.054.1a.239.239,0,0,1-.178-.178C555.06,94.716,555.1,94.7,555.168,94.7Z" transform="translate(-525.13 -89.569)"/>
    <path id="Tracé_343" data-name="Tracé 343" d="M608.654,30.848c-.016-.016-.038-.032-.054-.048C608.616,30.816,608.638,30.832,608.654,30.848Z" transform="translate(-575.781 -29.107)" fill="#f6eeea"/>
    <path id="Tracé_344" data-name="Tracé 344" d="M623.654,64.943a.211.211,0,0,0-.054-.043A.211.211,0,0,1,623.654,64.943Z" transform="translate(-589.973 -61.372)" fill="#f6eeea"/>
    <path id="Tracé_345" data-name="Tracé 345" d="M619.938,127.943c-.011-.016-.027-.027-.038-.043C619.916,127.916,619.927,127.932,619.938,127.943Z" transform="translate(-586.473 -120.982)" fill="#f6eeea"/>
    <path id="Tracé_346" data-name="Tracé 346" d="M546.975,21.058c-.07.161-.2.312-.048.506a.168.168,0,0,1-.059.215,5.3,5.3,0,0,0-.581.457c-.113.086-.237-.011-.35.038h0c.043-.091-.048-.081-.081-.113a2.06,2.06,0,0,0-.274-.21.344.344,0,0,1-.188-.35c.011-.183.124-.344.043-.554-.043-.113.07-.248.226-.091a.218.218,0,0,0,.242.065.818.818,0,0,1,.554.005.32.32,0,0,0,.328-.07C546.948,20.826,546.959,20.934,546.975,21.058Zm-.656.656c.054-.156.231-.151.2-.307a.069.069,0,0,0-.108-.038C546.3,21.423,546.232,21.51,546.319,21.714Zm-.35-.054c.048-.129.048-.226-.065-.291-.038-.022-.1-.022-.113.027C545.754,21.542,545.883,21.579,545.969,21.66Z" transform="translate(-515.974 -19.725)" fill="#6b6b6b"/>
    <path id="Tracé_347" data-name="Tracé 347" d="M623.122,655.227a.032.032,0,0,1-.022-.005.074.074,0,0,0,.016-.022.048.048,0,0,1,.005.027Z" transform="translate(-589.5 -619.909)" fill="#fce8a0"/>
    <path id="Tracé_348" data-name="Tracé 348" d="M198.4,161.459a.363.363,0,0,1,.038-.059l.016.016c-.005.022-.022.038-.027.059A.118.118,0,0,1,198.4,161.459Z" transform="translate(-187.653 -152.68)" fill="#fce8a0"/>
    <path id="Tracé_349" data-name="Tracé 349" d="M505.7,86.8" transform="translate(-478.418 -82.094)" fill="#f6eeea"/>
    <path id="Tracé_350" data-name="Tracé 350" d="M499.4,93.2" transform="translate(-472.457 -88.15)" fill="#f6eeea"/>
    <path id="Tracé_351" data-name="Tracé 351" d="M561.9,30.079c-.086-.2-.022-.291.1-.344.038-.016.1-.016.108.038C562.136,29.934,561.958,29.923,561.9,30.079Z" transform="translate(-531.56 -28.09)"/>
    <path id="Tracé_352" data-name="Tracé 352" d="M552.859,29.948c-.086-.081-.215-.113-.178-.264.011-.048.075-.048.113-.027C552.908,29.722,552.908,29.819,552.859,29.948Z" transform="translate(-522.865 -28.013)"/>
  </g>
</svg>
