<svg xmlns="http://www.w3.org/2000/svg" width="45.298" height="51.485" viewBox="0 0 45.298 51.485" style="fill: #FFF">
  <g id="Groupe_22" data-name="Groupe 22" transform="translate(0 -0.142)">
    <path id="Tracé_112" data-name="Tracé 112" d="M121.049,283.278c-.09.085-.18.171-.273.256-.064.059-.138.109-.195.173a.258.258,0,0,0,.007.363.215.215,0,0,0,.318.038,1.705,1.705,0,0,0,.32-.278,2.757,2.757,0,0,0,.569-1.16,3.06,3.06,0,0,0,.024-1.615,1.383,1.383,0,0,0-.365-.655,1.849,1.849,0,0,0-.221-.157.784.784,0,0,0,.012.4,3.359,3.359,0,0,1-.019,1.2,1.172,1.172,0,0,1-1.229.968,1.838,1.838,0,0,1-.849-.18,3.142,3.142,0,0,1-.292-.183c.007-.014.012-.028.019-.043.173.024.349.055.524.066a2.833,2.833,0,0,0,.4-.017.328.328,0,0,0,.111-.038.17.17,0,0,0,.121-.183c-.012-.1-.088-.121-.171-.128-.173-.017-.346-.028-.517-.05a3.053,3.053,0,0,1-1.26-.46c-.273-.173-.536-.363-.809-.541a1.778,1.778,0,0,0-1.112-.337c-.038,0-.076.009-.121.017,0,.154.173.149.23.259-.109.021-.206.038-.306.059a1.357,1.357,0,0,0-1.013.811,4.163,4.163,0,0,0-.275,1.027c-.05.28-.09.562-.149.84a2.067,2.067,0,0,1-.135.4.8.8,0,0,1-.9.5,2.4,2.4,0,0,1-.655-.19,2.923,2.923,0,0,1-.472-.27,4.763,4.763,0,0,0-1.622-.785.637.637,0,0,1,.453-.211,1.242,1.242,0,0,1,.716.114c.242.119.472.256.712.377.2.1.41.2.621.285a.389.389,0,0,0,.448-.138,1.534,1.534,0,0,0,.308-.88.671.671,0,0,0-.152.062,1.052,1.052,0,0,1-1.032.157c-.232-.076-.463-.161-.7-.232a2.247,2.247,0,0,0-1.12-.116.958.958,0,0,1-.171,0,1.18,1.18,0,0,1,.095-.145,1.35,1.35,0,0,1,1.283-.377c.149.021.3.045.446.055a1.034,1.034,0,0,0,.75-.237c.195-.161.375-.339.565-.505.254-.225.5-.463.771-.664a2.17,2.17,0,0,1,2.2-.3.325.325,0,0,0,.4-.074c.192-.185.4-.356.6-.531l.04.028c-.166.275-.33.55-.5.825.031.038.045.069.069.083a5.08,5.08,0,0,0,1.777.811,1.111,1.111,0,0,0,1.414-.852,3.313,3.313,0,0,0,.1-.629c.017-.2,0-.408,0-.638a.981.981,0,0,1,.149.074,2.578,2.578,0,0,1,1.2,1.855,2.875,2.875,0,0,1-1.108,2.747,1.892,1.892,0,0,1-1.5.358,3.739,3.739,0,0,1-1.229-.41c-.244-.13-.491-.256-.733-.387a.856.856,0,0,0-1.013.114,3.071,3.071,0,0,0-.538.531c.512.249,1.025.4,1.509.648-.161-.021-.325-.043-.486-.066-.406-.057-.814-.111-1.219-.176a.37.37,0,0,0-.339.111,3.126,3.126,0,0,1-1.226.745,2.518,2.518,0,0,1-1.627-.069c-.078-.028-.159-.052-.27-.09a1.587,1.587,0,0,0,.27.557c.024.036.095.05.147.057a1.985,1.985,0,0,0,.237,0h7.638c-1.777.821-3.572,1.594-5.356,2.408a.69.69,0,0,0,.519.083c.325-.057.652-.121.973-.2.482-.126.954-.287,1.435-.408a3.491,3.491,0,0,1,2.009.024,2.55,2.55,0,0,1,1.682,1.49,2.713,2.713,0,0,1-.081,2.187,2.041,2.041,0,0,1-.282.406.64.64,0,0,1-.209.152c-.218.1-.363.026-.372-.213s.014-.505.014-.757a3.77,3.77,0,0,0-.028-.636.945.945,0,0,0-.913-.814,1.892,1.892,0,0,0-1.245.289c-.413.275-.806.584-1.21.875-.107.078-.092.168-.052.27.164.4.327.8.474,1.219-.33-.337-.607-.719-.92-1.063-.332.173-.64.346-.958.5a2.2,2.2,0,0,1-1.029.157c.017.138.114.157.18.2q.989.587,1.981,1.172c.455.268.913.538,1.369.809a.378.378,0,0,1,.145.133h-2.443a2.389,2.389,0,0,0,.282,1.727c.071-.017.147-.036.235-.059a2.722,2.722,0,0,0,1.532.816,5.136,5.136,0,0,0,1.321.059l.185-.009a1.162,1.162,0,0,1-.031.166,2.061,2.061,0,0,1-1.556,1.324,4.217,4.217,0,0,1-2.711-.259,4.675,4.675,0,0,1-.42-.232c-.114.19.021.382-.04.584-.031-.059-.062-.109-.083-.161a11.247,11.247,0,0,0-.849-1.668,7.81,7.81,0,0,0-.591-.8,3.177,3.177,0,0,0-2.211-1.105c-.313-.031-.631-.036-.946-.05-.078,0-.154,0-.27,0a1.066,1.066,0,0,0,.085.168c.05.062.109.114.164.171l4.8,4.86c.038.038.076.078.133.14a1.019,1.019,0,0,1-.149,0c-.247-.05-.493-.107-.742-.157a2.269,2.269,0,0,0-.249-.021c.012.123.021.223.028.323a2.708,2.708,0,0,1-.154,1.048,5.4,5.4,0,0,1-1.573,2.386,1.6,1.6,0,0,1-1.091.519c.064-.114.1-.195.149-.27.145-.228.3-.446.434-.678a3.3,3.3,0,0,0,.427-1.2,1.8,1.8,0,0,0-.541-1.641,6.052,6.052,0,0,0-.766-.593c-.228-.157-.472-.289-.712-.427a2.768,2.768,0,0,1-.9-.859,8.508,8.508,0,0,1-.937-1.988c-.249-.7-.489-1.4-.731-2.1,0-.012,0-.029.012-.078a1.633,1.633,0,0,1,.2.209c.2.308.42.612.6.937.247.451.463.918.7,1.376.1.2.211.406.315.61a3.8,3.8,0,0,0,1.079,1.274c.375.289.752.579,1.11.89a5.666,5.666,0,0,1,.676.7,1.746,1.746,0,0,1,.4,1.416c-.024.164-.036.33-.064.493a1.79,1.79,0,0,1-.372.835c-.043.052-.076.114-.14.209.085-.009.138,0,.164-.021a1.71,1.71,0,0,0,.315-.282,3.967,3.967,0,0,0,.863-2.647,1.934,1.934,0,0,0-.662-1.4,4.566,4.566,0,0,0-.992-.645c-.318-.161-.638-.315-.954-.479a3.29,3.29,0,0,1-1.3-1.155c-.282-.446-.538-.911-.8-1.369-.09-.157-.176-.318-.259-.479a2.919,2.919,0,0,0-.937-1.082,4.183,4.183,0,0,1-1.2-1.236,3.333,3.333,0,0,1-.5-1.542c-.019-.306,0-.614-.007-.92a.41.41,0,0,0-.036-.2.677.677,0,0,0-.078.123,5.022,5.022,0,0,0-.332,2.113,3.674,3.674,0,0,0,.346,1.224c.045.1.09.2.142.3a7.92,7.92,0,0,1,.8,2.318,8.677,8.677,0,0,0,1.1,2.887c.064.109.133.216.206.318a3.076,3.076,0,0,0,1.2,1.089c-.109.019-.164.031-.221.038-.242.024-.251.028-.285.259-.038.266-.069.531-.1.8a4.156,4.156,0,0,1-.074.446c-.017-.417-.031-.835-.05-1.252-.009-.24-.012-.24-.237-.313a2.117,2.117,0,0,1-1.025-.773,5.445,5.445,0,0,1-.818-1.6c-.254-.757-.472-1.523-.716-2.282-.18-.562-.37-1.124-.574-1.679a2.232,2.232,0,0,0-.465-.766.509.509,0,0,0-.344-.206c.232.747.5,1.452.74,2.166s.5,1.433.747,2.149.5,1.433.745,2.149.5,1.433.745,2.149.5,1.43.759,2.185c-.085-.045-.14-.069-.187-.1q-1.117-.719-2.232-1.44c-.076-.05-.159-.093-.266-.154a1.61,1.61,0,0,0-.031.211,3.9,3.9,0,0,0,.173,1.12,1.877,1.877,0,0,0,.524.833c.04.038.081.076.123.111a1.585,1.585,0,0,1,.351,1.921,1.548,1.548,0,0,1-1.615.837,1.231,1.231,0,0,1-.311-.1.111.111,0,0,1-.055-.093.154.154,0,0,1,.088-.092,1.257,1.257,0,0,1,.232-.045c.047-.007.095,0,.142-.01.145-.026.285-.066.327-.23a.317.317,0,0,0-.157-.344,2.81,2.81,0,0,0-.32-.2c-.216-.116-.434-.228-.652-.339a2.453,2.453,0,0,1-1.378-2c-.021-.157-.036-.313-.057-.47-.012-.093-.031-.183-.052-.294-.192.095-.278.261-.4.387a4.859,4.859,0,0,1-.368.365c.123-.27.254-.538.365-.816.228-.572.439-1.15.664-1.722a.866.866,0,0,0-.211-.98c-.261-.275-.529-.543-.792-.816-.242-.249-.489-.5-.721-.754a2.465,2.465,0,0,1-.474-.733.788.788,0,0,0-.066-.114l-.05.007c0,.342,0,.686,0,1.027v6.324l-.045.014-1.81-2.631c-.038.123-.066.185-.078.249A2.6,2.6,0,0,1,97.2,304.9a4.9,4.9,0,0,1-2.683.206,1.778,1.778,0,0,1-.2-.064c.081-.071.14-.128.2-.178a6.191,6.191,0,0,0,1.131-1.11,1.946,1.946,0,0,0,.455-1.385,2.5,2.5,0,0,0-.171-.709c-.266-.607-.56-1.2-.844-1.8,0-.012-.026-.019-.071-.047-.415.249-.847.505-1.279.761a.217.217,0,0,0-.024-.021c.036-.045.069-.092.107-.135.308-.351.614-.7.925-1.048a.34.34,0,0,0,.09-.342,4.275,4.275,0,0,1-.109-1.058,2.107,2.107,0,0,1,.607-1.5c.216-.218.46-.408.7-.6.183-.152.38-.287.56-.439a1.575,1.575,0,0,0,.259-.275.847.847,0,0,0,.161-.759,2.352,2.352,0,0,0-.529-.927c-.069.093-.126.159-.173.235q-1.192,1.911-2.379,3.826l-2.754,4.431-.126.2a2.787,2.787,0,0,1,.04-.769c.012-.251.052-.5.081-.754s.059-.5.085-.752.05-.5.076-.754l.078-.754c.026-.249.052-.5.081-.759a.558.558,0,0,0-.159,0,11.431,11.431,0,0,0-1.589.678,1.707,1.707,0,0,0-.927,1.245,6.831,6.831,0,0,1-.439,1.473,2.4,2.4,0,0,1-.569.866,1.367,1.367,0,0,1-1.407.318,1.415,1.415,0,0,1-1.006-1.072,1.061,1.061,0,0,1,.935-1.293c.071-.009.142-.009.213-.019a.258.258,0,0,0,.235-.337,1.393,1.393,0,0,0-.142-.323c-.1-.18-.216-.351-.311-.531a1.573,1.573,0,0,1-.017-1.48,2.222,2.222,0,0,1,1.21-1.148c.432-.171.885-.287,1.326-.432.375-.123.752-.237,1.12-.379a2.615,2.615,0,0,0,.916-.621c.069-.071.123-.152.223-.275a13.029,13.029,0,0,0-1.364.114c-.429.036-.854.092-1.288.107.325-.09.65-.18.975-.273.607-.171,1.214-.346,1.826-.505a.394.394,0,0,0,.306-.287,6.606,6.606,0,0,0,.325-2.168.939.939,0,0,0-.026-.149c-.4.178-.761.406-1.134.6s-.733.406-1.1.607l-1.12.619-1.12.619c-.368.2-.733.406-1.1.607l-1.162.643c.043-.09.064-.145.093-.192l1.729-2.861c.047-.078.088-.159.13-.237-.014-.014-.028-.026-.045-.04-.066.047-.135.092-.2.142a6.212,6.212,0,0,1-1.16.733,3.016,3.016,0,0,1-1.276.315,2.16,2.16,0,0,1-.984-.221,7.041,7.041,0,0,1-.752-.446c-.211-.14-.406-.3-.6-.458a2.38,2.38,0,0,0-1.466-.638.384.384,0,0,1,.05-.306,1.162,1.162,0,0,1,1.454-.818c.38.066.754.173,1.127.27a.99.99,0,0,0,.8-.1,5.887,5.887,0,0,0,.771-.548c.351-.306.676-.64,1.013-.965a.969.969,0,0,0,.071-.1c-.42-.266-.861-.467-1.29-.7s-.868-.453-1.3-.681-.861-.453-1.279-.719h.254q4.8,0,9.607,0a5.032,5.032,0,0,0,.565-.045.938.938,0,0,0,.249-.074c.157-.066.3-.157.313-.349a.488.488,0,0,0-.232-.441.907.907,0,0,0-.586-.157c-.387.024-.771.057-1.153.112-.766.107-1.528.244-2.294.344a4.274,4.274,0,0,1-1.369-.007,3.249,3.249,0,0,1-1.587-.8.383.383,0,0,0-.427-.088c-.365.123-.735.223-1.112.313l1.084-.581c-.028-.057-.036-.09-.057-.109-.3-.287-.593-.593-.92-.854a2.037,2.037,0,0,0-2.014-.339c-.372.123-.726.306-1.086.463-.071.031-.138.074-.221.119a1.02,1.02,0,0,1-.173-.579,2.566,2.566,0,0,1,1.022-2.327,2.942,2.942,0,0,1,2.125-.714,2.358,2.358,0,0,1,1.181.384c.351.24.674.519,1.01.783a9.2,9.2,0,0,0,.733.56,1.316,1.316,0,0,0,1.333.069.9.9,0,0,0,.081-.047.564.564,0,0,0,.05-.057c-.055-.074-.109-.157-.173-.232q-1.213-1.413-2.429-2.823a2.486,2.486,0,0,1-.318-.429c1.606.79,3.214,1.58,4.856,2.389a1,1,0,0,0-.009-.192c-.18-.548-.368-1.093-.548-1.641a.306.306,0,0,0-.247-.221c-.422-.1-.84-.216-1.262-.327a.348.348,0,0,1-.152-.074l1.525.114a1.538,1.538,0,0,0-.043-.225,2.181,2.181,0,0,0-1.06-1.226A10.484,10.484,0,0,0,87.5,276.5c-.249-.1-.508-.178-.759-.268a2.4,2.4,0,0,1-1.554-1.781,2.321,2.321,0,0,1,.828-2.462A1.551,1.551,0,0,1,87.2,271.6a3.465,3.465,0,0,1,.4.088c-.05.138-.088.24-.123.342a2.377,2.377,0,0,0-.138,1.279,1.667,1.667,0,0,0,.731,1.093,2.871,2.871,0,0,0,1.945.444c.1-.01.2-.036.327-.059-.021-.1-.033-.183-.057-.261q-.317-1.082-.633-2.159a.258.258,0,0,1,.007-.178q3.163,3.213,6.35,6.445a1.925,1.925,0,0,1-2.545-.095,4.472,4.472,0,0,1-1.153-1.66c-.085-.194-.149-.4-.232-.6a3.223,3.223,0,0,0-.261-.529,1.387,1.387,0,0,0-1.134-.633,5.992,5.992,0,0,0-1.615.211c-.356.074-.712.14-1.072.178a4.076,4.076,0,0,1-.633-.031.5.5,0,0,0,.23.586,1.8,1.8,0,0,0,.41.178c.211.066.429.109.64.168a1.73,1.73,0,0,1,1.262,1.264c.088.318.13.65.195.973a4.05,4.05,0,0,0,.871,1.872,2.619,2.619,0,0,0,2.32,1c.062,0,.126,0,.19,0,.012,0,.024.014.05.031a.791.791,0,0,1-.581.311c-.306.036-.614.036-.92.052s-.617.012-.92.057a1.841,1.841,0,0,0-1.155.688c-.038.047-.066.1-.114.176a.542.542,0,0,0,.147.031,2.091,2.091,0,0,1,1.442.434c.292.228.555.493.825.747s.543.555.842.8a4.7,4.7,0,0,0,.707.427.421.421,0,0,0,.261.043.493.493,0,0,0-.076-.092,3.285,3.285,0,0,1-.856-.944c-.192-.3-.377-.6-.572-.9a2.051,2.051,0,0,0-.916-.811,1.476,1.476,0,0,1,.19-.024c.261.012.522.017.78.045a2.282,2.282,0,0,0,1.418-.266,1.423,1.423,0,0,0,.752-1.188c0-.045.009-.093.012-.14a.863.863,0,0,1,.626.7,1.018,1.018,0,0,1-.294.911c-.161.161-.346.3-.519.448-.138.119-.278.235-.406.363a.315.315,0,0,0-.107.315c.135-.069.256-.133.389-.2a1.537,1.537,0,0,0,.453,1.592c.093-.251-.033-.538.149-.8.055.085.1.154.145.223a1.711,1.711,0,0,0,1.105.792.37.37,0,0,0,.33-.045c-.107-.176-.221-.344-.315-.522a.972.972,0,0,1-.1-.6c.026-.2.085-.4.135-.619-.32-.007-.493.232-.723.427a.831.831,0,0,1,.168-.747,1.384,1.384,0,0,1,.306-.256c.1-.066.2-.121.159-.325a4.65,4.65,0,0,0,2.106.811c-.254.024-.47.033-.683.069a1.715,1.715,0,0,0-.425.14.536.536,0,0,0-.323.536.583.583,0,0,0,.351.548,1.214,1.214,0,0,0,.856.057,2.085,2.085,0,0,0,1.542-1.637,3,3,0,0,0,.064-1.224,1.874,1.874,0,0,1,0-.306.785.785,0,0,1,.538.066.224.224,0,0,1,.133.254c-.019.171-.05.342-.081.536.109.062.228.13.346.2-.033.358-.069.7-.095,1.048-.014.19-.028.379-.024.567,0,.228.059.3.28.346.168.038.344.05.515.076a.127.127,0,0,1,.1.064c-.066,0-.133.017-.2.017-.237,0-.474.012-.712,0a.553.553,0,0,0-.541.384.25.25,0,0,0,.187.382,4.247,4.247,0,0,0,1.528.128l.636-.081c-.064.076-.09.13-.128.145a2.419,2.419,0,0,1-.562.166,5.219,5.219,0,0,1-1.672-.1c-.045-.009-.09-.017-.142-.026a.355.355,0,0,0-.019.384,1.428,1.428,0,0,0,.223.332,2.99,2.99,0,0,0,1.02.678.587.587,0,0,0,.662-.1c.183-.159.38-.3.61-.486-.033.109-.05.166-.074.237a.681.681,0,0,0,.173,0,1.682,1.682,0,0,0,.638-.3.441.441,0,0,0,.009-.754.487.487,0,0,0-.121-.052.375.375,0,0,1,.621.171.46.46,0,0,1-.111.463,2.238,2.238,0,0,1-.406.325c-.292.171-.6.318-.9.482a5.62,5.62,0,0,0-.484.3.44.44,0,0,0-.2.408,1.935,1.935,0,0,0,.384,1.077.5.5,0,0,0,.339.194,2.475,2.475,0,0,0,1.079-.066.514.514,0,0,0,.327-.251,12.528,12.528,0,0,0,.892-1.829,1.007,1.007,0,0,0,.007-.761c-.261-.662-.522-1.321-.78-1.983-.012-.028-.026-.057-.038-.088-.126-.289-.085-.406.19-.553a.719.719,0,0,1,.107-.05l1.139-.361c-.057.085-.1.14-.13.2a3.211,3.211,0,0,0-.24.432.412.412,0,0,0,.256.593,2.156,2.156,0,0,0,.387.1c.114.024.232.033.382.055-.064.064-.107.1-.147.147a6.242,6.242,0,0,0-.479.491,1.2,1.2,0,0,0-.259,1.02.343.343,0,0,0,.289.315,3.369,3.369,0,0,1,2.18,1.734,6.075,6.075,0,0,1,.432.946c.223.657.408,1.328.619,1.99.147.458.3.913.477,1.364a3.956,3.956,0,0,0,.332.626,2.575,2.575,0,0,0,1.141,1,1.739,1.739,0,0,1-1.456-.517,2.946,2.946,0,0,1-.61-.98,8.192,8.192,0,0,1-.472-1.855c-.036-.218-.064-.436-.1-.655a.69.69,0,0,0-.057-.128c-.031.055-.055.076-.055.1a7.56,7.56,0,0,0,.04,2.03,3.346,3.346,0,0,0,1.032,1.853,2.065,2.065,0,0,0,1.442.51c.353,0,.709-.043,1.063-.062.489-.026.977-.074,1.466-.069a1.7,1.7,0,0,1,1.43.759,8.4,8.4,0,0,1,.436.733c.154.275.292.562.455.83a2.385,2.385,0,0,0,1.015.935,1.438,1.438,0,0,0,.178.064c.012,0,.028-.009.059-.021a.382.382,0,0,0-.055-.092,2.335,2.335,0,0,1-.619-1.1c-.09-.311-.176-.624-.282-.93a4.228,4.228,0,0,0-1.129-1.675,1.317,1.317,0,0,0-.671-.334c-.334-.059-.671-.095-1.006-.147s-.643-.09-.956-.166a2.959,2.959,0,0,1-1.644-1.1,8.685,8.685,0,0,1-1-1.77c-.3-.655-.6-1.307-.9-1.962-.062-.135-.135-.268-.206-.4a5.68,5.68,0,0,0-1.343-1.7,2.625,2.625,0,0,1,.946.607,6.163,6.163,0,0,1,1.155,1.554c.391.721.759,1.456,1.143,2.185.121.23.259.453.394.676a2.655,2.655,0,0,0,1.4,1.115,11.618,11.618,0,0,0,1.722.422c.315.066.633.135.944.221a1.893,1.893,0,0,1,1.345,1.29c.135.41.195.844.292,1.267.062.268.111.543.192.8a1.942,1.942,0,0,0,1.245,1.3,5.012,5.012,0,0,0,.612.178c.1.024.216.066.282-.083.017-.036.126-.045.192-.045a1.84,1.84,0,0,0,.745-.107,1.707,1.707,0,0,0,.363-.216.343.343,0,0,0,.116-.363,2.905,2.905,0,0,1-2.28-.368l-.031.045c.038.107.078.211.128.349a1.052,1.052,0,0,1-.171-.038,1.652,1.652,0,0,1-.792-.847,5.376,5.376,0,0,1-.337-1.134c-.107-.493-.2-.989-.334-1.478a1.735,1.735,0,0,0-1.319-1.3c-.434-.111-.88-.187-1.319-.282-.263-.057-.524-.111-.783-.185a3.41,3.41,0,0,1-1.995-1.4c-.4-.6-.766-1.217-1.139-1.831a11.661,11.661,0,0,0-1.724-2.315c-.275-.27-.579-.512-.871-.769-.052-.045-.107-.088-.183-.149a.785.785,0,0,1,.14-.057,2.5,2.5,0,0,1,1.9.4,5.958,5.958,0,0,1,1.378,1.3c.512.633,1,1.286,1.506,1.924a8.632,8.632,0,0,0,1.352,1.423,3.324,3.324,0,0,0,1.407.7,2.272,2.272,0,0,0,1.5-.178,6.764,6.764,0,0,0,1.3-.909c.365-.3.728-.61,1.105-.9a2.265,2.265,0,0,1,1.131-.512,2.5,2.5,0,0,1,1.535.278,1.72,1.72,0,0,1,.795,1.262,3.33,3.33,0,0,1-.093,1.615c-.021.071-.036.145-.055.218l.045.024c.045-.059.1-.114.135-.176a2.567,2.567,0,0,0,.216-2.277,1.95,1.95,0,0,0-1.039-1.089,3.232,3.232,0,0,0-2.374-.209c-.256.076-.508.173-.757.273a5.865,5.865,0,0,1-1.845.4,2.239,2.239,0,0,1-1.62-.55,5.961,5.961,0,0,1-.93-1.01c-.451-.6-.89-1.21-1.347-1.805a4.8,4.8,0,0,0-.908-.9,3,3,0,0,0-1.146-.548c-.055-.012-.107-.026-.159-.043,0,0-.007-.012-.021-.036a.729.729,0,0,1,.111-.1,1.268,1.268,0,0,1,1.117-.114,7.88,7.88,0,0,1,.92.427c.32.171.619.382.942.55a3.14,3.14,0,0,0,.7.273,1.329,1.329,0,0,0,1.321-.389,2.951,2.951,0,0,0,.6-.987c.135-.327.247-.667.375-1a2.757,2.757,0,0,1,.2-.451.765.765,0,0,1,1-.361,3.022,3.022,0,0,1,.686.365c.247.171.463.38.7.572a2.488,2.488,0,0,0,2.239.534,4.624,4.624,0,0,0,.55-.2A.131.131,0,0,0,121.049,283.278Zm-18.255,7.764a.518.518,0,0,0-.021.107c.019.052.04.1.064.152a3.389,3.389,0,0,1,.285,1.684,9.947,9.947,0,0,1-.327,1.67,7.6,7.6,0,0,0-.294,1.556,3.614,3.614,0,0,0,.875,2.607c.206.24.422.47.621.716a1.9,1.9,0,0,1,.4.925,3.544,3.544,0,0,1-.138,1.52c-.09.327-.19.652-.273.982a1.263,1.263,0,0,0,.09.811,1.624,1.624,0,0,0,.951.875c.27.109.55.195.823.3a3.573,3.573,0,0,1,.5.225.573.573,0,0,1,.32.588c-.007.066,0,.133,0,.249a.822.822,0,0,0,.033-1.075c-.135-.192-.306-.361-.458-.541a7.114,7.114,0,0,1-.557-.674,1.884,1.884,0,0,1-.28-1.4,4.2,4.2,0,0,1,.356-1.025c.128-.28.263-.557.384-.84a1.387,1.387,0,0,0-.109-1.338,4.5,4.5,0,0,0-.432-.565c-.166-.19-.365-.351-.529-.543-.235-.275-.458-.562-.671-.856a1.266,1.266,0,0,1-.228-.735c0-.214-.017-.427,0-.64.066-.771.145-1.539.213-2.31a5.309,5.309,0,0,0-.116-1.9,1.811,1.811,0,0,0-.467-.84,1.217,1.217,0,0,0-.171-.109c.045.128.071.2.093.273a6.647,6.647,0,0,1,.183.659,5.342,5.342,0,0,1-.074,1.978c-.138.7-.3,1.4-.417,2.113a3.354,3.354,0,0,0,.254,2.083.827.827,0,0,1,.028.111,1.909,1.909,0,0,1-.519-1.2,8.965,8.965,0,0,1,.216-2.234,8,8,0,0,0,.161-1.577,2.4,2.4,0,0,0-.484-1.482C103,291.243,102.906,291.16,102.794,291.041Zm-15.043,7.021a.566.566,0,0,1,.368-.221,2.345,2.345,0,0,1,.444-.059c.441-.019.885-.028,1.326-.045a6.277,6.277,0,0,0,2.989-.89,6.554,6.554,0,0,0,1.753-1.433,5.224,5.224,0,0,0,1.1-2.975,20.3,20.3,0,0,0-.024-2.6,4.472,4.472,0,0,1,.159-1.615.356.356,0,0,0,.007-.088.356.356,0,0,1-.04-.024.92.92,0,0,0-.138.2,5.728,5.728,0,0,0-.27.78,21.968,21.968,0,0,0-.285,2.493,11.141,11.141,0,0,1-.337,1.933A3.834,3.834,0,0,1,94.046,295c-.078.092-.171.173-.256.261.111-.339.256-.655.37-.98a12.128,12.128,0,0,0,.527-2.882c.062-.652.114-1.3.195-1.955a4.233,4.233,0,0,1,.683-1.947.412.412,0,0,0,.038-.111,2.072,2.072,0,0,0-.714.783,5.167,5.167,0,0,0-.515,1.319,23.5,23.5,0,0,0-.429,2.9c-.045.358-.121.714-.187,1.072a.588.588,0,0,1-.064.128,7.686,7.686,0,0,1-.109-.97,9.264,9.264,0,0,1,.209-2.73,5.815,5.815,0,0,1,1.5-2.887,1.526,1.526,0,0,0,.107-.138.207.207,0,0,0-.154.055c-.292.278-.6.538-.866.842A5.359,5.359,0,0,0,93.1,291.2c-.026.726.014,1.454.024,2.18a5.926,5.926,0,0,1-.107,1.39,3.379,3.379,0,0,1-.968,1.63,3.013,3.013,0,0,1-1.542.833,9.75,9.75,0,0,1-1.509.138c-.261.017-.522.021-.778.055a1.432,1.432,0,0,0-.887.406.66.66,0,0,0-.183.716c.081.221.187.434.287.648.111.235.242.463.344.7a1.507,1.507,0,0,1-.064,1.369,1.743,1.743,0,0,0-.078.195.263.263,0,0,0,.327-.121,2,2,0,0,0,.213-.42c.092-.275.166-.56.244-.84a4.579,4.579,0,0,1,.536-1.459c0-.007-.007-.026-.017-.066-.119.029-.24.052-.358.085a.17.17,0,0,1-.23-.1.791.791,0,0,0-.5-.41A1.141,1.141,0,0,0,87.751,298.063Zm10.069-8.032a.961.961,0,0,0-.009.455,5.542,5.542,0,0,0,.242.814c.135.318.313.621.479.925a6.231,6.231,0,0,1,.6,1.312,2.546,2.546,0,0,1,.114.982,1.794,1.794,0,0,1-.543,1.056c-.195.2-.406.375-.612.557-.3.261-.607.508-.89.783a2.117,2.117,0,0,0-.612,2.08,8.277,8.277,0,0,0,.522,1.471c.147.349.294.7.413,1.058a2.676,2.676,0,0,1-.043,1.857c-.123.315-.292.612-.439.918-.028.057-.052.116-.095.216a1.159,1.159,0,0,0,.164-.064c.133-.085.268-.168.4-.261a2.689,2.689,0,0,0,1.134-2.237c.009-.659-.123-1.3-.168-1.957a5.592,5.592,0,0,1,.007-1.179,3.646,3.646,0,0,1,.911-1.874c.3-.353.624-.693.944-1.032a2.57,2.57,0,0,0,.659-2.194,4.011,4.011,0,0,0-1.549-2.707c-.064-.05-.135-.09-.2-.135l-.047.043c.064.121.126.244.195.363a8.489,8.489,0,0,1,.792,1.639,2.737,2.737,0,0,1-.55,2.789c-.235.266-.484.522-.726.78a5.644,5.644,0,0,0-.778.982,2.542,2.542,0,0,0-.38,1.373,6.269,6.269,0,0,0,.173,1.169,6.316,6.316,0,0,1,.213,1.321c-.216-.455-.441-.916-.648-1.381a4.256,4.256,0,0,1-.242-.69,2.005,2.005,0,0,1,.477-2c.173-.183.356-.361.541-.531.344-.315.7-.612,1.034-.942a3.772,3.772,0,0,0,.522-.671,1.543,1.543,0,0,0,.211-1,2.856,2.856,0,0,0-.32-1.084c-.242-.444-.508-.873-.783-1.3a12.119,12.119,0,0,1-1-1.634A.508.508,0,0,1,97.82,290.031Zm-2.142,14.484c.017.024.031.047.047.074a.939.939,0,0,0,.183,0,1.626,1.626,0,0,0,1.236-.97,2.71,2.71,0,0,0-.074-2.467c-.187-.356-.406-.7-.607-1.044a3.389,3.389,0,0,1-.453-1.862,1.7,1.7,0,0,1,.425-1.105,4.4,4.4,0,0,1,.61-.56c.282-.213.6-.389.88-.6a6.3,6.3,0,0,0,.662-.569,1.131,1.131,0,0,0,.323-.7,1.782,1.782,0,0,0-.168-1.015,7.708,7.708,0,0,0-.463-.771c-.263-.394-.557-.769-.814-1.167a4.975,4.975,0,0,1-.792-2.282c-.019-.2-.04-.4-.064-.645a.893.893,0,0,0-.114.491,4.9,4.9,0,0,0,.868,3.572c.164.223.332.444.474.681a2.615,2.615,0,0,1,.3.64,1.043,1.043,0,0,1-.4,1.217c-.173.123-.356.235-.536.346-.275.173-.56.327-.823.515a2.356,2.356,0,0,0-1,1.947,2.98,2.98,0,0,0,.327,1.442c.2.4.415.8.624,1.2a3.311,3.311,0,0,1,.38,1.924,2.138,2.138,0,0,1-.9,1.646A.949.949,0,0,1,95.678,304.514Zm-11-23.452c-.114-.078-.194-.126-.266-.185a1.142,1.142,0,0,0-.5-.249,1.775,1.775,0,0,0-1.257.2.976.976,0,0,0-.311.28.34.34,0,0,0,.164.527.872.872,0,0,0,.323.057c.332.007.664,0,.994,0a1.114,1.114,0,0,1,.93.436c.095.126.2.242.289.375a2.913,2.913,0,0,0,1.544,1.193,2.49,2.49,0,0,0,1.649.076,1.378,1.378,0,0,0,.856-.733,1.641,1.641,0,0,0,.078-.278c-.083,0-.13,0-.176,0-.251.012-.5.038-.754.033a2.5,2.5,0,0,1-1.684-.652c-.2-.185-.384-.4-.572-.6-.128-.14-.247-.287-.38-.422a1.405,1.405,0,0,0-.643-.382,1.329,1.329,0,0,0-.242-.024C84.7,280.842,84.691,280.927,84.674,281.062Zm2.986,6.53a.719.719,0,0,1,.453-.206,1.735,1.735,0,0,1,.835.128c.372.152.742.313,1.115.465a2.6,2.6,0,0,0,1.153.218c.251-.017.505-.021.754-.057a2.6,2.6,0,0,0,1.067-.365,1.288,1.288,0,0,0,.579-.806.627.627,0,0,0-.007-.142,5.313,5.313,0,0,1-.562.346,3.9,3.9,0,0,1-2.832.27c-.422-.126-.842-.27-1.267-.387a2.328,2.328,0,0,0-1.169-.078,1.75,1.75,0,0,0-1.271,1.219c0,.009.014.024.028.045a.265.265,0,0,0,.085-.012,1.842,1.842,0,0,1,1.577.116c.24.119.47.261.7.389a9.753,9.753,0,0,0,.92.486,1.4,1.4,0,0,0,1.63-.339,1.635,1.635,0,0,0,.121-.166c-.126.019-.2.028-.275.04a2.24,2.24,0,0,1-.776.045,2.317,2.317,0,0,1-.875-.344c-.213-.138-.42-.282-.633-.42a2.312,2.312,0,0,0-1.146-.413A1.7,1.7,0,0,1,87.661,287.592Zm-1.5,2.166c.081-.047.121-.069.159-.095a1.407,1.407,0,0,1,.994-.206,6.8,6.8,0,0,1,1.331.408c.429.154.859.323,1.3.436a2.12,2.12,0,0,0,2.263-.709,4.975,4.975,0,0,0,.761-1.222.309.309,0,0,0,0-.107.317.317,0,0,0-.062.028c-.055.057-.107.116-.159.176a3.915,3.915,0,0,1-1.316.989,2.262,2.262,0,0,1-1.8.057c-.287-.111-.562-.251-.842-.377s-.527-.254-.8-.353a1.251,1.251,0,0,0-1.748.686,1.228,1.228,0,0,0-.071.149A.8.8,0,0,0,86.162,289.758Zm-2.706,1.928a.586.586,0,0,0,.349.707,1.348,1.348,0,0,0,.576.095,3.319,3.319,0,0,0,2.36-1.25,4.75,4.75,0,0,1,1.06-1.207c-.109-.045-.176-.083-.249-.1a1.269,1.269,0,0,0-1.094.128,7.068,7.068,0,0,0-.655.505c-.315.263-.612.548-.939.8a1.67,1.67,0,0,1-1.16.332A2.186,2.186,0,0,0,83.455,291.686Zm8.672,1.252a.57.57,0,0,0-.062-.012c-.05.1-.107.2-.152.3a6.884,6.884,0,0,1-.688,1.267,2.48,2.48,0,0,1-1.454.994c-.351.088-.7.195-1.041.315a5.56,5.56,0,0,0-1.513.771,2.348,2.348,0,0,0-.394.4.355.355,0,0,0,0,.46.378.378,0,0,0,.446.13,1.448,1.448,0,0,0,.365-.164c.268-.168.529-.346.79-.524a7.441,7.441,0,0,1,1.81-.973,2.425,2.425,0,0,0,.809-.484,3.339,3.339,0,0,0,1.089-2.2C92.137,293.133,92.127,293.036,92.127,292.939ZM88.2,285.386a5,5,0,0,0,1.29-.187,2.076,2.076,0,0,0,.574-.266.441.441,0,0,0-.047-.79,1.452,1.452,0,0,0-.4-.149,3.6,3.6,0,0,0-1.082-.055,4.589,4.589,0,0,0-1.4.3,1.566,1.566,0,0,0-.427.247.314.314,0,0,0,.019.553,1.346,1.346,0,0,0,.47.209C87.533,285.313,87.869,285.341,88.2,285.386Zm.733-10.254c0-.024,0-.047.007-.069a2.119,2.119,0,0,1-.235-.083,6.706,6.706,0,0,1-.771-.358,1.862,1.862,0,0,1-.856-1.148,2.053,2.053,0,0,1,.095-1.3c.031-.078.059-.157.1-.266a1.864,1.864,0,0,0-.308,0,1.07,1.07,0,0,0-.75.567,1.843,1.843,0,0,0,.892,2.564,2.96,2.96,0,0,0,.733.18A2.75,2.75,0,0,0,88.937,275.132ZM98.453,287c.009.04.007.076.026.095a4.162,4.162,0,0,0,1.112.662,2,2,0,0,1-.814,0c.223.434.629.5,1.037.61-.292.18-.565.014-.837.038a.5.5,0,0,0,.223.382,1.613,1.613,0,0,0,1,.368.529.529,0,0,0,.51-.275,2.251,2.251,0,0,0,.325-.906c.033-.228-.019-.313-.232-.4a8.08,8.08,0,0,0-1.691-.524A1.57,1.57,0,0,0,98.453,287Zm-8.4,10.1a3.214,3.214,0,0,0,.989-.268,2.678,2.678,0,0,0,1.134-.937.909.909,0,0,0,.2-.548c-.009-.268-.211-.41-.448-.292a2.5,2.5,0,0,0-.47.315,5.48,5.48,0,0,1-1.177.745c-.164.078-.325.161-.482.251a1.32,1.32,0,0,0-.249.178.233.233,0,0,0,.059.42A2.553,2.553,0,0,0,90.052,297.1Zm11.789-5.579c.047.119.081.2.111.273a3.327,3.327,0,0,1,.261,1.805c-.074.451-.18.9-.268,1.345a11.94,11.94,0,0,0-.211,1.186,3.388,3.388,0,0,0,.709,2.28.727.727,0,0,0,.1.09c.012-.033.024-.05.019-.062a.619.619,0,0,0-.038-.111,4.557,4.557,0,0,1-.211-2.808c.13-.576.275-1.153.358-1.736a2.717,2.717,0,0,0-.731-2.223C101.933,291.547,101.914,291.544,101.841,291.518Zm-20.772-.84c.095-.012.178-.031.261-.033a4.138,4.138,0,0,1,.515,0,2.668,2.668,0,0,1,1.1.413,1.464,1.464,0,0,0,.835.216,1.314,1.314,0,0,0,.806-.294.6.6,0,0,0,.059-.916c-.045.021-.1.04-.142.066a1.846,1.846,0,0,1-1.592.171c-.166-.052-.327-.121-.5-.159a2.466,2.466,0,0,0-.557-.078A.931.931,0,0,0,81.069,290.678Zm6.274,9c-.021.059-.038.109-.055.159-.055.157-.1.315-.168.467a.757.757,0,0,1-.337.387.663.663,0,0,1-.221.028.787.787,0,0,1,0-.2c.024-.1.043-.187-.033-.266s-.19-.05-.289-.026a.489.489,0,0,0-.109.047.826.826,0,0,0-.036,1.43.934.934,0,0,0,1.366-.337,1.621,1.621,0,0,0-.059-1.665C87.4,299.694,87.383,299.694,87.343,299.678Zm-6.189-16.4c.37-.14.7-.287,1.041-.389a2.139,2.139,0,0,1,1.1-.064c.349.081.69.185,1.037.28a.738.738,0,0,0-.24-.9,1.245,1.245,0,0,0-.425-.2,2.28,2.28,0,0,0-1.727.3,1.738,1.738,0,0,0-.7.726A1.976,1.976,0,0,0,81.154,283.278Zm32.869,2.206c0,.019.012.04.017.059a1,1,0,0,0,.223-.04,3.441,3.441,0,0,0,.491-.232,6.982,6.982,0,0,0,1.919-1.774,3.73,3.73,0,0,0,.289-.489.759.759,0,0,0,.074-.247.339.339,0,0,0-.173-.4.382.382,0,0,0-.463.055,1.839,1.839,0,0,0-.3.389c-.135.24-.244.5-.372.74-.173.327-.342.659-.543.97a2.281,2.281,0,0,1-1.041.9A.861.861,0,0,0,114.023,285.484Zm-6.552,7.47c.012-.031.024-.045.021-.059a.543.543,0,0,0-.028-.088,2.74,2.74,0,0,1-.209-1.084c0-.363.012-.726,0-1.089a8.241,8.241,0,0,0-.05-.873,2.162,2.162,0,0,0-.633-1.293.833.833,0,0,0-.147-.1.329.329,0,0,0-.014.078.442.442,0,0,0,.024.092,4.39,4.39,0,0,1,.2,2.078,2.9,2.9,0,0,0,.742,2.268A.552.552,0,0,0,107.472,292.953Zm13.5-3.1a2.225,2.225,0,0,0-.107-.214,1.553,1.553,0,0,0-1.622-.688,2.77,2.77,0,0,0-2.033,1.743.249.249,0,0,0-.031.114.619.619,0,0,0,.04.142.4.4,0,0,0,.088-.045c.055-.057.107-.116.157-.176a4.147,4.147,0,0,1,1.395-1.153,1.528,1.528,0,0,1,1.862.218A.2.2,0,0,0,120.969,289.848Zm-19.621-.446c-.5-.014-1-.031-1.506-.043a.762.762,0,0,0-.254.033c-.083.026-.111.1-.047.166a.473.473,0,0,0,.18.1c.114.033.23.052.346.078a6.139,6.139,0,0,0,2.861-.062.667.667,0,0,0,.216-.088c.1-.069.083-.173-.038-.209a.839.839,0,0,0-.256-.021C102.351,289.371,101.855,289.388,101.347,289.4Zm-10.7-2.277c0,.021,0,.04,0,.062.09.021.178.047.268.062a2.873,2.873,0,0,0,.987-.047,4.506,4.506,0,0,0,1.625-.621,1.883,1.883,0,0,0,.332-.3.189.189,0,0,0,.028-.242.218.218,0,0,0-.24-.114,1,1,0,0,0-.306.119c-.2.121-.4.261-.593.389a3.689,3.689,0,0,1-1.924.659A.881.881,0,0,0,90.652,287.125Zm15.411,19.256a.876.876,0,0,0,.315-.489.43.43,0,0,0-.232-.574,1.433,1.433,0,0,0-.308-.119c-.19-.055-.384-.09-.572-.147a4.047,4.047,0,0,1-.624-.218,3.977,3.977,0,0,1-.493-.356,1.238,1.238,0,0,0,.019.183,1.215,1.215,0,0,0,.973.9c.2.043.406.066.6.1.289.057.372.171.344.46C106.087,306.2,106.077,306.272,106.063,306.381Zm-5.615-19.42c0-.024.012-.045.017-.069-.085-.033-.171-.066-.256-.1a1.332,1.332,0,0,1-.6-.365.379.379,0,0,1,.04-.6c.052-.045.145-.076.095-.161a.287.287,0,0,0-.161-.116.486.486,0,0,0-.567.315.612.612,0,0,0,.178.671A1.609,1.609,0,0,0,100.448,286.961Zm1.134,5.923c.017-.012.036-.019.04-.031a.138.138,0,0,0,.014-.069,2.779,2.779,0,0,0-.567-1.6.923.923,0,0,0-.2-.192c-.126-.09-.223-.088-.3-.009a.209.209,0,0,0-.014.282,5.164,5.164,0,0,0,.315.441,3.369,3.369,0,0,1,.676,1.127A.14.14,0,0,0,101.582,292.884Zm12.261,2.944a.263.263,0,0,0,.088-.294.945.945,0,0,0-.657-.678.424.424,0,0,0-.27.019c-.149.062-.161.192-.038.294a1.074,1.074,0,0,0,.18.109A1.33,1.33,0,0,1,113.843,295.828Z" transform="translate(-78.661 -265.012)"/>
    <path id="Tracé_113" data-name="Tracé 113" d="M922.592,11.576a1.4,1.4,0,0,1-.669-1.563l-.05-.009c-.036.043-.088.078-.1.128a2.051,2.051,0,0,0,.126,1.824.842.842,0,0,0,.961.391c.1-.021.192-.05.289-.074a.382.382,0,0,1-.223.479.69.69,0,0,1-.463.036,1.523,1.523,0,0,1-.849-.569,2.6,2.6,0,0,1-.519-1.181,4.422,4.422,0,0,1,.19-2.424,3.6,3.6,0,0,1,.334-.652.382.382,0,0,0,.036-.394c-.171-.425-.33-.854-.493-1.283a.248.248,0,0,1-.024-.111c.3.372.529.788.833,1.193.071-.095.121-.154.161-.218a2.466,2.466,0,0,0,.337-2.04c-.121-.474-.263-.944-.37-1.421a3.138,3.138,0,0,1,0-1.6A2.679,2.679,0,0,1,924.075.233a3.118,3.118,0,0,1,1.682.059.793.793,0,0,1,.173.074.481.481,0,0,1,.145.818,3.368,3.368,0,0,1-.339.3c-.2.159-.4.308-.593.472a1.96,1.96,0,0,0-.669,1.789c.014.133.026.268.047.4a2.013,2.013,0,0,0,.538,1.086l.721.766c.7-.766,1.364-1.547,2.085-2.287-.916,2.586-1.834,5.169-2.763,7.79a1.027,1.027,0,0,1-.116-.142,2.216,2.216,0,0,1-.052-2.03c.123-.263.282-.512.429-.764.107-.185.225-.363.334-.546a1.661,1.661,0,0,0,.078-1.547,2.89,2.89,0,0,0-.505-.8c-.209-.247-.427-.486-.636-.735a2.439,2.439,0,0,1-.6-1.217,1.938,1.938,0,0,1,.764-1.966c.254-.187.541-.325.811-.489a1.78,1.78,0,0,0,.294-.2.269.269,0,0,0-.05-.458A.886.886,0,0,0,925.327.5a2.524,2.524,0,0,0-1.243.417,1.9,1.9,0,0,0-.892,2.059,4.227,4.227,0,0,0,.4,1.21,6.214,6.214,0,0,1,.5,1.3,2.528,2.528,0,0,1-.315,2c-.206.318-.434.621-.65.932-.171.247-.349.489-.505.745a2.231,2.231,0,0,0-.109,2.239C922.542,11.462,922.566,11.519,922.592,11.576Zm-1.084-1.535c.064-.159.116-.323.19-.474a4.109,4.109,0,0,1,.624-.861c.315-.365.64-.721.925-1.11a2.326,2.326,0,0,0,.427-1.8.693.693,0,0,0-.149-.434,1.606,1.606,0,0,0-.017.171,2.16,2.16,0,0,1-.358,1.233c-.154.247-.33.482-.5.719-.223.306-.46.6-.678.913a2.761,2.761,0,0,0-.477,1.075A.742.742,0,0,0,921.508,10.042Z" transform="translate(-899.159)"/>
    <path id="Tracé_114" data-name="Tracé 114" d="M534.17,50.255q.559-2.281,1.117-4.566h.04c.384,2.144.769,4.291,1.16,6.476a.832.832,0,0,1-.13-.074,3.913,3.913,0,0,0-1.167-.714c-.334-.145-.671-.28-1-.436a2.35,2.35,0,0,1-1.371-1.893,4.862,4.862,0,0,1,0-1.018,16.253,16.253,0,0,0,.116-2.009,4.272,4.272,0,0,0-.109-.795,1.881,1.881,0,0,0-1.4-1.43,4.256,4.256,0,0,0-1.385-.145.958.958,0,0,0-.14.024c-.012,0-.021.021-.038.04.038.078.121.083.19.109a3.371,3.371,0,0,1,.946.484,1.431,1.431,0,0,1,.588,1.52,5.491,5.491,0,0,1-.27.93c-.221.541-.474,1.067-.712,1.6a6,6,0,0,0-.467,1.437,2.438,2.438,0,0,0,.643,2.208,4.15,4.15,0,0,0,.873.688,3.491,3.491,0,0,1,1.037.89,1.95,1.95,0,0,1,.458,1.29.8.8,0,0,1-.149.444,1.043,1.043,0,0,1-.052-.164,2.078,2.078,0,0,0-.8-1.407,9.749,9.749,0,0,0-1.143-.759,3.354,3.354,0,0,1-1.632-2.227.719.719,0,0,0-.482-.588c-.294-.114-.572-.268-.856-.4a.355.355,0,0,1-.149-.114l1.371.266a1.2,1.2,0,0,0,.062-.2,7.4,7.4,0,0,1,.432-1.573,7.36,7.36,0,0,0,.415-1.5,2.288,2.288,0,0,0-.014-.871.634.634,0,0,0-.707-.56,7.622,7.622,0,0,0-.795.111c-.2.031-.4.078-.607.09-.292.014-.413-.1-.455-.4a.973.973,0,0,1,.256-.83,2,2,0,0,1,.714-.5,4.221,4.221,0,0,1,2.918-.178,2.433,2.433,0,0,1,.927.508,1.958,1.958,0,0,1,.7,1.428c.019.448-.014.9-.028,1.35-.019.64-.055,1.279-.059,1.919a2.112,2.112,0,0,0,.19.9,1.082,1.082,0,0,0,.811.659.358.358,0,0,0,.071,0A.252.252,0,0,1,534.17,50.255Zm-3.919-5.09a1.089,1.089,0,0,0-.7-.776,1.66,1.66,0,0,0-1.226.028,1.049,1.049,0,0,0-.254.168.249.249,0,0,0-.074.3.23.23,0,0,0,.275.13c.133-.021.266-.045.394-.078a1.857,1.857,0,0,1,1.4.159A1.727,1.727,0,0,0,530.251,45.164Z" transform="translate(-515.065 -42.17)"/>
    <path id="Tracé_115" data-name="Tracé 115" d="M1262.5,320.258a1.643,1.643,0,0,1,.135-.119,2.911,2.911,0,0,0,.75-.847c.083-.142.171-.285.254-.429a2.624,2.624,0,0,1,1.746-1.314c.3-.071.6-.152.892-.235a2.369,2.369,0,0,0,1.608-1.426,6.083,6.083,0,0,0,.384-1.364c.014-.085.031-.171.052-.3.073.228.135.413.211.648.088-.1.145-.157.2-.221a4.061,4.061,0,0,1,1.238-1.051,2.5,2.5,0,0,1,3.276.982.845.845,0,0,1,.142.693c-.161-.019-.316-.033-.467-.052a2.755,2.755,0,0,0-1.172.088,1.479,1.479,0,0,0-.923.8,3.668,3.668,0,0,0-.306,1.307c-.052.557-.093,1.117-.135,1.677,0,.045,0,.09.009.168.384.014.761,0,1.139.007s.742,0,1.127.033l-7.825,3.489a1.547,1.547,0,0,1,.076-.195,2.083,2.083,0,0,1,.83-.759,7.414,7.414,0,0,1,1.442-.534l.726-.221a3.978,3.978,0,0,0,1.4-.816,2.738,2.738,0,0,0,.9-1.8c.05-.351.069-.707.085-1.063a3.864,3.864,0,0,1,.159-1.027,1.642,1.642,0,0,1,1.041-1.12c.081-.028.2-.031.2-.166a.281.281,0,0,0-.195-.247.844.844,0,0,0-.581,0,5.6,5.6,0,0,0-.569.228,1.945,1.945,0,0,0-.192.1,1.39,1.39,0,0,1,.937-.946,1.5,1.5,0,0,1,.882.083,3.053,3.053,0,0,1,.837.486c.062.047.123.092.2.149.007-.04.019-.066.012-.078a2.354,2.354,0,0,0-1.12-1.084,1.623,1.623,0,0,0-1.482.1,2.392,2.392,0,0,0-1.274,1.708c-.078.427-.133.859-.194,1.288a5.382,5.382,0,0,1-.282,1.219,1.476,1.476,0,0,1-1.551.97,3.541,3.541,0,0,1-.823-.2c-.221-.064-.434-.145-.652-.214a1.066,1.066,0,0,0-.74.071,2.169,2.169,0,0,0-.835.648c-.192.23-.382.465-.581.688a.857.857,0,0,1-.866.251A.439.439,0,0,1,1262.5,320.258Zm5.847-4.217a1.459,1.459,0,0,0-.114.152,3.791,3.791,0,0,1-2.237,1.826c-.2.069-.406.133-.6.206a1.573,1.573,0,0,0-.23.128c.052.05.088.062.121.057a2.118,2.118,0,0,1,1.058.2,4.39,4.39,0,0,0,.51.19.925.925,0,0,0,.671-.031.4.4,0,0,0,.168-.612c-.026-.038-.052-.074-.083-.119.111-.145.221-.278.325-.417a2.731,2.731,0,0,0,.5-.961A.684.684,0,0,0,1268.347,316.041Z" transform="translate(-1232.553 -305.755)"/>
    <path id="Tracé_116" data-name="Tracé 116" d="M1092.426,107.337c.37-.19.738-.382,1.108-.572s.742-.38,1.131-.548c-.04.055-.076.111-.119.164q-1.971,2.551-3.945,5.1a9.282,9.282,0,0,1-1.039,1.26,5.2,5.2,0,0,1-.562.432.682.682,0,0,1-.453.13,5.039,5.039,0,0,0,.505-.353,3.363,3.363,0,0,0,1.224-2.521,3.019,3.019,0,0,1,.562-1.66,6.3,6.3,0,0,1,.693-.871,4.945,4.945,0,0,0,1.2-2.282,3.354,3.354,0,0,0,.095-1.364,2.174,2.174,0,0,0-1.3-1.72,1.686,1.686,0,0,0-.719-.2c.036.052.071.1.109.157a8.344,8.344,0,0,1,.617.866,1.421,1.421,0,0,1-.363,1.928,5.335,5.335,0,0,1-1.473.849c-.183.078-.365.149-.55.221a1.929,1.929,0,0,0-1.075.984,4.244,4.244,0,0,0-.384,1.312c-.081.538-.152,1.077-.228,1.615a1.722,1.722,0,0,1-.716,1.158,4.139,4.139,0,0,1-1.656.728,1.078,1.078,0,0,1-.185,0,1.943,1.943,0,0,1,.183-.254c.256-.244.522-.482.783-.723.185-.171.377-.337.553-.517a2.152,2.152,0,0,0,.586-1.243c.057-.415.093-.83.145-1.245a2.68,2.68,0,0,1,.311-1.013,1.913,1.913,0,0,1,.745-.747.389.389,0,0,0,.221-.4,9.292,9.292,0,0,1,.028-1.089c.116.382.232.761.351,1.155a.968.968,0,0,0,.2-.017,5.63,5.63,0,0,0,1.347-.572,2.765,2.765,0,0,0,.467-.363,1.085,1.085,0,0,0,.228-1.364,4.6,4.6,0,0,0-.432-.619c-.09-.121-.2-.225-.287-.346a2.073,2.073,0,0,1-.147-.268.3.3,0,0,1,.206-.427,1.148,1.148,0,0,1,.465-.038,2.457,2.457,0,0,1,2.052,1.891,3.7,3.7,0,0,1,.083,1.388,8.435,8.435,0,0,1-.171,1,2.635,2.635,0,0,1-.432.937C1092.4,107.3,1092.412,107.321,1092.426,107.337Z" transform="translate(-1059.166 -99.497)"/>
    <path id="Tracé_117" data-name="Tracé 117" d="M1233.8,825.837a1.8,1.8,0,0,1,.854-.133,3.076,3.076,0,0,1,1.677.712,7.134,7.134,0,0,1,1.212,1.3c.368.493.716,1,1.082,1.5.23.311.474.612.719.911a3.479,3.479,0,0,0,.351.351,1.721,1.721,0,0,0,1.691.417,3.525,3.525,0,0,0,.939-.382c.232-.135.46-.278.693-.413.114-.066.235-.123.356-.185.007.028.017.05.012.055q-.619.495-1.241.987a1.844,1.844,0,0,1-.161.1,2.538,2.538,0,0,1-2.963-.235,5.674,5.674,0,0,1-.8-.835c-.344-.444-.638-.923-.963-1.378-.3-.425-.6-.854-.932-1.255a4.077,4.077,0,0,0-2.137-1.418C1234.061,825.9,1233.931,825.868,1233.8,825.837Z" transform="translate(-1204.534 -805.973)"/>
    <path id="Tracé_118" data-name="Tracé 118" d="M562.3,1969.55v-.2c.066-.007.126-.017.187-.019.64,0,1.278,0,1.919,0a1.708,1.708,0,0,1,.695.126.941.941,0,0,1,.225,1.625,4.994,4.994,0,0,1-.451.294,1.867,1.867,0,0,1,.211.076,2.64,2.64,0,0,1,.434.237,1.19,1.19,0,0,1-.029,1.914,1.659,1.659,0,0,1-.88.315c-.417.029-.835.031-1.255.038-.282,0-.567,0-.866,0-.007-.074-.012-.133-.021-.225.109,0,.2,0,.294,0a.139.139,0,0,0,.164-.154c0-.047,0-.095,0-.142,0-1,0-2.007,0-3.01,0-.2-.012-.394-.031-.591-.024-.251-.062-.282-.308-.285C562.5,1969.547,562.414,1969.55,562.3,1969.55Zm1.267,1.921a.479.479,0,0,0-.019.1c0,.567,0,1.134.009,1.7a1.276,1.276,0,0,0,.036.232.192.192,0,0,0,.211.178c.228,0,.458.009.686-.012a.913.913,0,0,0,.835-.693,1.159,1.159,0,0,0-.683-1.395A2.354,2.354,0,0,0,563.567,1971.471Zm-.007-.244.963.064c.007,0,.017,0,.024,0a.768.768,0,0,0,.088-.028.878.878,0,0,0,.489-.854.793.793,0,0,0-.569-.764,3.092,3.092,0,0,0-.994-.04Z" transform="translate(-548.962 -1922.474)"/>
    <path id="Tracé_119" data-name="Tracé 119" d="M657.766,105.823a.483.483,0,0,1,.315.183c.13.149.247.308.377.455a3.008,3.008,0,0,0,.413.42.574.574,0,0,0,.84-.1.6.6,0,0,0-.123-.844,1.887,1.887,0,0,0-.716-.358c-.425-.119-.856-.216-1.281-.337-.325-.093-.65-.195-.968-.313a2.332,2.332,0,0,1-.992-.747,1.734,1.734,0,0,1-.334-1.71,8.628,8.628,0,0,1,.41-.98c.249-.529.524-1.044.768-1.575a3.432,3.432,0,0,0,.285-1.193,3.113,3.113,0,0,0-.147-1.122.829.829,0,0,1-.045-.2,1.548,1.548,0,0,1,.51.982,2.615,2.615,0,0,1-.135,1.238c-.206.546-.429,1.086-.655,1.625a7.53,7.53,0,0,0-.512,1.473,1.439,1.439,0,0,0,.712,1.637,3.852,3.852,0,0,0,.667.3c.6.228,1.222.432,1.824.667a3.062,3.062,0,0,1,.726.391,1.073,1.073,0,1,1-1.608,1.335,1.357,1.357,0,0,1-.109-.287C657.911,106.459,657.842,106.146,657.766,105.823Z" transform="translate(-639.66 -94.951)"/>
    <path id="Tracé_120" data-name="Tracé 120" d="M.185,1973.968v-.194l.408-.026a1.586,1.586,0,0,0,.031-.228q0-1.6,0-3.2a3.836,3.836,0,0,0-.031-.5c-.024-.2-.076-.24-.275-.244-.1,0-.2,0-.315,0v-.211c.081,0,.152-.012.221-.012.576,0,1.153,0,1.729,0a1.933,1.933,0,0,1,.742.128,1.168,1.168,0,0,1,.3,2.04,1.721,1.721,0,0,1-1.177.354c-.18,0-.361-.033-.553-.055a.7.7,0,0,0-.024.126c0,.451,0,.9.007,1.35a1.3,1.3,0,0,0,.009.166c.028.249.074.289.33.292h.249c0,.073.009.133.017.209C1.293,1973.968.745,1973.968.185,1973.968Zm1.075-2.4a1.423,1.423,0,0,0,.847.055.866.866,0,0,0,.709-.65.992.992,0,0,0-.294-1.058,1.588,1.588,0,0,0-1.264-.275C1.26,1970.293,1.26,1970.92,1.26,1971.572Z" transform="translate(0 -1922.503)"/>
    <path id="Tracé_121" data-name="Tracé 121" d="M255.4,1970.209c0-.09.007-.142.009-.209h1.668c0,.064.007.119.012.19-.069.007-.128.019-.187.019-.244.01-.249.007-.249.259,0,.861,0,1.722,0,2.583a2.1,2.1,0,0,0,.078.583,1.073,1.073,0,0,0,.913.79,1.894,1.894,0,0,0,.868-.062,1.2,1.2,0,0,0,.856-1.034,3.464,3.464,0,0,0,.045-.519q.007-.961,0-1.919a2.531,2.531,0,0,0-.043-.446c-.036-.187-.1-.23-.294-.233-.085,0-.171,0-.263,0V1970h1.3c0,.069,0,.126.009.2-.069.007-.121.014-.176.017-.235.01-.251.024-.254.266,0,.79,0,1.58,0,2.37a2.859,2.859,0,0,1-.055.588,1.577,1.577,0,0,1-1.333,1.276,2.574,2.574,0,0,1-1.06-.019,1.38,1.38,0,0,1-1.191-1.364q-.021-.285-.021-.569c0-.546,0-1.091,0-1.637,0-.2-.007-.4-.021-.593-.021-.282-.064-.318-.349-.32C255.583,1970.209,255.507,1970.209,255.4,1970.209Z" transform="translate(-249.342 -1923.133)"/>
    <path id="Tracé_122" data-name="Tracé 122" d="M1301.772,1967.709a1.828,1.828,0,0,1-.01.676c-.007.052-.085.109-.142.133a3.884,3.884,0,0,1-1.734.3,2.91,2.91,0,0,1-.991-.211,1.943,1.943,0,0,1-1.222-1.57,2.627,2.627,0,0,1,2.434-3.086,2.982,2.982,0,0,1,1.584.24,1.729,1.729,0,0,1-.078.581l-.078.045a.976.976,0,0,1-.036-.112c-.038-.206-.2-.3-.368-.368a2.015,2.015,0,0,0-2.434.726,2.422,2.422,0,0,0-.24,2.268,1.947,1.947,0,0,0,2.8.975.682.682,0,0,0,.394-.477C1301.66,1967.794,1301.712,1967.766,1301.772,1967.709Z" transform="translate(-1266.853 -1917.213)"/>
    <path id="Tracé_123" data-name="Tracé 123" d="M1786.1,1963.88a1.274,1.274,0,0,1-.026.624c-.059-.038-.081-.045-.083-.055-.078-.28-.3-.36-.553-.415a1.294,1.294,0,0,0-.814.052.787.787,0,0,0-.524.674.735.735,0,0,0,.4.747c.2.111.415.192.624.285s.453.187.671.3a1.248,1.248,0,0,1,.32,1.99,1.694,1.694,0,0,1-.991.515,3.14,3.14,0,0,1-1.383-.114.21.21,0,0,1-.185-.206c-.014-.164-.055-.327-.076-.491,0-.028.033-.09.05-.09.04,0,.1.021.114.05.142.448.529.531.913.6a1.469,1.469,0,0,0,.882-.109.857.857,0,0,0,.543-.721.792.792,0,0,0-.41-.818c-.244-.14-.512-.242-.771-.36a5.423,5.423,0,0,1-.557-.256,1.16,1.16,0,0,1-.019-2.042,2.114,2.114,0,0,1,1.779-.2A.268.268,0,0,1,1786.1,1963.88Z" transform="translate(-1741.178 -1917.01)"/>
    <path id="Tracé_124" data-name="Tracé 124" d="M827.9,1970.111v-.211h1.656c0,.064.012.121.019.2l-.4.028a.874.874,0,0,0-.033.183c0,1.16,0,2.322.017,3.482,0,.446.036.463.484.456.38-.007.757-.017,1.134-.043a1,1,0,0,0,.875-.441c.029.071.062.111.055.145-.05.2-.112.394-.171.6h-3.451v-.2l.4-.028a1.635,1.635,0,0,0,.028-.2q0-1.7-.007-3.411a1.955,1.955,0,0,0-.029-.354c-.031-.159-.078-.192-.244-.2C828.125,1970.109,828.016,1970.111,827.9,1970.111Z" transform="translate(-808.262 -1923.035)"/>
    <path id="Tracé_125" data-name="Tracé 125" d="M1184.237,1197.054c-.031-.007-.05-.007-.057-.017a3.356,3.356,0,0,0-1.3-.849c-.254-.107-.508-.221-.757-.339a2.991,2.991,0,0,1-1.288-1.186,7.858,7.858,0,0,1-.787-1.9c-.133-.455-.252-.913-.377-1.369a11.054,11.054,0,0,0-.776-2.2.464.464,0,0,1,.114.085,5.443,5.443,0,0,1,.522.785c.282.607.529,1.231.778,1.855.259.652.5,1.314.754,1.966.083.214.19.417.287.624a2.691,2.691,0,0,0,1.12,1.191c.261.149.531.278.792.427a6.088,6.088,0,0,1,.6.382A1.068,1.068,0,0,1,1184.237,1197.054Z" transform="translate(-1150.936 -1160.854)"/>
    <path id="Tracé_126" data-name="Tracé 126" d="M1352.666,537.8a1.061,1.061,0,0,1-.116.6,1.794,1.794,0,0,1-.546.645,5.365,5.365,0,0,1-1.226.659c-.467.192-.939.372-1.4.567-.232.1-.46.211-.681.33a2.67,2.67,0,0,0-.8.648.731.731,0,0,1,.012-.413,1.77,1.77,0,0,1,.958-1.3,5.53,5.53,0,0,1,1.39-.458c.3-.071.6-.135.9-.218A2.216,2.216,0,0,0,1352.666,537.8Z" transform="translate(-1315.89 -524.905)"/>
    <path id="Tracé_127" data-name="Tracé 127" d="M527.636,473.6a1.2,1.2,0,0,1,.671.565,2.654,2.654,0,0,1,.242.686c.085.448.13.9.195,1.357a2.874,2.874,0,0,0,.069.323,1.528,1.528,0,0,0,1.418,1.2c.133.014.266.036.4.052,0,0,.007.012.026.038a1.232,1.232,0,0,1-.842.446,1.633,1.633,0,0,1-1.848-1.656,9.126,9.126,0,0,1,.121-1.245c.024-.157.05-.311.062-.47a1.4,1.4,0,0,0-.382-1.108c-.043-.045-.085-.092-.128-.14C527.632,473.643,527.636,473.633,527.636,473.6Z" transform="translate(-515.119 -462.228)"/>
    <path id="Tracé_128" data-name="Tracé 128" d="M1166.082,238.1a1.637,1.637,0,0,1-.688.9c-.244.157-.508.292-.766.427a4.689,4.689,0,0,0-1.158.816,2.8,2.8,0,0,0-.835,1.736c-.052.493-.085.992-.145,1.485a3.493,3.493,0,0,1-.159.714,1.334,1.334,0,0,1-.816.84,1.762,1.762,0,0,1-.816.14c.073-.033.147-.069.223-.1a1.784,1.784,0,0,0,1.129-1.592c.036-.441.059-.882.095-1.324a3.646,3.646,0,0,1,.467-1.575,2.038,2.038,0,0,1,.7-.728c.242-.147.5-.278.747-.408.147-.076.3-.14.451-.209A4.059,4.059,0,0,0,1166.082,238.1Z" transform="translate(-1133.168 -232.314)"/>
    <path id="Tracé_129" data-name="Tracé 129" d="M1094.962,1974.388v.206H1093.3a.56.56,0,0,1-.014-.1.6.6,0,0,1,.017-.1l.4-.024a1.862,1.862,0,0,0,.026-.214q0-1.683-.007-3.366a2.223,2.223,0,0,0-.026-.377c-.028-.171-.081-.2-.256-.211l-.285-.007c-.007,0-.014-.007-.04-.019,0-.047-.01-.1-.017-.18h1.67c0,.057.01.119.017.195-.14.009-.256.017-.394.024a.791.791,0,0,0-.04.173q.007,1.8.017,3.6c0,.024,0,.048,0,.071.026.285.064.318.349.32C1094.8,1974.39,1094.865,1974.388,1094.962,1974.388Z" transform="translate(-1067.171 -1923.132)"/>
    <path id="Tracé_130" data-name="Tracé 130" d="M1591.36,1974.5v.2H1589.7c0-.062-.012-.121-.019-.214.109,0,.2,0,.294,0a.14.14,0,0,0,.161-.156c0-.047,0-.095,0-.142,0-1,0-1.99,0-2.986a6.307,6.307,0,0,0-.033-.638c-.021-.216-.071-.254-.284-.256-.095,0-.187,0-.3,0-.007-.071-.012-.128-.021-.206h1.677v.19c-.128.01-.251.021-.394.031a1.769,1.769,0,0,0-.021.213q0,1.694,0,3.387a1.955,1.955,0,0,0,.029.354c.031.173.078.2.256.209.047,0,.095,0,.142,0S1591.284,1974.49,1591.36,1974.5Z" transform="translate(-1551.797 -1923.23)"/>
    <path id="Tracé_131" data-name="Tracé 131" d="M713.5,598.84c-.012.453-.221.662-.629.664a2.368,2.368,0,0,1-.828-.183c-.244-.088-.489-.176-.733-.27a.825.825,0,0,0-.667.019c-.287.13-.569.273-.861.394a3.227,3.227,0,0,1-.6.2.66.66,0,0,1-.8-.733c.052.021.1.038.149.057.109.045.218.092.327.133a.153.153,0,0,0,.211-.093,2.406,2.406,0,0,1,1.748-1.281.8.8,0,0,1,.263-.017c-.088.031-.173.059-.261.093a1.867,1.867,0,0,0-.868.593.574.574,0,0,0-.149.413.255.255,0,0,0,.294.263.981.981,0,0,0,.273-.066c.2-.076.394-.164.591-.247a1.522,1.522,0,0,1,1.262.019c.142.066.289.128.436.185a.726.726,0,0,0,.74-.085C713.426,598.88,713.452,598.869,713.5,598.84Z" transform="translate(-691.58 -583.407)"/>
    <path id="Tracé_132" data-name="Tracé 132" d="M1043.8,673.757a1.346,1.346,0,0,1-.394.4,3.428,3.428,0,0,1-.977.465c-.427.14-.856.266-1.286.4a.473.473,0,0,1-.095,0,3.509,3.509,0,0,1-.1-.354,2.082,2.082,0,0,1,.007-.913,1.074,1.074,0,0,1,1.381-.766,1.328,1.328,0,0,1,.266.1c.363.192.721.389,1.079.586A1.211,1.211,0,0,1,1043.8,673.757Zm-1.236.681a.6.6,0,0,0,.339-.778.65.65,0,0,0-.816-.508c0,.021-.017.047-.01.066Q1042.324,673.827,1042.569,674.437Zm-.512.154q-.249-.566-.5-1.131a.573.573,0,0,0-.2.821A.549.549,0,0,0,1042.056,674.592Z" transform="translate(-1016.218 -656.839)"/>
    <path id="Tracé_133" data-name="Tracé 133" d="M749.3,673.553c.46-.247.873-.477,1.293-.69a1.125,1.125,0,0,1,.809-.092,1.036,1.036,0,0,1,.809.892,2.139,2.139,0,0,1-.076,1.029c-.014.043-.038.083-.064.145-.133-.045-.256-.09-.382-.128-.363-.111-.728-.214-1.086-.33a2.956,2.956,0,0,1-.963-.5C749.53,673.792,749.435,673.685,749.3,673.553Zm1.269.686c.166-.406.33-.8.486-1.191a.322.322,0,0,0,0-.107.665.665,0,0,0-.818.5A.61.61,0,0,0,750.569,674.238Zm1.008-1c-.078.209-.145.4-.225.586s-.185.375-.278.562a.551.551,0,0,0,.709-.3A.593.593,0,0,0,751.577,673.24Z" transform="translate(-731.526 -656.637)"/>
    <path id="Tracé_134" data-name="Tracé 134" d="M1206.3,288.354a.63.63,0,0,1,.064-.047,1.863,1.863,0,0,0,1.108-1.468c.067-.372.093-.752.145-1.127.057-.4.1-.8.192-1.188a2.269,2.269,0,0,1,.923-1.364c.273-.19.55-.37.828-.553a4.178,4.178,0,0,0,.965-.806,1.115,1.115,0,0,1-.334.541,7.014,7.014,0,0,1-.6.5,5.208,5.208,0,0,0-1.051,1.053,2.253,2.253,0,0,0-.434,1.086c-.059.463-.1.927-.147,1.39a3.836,3.836,0,0,1-.223,1.015A1.477,1.477,0,0,1,1206.3,288.354Z" transform="translate(-1177.686 -274.977)"/>
    <path id="Tracé_135" data-name="Tracé 135" d="M988.806,593.365c.055.287,0,.42-.2.536a.988.988,0,0,1-.826.062,2.765,2.765,0,0,1-.453-.2,1.629,1.629,0,0,0-1.568-.026,2.8,2.8,0,0,1-.856.261.836.836,0,0,1-1.008-.9.89.89,0,0,1,.733-.894c-.05.062-.093.1-.123.152a1.867,1.867,0,0,0-.185.327.446.446,0,0,0,.223.6c.033.019.069.038.1.057.074.318.192.41.508.417a1.054,1.054,0,0,0,.543-.14c.18-.1.356-.209.541-.292a3.469,3.469,0,0,1,.6-.209,1.085,1.085,0,0,1,.847.114c.088.052.183.095.273.145A.685.685,0,0,0,988.806,593.365Z" transform="translate(-960.555 -578.014)"/>
    <path id="Tracé_136" data-name="Tracé 136" d="M697.573,293.009c.01.221,0,.444.033.659a1.791,1.791,0,0,0,.764,1.207,3.768,3.768,0,0,0,.987.505c.46.164.93.306,1.385.482a5.571,5.571,0,0,1,.873.417,1.233,1.233,0,0,1,.557,1.437.955.955,0,0,1-.043-.14,1.364,1.364,0,0,0-.489-.892,2.6,2.6,0,0,0-.809-.484c-.534-.2-1.072-.375-1.606-.565-.261-.092-.522-.183-.773-.3a3.346,3.346,0,0,1-.591-.346,1.266,1.266,0,0,1-.517-1.314,6.441,6.441,0,0,1,.187-.681A.084.084,0,0,0,697.573,293.009Z" transform="translate(-680.782 -285.912)"/>
    <path id="Tracé_137" data-name="Tracé 137" d="M1003.785,263.5a1.633,1.633,0,0,1,.017,1.108,3.035,3.035,0,0,1-.491.833c-.173.225-.361.441-.531.667a6.1,6.1,0,0,0-.4.588,2,2,0,0,0-.109,1.864c.033.081.071.159.107.242a1.645,1.645,0,0,1-.633-1.516,2.42,2.42,0,0,1,.334-.88c.223-.353.465-.7.7-1.039.085-.123.178-.242.266-.363A3.945,3.945,0,0,0,1003.785,263.5Z" transform="translate(-977.965 -257.111)"/>
    <path id="Tracé_138" data-name="Tracé 138" d="M1301.444,566.091l-.372.038c-.306.031-.612.052-.916.1a1.326,1.326,0,0,0-.688.349c-.323.292-.64.588-.97.873-.194.168-.406.32-.626.493a2.683,2.683,0,0,1,3.57-1.921C1301.444,566.044,1301.444,566.068,1301.444,566.091Z" transform="translate(-1267.085 -552.276)"/>
    <path id="Tracé_139" data-name="Tracé 139" d="M590.132,553.2a2.736,2.736,0,0,0,2.064,1.169.979.979,0,0,1-1.568.349,1.972,1.972,0,0,1-.534-1.331A.851.851,0,0,1,590.132,553.2Z" transform="translate(-576.096 -539.94)"/>
    <path id="Tracé_140" data-name="Tracé 140" d="M1187.005,752.412c-.173-.04-.344-.088-.517-.123a2.776,2.776,0,0,0-1.286.069c-.138.036-.273.078-.41.107s-.225-.069-.192-.209a.336.336,0,0,1,.258-.254,3.264,3.264,0,0,1,.671-.1,2.549,2.549,0,0,1,1.226.3c.093.05.178.119.268.178A.247.247,0,0,0,1187.005,752.412Z" transform="translate(-1156.494 -733.926)"/>
    <path id="Tracé_141" data-name="Tracé 141" d="M1043.837,418.4a2.61,2.61,0,0,0,.342,1.717C1043.426,419.864,1043.388,419.04,1043.837,418.4Z" transform="translate(-1018.793 -408.337)"/>
    <path id="Tracé_142" data-name="Tracé 142" d="M1009.2,953.633a1.243,1.243,0,0,1,.683-.541,3.422,3.422,0,0,0,.458-.192A1.041,1.041,0,0,1,1009.2,953.633Z" transform="translate(-985.262 -930.159)"/>
    <path id="Tracé_143" data-name="Tracé 143" d="M996.908,929.1a1.331,1.331,0,0,1-1.108.714,1.476,1.476,0,0,1,.164-.285A3.325,3.325,0,0,1,996.908,929.1Z" transform="translate(-972.179 -906.923)"/>
    <path id="Tracé_144" data-name="Tracé 144" d="M1221.484,705.055a3.926,3.926,0,0,0-1,.263,1.3,1.3,0,0,1-.27.073c-.036,0-.1-.024-.114-.055a.18.18,0,0,1,.014-.149.47.47,0,0,1,.194-.123A2.457,2.457,0,0,1,1221.484,705.055Z" transform="translate(-1191.151 -688.127)"/>
    <path id="Tracé_145" data-name="Tracé 145" d="M1209.338,662.781c-.076-.282.171-.472.591-.482A5.021,5.021,0,0,1,1209.338,662.781Z" transform="translate(-1180.639 -646.452)"/>
    <path id="Tracé_146" data-name="Tracé 146" d="M1114.431,1431.875a2.866,2.866,0,0,0-.13-1.675.882.882,0,0,1,.13,1.675Z" transform="translate(-1087.869 -1396.137)"/>
  </g>
</svg>
