<svg xmlns="http://www.w3.org/2000/svg" width="55.79" height="44.977" viewBox="0 0 55.79 44.977" style="fill: #FFF">
  <g id="Groupe_18" data-name="Groupe 18" transform="translate(0 0.011)">
    <path id="Tracé_53" data-name="Tracé 53" d="M27.913,0H25.131A.664.664,0,0,0,24.5.35C23.9,1.437,23.27,2.506,22.644,3.593q-2.874,5-5.749,9.986a1.145,1.145,0,0,0-.037,1.253c2.561,4.44,5.141,8.881,7.7,13.34a.616.616,0,0,0,.571.332H30.7a.6.6,0,0,0,.571-.332c2.543-4.422,5.1-8.844,7.646-13.266a1.214,1.214,0,0,0,.018-1.271c-2.561-4.44-5.14-8.881-7.7-13.321A.532.532,0,0,0,30.7,0C29.774.018,28.835,0,27.913,0ZM6.449,38.489a1.463,1.463,0,0,0,1.474-1.032,4.053,4.053,0,0,0,.184-1.327,1.953,1.953,0,0,0-2.229-2.082H0v.645H.387a.421.421,0,0,1,.479.479V41.7c0,.295-.129.424-.442.442H.018v.626H4.311v-.626H4c-.442,0-.553-.111-.553-.553v-3.04c.424-.037.534.018.682.368.534,1.216,1.069,2.414,1.6,3.63a.34.34,0,0,0,.368.24c.829-.018,1.64,0,2.469,0h.276v-.663a.472.472,0,0,1-.516-.313c-.59-1.05-1.179-2.082-1.769-3.132A.805.805,0,0,1,6.449,38.489Zm16.435-4.44v.332a2.009,2.009,0,0,0,.018.313h.276c.479,0,.571.111.571.571V39.5a.477.477,0,0,1-.184-.2c-.94-1.677-1.879-3.335-2.8-5.012a.36.36,0,0,0-.387-.221c-.884.018-1.787,0-2.672,0a1.49,1.49,0,0,0-.276.018v.626h.424a.407.407,0,0,1,.442.442v6.6a.382.382,0,0,1-.387.405h-.461v.663h2.708c.037,0,.111-.055.111-.074a2.419,2.419,0,0,0-.018-.516c-.018-.037-.221-.037-.35-.055-.387,0-.5-.129-.516-.516V37.734c0-.074.018-.147.018-.295.092.166.147.258.2.368.866,1.6,1.732,3.206,2.579,4.809a.36.36,0,0,0,.368.221c.424-.018.866,0,1.308,0h.995V35.3c0-.461.111-.571.59-.571h.313a2.446,2.446,0,0,1,0-.368c.037-.221-.074-.276-.276-.276-.5.018-1.013,0-1.511,0A10.715,10.715,0,0,0,22.884,34.049ZM14.04,36.9v.461c-.018.332-.221.479-.682.461-.295,0-.387-.111-.387-.461V35.173c0-.332.129-.461.461-.461h1.253c.387,0,.516.129.516.534v1.032h1.253V34.067h-6.6a.617.617,0,0,0-.184,0c-.074.037-.166.111-.166.166a4.152,4.152,0,0,0,0,.479h.387a.442.442,0,0,1,.5.479v6.486c0,.332-.129.461-.461.461H9.544v.645h7.222v-2.6H15.4c0,.35.018.682,0,1.013a2.041,2.041,0,0,1-.147.663.552.552,0,0,1-.387.276,13.775,13.775,0,0,1-1.511,0,.348.348,0,0,1-.368-.368c-.018-.958,0-1.916,0-2.856a.263.263,0,0,1,.295-.295h.295a.417.417,0,0,1,.461.461v.442h1.253V36.9Zm20.4,5.269c-.074,0-.111-.018-.147-.018-.59-.018-.59-.018-.755-.608-.7-2.414-1.419-4.809-2.119-7.222a.32.32,0,0,0-.368-.295c-1.087.018-2.174,0-3.261,0-.092,0-.184.018-.313.018v.626h.405c.424.018.608.258.479.663-.663,2.137-1.327,4.275-1.99,6.43-.074.258-.2.405-.5.368a2.217,2.217,0,0,0-.35,0V42.8h2.506a.162.162,0,0,0,.129-.111,5.165,5.165,0,0,0,0-.534h-.387c-.35,0-.442-.111-.35-.442.166-.59.332-1.2.5-1.787.037-.166.111-.24.313-.24.608.018,1.2.018,1.806,0a.255.255,0,0,1,.295.221c.166.626.332,1.234.516,1.861q.111.359-.276.387h-.461V42.8h4.348C34.436,42.58,34.436,42.4,34.436,42.174Zm-.608-7.48h.221c.516-.055.663.184.663.645-.018,1.75.018,3.482-.018,5.233a1.964,1.964,0,0,0,1.161,1.916,4.376,4.376,0,0,0,2.045.461,3.912,3.912,0,0,0,2.174-.553,1.869,1.869,0,0,0,.958-1.714c-.018-.811,0-1.6,0-2.414v-3c0-.442.129-.59.571-.59H41.9v-.626H39.282v.626h.387a.417.417,0,0,1,.461.461c0,1.9.018,3.777-.018,5.675a1.257,1.257,0,0,1-.258.7,1.588,1.588,0,0,1-1.769.405,1.241,1.241,0,0,1-.829-1.327V35.265c0-.442.147-.571.571-.571h.313v-.626H33.828C33.828,34.288,33.828,34.473,33.828,34.694ZM49.839,36.61c0-.405-.018-.792,0-1.161a.732.732,0,0,1,.755-.737c.221-.018.313.055.313.276v6.743c0,.276-.166.424-.461.442h-.424V42.8h4.311v-.626a4.152,4.152,0,0,1-.479,0,.358.358,0,0,1-.368-.368V34.933a.285.285,0,0,1,.147-.2.756.756,0,0,1,.829.461,3.625,3.625,0,0,1,.092.645c.018.258,0,.5,0,.774H55.79V34.086h-7.2V36.61ZM49.434,42.8V40.2H48.052v.755a5,5,0,0,1-.074.755c-.092.332-.258.424-.608.424h-.792c-.424,0-.553-.129-.553-.553V35.191c0-.35.166-.5.5-.516h.368v-.626h-4.33v.313a2.009,2.009,0,0,0,.018.313h.387a.423.423,0,0,1,.479.461v6.5c0,.35-.129.479-.479.479a1.394,1.394,0,0,0-.276.018v.626C44.938,42.8,47.167,42.8,49.434,42.8ZM5.8,44.975h43.63v-.5H5.8C5.8,44.662,5.8,44.809,5.8,44.975Z" transform="translate(0 -0.009)" fill="#fff"/>
    <path id="Tracé_54" data-name="Tracé 54" d="M101.8-.009h2.782A.548.548,0,0,1,105.12.3c2.561,4.44,5.14,8.881,7.7,13.321A1.214,1.214,0,0,1,112.8,14.9c-2.543,4.422-5.1,8.844-7.646,13.266a.586.586,0,0,1-.571.332H99.021a.6.6,0,0,1-.571-.332c-2.561-4.44-5.122-8.9-7.7-13.34a1.145,1.145,0,0,1,.037-1.253c1.916-3.335,3.832-6.651,5.749-9.986C97.16,2.5,97.787,1.428,98.395.341a.607.607,0,0,1,.626-.35C99.943.01,100.882-.009,101.8-.009Zm10.8,14.021c-.074-.129-.111-.2-.147-.276-2.524-4.385-5.067-8.77-7.591-13.155a.4.4,0,0,0-.405-.221H99.095a.427.427,0,0,0-.405.221c-2.506,4.4-5.048,8.789-7.573,13.192a2.921,2.921,0,0,0-.147.332H96.5a.46.46,0,0,0,.461-.276q3.62-6.246,7.241-12.51a.976.976,0,0,1,.111-.184c.037-.037.111-.037.184-.055a.541.541,0,0,1,.055.184c0,.074-.055.129-.074.2-.682,1.548-1.363,3.1-2.045,4.625a.479.479,0,0,0,.037.516q2.073,3.565,4.127,7.13a.422.422,0,0,0,.442.258c1.75-.018,3.5,0,5.251,0A1.406,1.406,0,0,0,112.6,14.012Zm-10.8-6.32c-.055.092-.092.129-.111.166-1.2,2.082-2.4,4.164-3.611,6.246a.3.3,0,0,0,.018.35c1.2,2.045,2.4,4.109,3.574,6.172.037.055.074.111.129.184a.646.646,0,0,0,.092-.147l3.593-6.246c.092-.147.037-.258-.037-.387-1.105-1.916-2.211-3.832-3.316-5.73A6.791,6.791,0,0,0,101.8,7.693Zm4.993,6.688a4.141,4.141,0,0,1-.479,0,.488.488,0,0,0-.553.313c-1.216,2.137-2.45,4.275-3.685,6.412-.221.387-.332.387-.553.018l-.608-1.05c-1.032-1.787-2.082-3.574-3.114-5.362-.055-.092-.147-.2-.221-.221a4.5,4.5,0,0,0-.719-.018,2.706,2.706,0,0,1,.166.313q2.045,3.538,4.09,7.057a.5.5,0,0,1,.018.553c-.682,1.529-1.345,3.059-2.008,4.588a1.127,1.127,0,0,0-.092.221.281.281,0,0,0,.074.184c.018.018.129-.018.166-.055a.647.647,0,0,0,.092-.147q3.62-6.274,7.259-12.547A1.252,1.252,0,0,0,106.8,14.381Z" transform="translate(-73.89 0)"/>
    <path id="Tracé_55" data-name="Tracé 55" d="M6.449,189.4a1.226,1.226,0,0,0,.111.221c.59,1.05,1.179,2.082,1.769,3.132a.472.472,0,0,0,.516.313v.663H6.1a.329.329,0,0,1-.368-.24c-.516-1.216-1.069-2.432-1.6-3.63-.147-.35-.258-.405-.682-.368v3.04c0,.424.111.553.553.553h.313v.626H.018v-.626H.424c.313,0,.442-.129.442-.442v-6.522a.421.421,0,0,0-.479-.479H0V185H5.877a1.953,1.953,0,0,1,2.229,2.082,4.054,4.054,0,0,1-.184,1.327A1.542,1.542,0,0,1,6.449,189.4Zm-2.966-3.777v3.187h.884a.731.731,0,0,0,.737-.424,2.391,2.391,0,0,0-.018-2.358.956.956,0,0,0-.553-.405A6.656,6.656,0,0,0,3.482,185.626Z" transform="translate(0 -150.923)"/>
    <path id="Tracé_56" data-name="Tracé 56" d="M99.972,184.718h2.579c.221,0,.313.055.276.276a2.445,2.445,0,0,0,0,.368h-.313c-.461,0-.59.111-.59.571v7.536h-2.3a.36.36,0,0,1-.368-.221c-.848-1.6-1.714-3.206-2.579-4.809-.055-.092-.111-.2-.2-.368a2.035,2.035,0,0,0-.018.295v3.924c0,.387.129.5.516.516.111,0,.332,0,.35.055a1.22,1.22,0,0,1,.018.516c0,.037-.074.074-.111.074H94.518v-.663h.461a.373.373,0,0,0,.387-.405v-6.6a.407.407,0,0,0-.442-.442H94.5v-.626c.092,0,.184-.018.276-.018h2.672a.385.385,0,0,1,.387.221c.94,1.677,1.879,3.353,2.8,5.012a.477.477,0,0,0,.184.2V185.9c0-.461-.111-.571-.571-.571h-.276c0-.111-.018-.221-.018-.313C99.954,184.976,99.972,184.866,99.972,184.718Z" transform="translate(-77.089 -150.678)"/>
    <path id="Tracé_57" data-name="Tracé 57" d="M56.015,187.7h1.234v2.616H56v-.442a.417.417,0,0,0-.461-.461h-.295a.263.263,0,0,0-.295.295v2.856a.348.348,0,0,0,.368.368c.5.018,1.013.018,1.511,0a.574.574,0,0,0,.387-.276,2.041,2.041,0,0,0,.147-.663c.018-.332,0-.663,0-1.013h1.363v2.6H51.5v-.645h.387c.332,0,.461-.129.461-.461v-6.486c0-.332-.166-.479-.5-.479h-.387a4.152,4.152,0,0,1,0-.479.359.359,0,0,1,.166-.166.618.618,0,0,1,.184,0h6.6v2.211H57.157v-1.032c0-.405-.129-.534-.516-.534H55.388c-.332,0-.461.129-.461.461v2.193c0,.35.092.461.387.461.461.018.663-.129.682-.461A1.891,1.891,0,0,0,56.015,187.7Z" transform="translate(-41.975 -150.805)"/>
    <path id="Tracé_58" data-name="Tracé 58" d="M147.336,192.844v.626h-4.348v-.645h.461c.258-.018.35-.129.276-.387-.166-.626-.35-1.234-.516-1.861a.255.255,0,0,0-.295-.221c-.608,0-1.2.018-1.806,0a.286.286,0,0,0-.313.24c-.147.59-.332,1.2-.5,1.787-.092.332,0,.442.35.442h.387a5.167,5.167,0,0,1,0,.534c0,.037-.092.111-.129.111H138.4v-.663a2.216,2.216,0,0,1,.35,0c.295.037.424-.111.5-.368.663-2.137,1.327-4.275,1.99-6.43.129-.405-.055-.663-.479-.663h-.405v-.626c.111,0,.2-.018.313-.018h3.261c.24,0,.313.074.368.295.7,2.414,1.419,4.809,2.119,7.222.166.59.166.59.755.608A.568.568,0,0,1,147.336,192.844Zm-5.288-6.375h-.055c-.276.958-.553,1.935-.829,2.893-.055.166.055.2.184.2h1.327c.184,0,.24-.074.184-.258-.2-.682-.387-1.363-.59-2.064Z" transform="translate(-112.9 -150.678)"/>
    <path id="Tracé_59" data-name="Tracé 59" d="M183.6,185.445v-.626h4.311v.626H187.6c-.424,0-.571.147-.571.571v5.325a1.248,1.248,0,0,0,.829,1.327,1.588,1.588,0,0,0,1.769-.405,1.208,1.208,0,0,0,.258-.7c.018-1.9.018-3.777.018-5.675a.426.426,0,0,0-.461-.461h-.387V184.8h2.616v.626h-.295c-.442,0-.571.147-.571.59v5.417a1.869,1.869,0,0,1-.958,1.713,3.952,3.952,0,0,1-2.174.553,4.376,4.376,0,0,1-2.045-.461,1.964,1.964,0,0,1-1.161-1.916c.018-1.75,0-3.482.018-5.233,0-.461-.147-.7-.663-.645A.885.885,0,0,1,183.6,185.445Z" transform="translate(-149.772 -150.76)"/>
    <path id="Tracé_60" data-name="Tracé 60" d="M264.953,187.524H263.7V185h7.2v2.524H269.67c0-.258.018-.516,0-.774a3.624,3.624,0,0,0-.092-.645.707.707,0,0,0-.829-.461.245.245,0,0,0-.147.2v6.872a.358.358,0,0,0,.368.368,4.14,4.14,0,0,0,.479,0v.626h-4.311v-.626h.424a.412.412,0,0,0,.461-.442V185.9c0-.221-.092-.295-.313-.276a.732.732,0,0,0-.755.737C264.934,186.732,264.953,187.119,264.953,187.524Z" transform="translate(-215.114 -150.923)"/>
    <path id="Tracé_61" data-name="Tracé 61" d="M237.954,193.715h-6.725v-.626c.092,0,.184-.018.276-.018.35,0,.479-.129.479-.479v-6.5c0-.313-.166-.461-.479-.461h-.387c0-.111-.018-.2-.018-.313V185h4.33v.626h-.368c-.332,0-.5.166-.5.516v6.393c0,.424.129.553.553.553h.792c.35,0,.516-.092.608-.424a5,5,0,0,0,.074-.755c.018-.24,0-.5,0-.755h1.382C237.954,191.965,237.954,192.831,237.954,193.715Z" transform="translate(-188.52 -150.923)"/>
    <path id="Tracé_62" data-name="Tracé 62" d="M31.5,241.9v-.5H75.13v.5Z" transform="translate(-25.696 -196.931)"/>
    <path id="Tracé_63" data-name="Tracé 63" d="M114.249,15.734h-5.583a.447.447,0,0,1-.442-.258q-2.045-3.565-4.127-7.13a.476.476,0,0,1-.037-.516c.682-1.548,1.363-3.077,2.045-4.625a.453.453,0,0,0,.074-.2.993.993,0,0,0-.055-.184.7.7,0,0,0-.184.055c-.055.037-.074.111-.111.184q-3.62,6.246-7.241,12.51a.471.471,0,0,1-.461.276c-1.732-.018-3.464,0-5.2,0H92.6a1.939,1.939,0,0,1,.147-.332c2.524-4.4,5.067-8.789,7.591-13.192a.4.4,0,0,1,.405-.221h5.362a.427.427,0,0,1,.405.221c2.524,4.385,5.067,8.77,7.591,13.155C114.139,15.532,114.175,15.605,114.249,15.734Z" transform="translate(-75.539 -1.722)" fill="#fff"/>
    <path id="Tracé_64" data-name="Tracé 64" d="M134.9,41.8c.129.221.24.424.35.608,1.105,1.916,2.211,3.832,3.316,5.73a.33.33,0,0,1,.037.387l-3.593,6.246a1.7,1.7,0,0,1-.092.147c-.055-.074-.092-.129-.129-.184-1.2-2.064-2.377-4.109-3.574-6.172a.306.306,0,0,1-.018-.35c1.216-2.082,2.414-4.164,3.611-6.246A.379.379,0,0,1,134.9,41.8Z" transform="translate(-106.982 -34.107)" fill="#fff"/>
    <path id="Tracé_65" data-name="Tracé 65" d="M134.712,78.1a1.875,1.875,0,0,1-.147.276q-3.62,6.274-7.259,12.547c-.037.055-.055.129-.092.147-.055.037-.147.074-.166.055a.188.188,0,0,1-.074-.184.567.567,0,0,1,.092-.221c.663-1.529,1.327-3.059,2.008-4.588a.54.54,0,0,0-.018-.553q-2.045-3.538-4.09-7.057c-.055-.092-.092-.184-.166-.313a4.5,4.5,0,0,1,.719.018c.092.018.166.129.221.221,1.05,1.787,2.082,3.574,3.114,5.362l.608,1.05c.221.387.332.368.553-.018,1.234-2.137,2.469-4.275,3.685-6.412a.488.488,0,0,1,.553-.313C134.362,78.118,134.51,78.1,134.712,78.1Z" transform="translate(-101.806 -63.719)" fill="#fff"/>
    <path id="Tracé_66" data-name="Tracé 66" d="M18.9,188.312a5.134,5.134,0,0,1,1.069.018.936.936,0,0,1,.553.405,2.488,2.488,0,0,1,.018,2.358.759.759,0,0,1-.737.424c-.295-.018-.571,0-.884,0C18.9,190.431,18.9,189.381,18.9,188.312Z" transform="translate(-15.418 -153.608)" fill="#fff"/>
    <path id="Tracé_67" data-name="Tracé 67" d="M154.248,194.3l.221.774c.2.682.387,1.382.59,2.064.055.2,0,.258-.184.258h-1.327c-.129,0-.221-.037-.184-.2.276-.958.553-1.935.829-2.893Z" transform="translate(-125.1 -158.509)" fill="#fff"/>
  </g>
</svg>
