<svg xmlns="http://www.w3.org/2000/svg" viewBox="0 0 389.45 228.25" style="fill: #FFF"><g id="Calque_2" data-name="Calque 2"><g id="Calque_1-2" data-name="Calque 1"><path d="M22.31,222.09a5,5,0,0,1-3-.73c-1.27-.84-2.61-3.15-3.38-4.45-1.3-2.27-2.76-4.69-4.15-6.72a4.1,4.1,0,0,1-.57,0c-.39,0-.69,0-1.08,0v2c0,1,0,2.08,0,3.11a11.36,11.36,0,0,0,.39,3.77,2.42,2.42,0,0,0,2.34,1.61v1.08l-.88,0c-1,0-2.38,0-4.19,0s-3.15,0-4.15,0l-.92,0v-1.08a2.48,2.48,0,0,0,1.89-.77,3.74,3.74,0,0,0,.76-2.07,49.23,49.23,0,0,0,.15-5.65v-6.45c0-4.69-.15-5.84-.41-6.91S4,197.4,2.72,197.24v-1.07a22.11,22.11,0,0,0,2.3,0c2,0,2.62,0,5-.12,2.07-.07,3.26-.11,4.19-.11,2.6,0,4.18.38,5.49,1.3a6.33,6.33,0,0,1,2.41,5c0,3.14-2.06,5.72-5.6,7a66.88,66.88,0,0,1,3.95,5.8,29.2,29.2,0,0,0,3.42,4.61,2.87,2.87,0,0,0,1.62,1v1.08a14.53,14.53,0,0,1-3.19.3Zm-9.87-24a9.68,9.68,0,0,0-2.31.31c0,2.26,0,6.38,0,9.56a11.34,11.34,0,0,0,1.7.12c3.14,0,5.25-2,5.25-5s-1.95-5-4.6-5Z"/><path d="M34.93,198.56l-1.49-.89L36.58,193l3.65.67-5.3,4.85ZM42,221.31c-.28.48-.61.57-2.34.57-1.09,0-2.14-.06-3.21-.09-1.53,0-3.05-.1-4.57-.1s-3.05,0-4.56.1v-.89a2.24,2.24,0,0,0,2.18-2.35,35.91,35.91,0,0,0,.1-3.62v-9a8.62,8.62,0,0,0-.35-3.11,2,2,0,0,0-1.93-1.33v-.89H42.17c0,.93,0,1.88,0,2.79s0,1.5,0,2.26H41c-.22-2.45-1.27-3.11-5.05-3.11-.69,0-1.62,0-2.38.06-.06,1.24-.09,1.65-.09,3.49v3.68c.47,0,.85,0,1.42,0,3.31,0,4.32-.48,4.51-2.2h1.15c-.07.51-.07,1.56-.07,3.14s0,2.58.07,3.08H39.44c-.09-1.81-.95-2.25-4.21-2.25-.58,0-1.15,0-1.72,0,0,2,0,4,0,6,0,1.33.22,1.78,1,2a10.08,10.08,0,0,0,2.2.16c3.42,0,4.62-.77,5.36-3.37l1.23.25a21.07,21.07,0,0,1-1.3,4.67Z"/><path d="M55.25,212.36c-.33,0-.48,0-.89,0l-.7-1.62c3-.19,4.63-1.65,4.63-4.06a4.1,4.1,0,0,0-4.15-4.34,6.24,6.24,0,0,0-1.21.12c0,2-.07,3.94-.07,5.9v5.56c0,4.15,0,4.85.35,5.67a2,2,0,0,0,1.94,1.34v.89l-.77,0c-.82,0-2,0-3.48,0s-2.67,0-3.47,0l-.75,0v-.89a2.23,2.23,0,0,0,2.18-2.35,43.33,43.33,0,0,0,.1-4.66V206a8.62,8.62,0,0,0-.35-3.11,2,2,0,0,0-1.93-1.33v-.89a10.39,10.39,0,0,0,1.45,0c.55,0,1.31,0,2.32,0,1.62-.06,3.23-.16,4.86-.16,4.5,0,7.2,2.22,7.2,5.91,0,3.46-3.08,6-7.26,6Z"/><path d="M84.07,202.21a4.16,4.16,0,0,0-.57,2.38c-.06,1.36-.1,2.41-.1,4.38,0,.73,0,2.92,0,5.1A7.76,7.76,0,0,1,82.17,219c-1.45,2.13-3.87,3.2-7,3.2a8.31,8.31,0,0,1-4.95-1.33c-2.22-1.42-3.08-3.3-3.08-6.66s.07-4.92.07-6a27.34,27.34,0,0,0-.2-4.88c-.18-1.15-.79-1.62-2.12-1.75v-.89l.73,0c.82,0,2,0,3.52,0s2.69,0,3.52,0l.73,0v.89c-1,.13-1.46.38-1.78.92a5.08,5.08,0,0,0-.44,2.51c-.07,2-.09,4-.09,6,0,5.46.12,6.51,1.11,7.65A4.68,4.68,0,0,0,75.74,220a4.8,4.8,0,0,0,4.82-3.21c.4-1.36.46-2.34.46-5.93v-3.14c0-3.61-.08-4.73-.44-5.26a2,2,0,0,0-1.65-1v-.89c1.27.07,1.71.07,3.3.07s2.06,0,3.33-.07v.89a2.21,2.21,0,0,0-1.49.7Z"/><path d="M103.58,220.29c-1.49,1.14-3.17,1.53-6.41,1.53-1.71,0-3.46-.13-5.17-.13-.69,0-2,0-2.89.07l-.38,0v-.89c1.49-.13,2.07-.89,2.19-2.35a39.58,39.58,0,0,0,.13-4.66v-6c0-2.95,0-4.22-.35-5a2.07,2.07,0,0,0-2-1.33v-.89c1.47.07,2.32.07,4.35.07,1.84,0,4.6-.1,6.44-.1,2.92,0,5.58,1.4,5.58,4.7,0,2.44-1.52,4.09-4.54,4.85,3.37.67,5.15,2.6,5.15,5.75a5.15,5.15,0,0,1-2.13,4.4Zm-6.91-18c-.58,0-1.15.06-1.72.06,0,2.06-.09,5.61-.12,6.94a12.08,12.08,0,0,0,1.39.07c3.11,0,4.89-1.3,4.89-3.59s-1.66-3.48-4.44-3.48Zm.1,8.84c-.55,0-1.12,0-1.94.1,0,.86,0,1,0,2.48v1.87a11.28,11.28,0,0,0,.29,3.36c.26.79,1,1.17,2.35,1.17,2.69,0,4.22-1.49,4.22-4.15a4.54,4.54,0,0,0-4.88-4.83Z"/><path d="M123.63,221.34c-.29.45-.67.54-2.25.54-.8,0-1.62,0-2.42-.06-2-.06-3.74-.13-5.9-.13-1.62,0-2.69,0-3.71.1v-.89a2,2,0,0,0,1.56-.64c.57-.66.73-1.49.73-3.81,0-1.58,0-2.85,0-4.5v-3.4c0-4.28,0-4.85-.34-5.71a2,2,0,0,0-2-1.33v-.89l.79,0c.86,0,2,0,3.62,0s2.76,0,3.58,0l.79,0v.89c-1.61,0-2.3.86-2.5,2.38a43.56,43.56,0,0,0-.1,4.66v5.3c0,4.41,0,5,.45,5.39s1,.52,2.38.52a6.87,6.87,0,0,0,3.49-.64,4,4,0,0,0,1.87-2.76l1.21.31a21.52,21.52,0,0,1-1.3,4.67Z"/><path d="M134.66,221.76c-.79,0-2,0-3.46,0s-2.66,0-3.49,0l-.76,0v-.89c1.49-.13,2.07-.89,2.19-2.35a40.75,40.75,0,0,0,.12-4.66v-5.34c0-.82,0-1.68,0-2.6a8.82,8.82,0,0,0-.32-3.11c-.28-.82-.89-1.2-2-1.33v-.89l.76,0c.83,0,2,0,3.49,0s2.67,0,3.46,0l.77,0v.89a2.28,2.28,0,0,0-2.2,2.38c-.09.92-.09,1.81-.09,4.66v5.34c0,4.15,0,4.85.34,5.67a2,2,0,0,0,2,1.34v.89l-.77,0Z"/><path d="M164.31,227.5a15.8,15.8,0,0,1-7.6-2.16,38.31,38.31,0,0,1-4.9-3.36,13.51,13.51,0,0,1-2.5.18c-6.41,0-10.66-4.18-10.66-10.5,0-6.75,4.6-11.42,11.33-11.42,6.53,0,10.88,4.19,10.88,10.47A11.34,11.34,0,0,1,155,221c1.14.57,2.28,1.21,3.39,1.87,3.24,2,5.46,2.79,7.55,2.79a7.71,7.71,0,0,0,3.65-.91l.41,1.11a9.85,9.85,0,0,1-5.65,1.65Zm-15-25.1c-3.87,0-6.63,3.24-6.63,7.78,0,5.51,3.26,9.86,7.42,9.86,3.9,0,6.66-3.3,6.66-7.9,0-5.46-3.27-9.74-7.45-9.74Z"/><path d="M182.84,202.21a4.33,4.33,0,0,0-.57,2.38c-.06,1.36-.09,2.41-.09,4.38,0,.73,0,2.92,0,5.1a7.76,7.76,0,0,1-1.27,4.89c-1.46,2.13-3.87,3.2-7.05,3.2a8.32,8.32,0,0,1-4.94-1.33c-2.22-1.42-3.08-3.3-3.08-6.66s.06-4.92.06-6a27.34,27.34,0,0,0-.19-4.88c-.19-1.15-.79-1.62-2.13-1.75v-.89l.74,0c.83,0,2,0,3.51,0s2.7,0,3.53,0l.73,0v.89c-1,.13-1.46.38-1.78.92a5.08,5.08,0,0,0-.44,2.51c-.06,2-.1,4-.1,6,0,5.46.13,6.51,1.11,7.65A4.73,4.73,0,0,0,174.5,220a4.78,4.78,0,0,0,4.82-3.21c.42-1.36.48-2.34.48-5.93v-3.14c0-3.61-.1-4.73-.45-5.26a2,2,0,0,0-1.65-1v-.89c1.27.07,1.72.07,3.3.07s2.06,0,3.33-.07v.89a2.17,2.17,0,0,0-1.49.7Z"/><path d="M202.2,221.31c-.29.48-.61.57-2.36.57-1.07,0-2.12-.06-3.2-.09-1.52,0-3-.1-4.56-.1s-3.05,0-4.58.1v-.89a2.25,2.25,0,0,0,2.2-2.35c.09-1,.09-2,.09-3.62v-9a8.39,8.39,0,0,0-.35-3.11,2,2,0,0,0-1.94-1.33v-.89h14.86c0,.93,0,1.88,0,2.79a21.26,21.26,0,0,0,0,2.26h-1.15c-.22-2.45-1.27-3.11-5-3.11-.7,0-1.63,0-2.38.06-.06,1.24-.1,1.65-.1,3.49v3.68c.48,0,.85,0,1.43,0,3.29,0,4.31-.48,4.5-2.2h1.15c-.07.51-.07,1.56-.07,3.14s0,2.58.07,3.08h-1.15c-.09-1.81-1-2.25-4.22-2.25l-1.71,0c0,2,0,4,0,6,0,1.33.22,1.78,1,2a10.08,10.08,0,0,0,2.2.16c3.42,0,4.63-.77,5.36-3.37l1.23.25a22.46,22.46,0,0,1-1.29,4.67Z"/><path d="M231.55,202.35c0-2.76-1.66-3.84-6-3.84-.88,0-1.72,0-2.68.12-.08,2.65-.08,4.49-.08,8.67.92,0,1.38.08,2,.08,3.57,0,4.65-.61,4.84-2.68H231c0,1.07-.08,2.18-.08,3.26,0,1.42.08,2.88.08,4.3h-1.38c-.27-2.31-1.15-2.76-5.18-2.76-.7,0-1,0-1.69,0v4.3c0,.85,0,1.77,0,2.77.08,2.11.23,4,2.72,4.11v1.08l-.92,0c-1,0-2.38,0-4.19,0s-3.22,0-4.22,0l-.92,0v-1.08c1.72-.15,2.5-1.15,2.65-2.84a53.11,53.11,0,0,0,.12-5.65v-9.6a10.13,10.13,0,0,0-.43-3.76,2.41,2.41,0,0,0-2.34-1.62v-1.07H233c-.07.73-.07,2-.07,3.57a24.6,24.6,0,0,0,.07,2.61Z"/><path d="M252.78,222a4,4,0,0,1-2.5-.61c-1.06-.69-2.16-2.6-2.8-3.67-1.08-1.87-2.28-3.87-3.43-5.56a2.16,2.16,0,0,1-.47,0c-.32,0-.57,0-.89,0v1.69c0,.85,0,1.71,0,2.56a9.14,9.14,0,0,0,.32,3.11A2,2,0,0,0,245,220.9v.89l-.74,0c-.82,0-2,0-3.45,0s-2.61,0-3.43,0l-.75,0v-.89a2.07,2.07,0,0,0,1.55-.64,3,3,0,0,0,.62-1.71,38.47,38.47,0,0,0,.14-4.66v-5.34c0-3.86-.14-4.82-.36-5.71s-.88-1.2-1.95-1.33v-.89a17,17,0,0,0,1.89,0c1.65,0,2.16,0,4.13-.09,1.71-.06,2.69-.1,3.46-.1a7.28,7.28,0,0,1,4.53,1.09,5.19,5.19,0,0,1,2,4.15c0,2.6-1.71,4.73-4.63,5.8a56.74,56.74,0,0,1,3.27,4.8,22.44,22.44,0,0,0,2.83,3.8,2.29,2.29,0,0,0,1.33.8v.89a11.55,11.55,0,0,1-2.64.25Zm-8.16-19.86a8.79,8.79,0,0,0-1.9.25c0,1.88,0,5.27,0,7.9a8.83,8.83,0,0,0,1.39.1c2.61,0,4.35-1.62,4.35-4.1a3.87,3.87,0,0,0-3.81-4.15Z"/><path d="M275.67,221.76c-.79,0-1.93,0-3.38,0s-2.64,0-3.43,0l-.73,0v-.89c1-.07,1.61-.61,1.61-1.49a5.88,5.88,0,0,0-.41-1.72c-.38-1.17-.63-2-1-3h-6.1l-.64,1.84a12,12,0,0,0-.72,3c0,.92.41,1.33,1.42,1.4v.89c-1.2,0-1.65-.07-3.16-.07s-1.94,0-3.15.07v-.89a1.47,1.47,0,0,0,1-.45c.6-.54,1.2-1.65,2.16-4.06l3-7.68c.83-2.06,2.08-5.39,2.93-8.09h2.15c.28,1,1,2.54,1.4,3.69l4.47,11.45a35.49,35.49,0,0,0,1.71,3.8,2.48,2.48,0,0,0,1.65,1.34v.89l-.76,0Zm-10.28-15.55c-.82,2.15-2,4.94-2.44,6.5h4.7l-2.26-6.5Z"/><path d="M298.26,202.47c-.35.56-.42,1.1-.48,2.75-.09,2.86-.13,7.3-.13,9.43v4.85c0,.73.09,1.84.09,2.29h-2.15c-2.07-2.7-6.35-7.94-6.35-7.94-.5-.63-4.47-5.52-6.46-8,0,.67,0,.25,0,2.32v2.06c0,2.38,0,4.73.13,7.1a6,6,0,0,0,.51,2.61,1.7,1.7,0,0,0,1.71.92v.89c-1.11-.07-2.25-.07-3.36-.07s-2.26,0-3.39.07v-.89c2.09-.07,2.15-1.81,2.21-3.46,0-1.33.06-2.44.06-4.47v-6.7c0-2.63-.12-3.27-.6-4-.32-.51-.72-.7-1.67-.8v-.89c1,.07,1.42.07,2.75.07s1.69,0,2.73-.07a38.13,38.13,0,0,0,3.17,4c3.11,3.77,5.91,7,8.54,10.28V208a24.5,24.5,0,0,0-.23-4.79,2,2,0,0,0-2-1.68v-.89c1.3.07,1.76.07,3.37.07s2.05,0,3.37-.07v.89a1.78,1.78,0,0,0-1.78,1Z"/><path d="M320.4,221a16,16,0,0,1-6.38,1.13l-.29,1.27a4.13,4.13,0,0,1,.61,0,1.89,1.89,0,0,1,2,1.91c0,1.71-1.36,2.91-3.52,2.91a4.73,4.73,0,0,1-1.9-.41l.44-1.23a3.23,3.23,0,0,0,1.14.25c.9,0,1.5-.44,1.5-1.24,0-.63-.32-1-.79-1a1.2,1.2,0,0,0-.71.25l-.7-.18.64-2.58a9.62,9.62,0,0,1-6.53-2.95,11,11,0,0,1-3-7.93c0-6.85,4.41-11,11.68-11a20.08,20.08,0,0,1,6.15.92c-.06.73-.06,1.46-.06,2.16,0,.54,0,1.68.06,2.41h-1.23c-.51-2.25-2.33-3.45-5.21-3.45-4.47,0-7.2,3-7.2,7.93,0,5.71,3.21,9.86,7.62,9.86a5,5,0,0,0,5.19-3.87l1.21.25a27.42,27.42,0,0,0-.69,4.58Z"/><path d="M342.41,221.76c-.79,0-1.94,0-3.4,0s-2.63,0-3.43,0l-.72,0v-.89c1-.07,1.62-.61,1.62-1.49a6,6,0,0,0-.42-1.72c-.39-1.17-.64-2-1-3H329l-.63,1.84a11.87,11.87,0,0,0-.74,3c0,.92.42,1.33,1.43,1.4v.89c-1.21,0-1.65-.07-3.17-.07s-1.94,0-3.14.07v-.89a1.43,1.43,0,0,0,1-.45c.61-.54,1.21-1.65,2.16-4.06l3-7.68c.82-2.06,2.06-5.39,2.92-8.09h2.16c.28,1,.94,2.54,1.39,3.69l4.47,11.45a33.06,33.06,0,0,0,1.72,3.8,2.46,2.46,0,0,0,1.65,1.34v.89l-.76,0Zm-10.28-15.55c-.83,2.15-2,4.94-2.45,6.5h4.7l-2.25-6.5Z"/><path d="M352.77,221.76c-.79,0-2,0-3.46,0s-2.66,0-3.48,0l-.77,0v-.89c1.49-.13,2.07-.89,2.19-2.35a39.58,39.58,0,0,0,.13-4.66v-5.34c0-.82,0-1.68,0-2.6a8.58,8.58,0,0,0-.32-3.11c-.28-.82-.89-1.2-2-1.33v-.89l.77,0c.82,0,2,0,3.48,0s2.67,0,3.46,0l.76,0v.89a2.26,2.26,0,0,0-2.18,2.38,46.33,46.33,0,0,0-.1,4.66v5.34c0,4.15,0,4.85.35,5.67a1.94,1.94,0,0,0,1.93,1.34v.89l-.76,0Z"/><path d="M362.63,222.16a13.21,13.21,0,0,1-5.33-1.07c-.09-1.21-.31-3.05-.57-4.57l1.21-.19c.76,2.57,2.44,3.9,4.88,3.9,2.26,0,3.78-1.17,3.78-2.95,0-1.43-1-2.41-2.41-3.3l-3.33-2.13c-2.29-1.45-3.62-3-3.62-5.77,0-3.55,2.7-5.84,6.89-5.84a11.05,11.05,0,0,1,5.2,1.15c0,.76,0,1,0,2,0,1.15,0,1.46,0,2.35h-1.2a3.93,3.93,0,0,0-4.06-3.55c-2,0-3.4,1.23-3.4,3,0,1.52,1,2.54,2.73,3.62l2.69,1.74c2.58,1.68,4,3.3,4,5.84,0,3.46-3.05,5.8-7.49,5.8Z"/><path d="M388.15,221.31c-.29.48-.61.57-2.36.57-1.07,0-2.12-.06-3.2-.09-1.53,0-3-.1-4.57-.1s-3,0-4.57.1v-.89a2.23,2.23,0,0,0,2.19-2.35,35.91,35.91,0,0,0,.1-3.62v-9a8.33,8.33,0,0,0-.36-3.11,2,2,0,0,0-1.93-1.33v-.89H388.3c0,.93,0,1.88,0,2.79s0,1.5,0,2.26h-1.14c-.22-2.45-1.27-3.11-5-3.11-.71,0-1.62,0-2.39.06-.06,1.24-.09,1.65-.09,3.49v3.68c.48,0,.86,0,1.42,0,3.31,0,4.32-.48,4.51-2.2h1.15c-.07.51-.07,1.56-.07,3.14s0,2.58.07,3.08h-1.15c-.09-1.81-.95-2.25-4.22-2.25-.57,0-1.13,0-1.71,0,0,2,0,4,0,6,0,1.33.22,1.78,1,2a9.92,9.92,0,0,0,2.19.16c3.42,0,4.63-.77,5.35-3.37l1.25.25a22.27,22.27,0,0,1-1.3,4.67Z"/><path d="M13.59,167.48c-.27.37-.74.49-1.85.49-1.51,0-3-.08-4.51-.12-1.3,0-2.29-.06-3-.06-.92,0-3.18,0-3.83.06l-.43,0,.12-.66A2.38,2.38,0,0,0,2,166.28a8.33,8.33,0,0,0,1.24-3.21c.39-1.7.58-2.72,1.23-5.91l.5-2.43a28.35,28.35,0,0,0,.67-4.7c0-1.36-.49-1.92-1.82-2.07l.12-.68a2.66,2.66,0,0,0,.44,0c1.15,0,2.26,0,3.4,0,1.78,0,3,0,3.49,0a3.51,3.51,0,0,0,.49,0l-.12.68a2.28,2.28,0,0,0-1.95.93c-.77,1-1.2,2.32-2.34,8.27L7,159.24c-.5,2.53-.69,3.4-.84,4.54a7.25,7.25,0,0,0-.1,1c0,1.2.63,1.57,2.61,1.57,3.49,0,4.78-.71,5.93-3.24l.83.31a21.68,21.68,0,0,1-1.83,4.1Z"/><path d="M22.76,152.44A1.43,1.43,0,0,1,21.19,151a1.83,1.83,0,0,1,1.92-1.89,1.38,1.38,0,0,1,1.51,1.45,1.82,1.82,0,0,1-1.86,1.92ZM19.4,168.23a.9.9,0,0,1-1-.9,8.33,8.33,0,0,1,.24-1.45c.41-1.64,1-3.86,1.27-5a16,16,0,0,0,.62-3.15c0-.4-.19-.59-.53-.59a5.24,5.24,0,0,0-1.2.28l-.22.06-.09-.86a14.52,14.52,0,0,1,4.2-1.05c.46,0,.65.15.65.52a19.74,19.74,0,0,1-.71,3.52l-.46,1.83a24.89,24.89,0,0,0-1,4.54.66.66,0,0,0,.71.74,6,6,0,0,0,1.7-.43l.06.86a14.75,14.75,0,0,1-4.26,1.12Z"/><path d="M36.42,166.77a6.75,6.75,0,0,1-4.82,1.49c-2.42,0-3.87-.41-3.87-1a8.44,8.44,0,0,1,.34-1.85l1.61-7c.52-2.26.92-4.05,1.48-6.58a17.2,17.2,0,0,0,.44-2.68c0-.38-.19-.59-.54-.59a6.6,6.6,0,0,0-1.36.31l0-.9.37-.12a14.76,14.76,0,0,1,3.7-.87c.4,0,.65.19.65.53a24.12,24.12,0,0,1-.67,3.39l-.94,4.08c-.3,1.33-.4,1.83-.49,2.26a10.3,10.3,0,0,1,5.19-1.67c1.88,0,2.81,1,2.81,2.9a12.07,12.07,0,0,1-3.88,8.34Zm0-9.91a4.71,4.71,0,0,0-2.1.68A5.37,5.37,0,0,0,32.39,159a10.55,10.55,0,0,0-1.2,3.55,22.6,22.6,0,0,0-.68,3.55c0,.59.68.93,1.92.93a3.77,3.77,0,0,0,3.15-1.73,13.06,13.06,0,0,0,2.16-6.58c0-1.18-.46-1.82-1.36-1.82Z"/><path d="M47,162.94c-.21,0-.48,0-.89,0a9,9,0,0,0-.12,1.48c0,1.58.55,2.41,1.64,2.41s2.21-.52,4-1.67l.34,1.05c-2.28,1.43-4,2.08-5.59,2.08-1.91,0-3-1.15-3-3.22,0-5.09,3.46-9.51,7.45-9.51,1.94,0,3.09.89,3.09,2.44,0,2.84-3,5-7,5Zm3.19-6.17c-1.48,0-3.06,2-3.83,5h.31c2.87,0,5-1.51,5-3.49a1.51,1.51,0,0,0-1.51-1.54Z"/><path d="M66.4,159.51l-1-.09a7.8,7.8,0,0,0,.1-1.21c0-.55-.5-1-1.27-1a1.88,1.88,0,0,0-1.33.74c-1.17,1.33-1.63,3.43-2.32,6.86l-.58,3c-1.17.07-1.49.1-2.68.25.3-1.17.52-2.1.77-3.15l.67-2.87a21,21,0,0,0,.69-3.8c0-.78-.19-1.12-.56-1.12a3.26,3.26,0,0,0-.78.16l-.77.25-.09-.93a14.1,14.1,0,0,1,4-1.11.48.48,0,0,1,.55.43,6.69,6.69,0,0,1,.18,1.33,6.5,6.5,0,0,1,3.5-1.79,3.72,3.72,0,0,1,2,.83,19.18,19.18,0,0,0-1.11,3.18Z"/><path d="M76.87,157.41l-2.56-.06L73,163.69a11.86,11.86,0,0,0-.36,2.34c0,.43.21.68.61.68a7,7,0,0,0,1.42-.34l.31-.09.1.9a13.84,13.84,0,0,1-4.18,1.08c-.64,0-1-.31-1-.9a9.62,9.62,0,0,1,.36-2.26c.28-1.08.5-2,.75-3.18l1-4.57-1.64,0,.22-1c2.1-.37,2.81-2,3.4-3.82l1.48-.31-.78,3.64,2.57,0-.31,1.54Z"/><path d="M86.35,153.62l-1-.81,3.77-4.26,2.78.68-5.57,4.39Zm-3.42,9.32c-.22,0-.49,0-.9,0a9.08,9.08,0,0,0-.13,1.48c0,1.58.56,2.41,1.65,2.41s2.22-.52,4-1.67l.33,1.05c-2.29,1.43-4,2.08-5.59,2.08-1.92,0-3-1.15-3-3.22,0-5.09,3.47-9.51,7.45-9.51,2,0,3.09.89,3.09,2.44,0,2.84-3,5-7,5Zm3.18-6.17c-1.48,0-3.06,2-3.83,5h.31c2.87,0,5-1.51,5-3.49a1.51,1.51,0,0,0-1.51-1.54Z"/><path d="M139.43,145.21l-1-.8,3.76-4.27,2.81.69-5.59,4.38Zm5.87,6.58h-.9a5.21,5.21,0,0,0,.06-.68c0-1.7-1.1-2.28-4.2-2.28-1,0-2,0-3,.09-.65,2.57-1.08,4.79-1.61,7.54h1.15a21.59,21.59,0,0,0,3.51-.16,2.63,2.63,0,0,0,2.17-2.13h.83c-.43,1.82-1,4.42-1.17,6h-.83c0-.21.06-.4.06-.52,0-1.33-.84-1.76-3.37-1.76-1.51,0-2.07,0-2.62.06-.16.77,0,.09-.71,3.64a19.42,19.42,0,0,0-.47,3.37c0,1.08.55,1.36,2.62,1.36,3.9,0,5.1-.62,6.31-3.28l.77.31a16.8,16.8,0,0,1-1.86,4.2c-.31.35-.71.43-2,.43-1.09,0-2.2,0-3.28-.05-1.42,0-2.87-.07-4.29-.07s-2.87,0-4.32,0l.12-.66a2.38,2.38,0,0,0,1.91-.95,8.17,8.17,0,0,0,1.24-3.21c.41-1.73.53-2.45,1.23-5.91l.5-2.43a28,28,0,0,0,.68-4.7c0-1.36-.5-1.92-1.83-2.07l.13-.68h14.06c-.35,1.39-.66,3.06-.87,4.51Z"/><path d="M160.56,157.38l-2.1,0a3.35,3.35,0,0,1,.49,1.86,5.18,5.18,0,0,1-5.47,5,5.38,5.38,0,0,1-1.67-.25c-.77.47-1,.68-1,1s.35.49,1.71.93l2.47.77c2.46.77,3.67,1.51,3.67,3.3,0,3.28-3.24,5.84-7.38,5.84-3.4,0-5.46-1.61-5.46-4.23,0-2.41,1.54-3.55,4.07-4.2-1.54-.56-1.88-.8-1.88-1.33,0-.68.9-1.51,2.74-2.53a3.22,3.22,0,0,1-1.42-2.81,5.2,5.2,0,0,1,5.44-5.16,5.56,5.56,0,0,1,2.07.34h4.08l-.34,1.51Zm-5.9-.68c-1.67,0-3,1.76-3,3.86,0,1.46.83,2.44,2,2.44,1.63,0,3-1.69,3-3.79,0-1.55-.78-2.51-2-2.51Zm.47,12.51c-1.06-.4-2.33-.83-3.63-1.2-2.13.52-3.61,2.1-3.61,3.89s1.42,2.78,3.65,2.78c2.69,0,5.16-1.82,5.16-3.8,0-.74-.46-1.24-1.57-1.67Z"/><path d="M172.16,168.26c-.55,0-.73-.34-1-1.86a11.31,11.31,0,0,1-5.58,1.89c-1.86,0-2.94-1-2.94-2.66a12.12,12.12,0,0,1,2-5.87c1.67-2.6,3.74-4.23,6.89-4.23a16.15,16.15,0,0,1,4,.58l-.15.5a42.59,42.59,0,0,0-1.92,8.8c0,.84.19,1.3.56,1.3a7.14,7.14,0,0,0,1.67-.46l.09,1a17,17,0,0,1-3.62,1Zm-1.42-11.43c-1.23,0-2.47.92-3.51,2.65a13.1,13.1,0,0,0-2,6c0,1,.47,1.48,1.24,1.48a7.41,7.41,0,0,0,3.92-1.79,4.69,4.69,0,0,0,1-2.23,47.12,47.12,0,0,0,1.24-5.68,4.71,4.71,0,0,0-1.86-.46Z"/><path d="M185.85,150.09c-1,4.11-2,8.68-3,13a15.91,15.91,0,0,0-.47,2.81.6.6,0,0,0,.68.68,7.65,7.65,0,0,0,1.69-.37l.07.86a16.08,16.08,0,0,1-4.33,1.15.84.84,0,0,1-.92-.93,14.24,14.24,0,0,1,.56-2.94c.95-4.07,2-8.43,2.84-12.32.36-1.79.55-2.69.55-3s-.19-.56-.52-.56a4.37,4.37,0,0,0-1.36.31l-.07-.93a16,16,0,0,1,4.18-1c.42,0,.65.19.65.53a15,15,0,0,1-.53,2.62Z"/><path d="M193.5,152.44a1.44,1.44,0,0,1-1.57-1.48,1.83,1.83,0,0,1,1.91-1.89,1.38,1.38,0,0,1,1.52,1.45,1.82,1.82,0,0,1-1.86,1.92Zm-3.36,15.79a.9.9,0,0,1-1-.9,8.64,8.64,0,0,1,.25-1.45c.4-1.64,1-3.86,1.27-5a16.48,16.48,0,0,0,.61-3.15c0-.4-.19-.59-.53-.59a5.35,5.35,0,0,0-1.2.28l-.22.06-.08-.86a14.38,14.38,0,0,1,4.2-1.05c.46,0,.64.15.64.52a19.74,19.74,0,0,1-.71,3.52l-.46,1.83a24.89,24.89,0,0,0-1,4.54.66.66,0,0,0,.71.74,6,6,0,0,0,1.7-.43l.06.86a14.67,14.67,0,0,1-4.26,1.12Z"/><path d="M205.66,157.41l-2.56-.06-1.3,6.34a13.58,13.58,0,0,0-.37,2.34c0,.43.22.68.62.68a6.9,6.9,0,0,0,1.42-.34l.31-.09.1.9a13.79,13.79,0,0,1-4.17,1.08c-.65,0-1.06-.31-1.06-.9a9.88,9.88,0,0,1,.38-2.26c.27-1.08.49-2,.74-3.18l.95-4.57-1.63,0,.21-1c2.11-.37,2.81-2,3.4-3.82l1.49-.31-.78,3.64,2.57,0-.32,1.54Z"/><path d="M215.15,153.62l-1-.81,3.77-4.26,2.78.68-5.56,4.39Zm-3.43,9.32c-.22,0-.5,0-.9,0a9,9,0,0,0-.12,1.48c0,1.58.56,2.41,1.64,2.41s2.22-.52,4-1.67l.33,1.05c-2.28,1.43-4,2.08-5.59,2.08-1.91,0-3-1.15-3-3.22,0-5.09,3.47-9.51,7.46-9.51,1.94,0,3.09.89,3.09,2.44,0,2.84-3,5-7,5Zm3.18-6.17c-1.48,0-3.06,2-3.83,5h.31c2.87,0,5-1.51,5-3.49a1.52,1.52,0,0,0-1.51-1.54Z"/><path d="M273.67,151.76h-.9a6.59,6.59,0,0,0,.07-.71,2,2,0,0,0-.59-1.48c-.59-.56-1.67-.77-4-.77-.66,0-1.53,0-2.29.06-.56,2.53-1.05,5-1.6,7.6l1.75,0c3.43,0,4.11-.31,4.76-2.32h.83c-.49,2-.89,4-1.18,6h-.86a3.27,3.27,0,0,0,.07-.52,1.62,1.62,0,0,0-.59-1.3c-.52-.4-1.14-.49-3-.49-1,0-1.26,0-2.07.06l-.4,2.07a31.66,31.66,0,0,0-.8,5.22,1.77,1.77,0,0,0,1.82,2l-.12.66-.5,0c-.24,0-1.61,0-2.78,0s-3.52,0-3.92,0l-.53,0,.13-.66a2.43,2.43,0,0,0,1.92-.95,7.89,7.89,0,0,0,1.23-3.21c.44-1.76.59-2.69,1.23-5.91l.5-2.43a28,28,0,0,0,.67-4.7c0-1.36-.48-1.92-1.81-2.07l.12-.68h13.72c-.31,1.39-.62,3-.87,4.48Z"/><path d="M284.19,159.51l-1-.09a7.85,7.85,0,0,0,.08-1.21c0-.55-.48-1-1.25-1a1.86,1.86,0,0,0-1.34.74c-1.17,1.33-1.63,3.43-2.31,6.86l-.59,3c-1.18.07-1.49.1-2.69.25.31-1.17.53-2.1.77-3.15l.68-2.87a19.82,19.82,0,0,0,.68-3.8c0-.78-.17-1.12-.56-1.12a3.29,3.29,0,0,0-.77.16l-.77.25-.1-.93a14.32,14.32,0,0,1,4-1.11.49.49,0,0,1,.55.43,6.69,6.69,0,0,1,.18,1.33,6.48,6.48,0,0,1,3.49-1.79,3.72,3.72,0,0,1,2,.83,18.31,18.31,0,0,0-1.11,3.18Z"/><path d="M296.38,168.26c-.55,0-.74-.34-1-1.86a11.35,11.35,0,0,1-5.59,1.89c-1.85,0-2.94-1-2.94-2.66a12.12,12.12,0,0,1,2-5.87c1.68-2.6,3.74-4.23,6.9-4.23a16.15,16.15,0,0,1,4,.58l-.16.5a42.39,42.39,0,0,0-1.91,8.8c0,.84.18,1.3.55,1.3a7.27,7.27,0,0,0,1.67-.46l.1,1a17,17,0,0,1-3.62,1ZM295,156.83c-1.23,0-2.46.92-3.51,2.65a13.07,13.07,0,0,0-2,6c0,1,.46,1.48,1.24,1.48a7.34,7.34,0,0,0,3.91-1.79,4.59,4.59,0,0,0,1-2.23,43.57,43.57,0,0,0,1.23-5.68,4.56,4.56,0,0,0-1.86-.46Z"/><path d="M311.11,157.41l-2.56-.06-1.3,6.34a11.86,11.86,0,0,0-.36,2.34c0,.43.21.68.61.68a7.2,7.2,0,0,0,1.42-.34l.31-.09.1.9a13.84,13.84,0,0,1-4.18,1.08c-.64,0-1-.31-1-.9a9.88,9.88,0,0,1,.38-2.26c.27-1.08.49-2,.74-3.18l.95-4.57-1.63,0,.21-1c2.1-.37,2.81-2,3.39-3.82l1.49-.31-.77,3.64,2.56,0-.31,1.54Z"/><path d="M317.16,162.94c-.21,0-.49,0-.89,0a9.08,9.08,0,0,0-.13,1.48c0,1.58.56,2.41,1.65,2.41s2.22-.52,4-1.67l.34,1.05c-2.29,1.43-4,2.08-5.59,2.08-1.92,0-3-1.15-3-3.22,0-5.09,3.45-9.51,7.43-9.51,2,0,3.09.89,3.09,2.44,0,2.84-3,5-7,5Zm3.19-6.17c-1.49,0-3.06,2-3.83,5h.31c2.87,0,5-1.51,5-3.49a1.51,1.51,0,0,0-1.51-1.54Z"/><path d="M336.54,159.51l-1-.09a6.75,6.75,0,0,0,.09-1.21c0-.55-.49-1-1.26-1A1.84,1.84,0,0,0,333,158c-1.17,1.33-1.63,3.43-2.32,6.86l-.58,3c-1.17.07-1.48.1-2.69.25.31-1.17.54-2.1.77-3.15l.69-2.87a20.69,20.69,0,0,0,.68-3.8c0-.78-.19-1.12-.56-1.12a3.19,3.19,0,0,0-.77.16l-.77.25-.1-.93a14.19,14.19,0,0,1,4-1.11.49.49,0,0,1,.55.43,6.62,6.62,0,0,1,.19,1.33,6.46,6.46,0,0,1,3.48-1.79,3.75,3.75,0,0,1,2,.83,16.78,16.78,0,0,0-1.11,3.18Z"/><path d="M348.85,168.26a.89.89,0,0,1-1-.93,14.45,14.45,0,0,1,.5-2.59l.3-1.3a36,36,0,0,0,1.15-5.69c0-.46-.22-.71-.65-.71a5.22,5.22,0,0,0-2.31.87,6.14,6.14,0,0,0-2.1,1.76,10.75,10.75,0,0,0-.87,2.9c-.5,2.26-.8,3.8-1.05,5.25-1.2.1-1.51.13-2.73.28.63-2.32,1.09-4.23,1.56-6.36a22.48,22.48,0,0,0,.65-3.65c0-.71-.22-1.05-.68-1.05a6.27,6.27,0,0,0-1.53.37l-.05-.86a13.5,13.5,0,0,1,3.83-1c.68,0,.89.4.89,1.85v.25a14.48,14.48,0,0,1,6.43-2.1c1,0,1.42.25,1.42.86a19.31,19.31,0,0,1-.83,4.17c-.37,1.42-.71,2.94-.83,3.62a10.07,10.07,0,0,0-.28,1.79.63.63,0,0,0,.68.71,5.46,5.46,0,0,0,1.6-.4l.1.9a18.49,18.49,0,0,1-4.21,1.08Z"/><path d="M361.85,152.44a1.44,1.44,0,0,1-1.57-1.48,1.83,1.83,0,0,1,1.91-1.89,1.39,1.39,0,0,1,1.52,1.45,1.82,1.82,0,0,1-1.86,1.92Zm-3.37,15.79a.89.89,0,0,1-1-.9,7.69,7.69,0,0,1,.25-1.45c.4-1.64.94-3.86,1.26-5a15.24,15.24,0,0,0,.62-3.15c0-.4-.18-.59-.52-.59a5.17,5.17,0,0,0-1.21.28l-.22.06-.09-.86a14.45,14.45,0,0,1,4.2-1.05c.47,0,.64.15.64.52a19.19,19.19,0,0,1-.7,3.52l-.47,1.83a24.31,24.31,0,0,0-1,4.54.66.66,0,0,0,.71.74,6.11,6.11,0,0,0,1.7-.43l.06.86a14.64,14.64,0,0,1-4.27,1.12Z"/><path d="M374,157.41l-2.57-.06-1.29,6.34a13.12,13.12,0,0,0-.38,2.34c0,.43.22.68.62.68a7,7,0,0,0,1.42-.34l.31-.09.09.9a13.74,13.74,0,0,1-4.16,1.08c-.66,0-1.06-.31-1.06-.9a10.33,10.33,0,0,1,.37-2.26c.28-1.08.5-2,.75-3.18l1-4.57-1.64,0,.21-1c2.11-.37,2.82-2,3.4-3.82l1.49-.31-.78,3.64,2.57,0-.31,1.54Z"/><path d="M383.5,153.62l-1-.81,3.76-4.26,2.78.68-5.56,4.39Zm-3.43,9.32c-.22,0-.49,0-.89,0a8.09,8.09,0,0,0-.13,1.48c0,1.58.56,2.41,1.63,2.41s2.23-.52,4.05-1.67l.34,1.05c-2.28,1.43-4,2.08-5.59,2.08-1.91,0-3-1.15-3-3.22,0-5.09,3.45-9.51,7.44-9.51,1.94,0,3.09.89,3.09,2.44,0,2.84-3,5-7,5Zm3.18-6.17c-1.48,0-3.05,2-3.82,5h.3c2.88,0,5-1.51,5-3.49a1.52,1.52,0,0,0-1.52-1.54Z"/><path d="M238.67,162.5a3.75,3.75,0,1,0-3.76-3.75,3.75,3.75,0,0,0,3.76,3.75Z"/><path d="M110,162.5a3.75,3.75,0,1,0-3.75-3.75A3.74,3.74,0,0,0,110,162.5Z"/><rect x="1.91" y="181.14" width="385.62" height="1.47"/><path d="M174.52,117.81c-.29,0-.59-.29-.29-.58l3.16-2.38-.21,0c-.3,0-.3-.3-.3-.59-3.82-.59-6.77,2.06-9.42,4.42-.59.29-1.19-.3-1.48-.3-4.41,1.48-7.65,5.3-12.07,7.07v-.59c-1.77.59-3.48,1.66-5.3,2.06-2.66.59-5,.3-7.37.3a114.61,114.61,0,0,0-12,2.18h35.33c4.07-4.61,8-9,13.19-12.79.3-.29.3-.88.6-1.18-1.48.6-2.37,1.78-3.84,2.36Z"/><path d="M387.54,129.42V0H249.17a13.94,13.94,0,0,1,5.65,4.71c.58.89,1.47,2.65.87,3.83-.58,1.47-.87,3.83-2.35,4.42a11,11,0,0,1-6.19.59,14.56,14.56,0,0,1-3.53-.59c4.42,1.77,8.54,3.83,11.49,8,.29.59,1.47.89,2.65.89.3,0,.3.59.3.88-.6.59-1.18.88-.89,1.77h.89c1.47-.59,1.18-3.54,3.24-2.65a3.33,3.33,0,0,1,1.18,4.41,31.78,31.78,0,0,1-3.54,2.95,2.47,2.47,0,0,0,0,2.06,9.09,9.09,0,0,1,1.47,3.53c.89,2.06,1.18,4.42,2.07,6.48,1.17,4.42,2.35,8.84,2.06,13.26,0,2.35-1.19,4.42-.3,6.77.59,2.36,2.06,4.12,3.24,6.19a45.13,45.13,0,0,1,3.24,4.71c1.77,2.94,5,5.89,3.54,9.43-.89,2.06-4.13,1.76-6.19,2.94-1.77,1.47-.29,3.83.59,5.3,1.47,2.65-1.77,4.42-3.83,5.3.58.89,1.77.59,2.06,1.18.29,1.48,1.77,2.36.89,3.83-1.18,1.77-4.72,2.65-2.95,5.3,1.18,2.06.42,4.35-.29,6.48-.89,2.65-3.24,3.83-5.3,4.42a12,12,0,0,1-5.61.29,4.16,4.16,0,0,0-1.76-.58c-5-.6-10-2.07-15-2.07a16.86,16.86,0,0,0-4.12,1.18,28,28,0,0,0-9.92,14.26Z"/><path d="M253.34,53.9c-1.74-.44-3.24,0-5,0a40.87,40.87,0,0,0-6.48,1.77,20.25,20.25,0,0,1,5.59-3c1.47-.29,3-1.18,4.42-1.18,1.76-.29,3.53-.88,5-.29s3.82.59,4.12,1.47c.59,1.77-.88,3.53-2.65,4.71-.29.59.89.89.89,1.48a2.11,2.11,0,0,1-1.78.88,10.93,10.93,0,0,0-1.77,1.77c.6,0,0,.88.6.88-1.18,1.47.59,4.42-1.18,5a13.16,13.16,0,0,1-6.77,0c1.17-.3,2.65.29,3.53-.89V65.38c0-.29-.3-.29-.59-.29a.91.91,0,0,1-.59.29,1.32,1.32,0,0,0-.88-1.17,5.07,5.07,0,0,1-4.42-1.77,4.15,4.15,0,0,1,2.65-.29c.88,0,.59-1.48,1.47-2.06h.89c1.76-2.36,5.29-3,5.89-5.31,0-.59-1.76-.59-3-.88Z"/><path d="M162,15.32c.89-3.54,3.24-6.49,5.59-9.43s5.85-4.36,9.08-5.89H1.91V129.42H90.1c2.61-3.83,8-3.49,12.15-5.42,1.47-.59,3.24.29,4.71,0a4.43,4.43,0,0,1,2.65.58c-2.8,1.53-5.36,3.25-7.91,4.84h15.54c1.67-.8,3.36-1.93,5-2.77a19.59,19.59,0,0,0-5.6,2.65c-.3,0-1.18.3-1.18-.29.3-.59,1.18-.89,1.77-1.48.29,0,.59,0,.59.3,9.42-7.37,22.38-5.6,33.28-9.43l2.65-1.77c1.48-.58,2.66-2.06,4.42-2.94a12.94,12.94,0,0,0,5-6.77,1.06,1.06,0,0,0-.29-.6,45.43,45.43,0,0,1-13,9.73c-6.18,3.24-13,2.65-19.44,3.53.3-.59.88-.59,1.48-.59,0-.88.58-1.18,1.18-1.76h.88c.29,0,.29-.6.58-.6.6,0,1.48-.29,1.18-.29-.88-1.18-2.64.89-4.12,0,.59-.59.3-1.47.88-1.77h1.18a2.06,2.06,0,0,1,.59-1.18c4.42-2.64,8.54-4.71,12.67-7.07-.89,0-1.48.89-2.36.3.59,0,0-.88.59-.88,3.24-.89,5.89-2.65,9.13-3.83-1.17,0-2.06.88-3.24,0,.59-.3.88-.89,1.76-.89v-.88c0-.29.31-.29.6-.29a1.09,1.09,0,0,1-.6-.3c.31-.59,1.18-.29,1.78-.88-.3,0-.89,0-.89-.3.89-1.18,2.35-1.47,3.83-1.76-.29-.59-1.17,0-1.17-.59,0-.3.29-.3.58-.3h-.58c-.6-.29-.31-.88-.31-1.18,1.77-2.06,1.77-4.71,2.66-7.06-.29,0-.59,0-.59-.3-2.94,3.24-7.66,4.42-12.08,5.6h-1.47a6,6,0,0,1-5-.3,20.86,20.86,0,0,1-2.94-2.35,34.26,34.26,0,0,0-7.37-3.54,66.35,66.35,0,0,0-22.67-3.24c3.24-1.76,6.81-1.91,10.31-2.94,5-1.48,9.72-3.24,15-3a10.06,10.06,0,0,0-2.95,0c-4.12-.29-8.25.89-12.67,1.77-2.94.59-5.59,1.77-8.54,2.36-1.76.59-2.64,2.35-4.71,2.06v-.89c3-3.53,6.48-7.07,11.19-7.36,5.3-.88,10.31,0,15.62.59a74.35,74.35,0,0,1,11.18,2.06c1.48,0,1.77,2.36,2.95,2.65,1.77.59,3.53,0,5.3,1.18,0-.59-.29-1.18,0-1.77,1.18-1.18,2.65.3,3.84-.29,2.35-1.47-2.07-4.13-3.25-6.19a1,1,0,0,1,.3-.59c2.35,2.06,4.12,4.42,7.07,5.89,1.47.6,5,1.48,4.42-.29-1.48-3.24-4.42-5.89-6.78-8.84V68.62c-.59,0-.59-.29-.89-.58V66.86c-1.18-.59-.87-1.77-1.47-2.65-.88-1.47-.29-3.54-.88-5.3a30.29,30.29,0,0,1-1.18-5c-.88-5-2.06-9.43-2.65-14.14-.59-5.59,3.24-10,5.89-15,2.06-3.53,4.42-7.07,8.25-9.42Zm-47.75,98.21c-.59,0-1.77.29-1.47-.3.29-1.47,2.35-1.47,3.52-2,.59-.3,1.48-.89,2.06-.59.59.88,1.47.59,2.06,1.17-1.76,1.77-4.12.89-6.17,1.77Zm-9.41-29.4c.29,0,.88,0,.88.3a2.87,2.87,0,0,1-2.35,2.94c2.35.59,4.7.59,7.06,1.76-.3.59-.89.29-1.18.29,1.47.88,3.23.3,4.7,1.47-.88.89-1.76,0-2.64,0,9.11,2.65,18.81,4.71,26.45,10.59-6.46,3.23-13.22,4.7-20.28,6.17a6.55,6.55,0,0,1-2.35-.29c0,.29,0,.88-.29.88a4.81,4.81,0,0,0-2.94.59c-1.18.58-2.94.88-3.83,0-.29-.3.89,0,1.18-.59h-2.35c-.3,0-.3-.3-.3-.59-1.47.29-3.23.88-4.7,1.18-2.06.58-3.82,2-6.17,2.64-3.23,1.18-5.88,3.82-9.41,5-.29,0-.29-.29-.29-.59.29-.88,1.47-1.17,2.05-2.06,0-.29,0-.59-.29-.59,2.35-3.23,5.59-5,8.53-7.64v-.88c.88-1.18,2.35-1.76,2.94-3.23a5.31,5.31,0,0,1,2.93-2.65c-.29-.29-.88-.29-.88-.88-1.17,0-2.35.59-3.52-.3a4.16,4.16,0,0,1,2-1,1.09,1.09,0,0,1-.78-.43c-.29-.59.57-1.25,1.47-1.47,1.18-.3,2.65-.3,3.53-1.18-2.06-.29-4.41.59-6.47-.59,1.47-3.82,3.82-7,7.35-8.82ZM91.06,89.72a3.61,3.61,0,0,1,2.36-2.65c.29,0,.29.3.29.59-.29.59-.62.65-.88,1.18A2.28,2.28,0,0,1,91.65,90c-.29,0-.59,0-.59-.29ZM109,72.38a1.08,1.08,0,0,1-.89-.3,1.06,1.06,0,0,0,.3-.88c-2.94,3.23-7.06,4.7-9.41,8.52-1.76,2.94-2.94,6.77-6.76,7.65-1.18.29.3-.88-.29-.59-9.12,5.58-15.58,12.34-22.64,20.28a1,1,0,0,1-.29-.59,90.23,90.23,0,0,0,9.4-15,40.42,40.42,0,0,0,10-8.23c5-5.29,10.29-10,16.46-12.93a11.35,11.35,0,0,1,7.64.29c-.88,1.18-2.35.88-3.52,1.77Z"/></g></g></svg>