<svg xmlns="http://www.w3.org/2000/svg" viewBox="0 0 271.48 209.19" style="fill: #FFF"><g id="Calque_2" data-name="Calque 2"><g id="Calque_1-2" data-name="Calque 1"><path d="M139.53,0S117.8,35.88,123.16,74c4.07,29,14.32,46.73,2.72,80.5,0,0,19.11-24.07,19.11-59.09C145,75.05,126.91,32.41,139.53,0Z"/><path d="M7.78,197.51c-.55-.3-1.13-.56-1.7-.84-1.71-.82-3.23-1.7-2.91-3.44a2.91,2.91,0,0,1,3.06-2.63,7.19,7.19,0,0,1,2.93.91c.49.25.81.45.81.45l.57-2.76a8.8,8.8,0,0,0-2.14-1.06c-1-.31-5.43-1.12-7.59,2.79-2.35,4.27.9,7,3.58,8.44l.06,0c2.19,1.17,4.88,2.18,4.46,4.48a3.25,3.25,0,0,1-3.48,2.57c-1.58,0-4.26-1.54-4.26-1.54l-.95,2.94a7.83,7.83,0,0,0,2.06,1c1.05.3,6.43,1.18,8.59-2.73C13.23,201.9,10.46,199,7.78,197.51Z"/><polygon points="42.01 191.44 51.35 191.44 51.35 188.46 38.9 188.46 38.9 208.69 51.35 208.69 51.35 205.71 42.01 205.71 42.01 199.62 48.57 199.62 48.57 196.64 42.01 196.64 42.01 191.44"/><path d="M83.83,188.46H78.71v20.23h2.92v-8.33h4.58s5.55,0,5.55-6.18C91.76,188.16,83.83,188.46,83.83,188.46Zm2.57,9.76H81.63v-7.39h3.29s4.33,0,4.33,3.7A3.63,3.63,0,0,1,86.4,198.22Z"/><polygon points="132.72 196.4 122.26 196.4 122.26 188.46 119.15 188.46 119.15 208.69 122.26 208.69 122.26 199.39 132.72 199.39 132.72 208.69 135.83 208.69 135.83 188.41 132.72 188.41 132.72 196.4"/><path d="M173.67,188.23a10.42,10.42,0,1,0,10.42,10.42A10.41,10.41,0,0,0,173.67,188.23Zm0,17.81a7.4,7.4,0,1,1,7.39-7.39A7.4,7.4,0,0,1,173.68,206Z"/><path d="M220.5,199.51s3.6-.84,3.6-5.52c0-6-6.82-5.53-6.82-5.53h-5.84v20.23h2.91v-8.81h3.09l6.25,8.81h3.4Zm-6.15-1.78v-6.9h3.31s3.93,0,3.93,3.7a3.32,3.32,0,0,1-2.57,3.2Z"/><path d="M264.25,188.39h-2.67l-7.14,20.3h2.67l1.72-4.9H267l1.8,4.9h2.67Zm-4.9,13.77,2.92-10H263l3.53,10Z"/></g></g></svg>