<?xml version="1.0" encoding="UTF-8"?>
<svg id="Calque_2" data-name="Calque 2" xmlns="http://www.w3.org/2000/svg" viewBox="0 0 283.46 70.74">
  <defs>
    <style>
      .cls-1 {
        fill: #fff;
      }
    </style>
  </defs>
  <g id="Calque_1-2" data-name="Calque 1">
    <g>
      <path class="cls-1" d="m80.51,29.99c2.97,0,5.38,2.42,5.38,5.38s-2.42,5.38-5.38,5.38c-.4,0-1.25-.15-1.27-.15-.27-.06-1.53-.32-2.41.04-1.2.49-2.05,1.67-2.05,3.04s.97,2.64,2.01,3.03c1.04.38,2.56.61,3.72.61,6.59,0,11.95-5.36,11.95-11.95s-5.36-11.95-11.95-11.95c-3.28,0-6.46,1.38-8.7,3.77,0,0-21.09,21.67-26.07,25.95-4.43,3.81-9.78,6.2-16.07,6.2s-12.42-2.49-16.95-7.02c-4.53-4.53-7.02-10.55-7.02-16.95,0-13.22,10.76-23.97,23.98-23.97,2.55,0,4.28.47,4.96.51,1.65.09,3-1.27,3-2.84,0-1.37-1.01-2.59-2.34-2.83,0,0-2.58-.54-5.62-.54C13.31,5.7,0,19.01,0,35.37c0,7.92,3.09,15.38,8.69,20.98,5.6,5.61,13.06,8.69,20.98,8.69s14.93-2.92,20.48-8.23l26.54-25.18c1.07-1.02,2.14-1.65,3.82-1.65Zm0,22.48c-2.7,0-3.85-.56-4.78-.56-1.81,0-3.28,1.47-3.28,3.28,0,1.4.96,2.72,2.23,3.11,1.27.38,3.55.74,5.83.74,13.05,0,23.66-10.61,23.66-23.66s-10.61-23.66-23.66-23.66c-6.38,0-12.57,2.64-17.01,7.24l-23.82,26.46c-2.68,2.67-6.23,4.14-10.01,4.14-7.82,0-14.18-6.36-14.18-14.18s6.37-14.18,14.19-14.18c1.83,0,2.4.35,3.18.35,1.36,0,2.77-1.16,2.77-2.85,0-1.35-.94-2.57-2.22-2.84-1.02-.22-2.52-.35-3.73-.35-10.96,0-19.88,8.92-19.88,19.88s8.92,19.88,19.88,19.88c9,0,13.99-5.77,14.78-6.59l23.25-24.61c3.25-3.67,7.92-5.78,12.8-5.78,9.43,0,17.09,7.67,17.09,17.09s-7.67,17.09-17.1,17.09Zm25.02-42.1c-6.68-6.68-15.56-10.36-25.01-10.36-11.23,0-21.91,5.44-28.56,14.53,0,0-17.91,22.4-18.8,23.53-.89,1.13-2.19,1.71-3.47,1.71-2.42,0-4.4-1.97-4.4-4.39s1.97-4.39,4.4-4.39c.45,0,.8.05,1.17.05,1.54,0,2.79-1.32,2.79-2.84,0-1.18-.82-2.96-3.61-2.96-5.97,0-10.44,4.57-10.44,10.14s4.53,10.09,10.09,10.09c2.84,0,5.53-1.19,7.44-3.28l20.65-24.45c5.52-7.09,13.81-11.16,22.75-11.16,7.69,0,14.93,3,20.37,8.44,5.44,5.44,8.44,12.68,8.44,20.37,0,15.88-12.93,28.81-28.81,28.81-4.5,0-5.98-.82-7.09-.82-1.87,0-3.36,1.47-3.36,3.31,0,1.37.81,2.54,2.14,3.07,1.14.46,5.54,1,8.31,1,19.5,0,35.37-15.87,35.37-35.37,0-9.45-3.68-18.33-10.36-25.01Z"/>
      <path class="cls-1" d="m155.5,34.76l-18.75-6.87c-.94-.36-1.61-1.27-1.61-2.34,0-1.38,1.12-2.5,2.5-2.5h20.35v-7.35h-20.56c-5.44,0-9.86,4.41-9.86,9.86,0,4.21,2.63,7.79,6.34,9.21l18.75,6.87c.95.34,1.61,1.27,1.61,2.34,0,1.38-1.12,2.5-2.5,2.5h-24.23v7.35h24.44c5.44,0,10.06-4.41,10.06-9.86,0-4.2-2.84-7.79-6.54-9.21Zm103.74,11.71c-1.38,0-2.5-1.12-2.5-2.5,0-1.07.66-2,1.61-2.34l18.75-6.87c3.71-1.42,6.34-5.01,6.34-9.21,0-5.44-4.41-9.86-9.86-9.86h-20.56v7.35h20.35c1.38,0,2.5,1.12,2.5,2.5,0,1.07-.67,1.98-1.61,2.34l-18.75,6.87c-3.7,1.42-6.54,5-6.54,9.21,0,5.44,4.62,9.86,10.06,9.86h24.43v-7.35h-24.23Zm-66.47-8.01c.02,5.78-3.48,8.76-8.84,8.76s-8.86-2.98-8.84-8.76V15.7h-8.01v23.3c0,8.52,6.17,15.33,16.85,15.33s16.85-6.81,16.85-15.33V15.7h-8.01v22.76Zm33.74-23.27c-11,0-19.7,8.76-19.7,19.57s8.7,19.57,19.7,19.57c6.81,0,12.34-2.82,16.35-7.62l-6.12-4.36c-2.79,3.24-6.16,5.07-10.23,5.07-5.67,0-10.41-4.24-11.6-9.91h30.7c.12-.86.2-1.86.2-2.75,0-10.8-8.29-19.57-19.29-19.57Zm-11.42,15.99c1.44-5.28,6-9.13,11.41-9.13s9.97,3.86,11.41,9.13h-22.82Z"/>
    </g>
  </g>
</svg>